<svg width="640" height="712" viewBox="0 0 640 712" fill="none" xmlns="http://www.w3.org/2000/svg">
<path d="M158.453 519.271H62V528.883H158.453V519.271Z" fill="url(#paint0_linear_1024_6250)"/>
<path d="M368.453 95.9997H280V102.611H368.453V95.9997Z" fill="url(#paint1_linear_1024_6250)"/>
<path d="M556.309 592.988H474.133V601.929H556.309V592.988Z" fill="url(#paint2_linear_1024_6250)"/>
<path d="M565.634 80.3064C565.634 80.3064 565.455 80.3064 565.634 80.3064L509 62.9997L452.545 80.3064H452.366C451.291 105.629 452.007 145.525 462.582 164.654C474.231 185.786 496.813 192.709 509 202C521.008 192.709 543.59 185.786 555.418 164.654C565.993 145.525 566.709 105.629 565.634 80.3064Z" fill="url(#paint3_linear_1024_6250)"/>
<path d="M474.412 449.082C474.412 429.251 486.28 413.082 505.755 413.082C520.056 413.082 529.49 422.234 529.49 438.099C529.49 457.93 517.926 474.099 498.147 474.099C483.845 473.794 474.412 464.947 474.412 449.082ZM572.091 414.302H591.87L496.017 524.439H475.934L572.091 414.302ZM513.666 439.014C513.666 430.167 509.71 426.2 504.233 426.2C494.191 426.2 490.235 438.404 490.235 448.167C490.235 457.014 494.191 460.98 499.669 460.98C509.71 460.98 513.666 448.777 513.666 439.014ZM538.619 500.947C538.619 481.116 550.486 465.252 569.961 465.252C584.263 465.252 594 474.404 594 490.269C594 510.1 582.437 525.964 562.658 525.964C548.052 525.964 538.619 516.811 538.619 500.947ZM578.177 490.879C578.177 482.031 574.221 478.065 568.744 478.065C558.702 478.065 554.442 490.574 554.442 500.337C554.442 509.184 558.398 513.15 563.875 513.15C573.917 513.15 578.177 500.642 578.177 490.879Z" fill="url(#paint4_linear_1024_6250)"/>
<path d="M201.706 76.6706H86.5879V83.7118H201.706V76.6706Z" fill="url(#paint5_linear_1024_6250)"/>
<path d="M546.054 263.318H540.354V322.329H546.054V263.318Z" fill="url(#paint6_linear_1024_6250)"/>
<path d="M109.646 268.451C110.1 269.817 111.008 271.183 112.371 272.094C113.28 273.004 115.097 273.915 116.46 274.826C118.277 275.281 120.094 275.736 122.365 275.736C124.182 275.736 125.999 275.281 128.271 274.826C130.088 274.37 131.905 273.46 133.268 272.094C134.63 270.728 135.993 268.906 136.902 266.63C137.81 264.353 138.265 261.621 138.265 258.434H158.707C158.707 263.898 157.798 268.906 155.981 273.004C154.164 277.102 151.893 280.29 149.167 283.022C146.441 285.754 143.262 287.575 139.627 288.941C135.993 290.307 132.359 291.218 128.271 291.673V305.789H116.914V291.673C112.825 291.218 108.737 290.307 105.557 288.941C101.923 287.575 99.1974 285.754 96.4718 283.022C94.2004 280.745 91.9291 277.558 90.5663 274.37C89.2035 271.183 88.7492 267.54 88.7492 262.987C88.7492 258.434 89.6578 254.336 91.0206 251.148C92.3834 247.961 94.6547 244.773 97.3803 242.497C100.106 239.765 103.286 237.943 106.92 235.667C110.554 233.845 114.643 232.024 119.185 230.203C121.911 229.292 124.182 227.926 126.454 227.015C128.271 226.105 130.088 224.739 130.996 223.828C132.359 222.462 132.813 221.096 133.268 219.73C133.722 218.364 134.176 216.543 134.176 215.177C134.176 213.355 133.722 211.989 133.268 210.168C132.813 208.802 131.905 207.436 130.996 206.07C130.088 205.159 128.725 204.248 127.362 203.338C125.999 202.882 124.182 202.427 121.911 202.427C117.822 202.427 115.097 203.793 112.371 206.525C110.1 209.257 108.737 213.355 108.737 219.275H88.2949C88.2949 214.721 88.7492 210.168 90.112 206.525C91.4748 202.882 93.2919 199.24 95.5633 196.508C97.8346 193.776 100.56 191.499 104.194 189.678C107.374 187.856 111.008 186.946 115.097 186.035V170.553H126.454V185.58C130.542 186.035 134.63 186.946 137.81 188.312C141.444 189.678 144.17 191.954 146.441 194.231C148.713 196.508 150.984 199.695 151.893 202.882C153.255 206.07 153.71 209.712 153.71 213.81C153.71 218.364 152.801 222.462 151.438 225.649C150.076 228.837 147.804 232.024 145.079 234.301C142.353 237.033 139.173 238.854 135.539 241.131C131.905 242.952 127.362 244.773 122.819 246.595C120.094 247.505 117.822 248.416 116.005 249.782C114.188 250.693 112.826 252.059 111.463 252.97C110.1 254.336 109.646 255.702 108.737 257.068C108.283 258.434 107.829 260.255 107.829 262.532C108.737 265.264 109.191 267.085 109.646 268.451Z" fill="url(#paint7_linear_1024_6250)"/>
<path d="M86.5879 361.14L86.5879 455.134L91.9526 455.134L91.9526 361.14L86.5879 361.14Z" fill="url(#paint8_linear_1024_6250)"/>
<defs>
<linearGradient id="paint0_linear_1024_6250" x1="61.9709" y1="524.05" x2="158.429" y2="524.05" gradientUnits="userSpaceOnUse">
<stop stop-color="#FFA84C"/>
<stop offset="0.2951" stop-color="#FFB84C"/>
<stop offset="0.6567" stop-color="#FFC54C"/>
<stop offset="1" stop-color="#FFC94C"/>
</linearGradient>
<linearGradient id="paint1_linear_1024_6250" x1="279.973" y1="99.2867" x2="368.431" y2="99.2867" gradientUnits="userSpaceOnUse">
<stop stop-color="#FFA84C"/>
<stop offset="0.2951" stop-color="#FFB84C"/>
<stop offset="0.6567" stop-color="#FFC54C"/>
<stop offset="1" stop-color="#FFC94C"/>
</linearGradient>
<linearGradient id="paint2_linear_1024_6250" x1="474.102" y1="597.441" x2="556.279" y2="597.441" gradientUnits="userSpaceOnUse">
<stop stop-color="#00BF97"/>
<stop offset="1" stop-color="#51F895"/>
</linearGradient>
<linearGradient id="paint3_linear_1024_6250" x1="461.727" y1="166.724" x2="557.668" y2="72.3388" gradientUnits="userSpaceOnUse">
<stop stop-color="#3487F8"/>
<stop offset="0.575" stop-color="#6474EE"/>
<stop offset="1" stop-color="#8367E7"/>
</linearGradient>
<linearGradient id="paint4_linear_1024_6250" x1="598.976" y1="532.299" x2="425.326" y2="365.073" gradientUnits="userSpaceOnUse">
<stop stop-color="#C251CA"/>
<stop offset="1" stop-color="#FF4860"/>
</linearGradient>
<linearGradient id="paint5_linear_1024_6250" x1="86.5998" y1="80.2647" x2="201.764" y2="80.2647" gradientUnits="userSpaceOnUse">
<stop stop-color="#3487F8"/>
<stop offset="1" stop-color="#8FBEFF"/>
</linearGradient>
<linearGradient id="paint6_linear_1024_6250" x1="558.855" y1="325.905" x2="524.58" y2="253.63" gradientUnits="userSpaceOnUse">
<stop stop-color="#00BF97"/>
<stop offset="1" stop-color="#51F895"/>
</linearGradient>
<linearGradient id="paint7_linear_1024_6250" x1="185.724" y1="303.047" x2="41.793" y2="159.453" gradientUnits="userSpaceOnUse">
<stop stop-color="#FF9B30"/>
<stop offset="1" stop-color="#FFC94C"/>
</linearGradient>
<linearGradient id="paint8_linear_1024_6250" x1="89.1931" y1="455.096" x2="89.1931" y2="361.048" gradientUnits="userSpaceOnUse">
<stop stop-color="#FF55DE"/>
<stop offset="1" stop-color="#8FBEFF"/>
</linearGradient>
</defs>
</svg>
