<svg width="640" height="712" viewBox="0 0 640 712" fill="none" xmlns="http://www.w3.org/2000/svg">
<path d="M385 356H640C627.384 319.556 609.588 319.115 569.27 334.321C556.241 251.218 511.569 278.318 474.343 337.934C441.138 303.165 420.985 321.764 385 356Z" fill="white"/>
<path d="M64 95H318C305.433 57.1918 287.708 56.7339 247.547 72.5095C231.814 7.61807 188.109 29.5767 152.993 76.2579C119.918 40.187 99.8436 59.4817 64 95Z" fill="white"/>
<path d="M569 120H420C427.372 97.8912 447.591 97.6229 471.149 106.848C488.384 75.9025 502.811 81.7428 523.41 109.04C542.813 87.9473 547.974 99.2302 569 120Z" fill="#9ACFE3"/>
<path d="M244 495H63C71.9551 461.65 91.974 461.246 120.592 475.162C150.046 436.442 165.935 440.526 193.513 478.468C217.082 446.651 218.458 463.67 244 495Z" fill="white"/>
<path d="M363 48H450C445.696 31.68 436.073 31.4823 422.318 38.2919C408.16 19.3438 400.523 21.3426 387.267 39.9099C375.939 24.3398 375.277 32.6684 363 48Z" fill="#9ACFE3"/>
<path d="M47 180H112C108.784 167.937 101.595 167.791 91.3177 172.824C80.7405 158.819 75.0344 160.297 65.1309 174.02C56.6668 162.512 56.1726 168.668 47 180Z" fill="white"/>
<path d="M246 327H0C12.1711 282.297 39.3791 281.756 78.2744 300.408C118.305 248.507 139.901 253.982 177.382 304.84C209.415 262.191 211.285 285.005 246 327Z" fill="#9ACFE3"/>
<path d="M592 490H397C406.648 460.451 420.256 460.093 451.088 472.422C486.463 413.171 520.155 435.082 523.679 475.352C555.506 454.698 571.869 470.526 591.624 489.637L592 490Z" fill="#93B1C1"/>
</svg>
