<svg width="640" height="712" viewBox="0 0 640 712" fill="none" xmlns="http://www.w3.org/2000/svg">
<path opacity="0.5" d="M28 262L91 296.641L91 227.359L28 262Z" fill="#79AAE6"/>
<path opacity="0.4" d="M485 352.5L575 401.43L575 303.57L485 352.5Z" fill="#79AAE6"/>
<path d="M179 397.5L66.5 457.689L66.5 337.311L179 397.5Z" fill="#63BFE5"/>
<path d="M598 460L531.25 496.373L531.25 423.627L598 460Z" fill="#6DCCED"/>
<path d="M443 626.5L403.25 648.584L403.25 604.416L443 626.5Z" fill="#6DCCED"/>
<path d="M579 567.5L553.5 581.789L553.5 553.211L579 567.5Z" fill="#6DCCED"/>
<path d="M53 187.5L78.5 201.789L78.5 173.211L53 187.5Z" fill="#6DCCED"/>
<path opacity="0.5" d="M459 568L523.5 603.507L523.5 532.493L459 568Z" fill="#79AAE6"/>
<path opacity="0.5" d="M64 129L154.75 177.497L154.75 80.5026L64 129Z" fill="#79AAE6"/>
<path d="M395 122.5L317.75 165.368L317.75 79.6317L395 122.5Z" fill="#79AAE6"/>
<path d="M598 230.5L544 259.512L544 201.488L598 230.5Z" fill="#79AAE6"/>
<path opacity="0.3" d="M86 518.5L140 547.512L140 489.488L86 518.5Z" fill="#79AAE6"/>
<path d="M227 73L262.25 92.0526L262.25 53.9474L227 73Z" fill="#63BFE5"/>
<path opacity="0.3" d="M535 103L449.5 148.899L449.5 57.1007L535 103Z" fill="#63BFE5"/>
</svg>
