<svg width="64" height="61" viewBox="0 0 64 61" fill="none" xmlns="http://www.w3.org/2000/svg">
<path d="M33.875 49.51L32 48.6875L30.125 49.51C28.5295 50.0759 27.2634 51.342 26.6975 52.9375L25.25 54.8125L26.6975 56.6875C27.4715 58.8698 29.5556 60.4375 32 60.4375C34.4444 60.4375 36.5285 58.8698 37.3025 56.6875L39 54.8125L37.3025 52.9375C36.7366 51.342 35.4705 50.0759 33.875 49.51ZM51.9381 15.8431C49.5919 6.84075 41.4092 0.4375 32 0.4375C22.5907 0.4375 14.4083 6.84087 12.0618 15.8431C5.09863 17.2751 0 23.3315 0 30.4375C0 38.7085 6.785 45.4375 15.125 45.4375H30.125L31.875 47.3125L33.875 45.4375H48.875C57.215 45.4375 64 38.7085 64 30.4375C64 23.3315 58.9014 17.2751 51.9381 15.8431Z" fill="url(#paint0_linear)"/>
<path d="M33.875 49.51L32 48.6875L30.125 49.51C28.5295 50.0759 27.2634 51.342 26.6975 52.9375L25.25 54.8125L26.6975 56.6875C27.4715 58.8698 29.5556 60.4375 32 60.4375C34.4444 60.4375 36.5285 58.8698 37.3025 56.6875L39 54.8125L37.3025 52.9375C36.7366 51.342 35.4705 50.0759 33.875 49.51ZM51.9381 15.8431C49.5919 6.84075 41.4092 0.4375 32 0.4375C22.5907 0.4375 14.4083 6.84087 12.0618 15.8431C5.09863 17.2751 0 23.3315 0 30.4375C0 38.7085 6.785 45.4375 15.125 45.4375H30.125L31.875 47.3125L33.875 45.4375H48.875C57.215 45.4375 64 38.7085 64 30.4375C64 23.3315 58.9014 17.2751 51.9381 15.8431Z" fill="url(#paint1_radial)" fill-opacity="0.8"/>
<path d="M33.875 49.51L32 48.6875L30.125 49.51C28.5295 50.0759 27.2634 51.342 26.6975 52.9375L25.25 54.8125L26.6975 56.6875C27.4715 58.8698 29.5556 60.4375 32 60.4375C34.4444 60.4375 36.5285 58.8698 37.3025 56.6875L39 54.8125L37.3025 52.9375C36.7366 51.342 35.4705 50.0759 33.875 49.51ZM51.9381 15.8431C49.5919 6.84075 41.4092 0.4375 32 0.4375C22.5907 0.4375 14.4083 6.84087 12.0618 15.8431C5.09863 17.2751 0 23.3315 0 30.4375C0 38.7085 6.785 45.4375 15.125 45.4375H30.125L31.875 47.3125L33.875 45.4375H48.875C57.215 45.4375 64 38.7085 64 30.4375C64 23.3315 58.9014 17.2751 51.9381 15.8431Z" fill="url(#paint2_radial)" fill-opacity="0.8"/>
<path d="M33.875 49.51L32 48.6875L30.125 49.51C28.5295 50.0759 27.2634 51.342 26.6975 52.9375L25.25 54.8125L26.6975 56.6875C27.4715 58.8698 29.5556 60.4375 32 60.4375C34.4444 60.4375 36.5285 58.8698 37.3025 56.6875L39 54.8125L37.3025 52.9375C36.7366 51.342 35.4705 50.0759 33.875 49.51ZM51.9381 15.8431C49.5919 6.84075 41.4092 0.4375 32 0.4375C22.5907 0.4375 14.4083 6.84087 12.0618 15.8431C5.09863 17.2751 0 23.3315 0 30.4375C0 38.7085 6.785 45.4375 15.125 45.4375H30.125L31.875 47.3125L33.875 45.4375H48.875C57.215 45.4375 64 38.7085 64 30.4375C64 23.3315 58.9014 17.2751 51.9381 15.8431Z" fill="url(#paint3_radial)" fill-opacity="0.8"/>
<path d="M13.25 52.9375C12.2145 52.9375 11.375 53.777 11.375 54.8125C11.375 55.848 12.2145 56.6875 13.25 56.6875H26.6975C26.4894 56.1006 26.375 55.4697 26.375 54.8125C26.375 54.1553 26.4894 53.5244 26.6975 52.9375H13.25ZM30.125 49.51C30.7119 49.3019 31.3426 49.1875 32 49.1875C32.6574 49.1875 33.2881 49.3019 33.875 49.51V45.4375H30.125V49.51ZM50.75 52.9375H37.3025C37.5106 53.5244 37.625 54.1553 37.625 54.8125C37.625 55.4697 37.5106 56.1006 37.3025 56.6875H50.75C51.7855 56.6875 52.625 55.848 52.625 54.8125C52.625 53.777 51.7855 52.9375 50.75 52.9375ZM24.5 34.1875H39.5C40.5355 34.1875 41.375 33.348 41.375 32.3125V28.5625C41.375 27.527 40.5355 26.6875 39.5 26.6875C38.4645 26.6875 37.625 27.527 37.625 28.5625V30.4375H26.375V28.5625C26.375 27.527 25.5355 26.6875 24.5 26.6875C23.4645 26.6875 22.625 27.527 22.625 28.5625V32.3125C22.625 33.348 23.4645 34.1875 24.5 34.1875ZM30.6742 26.1383C31.0402 26.5045 31.5201 26.6875 32 26.6875C32.4799 26.6875 32.9597 26.5045 33.3257 26.1383L37.0757 22.3883C37.808 21.656 37.808 20.4689 37.0757 19.7366C36.3436 19.0044 35.1564 19.0044 34.4241 19.7366L33.875 20.2859V13.5625C33.875 12.527 33.0355 11.6875 32 11.6875C30.9645 11.6875 30.125 12.527 30.125 13.5625V20.2859L29.5758 19.7366C28.8436 19.0044 27.6564 19.0044 26.9241 19.7366C26.1919 20.4689 26.1919 21.656 26.9241 22.3883L30.6742 26.1383Z" fill="#BBC1FF"/>
<defs>
<linearGradient id="paint0_linear" x1="64" y1="-5.86685" x2="8.98114" y2="69.0889" gradientUnits="userSpaceOnUse">
<stop stop-color="#7041EE"/>
<stop offset="0.527788" stop-color="#8D41EE"/>
<stop offset="1" stop-color="#D641EE"/>
</linearGradient>
<radialGradient id="paint1_radial" cx="0" cy="0" r="1" gradientUnits="userSpaceOnUse" gradientTransform="translate(17.3559 -12.606) rotate(96.5654) scale(73.5257 130.525)">
<stop stop-color="#52B6FF"/>
<stop offset="1" stop-color="#8F41EE" stop-opacity="0"/>
</radialGradient>
<radialGradient id="paint2_radial" cx="0" cy="0" r="1" gradientUnits="userSpaceOnUse" gradientTransform="translate(17.0847 3.91576) rotate(60.6475) scale(30.4281 90.4482)">
<stop stop-color="#9DD6FF"/>
<stop offset="1" stop-color="#8F41EE" stop-opacity="0"/>
</radialGradient>
<radialGradient id="paint3_radial" cx="0" cy="0" r="1" gradientUnits="userSpaceOnUse" gradientTransform="translate(94.3729 46.3071) rotate(146.06) scale(52.9541 71.2143)">
<stop stop-color="#5263FF"/>
<stop offset="1" stop-color="#8F41EE" stop-opacity="0"/>
</radialGradient>
</defs>
</svg>
