<svg width="200" height="199" viewBox="0 0 200 199" fill="none" xmlns="http://www.w3.org/2000/svg">
<path d="M39.4287 188.712C36.075 184.023 35.5473 178.332 37.772 171.913C39.9975 165.492 44.9405 158.473 52.2636 151.289C66.9034 136.926 90.8438 122.108 120.638 110.3C150.432 98.4919 180.312 91.9789 204.492 90.9563C216.587 90.4448 227.17 91.311 235.568 93.5215C243.964 95.7312 250.011 99.2344 253.365 103.924C256.719 108.613 257.246 114.304 255.022 120.723C252.796 127.144 247.853 134.163 240.53 141.348C225.89 155.711 201.95 170.528 172.156 182.336C142.361 194.144 112.482 200.657 88.3017 201.68C76.2062 202.191 65.6238 201.325 57.2255 199.115C48.83 196.905 42.7824 193.402 39.4287 188.712Z" stroke="#3959FF" stroke-width="3"/>
<path d="M103.863 253.16C99.1737 249.807 95.6707 243.759 93.4614 235.364C91.2513 226.966 90.3859 216.384 90.8984 204.29C91.9229 180.11 98.4388 150.233 110.25 120.44C122.062 90.6468 136.882 66.7074 151.248 52.0681C158.434 44.7453 165.454 39.8024 171.876 37.577C178.295 35.3523 183.987 35.8798 188.676 39.2333C193.366 42.5868 196.869 48.634 199.078 57.0291C201.288 65.427 202.153 76.0088 201.641 88.1037C200.616 112.283 194.101 142.161 182.289 171.954C170.477 201.746 155.657 225.686 141.292 240.325C134.106 247.648 127.085 252.591 120.664 254.816C114.244 257.041 108.553 256.513 103.863 253.16Z" stroke="#3959FF" stroke-width="3"/>
</svg>
