<svg width="210" height="215" viewBox="0 0 210 215" fill="none" xmlns="http://www.w3.org/2000/svg">
<path d="M147.211 54.3812C160.837 43.5499 176.468 46.698 190.8 61.4298C205.088 76.115 217.822 102.089 225.544 135.917C233.266 169.745 234.481 204.876 230.257 234.276C226.02 263.769 216.407 286.983 202.781 297.815C189.154 308.646 173.523 305.498 159.191 290.766C144.903 276.081 132.169 250.107 124.447 216.279C116.725 182.451 115.51 147.32 119.734 117.92C123.972 88.4269 133.585 65.2125 147.211 54.3812Z" stroke="#67EACA" stroke-width="3"/>
<path d="M53.4799 148.071C64.3106 134.445 87.5238 124.834 117.015 120.6C146.414 116.38 181.543 117.6 215.37 125.329C249.196 133.058 275.169 145.798 289.854 160.09C304.585 174.427 307.733 190.061 296.903 203.688C286.072 217.314 262.859 226.925 233.367 231.159C203.969 235.379 168.839 234.159 135.013 226.43C101.187 218.702 75.2134 205.961 60.5287 191.669C45.7974 177.332 42.6493 161.698 53.4799 148.071Z" stroke="#67EACA" stroke-width="3"/>
</svg>
