<svg width="223" height="234" viewBox="0 0 223 234" fill="none" xmlns="http://www.w3.org/2000/svg">
<path d="M346.088 369.902C339.966 377.34 331.062 380.561 319.982 379.754C308.9 378.947 295.778 374.113 281.447 365.658C252.794 348.753 219.562 317.523 188.594 275.937C157.627 234.352 134.869 190.394 123.082 152.993C117.187 134.288 114.063 117.305 113.986 103.126C113.908 88.9506 116.871 77.7512 122.992 70.3128C129.114 62.8744 138.018 59.654 149.098 60.4608C160.18 61.2678 173.302 66.1018 187.633 74.5567C216.286 91.462 249.518 122.692 280.486 164.278C311.453 205.863 334.211 249.82 345.998 287.221C351.893 305.927 355.017 322.909 355.094 337.088C355.172 351.264 352.209 362.463 346.088 369.902Z" stroke="#FECD5A" stroke-width="3"/>
<path d="M419.889 242.076C416.508 251.096 408.29 259.262 395.975 266.283C383.657 273.305 367.388 279.091 348.241 283.338C309.957 291.831 260.51 294.101 209.012 288.075C157.515 282.049 113.853 268.885 84.8852 252.523C70.3977 244.339 59.6504 235.392 53.4105 226.199C47.1719 217.007 45.5087 207.685 48.8898 198.664C52.2708 189.644 60.4885 181.478 72.804 174.458C85.1218 167.435 101.391 161.65 120.538 157.402C158.822 148.909 208.269 146.639 259.766 152.665C311.264 158.691 354.926 171.856 383.894 188.218C398.381 196.401 409.128 205.348 415.368 214.542C421.607 223.734 423.27 233.055 419.889 242.076Z" stroke="#FECD5A" stroke-width="3"/>
</svg>
