<svg width="271" height="252" viewBox="0 0 271 252" fill="none" xmlns="http://www.w3.org/2000/svg">
<path d="M54.0215 219.523C44.8325 198.403 54.1685 179.656 77.5578 166.575C100.892 153.525 137.933 146.309 183.177 148.102C228.421 149.895 273.151 160.352 308.859 175.743C344.652 191.169 370.915 211.327 380.103 232.447C389.292 253.567 379.956 272.314 356.567 285.395C333.233 298.445 296.192 305.661 250.948 303.868C205.704 302.075 160.974 291.618 125.266 276.228C89.4735 260.801 63.2105 240.643 54.0215 219.523Z" stroke="#07BC7C" stroke-width="3"/>
<path d="M140.979 370.093C127.284 351.574 122.956 318.749 127.489 280.036C132.011 241.415 145.315 197.445 166.378 157.363C187.44 117.281 212.205 88.8072 235.169 75.1228C258.187 61.4059 279.088 62.6934 292.783 81.2118C306.478 99.7302 310.806 132.555 306.273 171.268C301.751 209.89 288.447 253.859 267.384 293.941C246.321 334.024 221.557 362.497 198.593 376.181C175.574 389.898 154.674 388.611 140.979 370.093Z" stroke="#07BC7C" stroke-width="3"/>
</svg>
