<svg width="277" height="314" viewBox="0 0 277 314" fill="none" xmlns="http://www.w3.org/2000/svg">
<path d="M17.6576 238.328C23.1768 226.776 25.8339 214.065 25.4043 201.269C18.6098 200.5 11.9554 208.752 9.79653 221.388L16.4981 223.679L9.43433 224.024C8.98299 228.105 8.96089 232.222 9.36838 236.308C9.28429 238.415 9.06459 240.514 8.71064 242.593L14.0863 242.303L8.4256 244.167C7.56639 249.499 5.44987 254.55 2.25115 258.902C7.15848 257.021 11.8208 254.554 16.1369 251.555L16.8367 246.258L18.2333 250.069C22.592 246.854 26.4425 243.001 29.6558 238.641L26.9427 234.081L31.0658 236.564C32.9497 233.618 34.4335 230.435 35.4782 227.097C35.9933 225.419 36.4055 223.712 36.7122 221.983L30.1742 218.073L37.0884 218.791C37.6698 209.636 33.5387 204.064 28.4349 202.058C30.0032 219.282 17.6576 238.328 17.6576 238.328Z" fill="white"/>
<path d="M65.2209 174.762C63.3508 162.097 58.4591 150.067 50.9592 139.69C44.8927 142.845 43.979 153.408 49.2415 165.096L56.0805 163.255L50.413 167.485C52.3167 171.123 54.5967 174.551 57.2155 177.713C58.3221 179.509 59.3119 181.373 60.1789 183.296L64.4765 180.053L60.8209 184.76C63.0848 189.664 64.1485 195.036 63.9241 200.433C66.9453 196.132 69.4363 191.483 71.3432 186.585L68.9666 181.8L72.2529 184.182C74.0741 179.081 75.1181 173.735 75.3499 168.324L70.5536 166.055L75.3604 165.813C75.2787 162.317 74.7326 158.848 73.7362 155.496C73.227 153.816 72.6155 152.169 71.9052 150.564L64.2977 150.969L70.4354 147.706C65.8064 139.785 59.2688 137.469 53.9143 138.654C64.8311 152.068 65.2209 174.762 65.2209 174.762Z" fill="white"/>
<path d="M212.229 142.045C199.932 149.163 189.528 159.136 181.898 171.122C187.638 176.087 198.906 172.702 208.805 162.486L204.105 156.187L210.79 160.299C213.762 156.845 216.364 153.09 218.552 149.093C219.951 147.216 221.468 145.431 223.096 143.75L217.991 140.645L224.344 142.488C228.474 138.144 233.579 134.846 239.237 132.867C233.564 131.512 227.748 130.848 221.915 130.887L217.953 135.299L219.064 130.933C213.057 131.145 207.115 132.258 201.439 134.236L201.064 140.112L198.846 135.253C195.273 136.77 191.918 138.754 188.869 141.155C187.346 142.369 185.897 143.674 184.533 145.064L188.067 152.744L182.187 147.751C175.914 155.77 176.203 163.462 179.618 168.499C188.982 151.744 212.229 142.045 212.229 142.045Z" fill="white"/>
<path d="M99.0265 229.222C109.335 227.623 119.109 223.572 127.526 217.41C125.023 212.485 116.42 211.749 106.872 216.145L108.396 221.667L104.935 217.097C101.987 218.667 99.2143 220.545 96.6637 222.701C95.1821 223.632 93.6416 224.466 92.0521 225.198L94.7214 228.673L90.8794 225.726C86.9139 227.615 82.5524 228.522 78.1628 228.371C81.6735 230.815 85.47 232.82 89.4678 234.342L93.3167 232.366L91.4111 235.055C95.5654 236.511 99.9169 237.326 104.316 237.474L106.128 233.58L106.344 237.486C109.153 237.367 111.936 236.878 114.618 236.032C115.981 235.606 117.318 235.098 118.62 234.511L118.29 228.316L121.083 233.308C127.481 229.5 129.314 224.182 128.366 219.808C117.454 228.79 99.0265 229.222 99.0265 229.222Z" fill="white"/>
<path d="M241.003 178.595C246.514 167.006 249.17 154.265 248.748 141.439C241.953 140.67 235.299 148.923 233.14 161.558L239.818 163.849L232.754 164.195C232.311 168.277 232.297 172.394 232.712 176.478C232.632 178.627 232.405 180.767 232.032 182.885L237.432 182.594L231.771 184.458C230.903 189.792 228.779 194.843 225.573 199.194C230.489 197.315 235.16 194.848 239.483 191.846L240.158 186.549L241.579 190.36C245.938 187.145 249.788 183.292 253.002 178.932L250.289 174.373L254.388 176.856C256.271 173.91 257.755 170.726 258.8 167.389C259.338 165.717 259.75 164.008 260.034 162.275L253.519 158.291L260.433 159.01C261.014 149.854 256.859 144.284 251.779 142.277C253.349 159.549 241.003 178.595 241.003 178.595Z" fill="white"/>
<path d="M130.738 72.8867C132.604 94.145 139.533 114.647 150.946 132.679C161.334 128.056 163.919 110.617 156.367 90.685L144.864 93.027L154.699 86.5789C151.894 80.3543 148.445 74.4408 144.408 68.9354C142.712 65.7878 141.234 62.5278 139.984 59.1782L132.488 64.1461L139.032 56.7031C135.782 48.3249 134.571 39.2937 135.501 30.3554C130.036 37.1909 125.419 44.6635 121.752 52.6098L125.246 60.7724L119.999 56.5065C116.46 64.7891 114.186 73.5566 113.254 82.5152L120.985 86.7651L113.017 86.6594C112.799 92.4703 113.354 98.2845 114.669 103.949C115.307 106.798 116.156 109.596 117.209 112.32L129.906 112.54L119.388 117.336C126.27 130.952 136.921 135.436 145.894 134.033C129.09 110.594 130.738 72.8867 130.738 72.8867Z" fill="white"/>
<path d="M179.712 101.222C178.506 88.9723 174.384 77.1897 167.691 66.8599C161.728 69.5898 160.344 79.6634 164.822 91.1133L171.442 89.6922L165.809 93.4713C167.465 97.0442 169.49 100.434 171.852 103.584C172.85 105.389 173.722 107.261 174.464 109.185L178.756 106.274L175.028 110.607C176.954 115.419 177.707 120.62 177.226 125.781C180.336 121.805 182.953 117.467 185.019 112.862L182.954 108.175L186.007 110.603C187.997 105.805 189.255 100.734 189.738 95.5614L185.252 93.1576L189.849 93.1698C189.939 89.8169 189.583 86.467 188.79 83.208C188.405 81.5685 187.898 79.9599 187.274 78.3956L179.95 78.3462L185.986 75.5156C181.934 67.705 175.763 65.1837 170.597 66.0482C180.432 79.4639 179.712 101.222 179.712 101.222Z" fill="white"/>
<path d="M38.7446 37.0579C46.1011 52.2001 56.9856 65.3547 70.4831 75.4156C76.7937 69.0885 73.9464 55.6068 62.6433 42.9711L54.8077 47.9236L60.2612 40.4234C56.4457 36.626 52.2436 33.238 47.7234 30.3146C45.5835 28.467 43.5675 26.4807 41.6883 24.3685L37.6475 30.1844L40.3703 22.8327C35.6071 17.5829 32.1611 11.2754 30.3167 4.43094C28.2684 10.9763 26.9939 17.7391 26.5192 24.5811L31.3232 29.686L26.2879 28.0212C25.9962 35.1094 26.7894 42.2006 28.6399 49.0492L35.5257 50.0185L29.6175 52.1882C31.092 56.5206 33.1412 60.6355 35.7102 64.4229C36.9969 66.3095 38.3931 68.1192 39.8916 69.8425L49.1439 66.3651L42.7459 72.8819C51.6452 80.9433 60.6811 81.3728 66.8614 77.7098C48.1387 65.2829 38.7446 37.0579 38.7446 37.0579Z" fill="white"/>
<path d="M-0.98529 175.206C-5.67772 163.256 -7.43514 150.354 -6.11005 137.584C0.737936 137.315 6.80544 145.867 8.05348 158.754L1.23361 160.567L8.24652 161.405C8.41164 165.513 8.13871 169.627 7.43235 173.677C7.34212 175.825 7.38127 177.975 7.54959 180.118L2.2046 179.443L7.72418 181.756C8.19794 187.141 9.94677 192.337 12.8261 196.913C8.05084 194.684 3.56048 191.89 -0.548605 188.59L-0.838627 183.263L-2.50865 186.961C-6.64857 183.47 -10.2234 179.359 -13.1063 174.775L-9.92585 170.543L-14.205 172.744C-15.8831 169.675 -17.1438 166.395 -17.9538 162.991C-18.3544 161.288 -18.6437 159.56 -18.8201 157.819L-12.0318 154.269L-18.9767 154.516C-18.9265 145.346 -14.4158 139.955 -9.15992 138.388C-11.9621 155.45 -0.98529 175.206 -0.98529 175.206Z" fill="white"/>
<path d="M200.541 193.423C187.721 194.267 174.886 192.018 163.117 186.865C164.903 180.27 175.002 176.997 187.551 179.737L187.246 186.812L190.169 180.365C194.132 181.456 197.969 182.963 201.616 184.862C203.64 185.563 205.705 186.138 207.8 186.583L205.476 191.451L209.277 186.846C214.554 188.03 220.039 187.931 225.27 186.554C221.739 190.432 217.75 193.868 213.391 196.785L208.229 195.527L211.246 198.247C206.65 201.118 201.645 203.276 196.402 204.646L193.168 200.627L193.955 205.439C190.528 206.11 187.026 206.32 183.542 206.063C181.795 205.919 180.058 205.668 178.341 205.313L177.021 197.784L175.165 204.478C166.426 201.645 162.796 195.751 162.84 190.224C178.278 197.906 200.541 193.423 200.541 193.423Z" fill="white"/>
<path d="M108.139 169.069C108.532 181.904 105.843 194.646 100.297 206.227C93.7688 204.174 90.9305 194.067 94.0806 181.535L101.137 182.106L94.8055 178.939C96.0283 175.022 97.6664 171.247 99.6919 167.678C100.485 165.678 101.141 163.627 101.655 161.538L106.524 163.862L102.084 159.889C103.438 154.651 103.528 149.166 102.347 143.886C106.129 147.575 109.446 151.712 112.224 156.206L110.7 161.325L113.378 158.646C116.1 163.328 118.081 168.404 119.25 173.693L114.939 176.787L119.753 176.145C120.275 179.603 120.339 183.115 119.943 186.59C119.749 188.334 119.442 190.065 119.024 191.77L111.416 192.705L118.042 194.828C114.893 203.428 108.875 206.867 103.37 206.702C111.78 191.468 108.139 169.069 108.139 169.069Z" fill="white"/>
<path d="M38.0472 118.752C25.3106 117.12 13.1508 112.459 2.58678 105.159C5.64168 99.0353 16.0695 97.8234 27.9499 102.907L26.2749 109.785L30.3985 104.031C34.0743 105.855 37.5446 108.067 40.75 110.629C42.6003 111.727 44.5231 112.698 46.505 113.535L43.4433 117.977L48.0656 114.218C53.0254 116.379 58.4276 117.332 63.8275 116.997C59.5895 120.151 54.9818 122.775 50.107 124.811L45.2915 122.501L47.5154 125.567C42.4629 127.518 37.1387 128.675 31.732 128.997L29.3545 124.252L29.2313 129.108C25.7341 129.079 22.256 128.59 18.8868 127.652C17.1944 127.185 15.5338 126.609 13.9156 125.928L14.19 118.268L11.05 124.477C3.05363 120.014 0.604378 113.529 1.63404 108.119C15.3546 118.822 38.0472 118.752 38.0472 118.752Z" fill="white"/>
<path d="M135.176 193.527C138.018 202.539 138.655 212.101 137.034 221.411C132.013 221.261 127.983 214.651 127.714 205.148L132.811 204.139L127.702 203.17C127.796 200.151 128.211 197.151 128.938 194.219C129.096 192.615 129.147 191.002 129.092 189.391L132.99 190.14L129.046 188.209C128.966 184.229 127.935 180.327 126.04 176.826C129.415 178.741 132.551 181.049 135.383 183.702L135.454 187.634L136.878 185.002C139.719 187.805 142.127 191.014 144.025 194.524L141.668 197.583L144.924 196.197C145.983 198.538 146.733 201.006 147.157 203.54C147.361 204.807 147.489 206.086 147.541 207.369L142.37 209.635L147.489 209.807C146.959 216.525 143.382 220.161 139.467 221.15C142.231 208.648 135.176 193.527 135.176 193.527Z" fill="white"/>
<path d="M219.166 78.5172C222.244 88.4698 222.882 99.0165 221.029 109.268C215.508 109.142 211.046 101.867 210.72 91.3931L216.337 90.2884L210.709 89.257C210.811 85.9148 211.252 82.5916 212.027 79.3389C212.193 77.6122 212.253 75.877 212.206 74.143L216.517 74.993L212.337 72.9291C212.221 68.5478 211.088 64.2536 209.027 60.3853C212.752 62.4648 216.217 64.9771 219.352 67.8699L219.339 72.1251L220.794 69.1786C223.947 72.2385 226.621 75.7567 228.724 79.6144L226.041 82.9772L229.605 81.4556C231.375 85.3268 232.365 89.5084 232.52 93.7621L226.979 96.3531L232.637 96.547C232.757 99.3417 231.951 102.098 230.343 104.387C228.735 106.676 226.415 108.369 223.745 109.203C226.991 95.2081 219.166 78.5172 219.166 78.5172Z" fill="white"/>
<path d="M89.6143 161.492C89.6169 161.637 89.6196 161.782 89.6222 161.926C89.5928 161.637 89.6143 161.492 89.6143 161.492Z" fill="white"/>
<path d="M102.563 33.7779C102.378 34.2156 102.217 34.6288 102.056 35.066C102.052 34.8489 102.216 34.6047 102.309 34.3617L102.563 33.7779Z" fill="white"/>
<path d="M272.013 133.655C271.465 130.093 270.392 126.807 265.964 127.491C261.537 128.175 262.037 131.809 262.39 135.278C264.237 147.225 263.878 159.409 261.331 171.226C261.044 171.428 260.801 171.685 260.615 171.983C260.43 172.281 260.307 172.613 260.253 172.959C255.21 188.856 243.829 198.619 228.801 204.201C209.435 211.382 189.388 211.65 169.145 209.123C167.794 209.054 166.489 208.608 165.379 207.835C164.269 207.062 163.398 205.993 162.864 204.75C156.394 189.979 153.345 174.929 161.005 159.636C169.947 141.811 186.486 134.415 204.316 129.023C214.947 125.814 225.941 123.973 236.187 119.467C244.445 115.818 250.953 110.125 250.976 100.787C250.915 91.486 248.375 82.3699 243.618 74.3777C242.149 71.8467 240.156 69.7595 237.117 71.142C233.695 72.7003 233.848 75.8103 235.062 78.9009C237.059 83.2442 238.753 87.7204 240.132 92.2973C242.731 102.529 239.956 107.792 230.25 111.443C220.863 115.017 211.135 117.62 201.218 119.211C211.288 83.8701 195.694 62.3165 195.037 62.0147C191.883 58.4285 188.824 54.7682 185.552 51.3048C183.386 48.9313 180.652 47.2437 177.781 49.902C174.482 52.9059 176.294 55.6961 178.802 58.2806C184.038 63.5904 191.866 77.3467 194.647 85.645C196.237 91.7939 196.436 98.22 195.231 104.456C193.321 114.89 190.765 124.275 178.961 129.292C166.982 134.652 157.386 144.219 151.99 156.181C149.016 162.437 145.906 161.287 141.638 158.782C125.531 148.82 107.495 112.471 105.154 101.8C104.191 99.6871 103.494 97.4628 103.079 95.1782C97.2976 77.1861 94.4053 58.8035 100.148 40.2396C100.627 38.6865 101.129 37.1331 101.729 35.602C101.729 35.602 101.724 35.3366 101.89 35.1888C102.056 35.041 102.212 34.3384 102.397 33.9007C102.745 33.0981 103.093 32.3196 103.465 31.5889C103.886 30.6864 104.37 29.8148 104.914 28.9807C108.447 22.4948 114.146 17.455 121.015 14.7405C122.826 13.501 123.956 11.9361 122.115 8.88104C119.428 4.44179 116.402 6.57204 113.44 8.21854C112.607 8.74259 111.726 9.18681 110.81 9.5453C106.155 12.5168 102.051 16.2737 98.6814 20.6487C79.1561 52.2282 88.9639 84.6491 99.6125 118.189C80.8805 105.862 61.8437 98.004 42.7767 89.8091C10.6026 76.0617 -0.27664 44.4324 15.419 13.2363C16.793 10.5087 17.5421 7.9132 14.8772 6.00719C12.2124 4.10118 9.19583 5.41084 7.17008 8.12614C3.21262 13.3108 0.353655 19.2478 -1.23218 25.5745C-2.81801 31.9013 -3.09741 38.4849 -2.05332 44.9232C1.81994 72.1195 17.5478 90.4132 42.6546 100.332C61.204 107.387 78.9908 116.304 95.7422 126.946C102.654 131.173 108.53 136.895 112.938 143.693C119.532 154.974 129.549 163.861 141.535 169.064C143.523 169.583 145.243 170.83 146.355 172.556C147.468 174.283 147.892 176.365 147.545 178.389C147.166 187.143 148.657 195.876 151.92 204.008C156.972 216.439 156.481 218.62 146.028 227.618C140.989 231.935 135.168 235.244 128.88 237.364C110.92 243.579 93.3474 240.617 75.623 235.921C68.7399 234.261 69.388 231.426 73.4378 227.226C76.0043 222.068 78.1895 216.73 79.9758 211.253C80.1596 210.743 80.3433 210.233 80.5034 209.748C81.4669 207.003 82.4308 204.283 83.2974 201.517C83.3099 201.453 83.3087 201.387 83.2939 201.324C86.1324 188.336 88.2376 175.198 89.5994 161.974C89.5967 161.829 89.5941 161.684 89.5915 161.54C90.0391 155.644 90.5109 149.748 90.8866 143.877C91.1137 140.447 89.6427 137.843 85.9498 137.79C82.257 137.736 81.4347 140.285 81.2234 143.257C80.938 147.461 80.9429 151.707 80.6574 155.911C79.0111 179.468 75.9104 202.665 63.5973 223.496C61.5834 226.862 60.1647 231.111 55.5123 232.692C59.5462 189.184 52.3891 169.818 20.201 139.397C13.6454 133.194 6.68633 127.361 -0.129333 121.452C-8.56295 114.15 -17.1146 106.994 -25.4767 99.6419C-28.4179 97.0314 -31.2151 94.263 -33.8559 91.3489C-53.9197 69.4905 -54.5797 53.1184 -36.305 29.7175C-33.9442 26.8513 -30.7659 23.8255 -34.5917 20.4446C-38.4175 17.0636 -41.1103 20.2496 -43.5422 23.1894C-48.2667 28.6052 -52.262 34.6161 -55.4264 41.0688C-59.799 50.4497 -61.3846 60.8893 -59.9944 71.1454C-59.9813 71.8691 -59.751 72.5888 -59.569 73.3094C-59.5641 73.5747 -59.5593 73.8401 -59.4093 74.1269C-59.0987 76.0649 -58.3199 77.8977 -57.1404 79.4666C-54.5204 84.1713 -51.5172 88.6523 -48.1615 92.8641C-37.0984 108.082 -21.4668 118.438 -7.58763 130.613C7.96109 142.518 21.6254 156.7 32.9442 172.681C42.5059 186.429 46.6921 203.206 44.7093 219.834C42.9606 236.443 37.7738 251.088 19.7133 257.087C15.8256 258.714 12.069 260.638 8.47696 262.842C3.10485 265.98 -2.66637 268.401 -7.67793 272.788C-4.23783 266.91 -2.95513 260.492 -0.602713 254.513C6.8583 229.596 2.89084 206.503 -10.9688 184.798C-16.5173 176.589 -20.8123 167.599 -23.7123 158.125C-26.072 151.773 -25.5906 145.081 -26.0964 138.502C-26.4452 133.924 -28.1571 130.022 -33.4911 129.95C-38.8251 129.878 -40.3903 134.033 -41.1068 138.414C-41.484 142.009 -41.3285 145.641 -40.6452 149.191C-38.6177 165.128 -31.4651 178.945 -23.2589 192.309C-12.2897 210.327 -7.86616 229.309 -14.6308 250.063C-16.9209 256.813 -18.9698 263.558 -21.5055 270.071C-21.1057 263.902 -22.1935 257.727 -24.6775 252.065C-27.1614 246.404 -30.9689 241.422 -35.7794 237.539C-42.471 231.821 -50.4304 228.033 -58.0824 223.901C-66.9833 219.457 -75.1269 213.636 -82.2126 206.653C-92.8142 195.577 -94.7126 182.751 -86.9913 169.484C-81.5688 159.629 -73.3065 151.634 -63.2791 146.539C-58.6161 144.21 -53.2726 140.831 -56.5423 134.858C-59.812 128.885 -65.4754 131.932 -70.1186 134.019C-77.1732 137.441 -83.6995 141.858 -89.4974 147.137C-92.1856 150.108 -94.5076 153.39 -96.4136 156.915C-97.7446 159.352 -97.9752 162.589 -101.308 163.736C-104.295 161.377 -104.843 157.792 -106.298 154.754C-114.99 134.571 -112.168 115.939 -98.581 98.8251C-96.0781 94.4195 -92.5015 90.7186 -88.1838 88.0669C-87.1046 87.2551 -86.1613 86.2768 -85.3892 85.1687C-83.4477 81.8034 -82.7619 78.3886 -85.975 75.5274C-86.4037 75.0042 -86.9525 74.5923 -87.5746 74.3268C-88.1968 74.0614 -88.8739 73.9502 -89.5483 74.0028C-90.2227 74.0553 -90.8744 74.2701 -91.4479 74.6287C-92.0214 74.9874 -92.4998 75.4793 -92.8422 76.0626C-126.719 103.994 -135.341 140.684 -105.427 180.05C-104.143 181.727 -103.467 183.791 -103.511 185.903C-103.432 203.468 -94.1097 215.87 -79.9259 224.902C-70.159 231.215 -59.6369 236.598 -49.4902 242.566C-39.3435 248.534 -33.1058 257.156 -32.735 269.576C-32.4691 281.036 -34.2215 292.454 -37.9121 303.307C-38.9418 306.391 -40.7601 309.898 -36.644 311.995C-32.5278 314.092 -30.6517 311.114 -28.579 308.325C-17.3916 293.258 -2.82395 282.279 13.5195 273.415C24.3677 267.547 36.5702 263.175 45.5701 255.193C57.8953 244.303 68.9098 243.596 84.6172 247.508C115.329 255.178 144.203 250.647 163.776 221.696C166.291 218.007 168.984 218.802 172.344 219.127C188.57 221.042 205 220.327 220.999 217.011C247.431 210.932 266.48 196.879 272.12 168.713C274.121 157.11 274.085 145.246 272.013 133.655Z" fill="#F3CB95"/>
</svg>
