<svg width="24" height="24" viewBox="0 0 24 24" fill="none" xmlns="http://www.w3.org/2000/svg">
<path d="M3 3L21 21" stroke="white" stroke-width="2" stroke-linecap="round"/>
<path fill-rule="evenodd" clip-rule="evenodd" d="M4.47794 8.59926L4.2686 8.77709L2.51475 8.79131L0.760943 8.80553L0.531507 8.95089C0.389428 9.04092 0.248006 9.18585 0.160133 9.33141L0.0182415 9.56647L0.00473697 12.0443C-0.00722015 14.2438 -9.2774e-05 14.5454 0.0679456 14.7282C0.176591 15.0202 0.352666 15.2149 0.625898 15.3453C0.860117 15.457 0.877607 15.4581 2.55611 15.4585L4.24989 15.459L7.22173 17.9842C8.85619 19.373 10.2885 20.5673 10.4045 20.6381C10.9501 20.9713 11.7111 20.6673 11.9345 20.027C11.9633 19.9446 11.9827 18.307 11.9928 16.1141L4.47794 8.59926ZM17.2324 17.1111L15.4919 15.3706C16.5706 13.4794 16.6148 10.9681 15.5749 9.0426C15.4741 8.85592 15.2509 8.49644 15.079 8.2438C14.6896 7.67166 14.6237 7.43756 14.7383 7.03365C14.8701 6.56925 15.3024 6.16433 15.7385 6.09693C15.9802 6.0596 16.2475 6.10231 16.453 6.21116C16.9204 6.45881 17.9112 8.13792 18.2815 9.30994C18.6196 10.3802 18.7259 11.1893 18.6907 12.4229C18.6623 13.4169 18.5494 14.1042 18.2777 14.9383C18.0218 15.7239 17.6172 16.5437 17.2324 17.1111ZM21.0496 20.9283L19.3233 19.202C20.5091 17.5404 21.2044 15.8049 21.5037 13.7642C21.6173 12.9901 21.6162 11.1644 21.5016 10.4246C21.1627 8.23554 20.3291 6.28841 19.0239 4.63697C18.4941 3.96672 18.4459 3.87127 18.448 3.49719C18.4492 3.27419 18.4783 3.1294 18.5496 2.99061C18.6673 2.76151 19.0222 2.41313 19.2343 2.31869C19.3167 2.28194 19.4963 2.25109 19.6333 2.25004C20.0002 2.2473 20.2933 2.39507 20.5673 2.72106C23.7166 6.46736 24.7887 11.5619 23.4092 16.2257C22.9271 17.8556 22.1708 19.4021 21.2237 20.6944C21.162 20.7787 21.1041 20.8565 21.0496 20.9283ZM12.001 11.8797L6.7719 6.65058L7.25746 6.23811C8.90135 4.84166 10.3294 3.65226 10.4309 3.5949C10.6866 3.45059 11.2395 3.47417 11.483 3.63986C11.6943 3.7836 11.8561 3.98843 11.9333 4.2099C11.9772 4.33568 11.9998 8.07077 12.001 11.8797Z" fill="white"/>
</svg>
