<svg width="24" height="20" viewBox="0 0 24 20" fill="none" xmlns="http://www.w3.org/2000/svg">
<path fill-rule="evenodd" clip-rule="evenodd" d="M19.2343 0.318685C19.0222 0.413131 18.6673 0.761512 18.5496 0.990611C18.4783 1.1294 18.4492 1.27419 18.448 1.49719C18.4459 1.87127 18.4941 1.96672 19.0239 2.63697C20.3291 4.28841 21.1627 6.23554 21.5016 8.42459C21.6162 9.1644 21.6173 10.9901 21.5037 11.7642C21.1948 13.8702 20.4642 15.6512 19.2079 17.3612C18.7302 18.0116 18.6569 18.1652 18.6583 18.5136C18.6596 18.8339 18.7803 19.1095 19.0324 19.3678C19.2886 19.6303 19.553 19.75 19.8764 19.75C20.3589 19.75 20.5731 19.5821 21.2237 18.6944C22.1708 17.4021 22.9271 15.8556 23.4092 14.2257C24.7887 9.56188 23.7166 4.46736 20.5673 0.721063C20.2933 0.395068 20.0002 0.247299 19.6333 0.250037C19.4963 0.251094 19.3167 0.281935 19.2343 0.318685ZM10.4309 1.5949C10.3294 1.65226 8.90135 2.84166 7.25746 4.23811L4.2686 6.77709L2.51475 6.79131L0.760943 6.80553L0.531507 6.95089C0.389428 7.04092 0.248006 7.18585 0.160133 7.33141L0.0182415 7.56647L0.00473697 10.0443C-0.00722015 12.2438 -9.2774e-05 12.5454 0.0679456 12.7282C0.176591 13.0202 0.352666 13.2149 0.625898 13.3453C0.860117 13.457 0.877607 13.4581 2.55611 13.4585L4.24989 13.459L7.22173 15.9842C8.85619 17.373 10.2885 18.5673 10.4045 18.6381C10.9501 18.9713 11.7111 18.6673 11.9345 18.027C12.024 17.7705 12.0229 2.46671 11.9333 2.2099C11.8561 1.98843 11.6943 1.7836 11.483 1.63986C11.2395 1.47417 10.6866 1.45059 10.4309 1.5949ZM15.7385 4.09693C15.3024 4.16433 14.8701 4.56925 14.7383 5.03365C14.6237 5.43756 14.6896 5.67166 15.079 6.2438C15.2509 6.49644 15.4741 6.85592 15.5749 7.0426C16.6728 9.07553 16.5623 11.7615 15.3016 13.6812C14.9597 14.2018 14.906 14.3347 14.906 14.6599C14.906 15.0081 15.011 15.2479 15.2872 15.5309C15.6622 15.915 16.184 16.0211 16.5985 15.7974C17.0795 15.5378 17.8685 14.1943 18.2777 12.9383C18.5494 12.1042 18.6623 11.4169 18.6907 10.4229C18.7259 9.18928 18.6196 8.38016 18.2815 7.30994C17.9112 6.13792 16.9204 4.45881 16.453 4.21116C16.2475 4.10231 15.9802 4.0596 15.7385 4.09693Z" fill="white"/>
</svg>
