<svg width="28" height="28" fill="none" xmlns="http://www.w3.org/2000/svg"><path d="M8.2 12.84c1.858-1.859 5.1-1.859 6.96 0L16.32 14l2.32-2.32-1.16-1.16a8.147 8.147 0 00-5.8-2.403 8.147 8.147 0 00-5.8 2.403L2.396 14a8.216 8.216 0 000 11.601A8.176 8.176 0 008.197 28 8.177 8.177 0 0014 25.6l1.16-1.16-2.32-2.32-1.16 1.16a4.934 4.934 0 01-6.962 0 4.93 4.93 0 010-6.961l3.481-3.48z" fill="#fff"/><path d="M14 2.399l-1.16 1.16 2.32 2.32 1.16-1.16a4.934 4.934 0 016.962 0 4.93 4.93 0 010 6.961L19.8 15.16c-1.86 1.859-5.101 1.859-6.96 0L11.68 14l-2.32 2.32 1.16 1.16a8.147 8.147 0 005.8 2.404 8.147 8.147 0 005.8-2.404L25.602 14a8.216 8.216 0 000-11.601 8.214 8.214 0 00-11.602 0z" fill="#fff"/></svg>