<svg width="540" height="1203" viewBox="0 0 540 1203" fill="none" xmlns="http://www.w3.org/2000/svg">
<path d="M857.466 711.48C823.356 754.452 765.276 778.74 715.723 792.285C698.646 796.928 680.559 801.114 663.228 805.212C604.352 819.254 543.377 833.347 497.942 869.39C450.414 907.205 424.675 964.719 399.686 1020.43L396.813 1027.07C370.784 1085.39 340.685 1144.93 286.801 1179.08C233.795 1212.54 147.488 1214.43 94.9047 1159.98C63.1511 1126.88 52.0665 1083.74 42.0087 1034.56L10.7258 882.333C2.89419 844.183 -6.98976 796.506 8.69896 758.141C20.9763 728.399 46.5613 707.846 71.4775 688.137C89.3579 673.83 107.951 659.058 121.531 640.652C159.307 589.602 155.507 518.255 152.011 449.553L151.868 444.975C148.105 372.284 150.933 298.643 197.301 254.071C245.385 207.77 326.489 207.251 398.829 210.42C466.169 213.397 549.684 217.196 602.104 173.65C624.128 155.421 638.816 129.996 653.046 105.581C664.687 85.2916 676.663 64.5811 692.895 47.5925C762.382 -25.6715 881.649 2.7298 946.38 26.2985C993.908 43.4225 1026.29 77.0268 1037.46 120.918C1048.42 162.921 1037.67 207.61 1008.73 240.608C991.457 260.204 970.56 276.581 950.208 292.703C941.247 299.667 931.95 307.053 923.032 314.395C900.339 333.467 868.995 363.869 858.901 404.272C848.763 444.296 859.978 488.566 870.684 531.745C880.964 572.868 891.584 615.291 884.047 654.634C879.678 676.576 870.341 695.26 857.466 711.48ZM462.201 903.17C472.4 890.32 483.864 878.474 497.012 867.965C542.615 831.712 603.924 817.198 663.01 803.322C680.342 799.224 698.051 795.083 715.295 790.229C782.848 771.743 866.663 733.202 882.071 654.095C889.484 615.341 879.074 573.085 868.628 532.173C857.921 488.993 846.663 444.346 856.925 403.733C867.31 362.532 899.032 332.085 921.892 312.803C930.599 305.294 940.106 298.076 949.235 290.9C969.42 274.989 990.317 258.613 1007.42 239.226C1035.86 206.861 1046.49 162.76 1035.79 121.303C1024.7 78.1669 992.737 44.8969 946.009 28.064C881.489 4.6625 763.02 -23.4479 694.58 48.9301C678.726 65.8753 666.75 86.5859 655.065 106.497C640.668 131.123 625.981 156.548 603.79 174.988C550.657 218.998 466.764 215.243 399.213 212.098C327.252 208.886 246.693 209.151 199.154 255.198C153.665 299.095 150.583 372.19 154.302 444.504L154.446 449.081C157.985 518.161 161.661 590.097 123.551 641.568C109.803 660.185 91.2103 674.957 73.1627 689.474C48.6244 709.141 22.9959 729.315 11.053 758.636C-4.51198 796.413 5.32851 843.712 13.1167 881.484L44.3996 1033.71C54.4139 1082.52 65.288 1125.49 96.7874 1158.04C148.739 1211.99 233.869 1209.86 286.162 1176.85C339.334 1143.17 369.266 1083.84 395.339 1025.9L398.212 1019.25C416.204 979.284 434.946 937.505 462.201 903.17Z" fill="white" fill-opacity="0.1"/>
</svg>
