<svg width="277" height="166" fill="none" xmlns="http://www.w3.org/2000/svg"><path d="M43.832 104.489c-1.376-1.431-.902-3.798.914-4.6C74.38 86.79 90.732 78.918 112.576 43.7c.911-1.468 2.909-1.837 4.259-.757l37.239 29.805a2.836 2.836 0 01.671 3.666c-19.709 32.993-45.981 56.548-70.324 67.617a2.804 2.804 0 01-3.182-.628l-37.407-38.915z" fill="#fff"/><g filter="url(#filter0_d_416_3809)"><path d="M120.284 85.915a2.858 2.858 0 01-.702-4.093c34.636-45.964 63.699-66.595 70.454-65.286 6.693 1.298 34.269 11.956 41.1 35.663.333 1.156-.18 2.387-1.186 3.047-27.585 18.085-36.095 27.07-68.113 60.577-1.164 1.218-3.146 1.178-4.265-.081-13.305-14.951-19.85-18.294-37.288-29.827z" fill="#fff"/></g><defs><filter id="filter0_d_416_3809" x="95.011" y="6.478" width="160.226" height="148.234" filterUnits="userSpaceOnUse" color-interpolation-filters="sRGB"><feFlood flood-opacity="0" result="BackgroundImageFix"/><feColorMatrix in="SourceAlpha" values="0 0 0 0 0 0 0 0 0 0 0 0 0 0 0 0 0 0 127 0" result="hardAlpha"/><feOffset dy="14"/><feGaussianBlur stdDeviation="12"/><feComposite in2="hardAlpha" operator="out"/><feColorMatrix values="0 0 0 0 0.151667 0 0 0 0 0.164267 0 0 0 0 0.466667 0 0 0 0.25 0"/><feBlend in2="BackgroundImageFix" result="effect1_dropShadow_416_3809"/><feBlend in="SourceGraphic" in2="effect1_dropShadow_416_3809" result="shape"/></filter></defs></svg>