<svg width="96" height="91" viewBox="0 0 96 91" fill="none" xmlns="http://www.w3.org/2000/svg">
<path d="M51.3326 90.207H44.6521C19.9928 90.207 0 70.2143 0 45.5549V44.6521C0 19.9928 19.9928 0 44.6521 0H51.3326C75.992 0 95.9847 19.9928 95.9847 44.6521V45.5549C95.9847 70.2143 75.992 90.207 51.3326 90.207Z" fill="#F2D03B"/>
<path d="M6.0694 34.7703C5.93051 34.7703 5.79162 34.7495 5.65274 34.7078C4.86108 34.4787 4.40275 33.6523 4.63886 32.8606C8.41659 19.9719 18.2289 9.59013 30.8954 5.0902C31.6732 4.81937 32.5274 5.22214 32.7982 5.99296C33.076 6.77073 32.6662 7.62488 31.8954 7.89571C20.1248 12.0832 11.0068 21.7288 7.49993 33.7009C7.30549 34.3467 6.71522 34.7703 6.0694 34.7703Z" fill="white"/>
<path d="M70.9643 4.54175C81.7419 12.6944 88.7141 25.6178 88.7141 40.1732V41.076C88.7141 65.7353 68.7213 85.7281 44.0619 85.7281H37.3815C30.3329 85.7281 23.6733 84.0892 17.7498 81.1865C25.2288 86.8461 34.5482 90.2003 44.6522 90.2003H51.3326C75.992 90.2003 95.9848 70.2075 95.9848 45.5481V44.6453C95.9848 27.0345 85.7766 11.8125 70.9643 4.54175Z" fill="#E8B938"/>
<path d="M30.3955 27.9998H30.2982C27.6177 27.9998 25.4372 30.1733 25.4372 32.8608V40.069H35.2496V32.8608C35.2565 30.1733 33.0829 27.9998 30.3955 27.9998Z" fill="#3D3813"/>
<path d="M65.6796 27.9998H65.5824C62.9019 27.9998 60.7214 30.1733 60.7214 32.8608V40.069H70.5337V32.8608C70.5407 30.1733 68.3671 27.9998 65.6796 27.9998Z" fill="#3D3813"/>
<path d="M21.5415 53.2006C21.3262 52.6798 23.7984 72.3253 47.9925 73.0545C72.1866 72.3253 74.6587 52.6798 74.4435 53.2006C57.0548 57.3742 38.9232 57.3742 21.5415 53.2006Z" fill="#3D3813"/>
<path d="M47.9924 60.4782C58.9715 60.2074 66.3047 57.3741 71.2004 53.9297C55.8951 57.131 40.0967 57.131 24.7914 53.9297C29.6733 57.3741 37.0134 60.2074 47.9924 60.4782Z" fill="white"/>
<path d="M64.9019 68.0199C60.6658 65.7352 54.6659 64.3047 47.9924 64.3047C41.3189 64.3047 35.312 65.7422 31.0829 68.0199C34.9856 70.756 40.4231 72.8323 47.9924 73.0615C55.5617 72.8323 60.9992 70.749 64.9019 68.0199Z" fill="#D05628"/>
</svg>
