<svg width="283" height="501" viewBox="0 0 283 501" fill="none" xmlns="http://www.w3.org/2000/svg">
<path d="M556.839 508.062C550.297 523.201 538.152 532.79 521.393 536.881C504.619 540.977 483.388 539.512 459.063 532.715C410.423 519.124 349.919 484.357 289.162 431.519C228.405 378.681 179.115 317.964 148.509 262.637C133.203 234.968 122.65 208.791 117.611 185.727C112.578 162.683 113.091 142.978 119.633 127.839C126.174 112.7 138.32 103.111 155.078 99.0196C171.852 94.9243 193.084 96.3895 217.409 103.186C266.049 116.777 326.553 151.544 387.31 204.382C448.067 257.22 497.357 317.937 527.963 373.264C543.269 400.933 553.822 427.11 558.86 450.174C563.894 473.218 563.381 492.923 556.839 508.062Z" stroke="#FA5785" stroke-width="6"/>
<path d="M622.473 263.115C620.568 279.497 611.16 296.818 595.279 314.258C579.384 331.714 557.156 349.107 530.066 365.415C475.897 398.027 402.852 425.965 323.816 441.345C244.78 456.726 174.998 456.583 126.079 444.033C101.615 437.756 82.4953 428.41 70.0161 416.476C57.5484 404.553 51.8246 390.177 53.7289 373.795C55.6332 357.413 65.0415 340.092 80.9224 322.652C96.8179 305.197 119.046 287.804 146.135 271.495C200.304 238.883 273.35 210.945 352.386 195.565C431.422 180.184 501.203 180.327 550.122 192.877C574.587 199.154 593.706 208.5 606.185 220.434C618.653 232.357 624.377 246.733 622.473 263.115Z" stroke="#FA5785" stroke-width="6"/>
</svg>
