<svg width="452" height="408" viewBox="0 0 452 408" fill="none" xmlns="http://www.w3.org/2000/svg">
<g filter="url(#filter0_d_907_5791)">
<path d="M389.808 92.433C391.602 110.887 383.866 127.399 367.661 141.397C351.453 155.398 326.969 166.693 295.889 174.7C233.748 190.709 145.817 193.426 46.8425 178.929C-52.1316 164.432 -143.138 135.507 -210.229 100.569C-243.785 83.0956 -271.203 64.1979 -290.639 44.9765C-310.071 25.759 -321.285 6.47142 -323.078 -11.9829C-324.872 -30.4373 -317.136 -46.9492 -300.931 -60.9471C-284.723 -74.9477 -260.239 -86.2432 -229.16 -94.2501C-167.018 -110.259 -79.0867 -112.975 19.8874 -98.4788C118.861 -83.9821 209.868 -55.0571 276.959 -20.1193C310.514 -2.64547 337.933 16.2522 357.369 35.4736C376.801 54.6911 388.015 73.9787 389.808 92.433Z" stroke="#B283FF" stroke-width="6"/>
<path d="M316.24 -182.574C323.918 -165.697 323.85 -143.391 316.628 -117.039C309.405 -90.6821 295.105 -60.6171 274.775 -28.7186C234.129 35.0604 169.756 105.582 91.2643 167.59C12.7722 229.598 -64.7635 271.183 -126.606 288.369C-157.535 296.965 -184.397 299.418 -205.441 295.392C-226.481 291.367 -241.442 280.933 -249.12 264.056C-256.797 247.179 -256.729 224.873 -249.508 198.522C-242.284 172.165 -227.984 142.1 -207.655 110.201C-167.008 46.4221 -102.636 -24.0994 -24.1437 -86.1076C54.3484 -148.116 131.884 -189.7 193.726 -206.887C224.656 -215.483 251.517 -217.935 272.562 -213.909C293.602 -209.884 308.563 -199.451 316.24 -182.574Z" stroke="#B283FF" stroke-width="6"/>
</g>
<defs>
<filter id="filter0_d_907_5791" x="-330.315" y="-219.1" width="727.361" height="527.682" filterUnits="userSpaceOnUse" color-interpolation-filters="sRGB">
<feFlood flood-opacity="0" result="BackgroundImageFix"/>
<feColorMatrix in="SourceAlpha" type="matrix" values="0 0 0 0 0 0 0 0 0 0 0 0 0 0 0 0 0 0 127 0" result="hardAlpha"/>
<feOffset dy="4"/>
<feGaussianBlur stdDeviation="2"/>
<feComposite in2="hardAlpha" operator="out"/>
<feColorMatrix type="matrix" values="0 0 0 0 0 0 0 0 0 0 0 0 0 0 0 0 0 0 0.25 0"/>
<feBlend mode="normal" in2="BackgroundImageFix" result="effect1_dropShadow_907_5791"/>
<feBlend mode="normal" in="SourceGraphic" in2="effect1_dropShadow_907_5791" result="shape"/>
</filter>
</defs>
</svg>
