<svg width="32" height="32" viewBox="0 0 32 32" fill="none" xmlns="http://www.w3.org/2000/svg">
<path d="M0 11.5056C0 6.08182 0 3.36992 1.68496 1.68496C3.36992 0 6.08182 0 11.5056 0H20.4944C25.9182 0 28.6301 0 30.315 1.68496C32 3.36992 32 6.08182 32 11.5056V20.4944C32 25.9182 32 28.6301 30.315 30.315C28.6301 32 25.9182 32 20.4944 32H11.5056C6.08182 32 3.36992 32 1.68496 30.315C0 28.6301 0 25.9182 0 20.4944V11.5056Z" fill="#171513"/>
<path d="M10.4843 22.8001H5.59998V9.6001H10.4779C11.8242 9.6001 12.9835 9.86436 13.9556 10.3929C14.9321 10.9171 15.6848 11.6733 16.2139 12.6616C16.743 13.6456 17.0075 14.8229 17.0075 16.1937C17.0075 17.5687 16.743 18.7503 16.2139 19.7386C15.6891 20.7269 14.9385 21.4853 13.9621 22.0138C12.9856 22.538 11.8264 22.8001 10.4843 22.8001ZM8.79383 20.0802H10.3617C11.1016 20.0802 11.7274 19.9556 12.2393 19.7063C12.7555 19.4528 13.1448 19.0425 13.4072 18.4753C13.6739 17.9038 13.8072 17.1433 13.8072 16.1937C13.8072 15.244 13.6739 14.4878 13.4072 13.9249C13.1405 13.3577 12.7469 12.9495 12.2264 12.7003C11.7102 12.4468 11.0736 12.32 10.3166 12.32H8.79383V20.0802Z" fill="white"/>
<path d="M18.5088 22.8001V9.6001H21.7027V20.2091H27.2V22.8001H18.5088Z" fill="white"/>
</svg>
