<svg width="32" height="32" viewBox="0 0 32 32" fill="none" xmlns="http://www.w3.org/2000/svg">
<path d="M0 11.5056C0 6.08182 0 3.36992 1.68496 1.68496C3.36992 0 6.08182 0 11.5056 0H20.4944C25.9182 0 28.6301 0 30.315 1.68496C32 3.36992 32 6.08182 32 11.5056V20.4944C32 25.9182 32 28.6301 30.315 30.315C28.6301 32 25.9182 32 20.4944 32H11.5056C6.08182 32 3.36992 32 1.68496 30.315C0 28.6301 0 25.9182 0 20.4944V11.5056Z" fill="#171513"/>
<path d="M10.4844 22.8H5.6001V9.59998H10.478C11.8243 9.59998 12.9836 9.86423 13.9557 10.3927C14.9322 10.917 15.6849 11.6732 16.214 12.6615C16.7431 13.6455 17.0076 14.8228 17.0076 16.1935C17.0076 17.5685 16.7431 18.7502 16.214 19.7385C15.6892 20.7267 14.9386 21.4851 13.9622 22.0136C12.9858 22.5379 11.8265 22.8 10.4844 22.8ZM8.79395 20.0801H10.3618C11.1017 20.0801 11.7276 19.9554 12.2394 19.7062C12.7556 19.4527 13.1449 19.0424 13.4073 18.4752C13.674 17.9037 13.8073 17.1431 13.8073 16.1935C13.8073 15.2439 13.674 14.4877 13.4073 13.9248C13.1406 13.3576 12.747 12.9494 12.2265 12.7002C11.7104 12.4467 11.0737 12.3199 10.3167 12.3199H8.79395V20.0801Z" fill="#FF783D"/>
<path d="M18.5089 22.8V9.59998H21.7028V20.209H27.2001V22.8H18.5089Z" fill="#FF783D"/>
</svg>
