<svg width="32" height="32" viewBox="0 0 32 32" fill="none" xmlns="http://www.w3.org/2000/svg">
<path d="M9.67101 24.6586L10.6363 25.2226C12.2643 26.1721 14.1158 26.6705 16.0003 26.6666C18.11 26.6666 20.1723 26.041 21.9264 24.869C23.6805 23.6969 25.0477 22.031 25.8551 20.0819C26.6624 18.1328 26.8736 15.9881 26.4621 13.919C26.0505 11.8499 25.0346 9.94925 23.5428 8.45749C22.0511 6.96573 20.1504 5.94983 18.0813 5.53825C16.0122 5.12667 13.8675 5.33791 11.9184 6.14524C9.96931 6.95258 8.3034 8.31975 7.13133 10.0739C5.95927 11.828 5.33368 13.8903 5.33368 16C5.33368 17.9146 5.83634 19.7506 6.77901 21.3653L7.34168 22.3306L6.47101 25.532L9.67101 24.6586ZM2.67234 29.3333L4.47501 22.7093C3.28719 20.6731 2.66314 18.3573 2.66701 16C2.66701 8.63596 8.63634 2.66663 16.0003 2.66663C23.3643 2.66663 29.3337 8.63596 29.3337 16C29.3337 23.364 23.3643 29.3333 16.0003 29.3333C13.644 29.3371 11.3292 28.7135 9.29368 27.5266L2.67234 29.3333ZM11.1883 9.74396C11.367 9.73063 11.547 9.73063 11.7257 9.73863C11.7977 9.74396 11.8697 9.75196 11.9417 9.75996C12.1537 9.78396 12.387 9.91329 12.4657 10.092C12.863 10.9933 13.2497 11.9013 13.623 12.812C13.7057 13.0146 13.6563 13.2746 13.499 13.528C13.3908 13.6993 13.2738 13.8648 13.1483 14.024C12.9977 14.2173 12.6737 14.572 12.6737 14.572C12.6737 14.572 12.5417 14.7293 12.5923 14.9253C12.611 15 12.6723 15.108 12.7283 15.1986L12.807 15.3253C13.1483 15.8946 13.607 16.472 14.167 17.016C14.327 17.1706 14.483 17.3293 14.651 17.4773C15.275 18.028 15.9817 18.4773 16.7443 18.8106L16.751 18.8133C16.8643 18.8626 16.9217 18.8893 17.087 18.96C17.1697 18.9946 17.255 19.0253 17.3417 19.048C17.4312 19.0708 17.5256 19.0665 17.6127 19.0356C17.6998 19.0048 17.7758 18.9487 17.831 18.8746C18.7963 17.7053 18.8843 17.6293 18.8923 17.6293V17.632C18.9594 17.5694 19.0391 17.5219 19.126 17.4927C19.2129 17.4635 19.3051 17.4533 19.3963 17.4626C19.4763 17.468 19.5577 17.4826 19.6323 17.516C20.3403 17.84 21.499 18.3453 21.499 18.3453L22.275 18.6933C22.4057 18.756 22.5243 18.904 22.5283 19.0466C22.5337 19.136 22.5417 19.28 22.511 19.544C22.4683 19.8893 22.3643 20.304 22.2603 20.5213C22.1891 20.6696 22.0946 20.8056 21.9803 20.924C21.8458 21.0652 21.6985 21.1938 21.5403 21.308C21.4856 21.3491 21.4301 21.3891 21.3737 21.428C21.2078 21.5332 21.0375 21.6311 20.863 21.7213C20.5197 21.9036 20.1406 22.0083 19.7523 22.028C19.5057 22.0413 19.259 22.06 19.011 22.0466C19.0003 22.0466 18.2537 21.9306 18.2537 21.9306C16.358 21.432 14.6049 20.4979 13.1337 19.2026C12.8323 18.9373 12.5537 18.652 12.2683 18.368C11.0817 17.188 10.1857 15.9146 9.64168 14.712C9.36324 14.1217 9.21283 13.4792 9.20034 12.8266C9.19485 12.0171 9.45947 11.2288 9.95234 10.5866C10.0497 10.4613 10.1417 10.3306 10.3003 10.18C10.4697 10.02 10.5763 9.93463 10.6923 9.87596C10.8466 9.79867 11.0148 9.75332 11.187 9.74263L11.1883 9.74396Z" fill="#171513"/>
</svg>
