<svg width="199" height="43" viewBox="0 0 199 43" fill="none" xmlns="http://www.w3.org/2000/svg">
<path d="M135.377 21.5726V14.551H131.155V28.4071H135.074L139.648 21.4434V28.4071H143.87V14.551H139.952L135.377 21.5726ZM111.022 20.1528C111.022 20.6563 110.771 21.6294 109.475 21.6294H107.98V17.9616H109.664C110.112 17.9616 111.022 18.328 111.022 19.4105V20.1528ZM110.116 14.551H103.524V28.4071H107.98V25.0057H110.116C112.998 25.0057 115.359 23.4171 115.359 20.5878V18.9662C115.359 16.1396 112.998 14.551 110.116 14.551ZM173.248 21.8825C173.248 23.9919 172.695 24.2978 171.898 24.6629C171.551 24.8251 170.608 24.7895 170.608 24.7895V28.4071H172.356C176.107 28.4071 177.492 26.2212 177.549 21.3354C177.563 20.2279 177.541 19.1389 177.549 18.1646H180.048V28.4071H184.506V14.551H173.248V21.8825ZM97.5349 23.7453C97.5349 24.6629 96.786 25.4144 95.8684 25.4144H95.4874C94.5698 25.4144 93.8184 24.6629 93.8184 23.7453V19.2523C93.8184 18.3334 94.5698 17.5858 95.4874 17.5858H95.8684C96.786 17.5858 97.5349 18.3334 97.5349 19.2523V23.7453ZM96.7689 14.3254H94.587C91.7023 14.3254 89.3411 16.3808 89.3411 19.5673V23.4342C89.3411 26.6378 91.7023 28.68 94.587 28.68H96.7689C99.6481 28.68 102.013 26.6194 102.013 23.4342V19.5673C102.013 16.2107 99.6481 14.3254 96.7689 14.3254ZM158.551 14.551H153.726L151.373 19.7849H150.278V14.551H145.817V28.4071H150.278V23.4803H151.369L153.776 28.4071H158.891L155.111 21.4171L158.551 14.551ZM164.072 23.1454H169.095V19.8495H164.072V18.1646H169.55V14.551H159.619V28.4071H169.963V24.7895H164.072V23.1454ZM192.339 24.9938H190.661V21.9695H192.156C193.417 21.9695 193.703 22.8937 193.703 23.4935C193.703 24.7381 192.678 24.9938 192.339 24.9938ZM192.795 18.5918H190.661V14.551H186.203V28.4071H192.795C195.678 28.4071 198.039 26.8132 198.039 23.9879V23.011C198.039 20.1817 195.678 18.5918 192.795 18.5918ZM124.747 19.6768H120.945V14.551H116.487V28.4071H120.945V23.4803H124.747V28.4071H129.205V14.551H124.747V19.6768ZM83.3715 19.6768H79.5705V14.551H75.1131V28.4071H79.5705V23.4803H83.3715V28.4071H87.8315V14.551H83.3715V19.6768ZM53.4085 33.04C51.4046 35.0466 48.9721 36.4651 46.3222 37.214V5.78891C48.9721 6.53644 51.4046 7.95502 53.4085 9.95765C56.4883 13.04 58.1837 17.1416 58.1837 21.4988C58.1837 25.8613 56.4883 29.9602 53.4085 33.04ZM21.0831 22.891V6.09742L41.8595 20.1158V36.9054L21.0831 22.891ZM16.6268 37.214C13.9756 36.469 11.5419 35.0466 9.53924 33.04C6.45685 29.9602 4.75745 25.8613 4.75745 21.5014C4.75745 17.1416 6.45685 13.04 9.53924 9.95765C11.5419 7.95502 13.9756 6.53644 16.6268 5.78891V37.214ZM41.8595 0.719727V14.7368L21.0831 0.721045C9.60515 0.721045 0.299988 10.0249 0.299988 21.5014C0.299988 32.9806 9.60515 42.2805 21.0831 42.2805V28.2634L41.8595 42.2805C53.34 42.2805 62.6451 32.9806 62.6451 21.4988C62.6451 10.0249 53.34 0.719727 41.8595 0.719727Z" fill="#0080C8"/>
</svg>
