<svg width="110" height="33" viewBox="0 0 110 33" fill="none" xmlns="http://www.w3.org/2000/svg">
<path d="M104.564 28.3119C106.714 28.3119 108.238 27.9212 109.373 27.0797V23.2626C108.208 24.0741 106.804 24.585 104.832 24.585C101.517 24.585 100.142 22.0003 100.142 17.9127C100.142 13.6148 101.815 11.4207 104.862 11.4207C106.655 11.4207 108.417 12.0519 109.343 12.653V8.68563C108.357 8.14463 106.655 7.75391 104.325 7.75391C98.3799 7.75391 95.3031 12.0519 95.3031 18.063C95.3329 24.6452 98.3501 28.3119 104.564 28.3119ZM75.4976 26.5687V22.7517C74.0637 23.7435 71.6141 24.6151 69.3737 24.6151C65.9682 24.6151 64.6837 22.9921 64.4746 19.686H75.7067V17.2214C75.7067 10.3387 72.6896 7.75391 68.0593 7.75391C62.3835 7.75391 59.695 12.112 59.695 18.093C59.695 24.9758 63.0706 28.3119 68.9854 28.3119C71.9427 28.3119 74.1234 27.5004 75.4976 26.5687ZM32.8695 8.11457V15.929H26.656V8.11457H21.9958V27.9212H26.656V19.6559H32.8695V27.9212H37.5296V8.11457H32.8695ZM58.53 24.1943H56.4688V8.11457H42.9066V9.79769C42.9066 14.6366 42.6079 20.8882 40.9649 24.1943H39.4713V32.4296H43.7729V27.9212H54.1985V32.4296H58.5001V24.1943H58.53ZM90.3442 27.9212H95.6317L88.1635 17.2515L94.7355 8.11457H90.0455L83.4735 17.2515V8.11457H78.8134V27.9212H83.4735V18.1832L90.3442 27.9212ZM67.9398 11.4207C70.24 11.4207 70.9569 13.3442 70.9569 15.8389V16.2296H64.4746C64.5941 13.0737 65.7293 11.4207 67.9398 11.4207ZM51.8086 24.1943H45.2367C46.5212 21.2188 46.8797 15.8088 46.8797 12.3825V11.7814H51.8086V24.1943Z" fill="black"/>
<path d="M18.1122 27.9212H13.3625V4.2674H11.2415C7.35808 4.2674 5.32675 6.22101 5.32675 9.1364C5.32675 12.4425 6.73076 13.9754 9.6284 15.929L12.0182 17.552L5.14751 27.9212H0.0393066L6.22293 18.664C2.66809 16.1093 0.66663 13.6147 0.66663 9.40691C0.66663 4.14717 4.31108 0.570557 11.2116 0.570557H18.0823V27.9212H18.1122Z" fill="#FC3F1D"/>
</svg>
