<svg width="95" height="35" viewBox="0 0 95 35" fill="none" xmlns="http://www.w3.org/2000/svg">
<path fill-rule="evenodd" clip-rule="evenodd" d="M6.89799 0.875L5.28876 5.22446H27.5891L29.1983 0.875H6.89799ZM4.48364 7.3982L2.87441 11.7467H25.1747L26.784 7.3982H4.48364ZM2.07432 13.9214L0.465088 18.2699H22.7654L24.3736 13.9214H2.07432Z" fill="#009FDF"/>
<mask id="mask0_1049_294" style="mask-type:alpha" maskUnits="userSpaceOnUse" x="33" y="7" width="62" height="28">
<path d="M33.9231 34.1251H94.9677V7.48193H33.9231V34.1251Z" fill="#0A2973"/>
</mask>
<g mask="url(#mask0_1049_294)">
<path fill-rule="evenodd" clip-rule="evenodd" d="M47.8746 19.9275V20.0192C48.8937 20.3883 49.8672 21.0337 50.3773 21.4482C51.9531 22.7391 52.6488 24.4444 52.6488 26.657C52.6488 30.2996 50.7018 32.9266 47.5034 33.7566C46.5299 34.0329 45.5108 34.1257 43.6094 34.1257H33.9231V7.48193H42.498C44.2594 7.48193 45.4641 7.5737 46.5299 7.85002C49.636 8.68 51.6753 10.8008 51.6753 14.1651C51.6753 15.9632 51.0263 17.4849 49.9605 18.4985C49.4971 18.9593 48.8481 19.513 47.8746 19.9275ZM39.2997 22.7391V29.7459H43.0081C44.1195 29.7459 45.1396 29.6541 45.8819 28.9623C46.6232 28.2705 46.9477 27.3952 46.9477 26.2425C46.9477 25.3671 46.7155 24.5372 46.2521 23.9381C45.4641 22.97 44.4906 22.7391 42.8225 22.7391H39.2997ZM39.253 18.1294H42.2658C43.1926 18.1294 43.6561 18.1294 44.1195 17.9912C45.3719 17.6221 46.1598 16.5168 46.1598 14.995C46.1598 13.1979 45.3252 12.4134 44.1195 12.0453C43.6094 11.9071 43.1004 11.8607 42.0802 11.8607H39.253V18.1294ZM60.7136 34.1257V11.9525H52.9733V7.48193H74.4805L72.9513 11.9525H66.0902V34.1257H60.7136ZM76.1487 34.1257V7.48193H93.5774L92.0482 11.9525H81.4796V17.853H85.7904C89.2666 17.853 91.0747 18.683 92.326 19.7429C93.2995 20.5729 94.9677 22.4164 94.9677 26.059C94.9677 29.6541 93.2529 31.6358 91.816 32.6503C90.1478 33.802 88.3864 34.1257 84.8169 34.1257H76.1487ZM81.4796 29.6541H85.5125C87.0417 29.6541 87.9686 29.285 88.6176 28.4551C88.9421 28.0406 89.4055 27.3024 89.4055 25.9198C89.4055 24.5372 88.9421 23.569 88.0152 22.8772C87.4595 22.4627 86.7172 22.2328 85.4659 22.2328H81.4796V29.6541Z" fill="#0A2973"/>
</g>
</svg>
