<svg width="179" height="35" viewBox="0 0 179 35" fill="none" xmlns="http://www.w3.org/2000/svg">
<path d="M21.6487 27.8758C18.9765 31.5926 14.6911 32.8582 10.3698 31.8579C6.87137 30.9377 3.37294 27.2514 2.98 23.5313L2.87924 18.3095V3.60161L8.65137 6.84194L8.77116 22.671C8.97549 23.4289 9.3585 24.1257 9.88754 24.7021C10.4166 25.2785 11.076 25.7174 11.8095 25.9813C13.1607 26.2861 14.7795 26.2511 15.8285 25.366C17.1103 24.3092 17.8883 22.9769 17.7876 21.2687C17.7307 20.4994 17.4888 19.7556 17.0826 19.1019C16.6765 18.4481 16.1184 17.9041 15.4568 17.5169L14.5478 17.1048V11.0623C18.1906 11.2655 21.3991 14.3365 22.9529 17.544C24.1116 20.7956 23.9101 25.1989 21.6487 27.8758ZM25.8681 11.1503L6.22094 0V3.17258L6.12019 3.27871L1.02424 0.530645V18.7171C0.788025 22.951 1.1944 26.8766 4.08494 29.8098C7.25536 33.7344 12.3938 34.7923 17.0118 33.3234C18.0495 33.3234 19.0873 33.2556 20.1161 33.1202C24.7732 32.6064 29.3699 28.6503 30.4491 23.9739C31.7309 18.9915 29.7774 14.2123 25.8592 11.1413L25.867 11.1503H25.8681ZM177.604 29.234H178.968V33.9071H177.604V29.234ZM172.321 31.955H174.311C174.518 31.9437 174.725 31.9776 174.919 32.0532C174.972 32.0979 175.014 32.1538 175.043 32.2168C175.072 32.2798 175.087 32.3484 175.087 32.4179C175.087 32.4874 175.072 32.556 175.043 32.619C175.014 32.682 174.972 32.7379 174.919 32.7826C174.733 32.8589 174.533 32.8925 174.332 32.8808H172.321V31.955ZM175.605 31.071C175.257 30.982 174.898 30.9417 174.538 30.9513H172.321V29.2306H170.957V33.9071H174.569C174.849 33.9116 175.128 33.889 175.404 33.8405C175.612 33.8066 175.81 33.7276 175.986 33.6102C176.143 33.5002 176.266 33.347 176.34 33.1687C176.425 32.935 176.465 32.6866 176.458 32.4382C176.476 32.1195 176.402 31.8025 176.243 31.526C176.089 31.3075 175.863 31.1511 175.605 31.0845V31.071ZM167.992 30.2569V32.8853H164.975C165.085 32.7318 165.174 32.5635 165.236 32.3852C165.309 32.1627 165.345 31.929 165.342 31.6942V30.2581H167.992V30.2569ZM169.356 29.234H164.013V31.4729C164.019 31.7518 163.971 32.0284 163.873 32.2881C163.774 32.5184 163.625 32.7227 163.435 32.8853H163.046V35H164.305V33.9071H168.679V35H169.929V32.8853H169.352L169.356 29.234ZM157.3 31.0044C157.295 30.8392 157.325 30.6748 157.388 30.5223C157.415 30.4701 157.452 30.4241 157.497 30.3868C157.542 30.3496 157.594 30.3219 157.65 30.3055C157.842 30.254 158.041 30.2316 158.24 30.2389H159.849C160.045 30.2321 160.241 30.2547 160.431 30.3055C160.488 30.3209 160.541 30.3476 160.588 30.384C160.634 30.4204 160.673 30.4659 160.703 30.5177C160.77 30.669 160.8 30.8339 160.79 30.9998V32.1627C160.796 32.3143 160.77 32.4654 160.715 32.6064C160.689 32.6543 160.653 32.6963 160.611 32.7297C160.568 32.7631 160.519 32.7873 160.466 32.8006C160.272 32.8502 160.071 32.8711 159.871 32.8627H158.223C158.027 32.8693 157.831 32.8484 157.641 32.8006C157.532 32.7693 157.44 32.6964 157.383 32.5974C157.321 32.4587 157.292 32.3069 157.3 32.1548V31.0044ZM161.31 29.3582C160.953 29.2502 160.581 29.2007 160.208 29.2115H157.916C157.607 29.2062 157.298 29.2331 156.994 29.2916C156.773 29.3334 156.564 29.4271 156.386 29.566C156.223 29.7012 156.103 29.8813 156.041 30.0842C155.963 30.344 155.928 30.6146 155.936 30.8858V32.3005C155.93 32.5489 155.967 32.7961 156.044 33.031C156.113 33.2297 156.234 33.4058 156.395 33.539C156.576 33.6813 156.787 33.7795 157.012 33.8269C157.307 33.8935 157.609 33.9252 157.912 33.9206H160.203C160.513 33.9252 160.822 33.8947 161.126 33.8315C161.346 33.7874 161.552 33.6926 161.73 33.5526C161.882 33.4194 161.994 33.2467 162.054 33.0535C162.122 32.8102 162.155 32.5579 162.15 32.305V30.9073C162.166 30.5573 162.095 30.2088 161.944 29.8934C161.802 29.6472 161.575 29.4629 161.306 29.3763L161.31 29.3582ZM153.101 30.9468C153.057 30.9922 153.004 31.0274 152.945 31.0496C152.886 31.0719 152.823 31.0807 152.761 31.0755H150.272V30.1903H152.752C152.88 30.1807 153.007 30.2184 153.11 30.2965C153.15 30.3327 153.181 30.3773 153.201 30.4271C153.222 30.4768 153.231 30.5305 153.229 30.5844C153.232 30.6472 153.223 30.71 153.202 30.7692C153.181 30.8283 153.148 30.8826 153.106 30.9287L153.101 30.9468ZM150.277 31.9821H152.761C152.909 31.9776 153.055 31.9956 153.197 32.0352C153.232 32.044 153.265 32.0599 153.294 32.0821C153.323 32.1042 153.347 32.1321 153.364 32.1639C153.398 32.2531 153.412 32.3479 153.408 32.4427C153.412 32.5436 153.396 32.6443 153.36 32.7385C153.34 32.7711 153.314 32.7993 153.283 32.8214C153.252 32.8435 153.218 32.8591 153.181 32.8673C153.024 32.9023 152.864 32.9169 152.704 32.9124H150.263L150.277 31.9821ZM154.059 31.4244C154.201 31.3732 154.325 31.2832 154.418 31.1647C154.546 30.9366 154.602 30.6758 154.58 30.4161C154.59 30.1626 154.511 29.9136 154.357 29.7127C154.192 29.5217 153.972 29.3872 153.727 29.3277C153.398 29.2444 153.06 29.2057 152.722 29.2126H148.908V33.9071H152.975C153.314 33.9161 153.652 33.8698 153.977 33.7694C154.221 33.696 154.432 33.5401 154.576 33.3279C154.717 33.0806 154.785 32.7973 154.773 32.5139C154.795 32.243 154.717 31.9732 154.553 31.7574C154.411 31.6183 154.239 31.5137 154.051 31.4515L154.059 31.4244ZM143.459 30.2084V31.4819H140.954C140.765 31.4976 140.577 31.4443 140.424 31.3318C140.309 31.1973 140.251 31.0224 140.263 30.8452C140.245 30.6701 140.294 30.4949 140.398 30.354C140.545 30.2402 140.73 30.1877 140.914 30.2073H143.459V30.2084ZM139.799 29.3718C139.525 29.4612 139.289 29.6445 139.134 29.89C138.961 30.1948 138.877 30.5426 138.894 30.8948C138.894 31.1229 138.953 31.3487 139.064 31.5497C139.172 31.745 139.322 31.9155 139.502 32.0487C139.638 32.1605 139.794 32.2452 139.961 32.3005L138.408 33.915H140.197L141.443 32.4698H143.459V33.915H144.824V29.2295H140.809C140.467 29.2219 140.126 29.2699 139.799 29.3718ZM132.142 29.2306H137.678V33.9071H136.313V30.2569H133.502V32.1944C133.502 33.3324 132.982 33.9071 131.963 33.9071H131.381V32.8853H131.438C131.587 32.8911 131.736 32.8654 131.876 32.8097C131.921 32.7866 131.961 32.7542 131.994 32.7145C132.026 32.6749 132.05 32.6288 132.064 32.5794C132.107 32.4123 132.126 32.2395 132.12 32.0668L132.142 29.2306ZM128.788 30.2524V32.8808H125.77C125.885 32.7295 125.975 32.5602 126.037 32.3806C126.11 32.1583 126.146 31.925 126.141 31.6908V30.2569L128.788 30.2524ZM130.148 29.2306H124.813V31.4695C124.816 31.7544 124.762 32.037 124.655 32.3005C124.558 32.5319 124.408 32.7374 124.218 32.8989H123.829V35H125.092V33.9071H129.465V35H130.716V32.8853H130.135L130.148 29.2306ZM113.11 31.9561H115.104C115.313 31.9448 115.522 31.9776 115.717 32.0532C115.796 32.1208 115.851 32.2128 115.873 32.315C115.896 32.4173 115.884 32.524 115.84 32.6189C115.811 32.6822 115.769 32.7385 115.717 32.7837C115.531 32.8597 115.33 32.8928 115.13 32.8808H113.11V31.955V31.9561ZM116.394 31.071C116.047 30.9817 115.689 30.9414 115.332 30.9513H113.11V29.2306H111.75V33.9071H115.358C115.638 33.9116 115.917 33.8902 116.194 33.8405C116.403 33.8123 116.603 33.74 116.784 33.6282C116.942 33.5185 117.065 33.3647 117.137 33.1856C117.224 32.9519 117.264 32.7047 117.256 32.4563C117.273 32.1378 117.199 31.8211 117.042 31.544C116.887 31.3253 116.661 31.1687 116.403 31.1015L116.394 31.071ZM118.397 29.2792H119.761V33.9071H118.397V29.2781V29.2792ZM106.616 30.301H108.637C108.848 30.2758 109.061 30.3292 109.236 30.4511C109.293 30.5167 109.336 30.5933 109.362 30.6762C109.388 30.7591 109.398 30.8466 109.389 30.9332C109.395 31.0648 109.372 31.1961 109.323 31.3182C109.301 31.3649 109.27 31.4066 109.231 31.4409C109.193 31.4752 109.148 31.5014 109.099 31.5181C108.951 31.5708 108.794 31.5945 108.637 31.5881H106.615V30.301H106.616ZM110.307 29.6552C110.137 29.516 109.938 29.4176 109.725 29.3673C109.439 29.3009 109.146 29.2714 108.852 29.2792H105.238V33.9071H106.602V32.5794H108.868C109.229 32.5918 109.59 32.5342 109.93 32.4111C110.196 32.3095 110.416 32.1131 110.546 31.8579C110.686 31.5599 110.754 31.2324 110.743 30.9027C110.749 30.6451 110.713 30.3882 110.639 30.1418C110.574 29.942 110.458 29.7631 110.302 29.6235L110.306 29.6552H110.307ZM98.6757 29.2487H104.416V30.2705H102.23V33.9252H100.865V30.2558H98.6791L98.6746 29.2476L98.6757 29.2487ZM94.6567 31.9731H96.6494C96.8577 31.9618 97.0636 31.9956 97.2584 32.0713C97.3377 32.1388 97.3927 32.2308 97.415 32.3331C97.4372 32.4353 97.4255 32.5421 97.3816 32.6369C97.3528 32.6999 97.3108 32.7558 97.2584 32.8006C97.0725 32.8768 96.8721 32.91 96.6718 32.8977H94.6478L94.6556 31.9731H94.6567ZM97.9402 31.0879C97.5916 30.9993 97.2327 30.9594 96.8733 30.9694H94.6567V29.2306H93.2909V33.9071H96.9035C97.1834 33.9116 97.4633 33.8902 97.7387 33.8405C97.948 33.8055 98.1473 33.7276 98.3253 33.6102C98.4827 33.5002 98.6054 33.347 98.6791 33.1687C98.7641 32.935 98.8045 32.6866 98.7977 32.4382C98.8143 32.1196 98.7397 31.803 98.5828 31.526C98.4286 31.3073 98.2025 31.1509 97.9447 31.0845L97.9402 31.0879ZM86.6624 29.2611H92.2028V33.9071H90.8381V30.2569H88.0226V32.1944C88.0226 33.3324 87.5065 33.9071 86.4833 33.9071H85.9011V32.8853H85.9571C86.1067 32.8915 86.2558 32.8657 86.3948 32.8097C86.4406 32.787 86.4811 32.7547 86.5135 32.715C86.546 32.6753 86.5696 32.629 86.5829 32.5794C86.6277 32.4123 86.6456 32.2395 86.64 32.0668L86.6624 29.2611ZM82.818 29.2611H85.0044V33.9071H83.6409V30.2569H83.5491L80.4134 33.9071H78.1867V29.2306H79.5525V32.8853H79.6387L82.818 29.2611ZM73.4904 30.6103H74.6927C74.8886 30.6047 75.0845 30.625 75.2749 30.6724C75.3319 30.6876 75.3852 30.7142 75.4318 30.7507C75.4784 30.7871 75.5171 30.8327 75.5458 30.8847C75.6104 31.0366 75.6388 31.2018 75.6286 31.3668V31.7653C75.636 31.9165 75.6108 32.0675 75.5547 32.2079C75.5295 32.2565 75.4941 32.299 75.451 32.3326C75.4079 32.3661 75.3581 32.3898 75.3051 32.4021C75.1103 32.4495 74.911 32.471 74.7106 32.4642H73.4904V30.6103ZM69.992 31.3668C69.9829 31.2014 70.0128 31.0362 70.0793 30.8847C70.1079 30.8327 70.1466 30.7871 70.1932 30.7506C70.2398 30.7141 70.2932 30.6875 70.3502 30.6724C70.5405 30.625 70.7364 30.6047 70.9323 30.6103H72.1302V32.4777H70.91C70.7084 32.4845 70.5069 32.4631 70.311 32.4156C70.2584 32.4027 70.2091 32.3787 70.1663 32.3452C70.1235 32.3117 70.0881 32.2696 70.0625 32.2215C70.0066 32.081 69.981 31.9301 69.9875 31.7789L69.992 31.3668ZM76.1145 29.7297C75.7569 29.6246 75.3852 29.5769 75.0129 29.5885H73.4904V29.234H72.1257V29.5885H70.5696C70.197 29.577 69.8249 29.6247 69.4669 29.7297C69.1982 29.8155 68.9699 30.0006 68.8288 30.2479C68.6754 30.5618 68.6049 30.9106 68.6239 31.2606V31.885C68.6172 32.1379 68.6497 32.3897 68.7191 32.6324C68.7769 32.8286 68.8896 33.0039 69.0437 33.1371C69.2195 33.2771 69.4266 33.3719 69.6472 33.416C69.9494 33.4792 70.2595 33.5085 70.5696 33.504H72.1257V33.9105H73.4915V33.504H75.0342C75.3443 33.5085 75.6533 33.4792 75.9566 33.416C76.177 33.3721 76.3841 33.2766 76.5612 33.1371C76.7139 33.0049 76.8257 32.8313 76.8836 32.6369C76.9507 32.3931 76.9821 32.139 76.9754 31.885V31.2606C76.9937 30.911 76.9231 30.5624 76.7705 30.2479C76.624 29.9983 76.3899 29.8133 76.1145 29.7297ZM54.9929 29.2306H60.7393V30.2524H58.5518V33.9071H57.1894V30.2569H55.003L54.9941 29.2295L54.9929 29.2306ZM52.9555 29.2306H54.3716L54.3369 29.3097L52.2994 33.9026H50.3873L49.1727 30.8982L47.9558 33.9026H46.0504V33.8676L43.9872 29.2261H45.4033V29.26L47.0176 32.8808L48.4864 29.2261H49.8768V29.26L51.3423 32.8673H51.3647L52.9555 29.2306ZM41.4403 30.9468C41.3948 30.9911 41.3407 31.0255 41.2813 31.0477C41.222 31.0698 41.1587 31.0793 41.0955 31.0755H38.6057V30.1903H41.0854C41.2137 30.1804 41.3411 30.2182 41.4437 30.2965C41.4839 30.3321 41.5155 30.3766 41.5361 30.4265C41.5566 30.4764 41.5656 30.5304 41.5623 30.5844C41.5655 30.6471 41.5562 30.7099 41.535 30.769C41.5139 30.8281 41.4813 30.8824 41.4392 30.9287V30.9468H41.4403ZM38.6069 31.9821H41.0955C41.2422 31.9776 41.3899 31.9956 41.5321 32.0352C41.567 32.0443 41.5997 32.0604 41.6284 32.0826C41.657 32.1047 41.681 32.1323 41.6989 32.1639C41.7325 32.2531 41.7471 32.3479 41.7426 32.4427C41.7479 32.5437 41.7315 32.6446 41.6944 32.7385C41.6749 32.7712 41.6489 32.7995 41.6181 32.8216C41.5873 32.8438 41.5523 32.8593 41.5153 32.8673C41.3586 32.9023 41.1985 32.9169 41.0384 32.9124H38.6057V31.9821H38.6069ZM42.3896 31.4244C42.532 31.3733 42.6576 31.2834 42.7524 31.1647C42.88 30.9366 42.9371 30.6758 42.9147 30.4161C42.9255 30.163 42.8478 29.914 42.6953 29.7127C42.53 29.5219 42.3102 29.3874 42.0661 29.3277C41.7372 29.2447 41.3987 29.2059 41.0597 29.2126H37.2467V33.9071H41.3183C41.6575 33.9161 41.9956 33.8698 42.3191 33.7694C42.5648 33.6963 42.7781 33.5405 42.9236 33.3279C43.0647 33.0806 43.133 32.7973 43.1196 32.5139C43.1418 32.2425 43.0623 31.9725 42.8968 31.7574C42.754 31.6183 42.5817 31.5137 42.393 31.4515L42.3896 31.4244ZM42.9315 20.624V17.7484H52.6442C53.9876 17.7484 54.394 18.2745 54.394 19.1823C54.394 20.2526 54.1007 20.6274 52.6442 20.6274L42.9315 20.624ZM59.8863 19.2218C59.8863 15.1505 57.6473 13.5269 53.8902 13.5269H42.927V11.0623H58.3201V6.55742H37.2512V24.9031H53.8902C56.9084 24.9031 59.8863 23.1102 59.8863 19.2218ZM94.5996 11.3897H102.641C103.193 11.3709 103.732 11.5583 104.155 11.9158C104.57 12.4058 104.777 13.0415 104.731 13.6861C104.749 14.008 104.692 14.3297 104.563 14.6249C104.435 14.9202 104.239 15.1807 103.992 15.3853C103.591 15.6563 103.119 15.8008 102.638 15.8008H94.5996V11.3897ZM94.5996 20.6816H102.641C105.527 20.6816 107.238 20.2605 108.475 19.3098C109.385 18.5624 110.329 16.4782 110.329 13.6195C110.329 10.7608 109.559 8.8279 108.326 7.81403C107.093 6.80129 105.646 6.56645 102.641 6.56645H88.9406V24.894H94.594L94.5996 20.6816ZM172.636 15.3718C172.232 15.6427 171.76 15.7861 171.276 15.7873H163.229V11.3626H171.272C171.823 11.3434 172.362 11.5308 172.785 11.8898C172.993 12.1317 173.151 12.4124 173.251 12.716C173.35 13.0196 173.39 13.3401 173.366 13.659C173.384 13.9804 173.327 14.3016 173.2 14.5967C173.072 14.8918 172.878 15.1527 172.632 15.3582L172.636 15.3718ZM176.957 7.79258C175.719 6.77871 174.28 6.53935 171.272 6.53935H157.571V24.9031H163.229V20.6861H171.272C174.158 20.6861 175.867 20.265 177.101 19.3144C178.011 18.5703 178.955 16.4827 178.955 13.624C178.955 10.7653 178.19 8.8279 176.952 7.81403L176.957 7.79145V7.79258ZM135.285 6.55742H155.035V11.0352H140.931V13.5269H154.418V18.0047H140.931V20.659H155.039V24.9076H135.29L135.285 6.55742ZM73.5296 10.7348H74.4039L77.4657 17.2042H70.4689L73.5296 10.7348ZM79.5424 22.0003L81.4534 24.894H87.9218L78.8349 6.56194H69.1658L59.8851 24.8895H66.4017L68.1067 21.9958L79.5424 22.0003ZM125.648 20.2571H117.597V15.9826H125.652C127.209 15.9826 127.747 16.9197 127.747 18.1955C127.763 18.4758 127.72 18.7564 127.62 19.0185C127.52 19.2806 127.365 19.5181 127.167 19.7152C126.969 19.9116 126.731 20.0627 126.469 20.1583C126.208 20.254 125.929 20.2919 125.652 20.2695L125.648 20.2571ZM133.349 17.8455C133.349 14.9823 132.234 13.3632 131.319 12.6147C130.082 11.6595 128.543 11.0837 125.634 11.0837H117.597V6.53935H111.938V24.9031H125.652C128.657 24.9031 130.104 24.6637 131.337 23.6498C132.571 22.6371 133.344 20.6952 133.344 17.8319" fill="#004990"/>
</svg>
