<svg width="72" height="82" viewBox="0 0 72 82" fill="none" xmlns="http://www.w3.org/2000/svg">
<path d="M14.7807 53.2799H2.21206C1.46504 53.2799 0.860558 53.8851 0.860558 54.6314C0.860558 56.7887 1.69996 58.8252 3.23492 60.3766C4.77647 61.901 6.81296 62.7404 8.96954 62.7404H21.133C21.6676 62.7404 22.1506 62.4256 22.3684 61.938L25.1875 55.5942V64.8838L21.4066 68.6653L10.0703 67.472C8.07601 67.2647 6.06197 67.9134 4.5653 69.2603C3.06995 70.6072 2.21206 72.5341 2.21206 74.5475C2.21206 78.47 5.40339 81.6614 9.32589 81.6614H20.6328H51.3649H62.6784C66.5982 81.6614 69.7869 78.4727 69.7869 74.5528C69.7869 70.6329 66.6035 67.4436 62.6916 67.4436C62.4329 67.4436 62.1768 67.4469 61.9287 67.4779L50.5973 68.6703L46.8115 64.8838V55.5942L49.6306 61.938C49.8484 62.4256 50.3314 62.7404 50.866 62.7404H63.0294C65.186 62.7404 67.2225 61.901 68.7746 60.366C70.299 58.8252 71.1384 56.7887 71.1384 54.6314C71.1384 53.8851 70.534 53.2799 69.7869 53.2799H57.2183L54.7199 46.43C54.1794 44.9288 53.3334 43.6064 52.3037 42.4641C61.6464 42.4221 69.0449 35.6376 69.3567 35.3482C69.6312 35.0921 69.7869 34.7338 69.7869 34.359C69.7869 33.9835 69.6312 33.6251 69.3567 33.3698C69.0775 33.1107 63.0698 27.6222 55.0834 26.4736C59.9463 20.0072 60.3121 11.8528 60.3251 11.4719C60.3383 11.0971 60.1958 10.7335 59.9305 10.4682C59.6652 10.2029 59.2877 10.0458 58.9274 10.0729C58.545 10.0866 50.3658 10.4533 43.8939 15.3396C42.7667 7.3205 37.2501 1.28274 36.9894 1.00244C36.4773 0.452068 35.5217 0.452068 35.0096 1.00244C34.7489 1.28274 29.2323 7.32051 28.1051 15.3396C21.6332 10.4533 13.454 10.0866 13.0715 10.0729C12.6954 10.0492 12.3324 10.2029 12.0685 10.4682C11.8032 10.7335 11.6606 11.0971 11.6738 11.4719C11.6869 11.8517 12.0504 19.9619 16.9269 26.4721C8.93489 27.6172 2.92162 33.1107 2.6423 33.3698C2.36779 33.6251 2.21206 33.9835 2.21206 34.359C2.21206 34.7338 2.36779 35.0921 2.64232 35.3482C2.95412 35.6376 10.3521 42.4215 19.6945 42.4641C18.666 43.605 17.8211 44.9256 17.2818 46.4241L14.7807 53.2799ZM20.6328 78.9584H9.32589C6.89347 78.9584 4.91505 76.98 4.91505 74.5475C4.91505 73.2812 5.43374 72.1164 6.37478 71.2691C7.1957 70.5294 8.22517 70.1354 9.31007 70.1354C9.46845 70.1354 9.62814 70.1433 9.78785 70.1604L51.5958 74.5614C52.7203 74.6795 53.569 75.6225 53.569 76.7536C53.569 77.9692 52.5804 78.9584 51.3649 78.9584H20.6328ZM62.2376 70.1631C62.3946 70.1433 62.5424 70.1459 62.6916 70.1466C65.1134 70.1466 67.0839 72.123 67.0839 74.5528C67.0839 76.982 65.1082 78.9584 62.6784 78.9584H55.7247C56.0631 78.2924 56.272 77.5504 56.272 76.7536C56.272 74.2354 54.3833 72.1369 51.8783 71.8729L48.9351 71.5631L62.2376 70.1631ZM55.0023 55.0947C55.1963 55.6279 55.7044 55.9829 56.272 55.9829H68.2665C68.0289 56.9094 67.5498 57.7607 66.8635 58.4549C65.8314 59.4752 64.4694 60.0374 63.0294 60.0374H51.7436L46.6953 48.6764C46.4353 48.0937 45.815 47.767 45.1789 47.9036C44.5546 48.0356 44.1085 48.5873 44.1085 49.2254V65.4434C44.1085 65.8017 44.251 66.1456 44.5044 66.399L47.1392 69.0341L36.0227 70.2038L24.8646 69.0293L27.4946 66.399C27.748 66.1456 27.8905 65.8017 27.8905 65.4434V49.2254C27.8905 48.5873 27.4444 48.0356 26.8201 47.9036C26.1866 47.767 25.5624 48.0937 25.3037 48.6764L20.2553 60.0374H8.96954C7.52962 60.0374 6.16756 59.4752 5.14602 58.4655C4.4518 57.764 3.97006 56.9101 3.73249 55.9829H15.727C16.2946 55.9829 16.8027 55.6279 16.9967 55.0947L19.8238 47.3447C21.1634 43.6195 24.7309 41.1164 28.7009 41.1164H43.2981C47.2681 41.1164 50.8356 43.6195 52.1779 47.3506L55.0023 55.0947ZM32.7685 38.4135C34.1795 37.5424 35.2846 36.7127 35.9995 36.1347C36.7144 36.7127 37.8195 37.5424 39.2305 38.4135H32.7685ZM52.2175 39.7649C46.9152 39.7649 42.1832 37.1857 39.4311 35.3025C42.9353 34.6731 48.5033 33.0565 52.8516 28.9745C58.8488 29.2055 64.0478 32.6238 66.3105 34.359C63.9705 36.1552 58.4853 39.7649 52.2175 39.7649ZM51.3292 26.7132C47.5575 30.4858 42.353 32.0025 39.0796 32.6095C41.1185 29.6792 43.9134 24.6048 44.0838 18.6974C48.4984 14.5674 54.6361 13.2992 57.4743 12.9257C57.0929 15.8346 55.7744 22.2205 51.3292 26.7132ZM36.0008 4.04594C37.7971 6.38071 41.4055 11.8534 41.4055 18.141C41.4055 24.4088 37.7931 29.896 35.9982 32.236C34.2019 29.9013 30.5935 24.4286 30.5935 18.141C30.5935 11.8731 34.2059 6.38599 36.0008 4.04594ZM27.9152 18.6973C28.0857 24.6064 30.8821 29.6822 32.9211 32.6121C29.6475 32.0046 24.433 30.4777 20.6077 26.6512C16.2233 22.2199 14.9087 15.8333 14.526 12.9231C17.3606 13.2921 23.4878 14.5535 27.9152 18.6973ZM19.1415 28.9747C23.4531 33.0616 29.0459 34.6761 32.5651 35.3044C29.8125 37.1874 25.0819 39.7649 19.7815 39.7649C13.5137 39.7649 8.02851 36.1552 5.68847 34.359C7.95031 32.6244 13.1468 29.2078 19.1415 28.9747Z" fill="white"/>
<path d="M34.648 43.8195H37.351V46.5225H34.648V43.8195Z" fill="white"/>
<path d="M34.648 49.2255H37.351V51.9285H34.648V49.2255Z" fill="white"/>
<path d="M34.648 54.6315H37.351V57.3345H34.648V54.6315Z" fill="white"/>
</svg>
