<svg width="88" height="88" viewBox="0 0 88 88" fill="none" xmlns="http://www.w3.org/2000/svg">
<path d="M44.1254 9.31818C45.0648 9.31818 45.8265 8.5566 45.8265 7.61709V2.51383C45.8265 1.57432 45.0648 0.812744 44.1254 0.812744C43.1861 0.812744 42.4243 1.57432 42.4243 2.51383V7.61709C42.4243 8.5566 43.1861 9.31818 44.1254 9.31818Z" fill="white"/>
<path d="M79.8482 46.0617H85.9722C86.9115 46.0617 87.6732 45.3001 87.6732 44.3606C87.6732 43.4211 86.9115 42.6595 85.9722 42.6595H79.8482C78.9089 42.6595 78.1472 43.4211 78.1472 44.3606C78.1472 45.3001 78.9089 46.0617 79.8482 46.0617Z" fill="white"/>
<path d="M2.27872 46.0617H8.40263C9.34197 46.0617 10.1037 45.3001 10.1037 44.3606C10.1037 43.4211 9.34197 42.6595 8.40263 42.6595H2.27872C1.33938 42.6595 0.577637 43.4211 0.577637 44.3606C0.577637 45.3001 1.33938 46.0617 2.27872 46.0617Z" fill="white"/>
<path d="M70.5879 19.2833L74.1976 15.6736C74.8619 15.0093 74.8619 13.9322 74.1976 13.2677C73.5332 12.6035 72.4564 12.6035 71.7917 13.2677L68.182 16.8774C67.5178 17.5417 67.5178 18.6188 68.182 19.2833C68.8465 19.9476 69.9233 19.9476 70.5879 19.2833Z" fill="white"/>
<path d="M17.663 19.2833C18.3274 19.9476 19.4042 19.9476 20.0688 19.2833C20.7331 18.619 20.7331 17.5419 20.0688 16.8774L16.4591 13.2677C15.7947 12.6035 14.7179 12.6035 14.0533 13.2677C13.389 13.932 13.389 15.0091 14.0533 15.6736L17.663 19.2833Z" fill="white"/>
<path d="M44.1254 87.9084C45.0649 87.9084 45.8265 87.1468 45.8265 86.2073C45.8265 85.2678 45.0649 84.5062 44.1254 84.5062C43.1859 84.5062 42.4243 85.2678 42.4243 86.2073C42.4243 87.1468 43.1859 87.9084 44.1254 87.9084Z" fill="white"/>
<path d="M19.4597 41.8089V54.567C19.4597 63.8912 26.9637 69.2459 29.6662 70.8716V86.2073C29.6662 87.1468 30.428 87.9083 31.3673 87.9083H36.4705C37.4099 87.9083 38.1716 87.1468 38.1716 86.2073C38.1716 85.2677 37.4099 84.5062 36.4705 84.5062H33.0684V69.8768C33.0684 69.235 32.704 68.6463 32.1311 68.3569C32.0384 68.3101 22.8619 63.5704 22.8619 54.567V41.8089C22.8619 39.9329 24.3881 38.4067 26.264 38.405H44.805C44.0149 42.2842 40.578 45.2111 36.4705 45.2111H31.3673C30.428 45.2111 29.6662 45.9727 29.6662 46.9122C29.6662 47.8517 30.428 48.6132 31.3673 48.6132C38.8711 48.6132 44.976 54.7181 44.976 62.2219C44.976 63.1614 45.7377 63.923 46.6771 63.923C47.6164 63.923 48.3782 63.1614 48.3782 62.2219C48.3782 57.532 52.1937 53.7165 56.8836 53.7165C57.8229 53.7165 58.5847 52.9549 58.5847 52.0154C58.5847 51.0759 57.8229 50.3143 56.8836 50.3143C52.7831 50.3143 49.1603 52.3978 47.0176 55.5615C45.6692 52.4051 43.3947 49.7353 40.5356 47.8986C43.4952 46.8203 45.9092 44.5987 47.244 41.7716C48.4489 42.8517 50.0389 43.5032 51.7805 43.5032C52.2165 43.5032 52.6623 43.51 53.0725 43.51C53.8747 43.51 54.6484 43.4909 55.3606 43.3489C56.0603 46.3612 58.7646 48.6132 61.9868 48.6132C63.2257 48.6132 64.3874 48.2788 65.389 47.6979V54.567C65.389 63.5704 56.2125 68.3101 56.1229 68.3554C55.5465 68.6435 55.1825 69.2325 55.1825 69.8768V84.5062H51.7803C50.841 84.5062 50.0792 85.2677 50.0792 86.2073C50.0792 87.1468 50.841 87.9083 51.7803 87.9083H56.8836C57.8229 87.9083 58.5847 87.1468 58.5847 86.2073V70.8716C61.2872 69.2459 68.7912 63.8912 68.7912 54.567C68.7912 51.1809 68.7912 38.5015 68.7912 33.1334C68.7912 29.3814 65.7388 26.329 61.9868 26.329C60.7301 26.329 59.5524 26.6728 58.5411 27.2695C58.1616 23.8743 55.275 21.2258 51.7803 21.2258C50.5236 21.2258 49.3459 21.5695 48.3346 22.1663C47.9551 18.7711 45.0685 16.1225 41.5738 16.1225C38.0791 16.1225 35.1925 18.7711 34.813 22.1663C33.8017 21.5695 32.6241 21.2258 31.3673 21.2258C27.6154 21.2258 24.5629 24.2782 24.5629 28.0301V35.2199C21.6315 35.9772 19.4597 38.6442 19.4597 41.8089ZM61.9868 29.7312C63.8628 29.7312 65.389 31.2574 65.389 33.1334V41.8089C65.389 43.6849 63.8628 45.2111 61.9868 45.2111C60.1109 45.2111 58.5847 43.6849 58.5847 41.8089V33.1334C58.5847 31.2574 60.1109 29.7312 61.9868 29.7312ZM51.7803 24.6279C53.6563 24.6279 55.1825 26.1541 55.1825 28.0301V39.2573C55.1825 39.7397 55.0854 39.8751 55.0843 39.8761C54.8287 40.1298 53.3516 40.118 52.4689 40.1114C52.2437 40.1095 52.0137 40.1078 51.7803 40.1078C49.9044 40.1078 48.3782 38.5816 48.3782 36.7056V28.0301C48.3782 26.1541 49.9044 24.6279 51.7803 24.6279ZM38.1716 22.9268C38.1716 21.0509 39.6979 19.5247 41.5738 19.5247C43.4498 19.5247 44.976 21.0509 44.976 22.9268V35.0046H38.1716V22.9268ZM31.3673 24.6279C33.2432 24.6279 34.7695 26.1541 34.7695 28.0301V35.0046H27.9651V28.0301C27.9651 26.1541 29.4913 24.6279 31.3673 24.6279Z" fill="white"/>
</svg>
