<svg width="825" height="1617" viewBox="0 0 825 1617" fill="none" xmlns="http://www.w3.org/2000/svg">
<path d="M1142.47 969.48C1108.36 1012.45 1050.28 1036.74 1000.72 1050.29C983.646 1054.93 965.559 1059.11 948.228 1063.21C889.352 1077.25 828.377 1091.35 782.942 1127.39C735.414 1165.2 709.675 1222.72 684.686 1278.43L681.813 1285.07C655.784 1343.39 625.685 1402.93 571.801 1437.08C518.795 1470.54 432.488 1472.43 379.905 1417.98C348.151 1384.88 337.066 1341.74 327.009 1292.56L295.726 1140.33C287.894 1102.18 278.01 1054.51 293.699 1016.14C305.976 986.399 331.561 965.846 356.478 946.137C374.358 931.83 392.951 917.058 406.531 898.652C444.307 847.602 440.507 776.255 437.011 707.553L436.868 702.975C433.105 630.284 435.933 556.643 482.301 512.071C530.385 465.77 611.489 465.251 683.829 468.42C751.169 471.397 834.684 475.196 887.104 431.65C909.128 413.421 923.816 387.996 938.046 363.581C949.687 343.292 961.663 322.581 977.895 305.592C1047.38 232.328 1166.65 260.73 1231.38 284.299C1278.91 301.422 1311.29 335.027 1322.46 378.918C1333.42 420.921 1322.67 465.61 1293.73 498.608C1276.46 518.204 1255.56 534.581 1235.21 550.703C1226.25 557.667 1216.95 565.053 1208.03 572.395C1185.34 591.467 1154 621.869 1143.9 662.272C1133.76 702.296 1144.98 746.566 1155.68 789.745C1165.96 830.868 1176.58 873.291 1169.05 912.634C1164.68 934.576 1155.34 953.26 1142.47 969.48ZM747.201 1161.17C757.4 1148.32 768.864 1136.47 782.012 1125.97C827.615 1089.71 888.924 1075.2 948.01 1061.32C965.342 1057.22 983.051 1053.08 1000.3 1048.23C1067.85 1029.74 1151.66 991.202 1167.07 912.095C1174.48 873.341 1164.07 831.085 1153.63 790.173C1142.92 746.993 1131.66 702.346 1141.92 661.733C1152.31 620.532 1184.03 590.085 1206.89 570.803C1215.6 563.294 1225.11 556.076 1234.24 548.9C1254.42 532.989 1275.32 516.613 1292.42 497.226C1320.86 464.861 1331.49 420.76 1320.79 379.303C1309.7 336.167 1277.74 302.897 1231.01 286.064C1166.49 262.663 1048.02 234.552 979.58 306.93C963.726 323.875 951.75 344.586 940.065 364.497C925.668 389.123 910.981 414.548 888.79 432.988C835.657 476.998 751.764 473.243 684.213 470.098C612.252 466.886 531.693 467.151 484.154 513.198C438.665 557.095 435.583 630.19 439.302 702.504L439.446 707.081C442.985 776.161 446.661 848.097 408.551 899.568C394.803 918.185 376.21 932.957 358.163 947.474C333.624 967.141 307.996 987.315 296.053 1016.64C280.488 1054.41 290.329 1101.71 298.117 1139.48L329.4 1291.71C339.414 1340.52 350.288 1383.49 381.787 1416.04C433.739 1469.99 518.869 1467.86 571.162 1434.85C624.334 1401.17 654.266 1341.84 680.339 1283.9L683.212 1277.25C701.204 1237.28 719.946 1195.51 747.201 1161.17Z" fill="white" fill-opacity="0.2"/>
</svg>
