<svg width="229" height="198" viewBox="0 0 229 198" fill="none" xmlns="http://www.w3.org/2000/svg">
<path d="M203.657 58.7715C183.384 31.6698 145.687 24.1078 116.894 32.5848C67.2693 47.1957 44.3206 110.712 66.9419 148.137C91.8859 189.401 139.815 193.909 168.192 179.389C204.972 160.57 229.432 119.912 212.735 80.2714" stroke="#FFD2B3" stroke-width="15" stroke-miterlimit="1.5" stroke-linecap="round" stroke-linejoin="round"/>
<path d="M124.321 82.7337C122.555 86.6595 121.147 90.8118 119.927 94.9416" stroke="#FF6900" stroke-width="15" stroke-miterlimit="1.5" stroke-linecap="round" stroke-linejoin="round"/>
<path d="M161.377 91.4263C160.077 96.3911 158.999 101.648 157.177 106.467" stroke="#FF6900" stroke-width="15" stroke-miterlimit="1.5" stroke-linecap="round" stroke-linejoin="round"/>
<path d="M95.4873 112.3C95.481 117.244 97.1469 122.019 99.6188 126.241C111.741 146.95 143.893 150.109 160.914 133.595" stroke="#FF6900" stroke-width="15" stroke-miterlimit="1.5" stroke-linecap="round" stroke-linejoin="round"/>
<path fill-rule="evenodd" clip-rule="evenodd" d="M73.5585 88.9206C61.021 95.6836 18.1849 82.007 10.2328 61.8005C4.63631 47.581 12.1981 32.7712 26.0213 31.192C33.4541 30.3422 40.2191 34.9715 46.3442 38.6189C46.9345 30.7569 47.3685 20.6106 52.9853 14.5999C63.1146 3.75988 79.6381 6.95335 88.6641 20.6104C100.202 38.0682 85.2562 82.6112 73.5585 88.9206Z" fill="white" stroke="#FF6900" stroke-width="15" stroke-miterlimit="1.5" stroke-linecap="round" stroke-linejoin="round"/>
</svg>
