<svg width="32" height="32" fill="none" xmlns="http://www.w3.org/2000/svg"><path d="M0 11.506C0 6.082 0 3.37 1.685 1.685 3.37 0 6.082 0 11.505 0h8.99c5.423 0 8.135 0 9.82 1.685C32 3.37 32 6.082 32 11.505v8.99c0 5.423 0 8.135-1.685 9.82C28.63 32 25.918 32 20.495 32h-8.99c-5.423 0-8.135 0-9.82-1.685C0 28.63 0 25.918 0 20.495v-8.99z" fill="#171513"/><path d="M10.484 22.8H5.6V9.6h4.878c1.346 0 2.506.264 3.478.793a5.421 5.421 0 012.258 2.268c.53.985.794 2.162.794 3.533 0 1.375-.265 2.556-.794 3.544a5.422 5.422 0 01-2.252 2.276c-.976.524-2.136.786-3.478.786zm-1.69-2.72h1.568c.74 0 1.366-.125 1.877-.374.517-.253.906-.664 1.168-1.23.267-.572.4-1.333.4-2.282 0-.95-.133-1.706-.4-2.27-.266-.566-.66-.975-1.18-1.224-.517-.253-1.153-.38-1.91-.38H8.794v7.76zm9.715 2.72V9.6h3.194v10.609H27.2V22.8h-8.69z" fill="#FF783D"/></svg>