<svg width="32" height="32" fill="none" xmlns="http://www.w3.org/2000/svg"><path d="M0 11.506C0 6.082 0 3.37 1.685 1.685 3.37 0 6.082 0 11.505 0h8.99c5.423 0 8.135 0 9.82 1.685C32 3.37 32 6.082 32 11.505v8.99c0 5.423 0 8.135-1.685 9.82C28.63 32 25.918 32 20.495 32h-8.99c-5.423 0-8.135 0-9.82-1.685C0 28.63 0 25.918 0 20.495v-8.99z" fill="#171513"/><path d="M10.484 22.8H5.6V9.6h4.878c1.346 0 2.505.264 3.478.793a5.42 5.42 0 012.258 2.269c.529.984.794 2.16.794 3.532 0 1.375-.265 2.556-.794 3.545a5.421 5.421 0 01-2.252 2.275c-.976.524-2.136.786-3.478.786zm-1.69-2.72h1.568c.74 0 1.365-.124 1.877-.374.516-.253.906-.663 1.168-1.23.267-.572.4-1.333.4-2.282 0-.95-.133-1.706-.4-2.27-.267-.566-.66-.974-1.18-1.224-.517-.253-1.153-.38-1.91-.38H8.794v7.76zm9.715 2.72V9.6h3.194v10.61H27.2v2.59h-8.691z" fill="#fff"/></svg>