<svg width="32" height="32" fill="none" xmlns="http://www.w3.org/2000/svg"><path d="M9.671 24.659l.965.564c1.628.95 3.48 1.448 5.364 1.444A10.667 10.667 0 105.334 16a10.6 10.6 0 001.445 5.365l.563.966-.871 3.201 3.2-.873zm-6.999 4.674l1.803-6.624A13.272 13.272 0 012.667 16C2.667 8.636 8.637 2.667 16 2.667c7.364 0 13.334 5.969 13.334 13.333S23.364 29.333 16 29.333a13.272 13.272 0 01-6.706-1.806l-6.622 1.806zm8.516-19.589c.179-.013.359-.013.538-.005.072.005.144.013.216.021.212.024.445.153.524.332.397.901.784 1.81 1.157 2.72.083.203.033.463-.124.716a5.83 5.83 0 01-.35.496c-.151.193-.475.548-.475.548s-.132.157-.082.353c.019.075.08.183.136.274l.079.126c.341.57.8 1.147 1.36 1.691.16.155.316.313.484.461.624.551 1.33 1 2.093 1.334l.007.002c.113.05.17.076.336.147.083.035.168.065.255.088a.466.466 0 00.489-.173c.965-1.17 1.053-1.246 1.061-1.246v.003a.643.643 0 01.504-.17.69.69 0 01.236.054c.708.324 1.867.83 1.867.83l.776.347c.13.063.25.211.253.354.006.089.014.233-.017.497-.043.345-.147.76-.25.977a1.539 1.539 0 01-.28.403c-.135.141-.283.27-.44.384a5.05 5.05 0 01-.167.12 6.69 6.69 0 01-.511.293 2.655 2.655 0 01-1.11.307c-.247.013-.494.032-.742.019-.01 0-.757-.116-.757-.116a12.597 12.597 0 01-5.12-2.728c-.302-.266-.58-.551-.866-.835-1.186-1.18-2.082-2.453-2.626-3.656a4.627 4.627 0 01-.442-1.885c-.005-.81.26-1.598.752-2.24.098-.126.19-.256.348-.407.17-.16.276-.245.392-.304a1.28 1.28 0 01.495-.133l.001.001z" fill="#171513"/></svg>