<svg width="154" height="49" fill="none" xmlns="http://www.w3.org/2000/svg"><path d="M17.406 38.834h-.651l-3.258-13.59H7.354V41.72h3.164V28.13h.652l3.258 13.59h5.398l3.258-13.59h.651v13.59H26.9V25.245h-6.143l-3.351 13.59zm32.298 2.886h11.263v-2.886h-8.005V34.74h6.888v-2.793h-6.888V28.13h8.005v-2.885H49.704V41.72zM38.35 39.3c-3.63 0-5.306-2.514-5.306-5.864 0-3.351 1.676-5.771 5.306-5.771s5.305 2.513 5.305 5.77c0 3.258-1.675 5.864-5.305 5.864zm0-14.52c-5.492 0-8.657 3.536-8.657 8.656 0 5.119 3.165 8.749 8.657 8.749 5.491 0 8.656-3.63 8.656-8.75 0-5.119-3.165-8.656-8.656-8.656zM63.2 41.72h3.443l3.817-6.516 4.188 6.516h3.444L72.6 33.063l5.213-7.818h-3.537l-3.63 5.864-3.63-5.864H63.48l5.026 7.725-5.305 8.75z" fill="#fff"/><path d="M131.892 29.899l1.303.186c-.279 1.49-1.582 2.327-2.978 2.327-2.234 0-3.258-1.583-3.258-3.723 0-2.141 1.117-3.63 3.351-3.63 1.396 0 2.42.651 2.885 1.954l-1.303.559c-.279-.745-.838-1.21-1.675-1.21-1.397 0-1.955 1.117-1.955 2.42s.558 2.42 1.955 2.42c.93 0 1.489-.466 1.675-1.303zm-47.098 10.61h1.769c.651 0 1.117-.372 1.117-1.023 0-.652-.466-1.024-1.117-1.024h-1.769v2.048zm-1.303 1.21v-7.073h5.12v1.21h-3.817v1.396h1.955c1.396 0 2.234.651 2.234 2.14 0 1.397-.838 2.328-2.234 2.328h-3.258zm6.33 0v-7.073h1.303v5.864h.186l1.768-5.864h2.513v7.074h-1.303v-5.864h-.186l-1.768 5.864H89.82zm8.377-3.443h1.675c.745 0 1.117-.559 1.117-1.21 0-.745-.372-1.117-1.117-1.117h-1.675v2.327zm-1.303 3.444v-7.074h2.978c1.489 0 2.513.837 2.513 2.327 0 1.489-1.024 2.42-2.513 2.42h-1.675v2.327h-1.303zm5.491 0l2.234-3.724-2.141-3.35h1.583l1.582 2.792h.558v-2.792h1.303v2.792h.559l1.582-2.792h1.583l-2.141 3.35 2.234 3.724h-1.583l-1.675-3.072h-.559v3.072h-1.303v-3.072h-.558l-1.676 3.072h-1.582zm11.449-2.979h2.048l-.838-2.885h-.279l-.931 2.885zm-2.234 2.979l2.327-7.074h1.955l2.326 7.074h-1.396l-.558-1.769h-2.793l-.558 1.769h-1.303zm-28.11-9.401v-7.074h2.513l1.21 5.864h.187l1.117-5.864h2.513v7.074h-1.303v-5.864h-.187l-1.117 5.864H86.19l-1.21-5.864h-.186v5.864h-1.303zm11.914-1.117c1.49 0 2.048-1.117 2.048-2.42 0-1.396-.745-2.42-2.14-2.42-1.49 0-2.049 1.117-2.049 2.42s.652 2.42 2.141 2.42zm0 1.21c-2.234 0-3.444-1.583-3.444-3.723 0-2.141 1.303-3.63 3.444-3.63 2.234 0 3.444 1.582 3.444 3.63 0 2.047-1.21 3.723-3.444 3.723zm9.215-2.513l1.303.186c-.279 1.49-1.582 2.327-2.978 2.327-2.234 0-3.258-1.583-3.258-3.723 0-2.141 1.117-3.63 3.351-3.63 1.396 0 2.42.651 2.885 1.954l-1.303.559c-.279-.745-.838-1.21-1.675-1.21-1.397 0-1.955 1.117-1.955 2.42s.558 2.42 1.955 2.42c.93 0 1.396-.466 1.675-1.303zm2.327 2.42v-7.074h1.303v2.792h.745l2.141-2.792h1.675l-2.699 3.258 2.792 3.816h-1.675l-2.234-3.072h-.745v3.072h-1.303zm9.401-1.117c1.489 0 2.048-1.117 2.048-2.42 0-1.396-.745-2.42-2.141-2.42-1.489 0-2.048 1.117-2.048 2.42s.652 2.42 2.141 2.42zm0 1.21c-2.234 0-3.444-1.583-3.444-3.723 0-2.141 1.21-3.63 3.444-3.63s3.444 1.582 3.444 3.63c0 2.047-1.303 3.723-3.444 3.723zm5.678-4.282h1.768c.559 0 1.024-.28 1.024-.837 0-.652-.372-.838-1.024-.838h-1.768v1.675zm0 2.979h1.861c.652 0 1.117-.187 1.117-.931 0-.745-.465-.93-1.117-.93h-1.861v1.86zm-1.303 1.21v-7.074h3.257c1.117 0 2.048.465 2.048 1.768 0 .838-.279 1.396-1.024 1.769.838.186 1.21.837 1.21 1.675 0 1.303-.931 1.955-2.141 1.955h-3.35v-.093zm13.589 0v-7.074h1.303v2.792h.745l2.141-2.792h1.675l-2.606 3.258 2.699 3.816h-1.675l-2.234-3.072h-.745v3.072h-1.303zm8.377-3.072h2.048l-.838-2.885h-.279l-.931 2.885zm-2.234 3.072l2.42-7.074h1.955l2.327 7.074h-1.396l-.559-1.769h-2.885l-.559 1.769h-1.303zm11.542-3.91v-1.954h-1.582c-.745 0-1.21.186-1.21 1.024 0 .837.465 1.024 1.21 1.024h1.582v-.094zm-4.189 3.91l.28-1.955c.093-.652.372-1.024 1.023-1.303-.744-.28-1.21-1.024-1.21-1.862 0-1.303 1.21-1.954 2.42-1.954h2.979v7.074h-1.303v-2.7h-1.582c-.652 0-.838.187-.931.931l-.279 1.862h-1.397v-.093zM0 48.235V18.543h29.692V.765h47.47v47.47H0z" fill="#171513"/><path d="M16.102 38.834h-.651l-3.072-13.682H6.795V41.72h2.978V28.13h.652l2.885 13.59h5.026l2.979-13.683h.651V41.72h2.979V25.245h-5.678l-3.165 13.59zm29.972 2.886h10.331v-2.886h-7.353V34.74h6.33v-2.793h-6.33v-3.909h7.353v-2.885H46.074V41.72zM35.463 39.3c-3.351 0-4.934-2.514-4.934-5.771 0-3.258 1.583-5.771 4.934-5.771 3.35 0 4.933 2.513 4.933 5.77 0 3.258-1.583 5.772-4.933 5.772zm0-14.52c-5.027 0-8.005 3.443-8.005 8.656 0 5.212 2.978 8.749 8.005 8.749 5.026 0 8.004-3.63 8.004-8.75 0-5.119-2.978-8.656-8.004-8.656zm22.99 16.94h3.165l3.63-6.516 3.816 6.516h3.165l-5.12-8.657 4.84-7.911h-3.164l-3.351 5.863-3.444-5.863h-3.165l4.654 7.818-5.026 8.75z" fill="#fff"/></svg>