<svg width="110" height="33" fill="none" xmlns="http://www.w3.org/2000/svg"><path d="M104.564 28.312c2.15 0 3.674-.39 4.809-1.232v-3.817c-1.165.811-2.569 1.322-4.541 1.322-3.315 0-4.69-2.585-4.69-6.672 0-4.298 1.673-6.492 4.72-6.492 1.793 0 3.555.63 4.481 1.232V8.686c-.986-.541-2.688-.932-5.018-.932-5.945 0-9.022 4.298-9.022 10.309.03 6.582 3.047 10.249 9.261 10.249zm-29.066-1.743v-3.817c-1.434.992-3.884 1.863-6.124 1.863-3.406 0-4.69-1.623-4.9-4.929h11.233v-2.465c0-6.882-3.017-9.467-7.648-9.467-5.675 0-8.364 4.358-8.364 10.339 0 6.883 3.376 10.219 9.29 10.219 2.958 0 5.138-.812 6.513-1.743zM32.869 8.115v7.814h-6.213V8.115h-4.66V27.92h4.66v-8.265h6.214v8.265h4.66V8.115h-4.66zm25.661 16.08h-2.061V8.114H42.907v1.683c0 4.839-.3 11.09-1.942 14.396H39.47v8.236h4.302V27.92h10.425v4.509H58.5v-8.236h.03zm31.814 3.726h5.288l-7.469-10.67 6.573-9.136h-4.69l-6.573 9.136V8.116h-4.66V27.92h4.66v-9.738l6.871 9.738zm-22.404-16.5c2.3 0 3.017 1.923 3.017 4.418v.39h-6.482c.12-3.155 1.254-4.808 3.465-4.808zM51.809 24.194h-6.572c1.284-2.975 1.643-8.385 1.643-11.811v-.602h4.929v12.413zm-33.697 3.727h-4.75V4.267h-2.12c-3.884 0-5.915 1.954-5.915 4.87 0 3.306 1.404 4.838 4.301 6.792l2.39 1.623-6.87 10.37H.039l6.184-9.258C2.668 16.109.667 13.614.667 9.407.667 4.147 4.31.57 11.212.57h6.87v27.35h.03z" fill="#171513"/></svg>