<svg width="95" height="35" fill="none" xmlns="http://www.w3.org/2000/svg"><path fill-rule="evenodd" clip-rule="evenodd" d="M6.898.875l-1.61 4.35H27.59L29.2.874H6.897zM4.484 7.398l-1.61 4.349h22.3l1.61-4.349h-22.3zm-2.41 6.523L.465 18.27h22.3l1.609-4.349h-22.3z" fill="#171513"/><mask id="a" style="mask-type:alpha" maskUnits="userSpaceOnUse" x="33" y="7" width="62" height="28"><path d="M33.923 34.125h61.045V7.482H33.923v26.643z" fill="#fff"/></mask><g mask="url(#a)"><path fill-rule="evenodd" clip-rule="evenodd" d="M47.875 19.927v.092c1.019.37 1.992 1.015 2.502 1.43 1.576 1.29 2.272 2.995 2.272 5.208 0 3.643-1.947 6.27-5.146 7.1-.973.276-1.992.369-3.894.369h-9.686V7.482h8.575c1.761 0 2.966.092 4.032.368 3.106.83 5.145 2.95 5.145 6.315 0 1.798-.649 3.32-1.714 4.334a6.5 6.5 0 01-2.086 1.428zM39.3 22.74v7.007h3.708c1.111 0 2.132-.092 2.874-.784.741-.692 1.066-1.567 1.066-2.72 0-.875-.233-1.705-.696-2.304-.788-.968-1.761-1.199-3.43-1.199H39.3zm-.047-4.61h3.013c.927 0 1.39 0 1.854-.138 1.252-.369 2.04-1.474 2.04-2.996 0-1.797-.835-2.582-2.04-2.95-.51-.138-1.02-.184-2.04-.184h-2.827v6.268zm21.46 15.997V11.953h-7.74V7.482h21.508l-1.53 4.47h-6.86v22.174h-5.377zm15.436 0V7.482h17.428l-1.529 4.47H81.48v5.901h4.31c3.477 0 5.285.83 6.536 1.89.974.83 2.642 2.673 2.642 6.316 0 3.595-1.715 5.577-3.152 6.591-1.668 1.152-3.43 1.476-7 1.476H76.15zm5.33-4.472h4.034c1.529 0 2.456-.369 3.105-1.199.324-.414.788-1.153.788-2.535 0-1.383-.464-2.351-1.39-3.043-.556-.414-1.299-.644-2.55-.644H81.48v7.421z" fill="#171513"/></g></svg>