<svg width="229" height="198" fill="none" xmlns="http://www.w3.org/2000/svg"><path d="M203.657 58.772c-20.273-27.102-57.97-34.664-86.763-26.187-49.625 14.61-72.573 78.127-49.952 115.552 24.944 41.264 72.873 45.772 101.25 31.252 36.78-18.819 61.24-59.477 44.543-99.118" stroke="#FFD2B3" stroke-width="15" stroke-miterlimit="1.5" stroke-linecap="round" stroke-linejoin="round"/><path d="M124.321 82.734c-1.766 3.925-3.174 8.078-4.394 12.208m41.45-3.516c-1.3 4.965-2.378 10.222-4.2 15.041m-61.69 5.833c-.006 4.944 1.66 9.719 4.132 13.941 12.122 20.709 44.274 23.868 61.295 7.354" stroke="#FF6900" stroke-width="15" stroke-miterlimit="1.5" stroke-linecap="round" stroke-linejoin="round"/><path fill-rule="evenodd" clip-rule="evenodd" d="M73.558 88.92c-12.537 6.764-55.373-6.913-63.325-27.12-5.597-14.219 1.965-29.029 15.788-30.608 7.433-.85 14.198 3.78 20.323 7.427.59-7.862 1.024-18.008 6.641-24.02 10.13-10.84 26.653-7.646 35.68 6.011 11.537 17.458-3.409 62.001-15.107 68.31z" fill="#fff" stroke="#FF6900" stroke-width="15" stroke-miterlimit="1.5" stroke-linecap="round" stroke-linejoin="round"/></svg>