<svg width="136" height="132" viewBox="0 0 136 132" fill="none" xmlns="http://www.w3.org/2000/svg">
<g clip-path="url(#clip0)" filter="url(#filter0_d)">
<path d="M90.2481 43.1536L104.711 48.4661L92.683 81.2152C91.5574 84.2954 85.4533 93.9337 81.2026 95.8996L80.1708 98.7134C79.9082 99.4263 79.2329 99.8727 78.5163 99.8727C78.3137 99.8727 78.1111 99.8352 77.9085 99.7639C76.9968 99.4263 76.5241 98.417 76.8618 97.4979L77.8372 94.8379C75.68 90.6471 77.2895 78.4764 78.2349 75.9027L90.2481 43.1536ZM111.179 8.50239C107.202 7.0467 102.546 10.0556 101.214 13.6911L92.5029 37.4247L106.962 42.7297L115.662 18.9998C116.758 16.0284 115.163 9.96182 111.179 8.50239ZM85.0106 41.9268C85.4158 42.0769 85.8322 42.1482 86.2374 42.1482C87.6706 42.1482 89.0175 41.2702 89.5465 39.8446L98.7383 15.053C99.4174 13.2259 98.4832 11.1962 96.6561 10.5208C94.8139 9.85302 92.7993 10.776 92.1202 12.6031L82.9284 37.3947C82.2493 39.2218 83.1835 41.2515 85.0106 41.9268ZM70.2137 88.4148C69.2645 87.5182 68.0827 86.4002 66.1693 85.5485C64.5935 84.8469 63.0591 84.8132 61.9373 84.7869C61.821 84.7869 61.6859 84.7831 61.5509 84.7794C60.8493 82.8585 59.4274 81.6504 57.2926 81.1777C54.4675 80.5812 52.2127 81.913 50.6482 82.941C50.7871 82.1532 51.0159 81.2152 51.1847 80.5399C51.725 78.3639 52.2803 76.1128 51.8676 74.0043C51.5412 72.3386 50.1343 71.1005 48.4385 70.9804C44.0677 70.7366 40.496 73.0889 37.3483 75.2162C34.043 77.4485 31.9232 78.7803 29.8147 78.0262C27.241 77.1108 26.9822 70.1438 28.2202 63.9384C29.327 58.3483 31.3867 47.9409 36.6654 43.2137C38.4438 41.6229 41.0175 39.9009 43.1335 40.7375C45.6209 41.713 47.6769 45.8099 48.1346 50.6909C48.3259 52.7506 50.123 54.2626 52.2202 54.075C54.2837 53.8837 55.7994 52.0528 55.6043 49.9893C54.8615 42.0356 51.1322 35.8152 45.876 33.748C42.7283 32.5249 37.7234 32.1947 31.6568 37.6235C25.0575 43.5326 22.6189 53.5535 20.8518 62.4789C19.9664 66.936 17.8091 81.7255 27.2935 85.0983C33.0713 87.158 37.7647 83.9803 41.5352 81.4366C42.2255 80.9714 42.9046 80.5136 43.5649 80.1047C42.9384 82.8247 42.5482 85.7361 44.1915 88.1897C46.6414 91.874 50.1042 92.2754 54.4788 89.3941C54.6476 89.2853 54.8427 89.1577 55.0266 89.0301C55.4317 89.878 56.1483 90.8122 57.4502 91.45C59.0259 92.2229 60.6017 92.2604 61.7497 92.2904C62.2412 92.3017 62.9127 92.3167 63.1153 92.4067C63.8207 92.7181 64.2371 93.1008 65.0475 93.8662C65.6553 94.4402 66.2968 95.0367 67.111 95.652C67.7863 96.1585 68.5742 96.3986 69.3545 96.3986C70.495 96.3986 71.6243 95.8771 72.3597 94.8979C73.6015 93.2396 73.2638 90.8873 71.6056 89.6454C71.0616 89.2252 70.6301 88.8088 70.2137 88.4148Z" fill="white"/>
</g>
<defs>
<filter id="filter0_d" x="0" y="-2" width="136" height="136" filterUnits="userSpaceOnUse" color-interpolation-filters="sRGB">
<feFlood flood-opacity="0" result="BackgroundImageFix"/>
<feColorMatrix in="SourceAlpha" type="matrix" values="0 0 0 0 0 0 0 0 0 0 0 0 0 0 0 0 0 0 127 0"/>
<feOffset dy="12"/>
<feGaussianBlur stdDeviation="10"/>
<feColorMatrix type="matrix" values="0 0 0 0 0.407843 0 0 0 0 0.454902 0 0 0 0 1 0 0 0 0.3 0"/>
<feBlend mode="normal" in2="BackgroundImageFix" result="effect1_dropShadow"/>
<feBlend mode="normal" in="SourceGraphic" in2="effect1_dropShadow" result="shape"/>
</filter>
<clipPath id="clip0">
<rect width="96" height="96" fill="white" transform="translate(20 6)"/>
</clipPath>
</defs>
</svg>
