<svg width="129" height="136" viewBox="0 0 129 136" fill="none" xmlns="http://www.w3.org/2000/svg">
<g filter="url(#filter0_d)">
<path d="M105.937 23.9998C105.937 31.1797 100.117 37.0002 92.9375 37.0002C85.7576 37.0002 79.9377 31.1797 79.9377 23.9998C79.9377 16.8206 85.7576 11 92.9375 11C100.117 11 105.937 16.8206 105.937 23.9998Z" fill="white"/>
<path d="M92.9375 40.0002C84.1133 40.0002 76.9377 32.824 76.9377 23.9998C76.9377 15.1763 84.1133 8 92.9375 8C101.762 8 108.937 15.1763 108.937 23.9998C108.937 32.824 101.762 40.0002 92.9375 40.0002ZM92.9375 14C87.4216 14 82.9377 18.4883 82.9377 23.9998C82.9377 29.512 87.4216 34.0002 92.9375 34.0002C98.4534 34.0002 102.937 29.512 102.937 23.9998C102.937 18.4883 98.4534 14 92.9375 14Z" fill="white"/>
<path d="M105.937 88.0002C105.937 95.1794 100.117 101 92.9375 101C85.7576 101 79.9377 95.1794 79.9377 88.0002C79.9377 80.8203 85.7576 74.9998 92.9375 74.9998C100.117 74.9998 105.937 80.8203 105.937 88.0002Z" fill="white"/>
<path d="M92.9375 104C84.1133 104 76.9377 96.8237 76.9377 88.0002C76.9377 79.176 84.1133 71.9998 92.9375 71.9998C101.762 71.9998 108.937 79.176 108.937 88.0002C108.937 96.8237 101.762 104 92.9375 104ZM92.9375 77.9998C87.4216 77.9998 82.9377 82.488 82.9377 88.0002C82.9377 93.5117 87.4216 98 92.9375 98C98.4534 98 102.937 93.5117 102.937 88.0002C102.937 82.488 98.4534 77.9998 92.9375 77.9998Z" fill="white"/>
<path d="M49.9377 56C49.9377 63.1799 44.1172 68.9998 36.9373 68.9998C29.7581 68.9998 23.9375 63.1799 23.9375 56C23.9375 48.8201 29.7581 43.0002 36.9373 43.0002C44.1172 43.0002 49.9377 48.8201 49.9377 56Z" fill="white"/>
<path d="M36.9373 71.9998C28.1138 71.9998 20.9375 64.8242 20.9375 56C20.9375 47.1758 28.1138 40.0002 36.9373 40.0002C45.7615 40.0002 52.9377 47.1758 52.9377 56C52.9377 64.8242 45.7615 71.9998 36.9373 71.9998ZM36.9373 46.0002C31.4214 46.0002 26.9375 50.4878 26.9375 56C26.9375 61.5122 31.4214 65.9998 36.9373 65.9998C42.4539 65.9998 46.9377 61.5122 46.9377 56C46.9377 50.4878 42.4539 46.0002 36.9373 46.0002Z" fill="white"/>
<path d="M46.3819 54.0803C44.9896 54.0803 43.6375 53.3559 42.9015 52.0603C41.8094 50.1443 42.4818 47.7002 44.3978 46.6037L81.5133 25.4441C83.4293 24.344 85.8734 25.0163 86.9698 26.9397C88.0619 28.8557 87.3895 31.2998 85.4735 32.3962L48.3573 53.5559C47.7332 53.9118 47.0536 54.0803 46.3819 54.0803Z" fill="white"/>
<path d="M83.4937 87.0803C82.8213 87.0803 82.1416 86.9118 81.5176 86.5559L44.4014 65.3962C42.4854 64.3042 41.8137 61.8601 42.9058 59.9397C43.9934 58.02 46.4412 57.344 48.3616 58.4441L85.4778 79.6037C87.3938 80.6958 88.0655 83.1399 86.9734 85.0603C86.2337 86.3559 84.8816 87.0803 83.4937 87.0803Z" fill="white"/>
</g>
<defs>
<filter id="filter0_d" x="-3" y="0" width="136" height="136" filterUnits="userSpaceOnUse" color-interpolation-filters="sRGB">
<feFlood flood-opacity="0" result="BackgroundImageFix"/>
<feColorMatrix in="SourceAlpha" type="matrix" values="0 0 0 0 0 0 0 0 0 0 0 0 0 0 0 0 0 0 127 0"/>
<feOffset dy="12"/>
<feGaussianBlur stdDeviation="10"/>
<feColorMatrix type="matrix" values="0 0 0 0 0.407843 0 0 0 0 0.454902 0 0 0 0 1 0 0 0 0.3 0"/>
<feBlend mode="normal" in2="BackgroundImageFix" result="effect1_dropShadow"/>
<feBlend mode="normal" in="SourceGraphic" in2="effect1_dropShadow" result="shape"/>
</filter>
</defs>
</svg>
