<svg width="136" height="136" viewBox="0 0 136 136" fill="none" xmlns="http://www.w3.org/2000/svg">
<g filter="url(#filter0_d)">
<path d="M107.88 78.2375C106.755 76.8342 104.617 76.8332 103.491 78.2375C101.822 80.32 99.603 83.4625 98.0926 86.0502C96.5701 83.4418 94.3446 80.2965 92.6938 78.2375C91.569 76.8342 89.4303 76.8332 88.3049 78.2375C88.2248 78.3373 86.3244 80.7148 84.3983 83.6498C80.624 89.4012 80.1875 92.0234 80.1875 93.4956C80.1875 99.1816 84.8134 103.808 90.4994 103.808C93.5011 103.808 96.2066 102.518 98.0927 100.464C99.9789 102.518 102.684 103.808 105.686 103.808C111.372 103.808 115.998 99.1816 115.998 93.4956C115.998 92.0234 115.561 89.4012 111.787 83.6498C109.861 80.7148 107.96 78.3373 107.88 78.2375Z" fill="white"/>
<path d="M34.6658 45.3121C36.881 45.3219 42.0619 45.3108 54.501 45.3108C56.0542 45.3108 57.3134 44.0516 57.3134 42.4985C57.3134 29.8519 57.3179 24.755 57.3137 22.6641L34.6658 45.3121Z" fill="white"/>
<path d="M33.5023 18.6873C31.9491 18.6873 30.6899 19.9464 30.6899 21.4996V41.3335L53.3372 18.6863C52.8233 18.6861 53.1868 18.6873 33.5023 18.6873Z" fill="white"/>
<path d="M23.003 34.8114H25.0654V21.4996C25.0654 16.8475 28.8502 13.0626 33.5024 13.0626H46.8142V11.0002C46.8142 9.44708 45.555 8.1879 44.0018 8.1879H23.003C21.4499 8.1879 20.1907 9.44708 20.1907 11.0002V31.9991C20.1907 33.5522 21.4499 34.8114 23.003 34.8114Z" fill="white"/>
<path d="M47.7116 61.8099L34.065 75.4565C28.3428 81.1787 24.5615 88.6803 23.3484 96.6724L20.8269 99.194C19.0499 100.971 20.3329 103.995 22.8154 103.995C23.5352 103.995 24.255 103.72 24.8039 103.171L27.3257 100.649C35.3178 99.4362 42.8194 95.6549 48.5414 89.9327C62.6963 75.7777 71.3845 67.0896 76.6646 61.8095H47.7116V61.8099Z" fill="white"/>
<path d="M112.999 10.9985C109.008 7.00763 102.514 7.00726 98.5228 10.9985L80.7495 28.7718L78.9884 27.0105C77.8903 25.9124 76.1095 25.9124 75.0112 27.0105C73.9129 28.1086 73.9129 29.8894 75.0112 30.9877L93.0102 48.9867C94.1087 50.085 95.8891 50.0848 96.9874 48.9867C98.0857 47.8886 98.0857 46.1078 96.9874 45.0095L95.2261 43.2482L112.999 25.475C117 21.4751 117 14.9992 112.999 10.9985Z" fill="white"/>
<path d="M53.3362 56.1852H82.2894C82.5007 55.9739 87.0526 51.4222 87.2667 51.2081L72.7901 36.7315L53.3362 56.1852Z" fill="white"/>
</g>
<defs>
<filter id="filter0_d" x="0" y="0" width="136" height="136" filterUnits="userSpaceOnUse" color-interpolation-filters="sRGB">
<feFlood flood-opacity="0" result="BackgroundImageFix"/>
<feColorMatrix in="SourceAlpha" type="matrix" values="0 0 0 0 0 0 0 0 0 0 0 0 0 0 0 0 0 0 127 0"/>
<feOffset dy="12"/>
<feGaussianBlur stdDeviation="10"/>
<feColorMatrix type="matrix" values="0 0 0 0 0.407843 0 0 0 0 0.454902 0 0 0 0 1 0 0 0 0.3 0"/>
<feBlend mode="normal" in2="BackgroundImageFix" result="effect1_dropShadow"/>
<feBlend mode="normal" in="SourceGraphic" in2="effect1_dropShadow" result="shape"/>
</filter>
</defs>
</svg>
