<svg width="640" height="712" fill="none" xmlns="http://www.w3.org/2000/svg"><path opacity=".5" d="M28 262l63 34.641v-69.282L28 262z" fill="#79AAE6"/><path opacity=".4" d="M485 352.5l90 48.93v-97.86l-90 48.93z" fill="#79AAE6"/><path d="M179 397.5L66.5 457.689V337.311L179 397.5z" fill="#63BFE5"/><path d="M598 460l-66.75 36.373v-72.746L598 460zM443 626.5l-39.75 22.084v-44.168L443 626.5zm136-59l-25.5 14.289v-28.578L579 567.5zm-526-380l25.5 14.289v-28.578L53 187.5z" fill="#6DCCED"/><path opacity=".5" d="M459 568l64.5 35.507v-71.014L459 568zM64 129l90.75 48.497V80.503L64 129z" fill="#79AAE6"/><path d="M395 122.5l-77.25 42.868V79.632L395 122.5zm203 108l-54 29.012v-58.024l54 29.012z" fill="#79AAE6"/><path opacity=".3" d="M86 518.5l54 29.012v-58.024L86 518.5z" fill="#79AAE6"/><path d="M227 73l35.25 19.053V53.947L227 73z" fill="#63BFE5"/><path opacity=".3" d="M535 103l-85.5 45.899V57.101L535 103z" fill="#63BFE5"/></svg>