<svg width="640" height="712" fill="none" xmlns="http://www.w3.org/2000/svg"><path d="M385 356h255c-12.616-36.444-30.412-36.885-70.73-21.679-13.029-83.103-57.701-56.003-94.927 3.613C441.138 303.165 420.985 321.764 385 356zM64 95h254c-12.567-37.808-30.292-38.266-70.453-22.49-15.733-64.892-59.438-42.933-94.554 3.748C119.918 40.187 99.843 59.482 64 95z" fill="#fff"/><path d="M569 120H420c7.372-22.109 27.591-22.377 51.149-13.152 17.235-30.945 31.662-25.105 52.261 2.192C542.813 87.947 547.974 99.23 569 120z" fill="#9ACFE3"/><path d="M244 495H63c8.955-33.35 28.974-33.754 57.592-19.838 29.454-38.72 45.343-34.636 72.921 3.306C217.082 446.651 218.458 463.67 244 495z" fill="#fff"/><path d="M363 48h87c-4.304-16.32-13.927-16.518-27.682-9.708-14.158-18.948-21.795-16.95-35.051 1.618C375.939 24.34 375.277 32.668 363 48z" fill="#9ACFE3"/><path d="M47 180h65c-3.216-12.063-10.405-12.209-20.682-7.176-10.578-14.005-16.284-12.527-26.187 1.196-8.464-11.508-8.958-5.352-18.131 5.98z" fill="#fff"/><path d="M246 327H0c12.171-44.703 39.38-45.244 78.274-26.592 40.031-51.901 61.627-46.426 99.108 4.432C209.415 262.191 211.285 285.005 246 327z" fill="#9ACFE3"/><path d="M592 490H397c9.648-29.549 23.256-29.907 54.088-17.578 35.375-59.251 69.067-37.34 72.591 2.93 31.827-20.654 48.19-4.826 67.945 14.285L592 490z" fill="#93B1C1"/></svg>