<svg width="640" height="712" fill="none" xmlns="http://www.w3.org/2000/svg"><path d="M158.453 519.271H62v9.612h96.453v-9.612z" fill="url(#paint0_linear_1024_6250)"/><path d="M368.453 96H280v6.611h88.453V96z" fill="url(#paint1_linear_1024_6250)"/><path d="M556.309 592.988h-82.176v8.941h82.176v-8.941z" fill="url(#paint2_linear_1024_6250)"/><path d="M565.634 80.306s-.179 0 0 0L509 63l-56.455 17.306h-.179c-1.075 25.323-.359 65.219 10.216 84.348C474.231 185.786 496.813 192.709 509 202c12.008-9.291 34.59-16.214 46.418-37.346 10.575-19.129 11.291-59.025 10.216-84.348z" fill="url(#paint3_linear_1024_6250)"/><path d="M474.412 449.082c0-19.831 11.868-36 31.343-36 14.301 0 23.735 9.152 23.735 25.017 0 19.831-11.564 36-31.343 36-14.302-.305-23.735-9.152-23.735-25.017zm97.679-34.78h19.779l-95.853 110.137h-20.083l96.157-110.137zm-58.425 24.712c0-8.847-3.956-12.814-9.433-12.814-10.042 0-13.998 12.204-13.998 21.967 0 8.847 3.956 12.813 9.434 12.813 10.041 0 13.997-12.203 13.997-21.966zm24.953 61.933c0-19.831 11.867-35.695 31.342-35.695 14.302 0 24.039 9.152 24.039 25.017 0 19.831-11.563 35.695-31.342 35.695-14.606 0-24.039-9.153-24.039-25.017zm39.558-10.068c0-8.848-3.956-12.814-9.433-12.814-10.042 0-14.302 12.509-14.302 22.272 0 8.847 3.956 12.813 9.433 12.813 10.042 0 14.302-12.508 14.302-22.271z" fill="url(#paint4_linear_1024_6250)"/><path d="M201.706 76.67H86.588v7.042h115.118V76.67z" fill="url(#paint5_linear_1024_6250)"/><path d="M546.054 263.318h-5.7v59.011h5.7v-59.011z" fill="url(#paint6_linear_1024_6250)"/><path d="M109.646 268.451c.454 1.366 1.362 2.732 2.725 3.643.909.91 2.726 1.821 4.089 2.732 1.817.455 3.634.91 5.905.91 1.817 0 3.634-.455 5.906-.91 1.817-.456 3.634-1.366 4.997-2.732 1.362-1.366 2.725-3.188 3.634-5.464.908-2.277 1.363-5.009 1.363-8.196h20.442c0 5.464-.909 10.472-2.726 14.57-1.817 4.098-4.088 7.286-6.814 10.018-2.726 2.732-5.905 4.553-9.54 5.919-3.634 1.366-7.268 2.277-11.356 2.732v14.116h-11.357v-14.116c-4.089-.455-8.177-1.366-11.357-2.732-3.634-1.366-6.36-3.187-9.085-5.919-2.272-2.277-4.543-5.464-5.906-8.652-1.362-3.187-1.817-6.83-1.817-11.383 0-4.553.909-8.651 2.272-11.839 1.362-3.187 3.634-6.375 6.36-8.651 2.725-2.732 5.905-4.554 9.539-6.83 3.634-1.822 7.723-3.643 12.265-5.464 2.726-.911 4.997-2.277 7.269-3.188 1.817-.91 3.634-2.276 4.542-3.187 1.363-1.366 1.817-2.732 2.272-4.098.454-1.366.908-3.187.908-4.553 0-1.822-.454-3.188-.908-5.009-.455-1.366-1.363-2.732-2.272-4.098-.908-.911-2.271-1.822-3.634-2.732a16.89 16.89 0 00-5.451-.911c-4.089 0-6.814 1.366-9.54 4.098-2.271 2.732-3.634 6.83-3.634 12.75H88.295c0-4.554.454-9.107 1.817-12.75 1.363-3.643 3.18-7.285 5.451-10.017 2.272-2.732 4.997-5.009 8.631-6.83 3.18-1.822 6.814-2.732 10.903-3.643v-15.482h11.357v15.027c4.088.455 8.176 1.366 11.356 2.732 3.634 1.366 6.36 3.642 8.631 5.919 2.272 2.277 4.543 5.464 5.452 8.651 1.362 3.188 1.817 6.83 1.817 10.928 0 4.554-.909 8.652-2.272 11.839-1.362 3.188-3.634 6.375-6.359 8.652-2.726 2.732-5.906 4.553-9.54 6.83-3.634 1.821-8.177 3.642-12.72 5.464-2.725.91-4.997 1.821-6.814 3.187-1.817.911-3.179 2.277-4.542 3.188-1.363 1.366-1.817 2.732-2.726 4.098-.454 1.366-.908 3.187-.908 5.464.908 2.732 1.362 4.553 1.817 5.919z" fill="url(#paint7_linear_1024_6250)"/><path d="M86.588 361.14v93.994h5.365V361.14h-5.365z" fill="url(#paint8_linear_1024_6250)"/><defs><linearGradient id="paint0_linear_1024_6250" x1="61.971" y1="524.05" x2="158.429" y2="524.05" gradientUnits="userSpaceOnUse"><stop stop-color="#FFA84C"/><stop offset=".295" stop-color="#FFB84C"/><stop offset=".657" stop-color="#FFC54C"/><stop offset="1" stop-color="#FFC94C"/></linearGradient><linearGradient id="paint1_linear_1024_6250" x1="279.973" y1="99.287" x2="368.431" y2="99.287" gradientUnits="userSpaceOnUse"><stop stop-color="#FFA84C"/><stop offset=".295" stop-color="#FFB84C"/><stop offset=".657" stop-color="#FFC54C"/><stop offset="1" stop-color="#FFC94C"/></linearGradient><linearGradient id="paint2_linear_1024_6250" x1="474.102" y1="597.441" x2="556.279" y2="597.441" gradientUnits="userSpaceOnUse"><stop stop-color="#00BF97"/><stop offset="1" stop-color="#51F895"/></linearGradient><linearGradient id="paint3_linear_1024_6250" x1="461.727" y1="166.724" x2="557.668" y2="72.339" gradientUnits="userSpaceOnUse"><stop stop-color="#3487F8"/><stop offset=".575" stop-color="#6474EE"/><stop offset="1" stop-color="#8367E7"/></linearGradient><linearGradient id="paint4_linear_1024_6250" x1="598.976" y1="532.299" x2="425.326" y2="365.073" gradientUnits="userSpaceOnUse"><stop stop-color="#C251CA"/><stop offset="1" stop-color="#FF4860"/></linearGradient><linearGradient id="paint5_linear_1024_6250" x1="86.6" y1="80.265" x2="201.764" y2="80.265" gradientUnits="userSpaceOnUse"><stop stop-color="#3487F8"/><stop offset="1" stop-color="#8FBEFF"/></linearGradient><linearGradient id="paint6_linear_1024_6250" x1="558.855" y1="325.905" x2="524.58" y2="253.63" gradientUnits="userSpaceOnUse"><stop stop-color="#00BF97"/><stop offset="1" stop-color="#51F895"/></linearGradient><linearGradient id="paint7_linear_1024_6250" x1="185.724" y1="303.047" x2="41.793" y2="159.453" gradientUnits="userSpaceOnUse"><stop stop-color="#FF9B30"/><stop offset="1" stop-color="#FFC94C"/></linearGradient><linearGradient id="paint8_linear_1024_6250" x1="89.193" y1="455.096" x2="89.193" y2="361.048" gradientUnits="userSpaceOnUse"><stop stop-color="#FF55DE"/><stop offset="1" stop-color="#8FBEFF"/></linearGradient></defs></svg>