<svg width="640" height="712" fill="none" xmlns="http://www.w3.org/2000/svg"><path fill-rule="evenodd" clip-rule="evenodd" d="M320 616c143.594 0 260-116.406 260-260S463.594 96 320 96 60 212.406 60 356s116.406 260 260 260zm0 8c148.012 0 268-119.988 268-268S468.012 88 320 88 52 207.988 52 356s119.988 268 268 268z" fill="url(#paint0_linear_1024_6244)"/><path fill-rule="evenodd" clip-rule="evenodd" d="M320 668c172.313 0 312-139.687 312-312S492.313 44 320 44 8 183.687 8 356s139.687 312 312 312zm0 8c176.731 0 320-143.269 320-320S496.731 36 320 36 0 179.269 0 356s143.269 320 320 320z" fill="url(#paint1_linear_1024_6244)"/><path fill-rule="evenodd" clip-rule="evenodd" d="M320 567c116.532 0 211-94.468 211-211s-94.468-211-211-211-211 94.468-211 211 94.468 211 211 211zm0 8c120.95 0 219-98.05 219-219s-98.05-219-219-219-219 98.05-219 219 98.05 219 219 219z" fill="url(#paint2_linear_1024_6244)"/><defs><linearGradient id="paint0_linear_1024_6244" x1="320" y1="88" x2="320" y2="585.785" gradientUnits="userSpaceOnUse"><stop stop-color="#0089D0"/><stop offset="1" stop-color="#01A0BB" stop-opacity="0"/></linearGradient><linearGradient id="paint1_linear_1024_6244" x1="320" y1="36" x2="320" y2="630.37" gradientUnits="userSpaceOnUse"><stop stop-color="#0089D0"/><stop offset="1" stop-color="#01A0BB" stop-opacity="0"/></linearGradient><linearGradient id="paint2_linear_1024_6244" x1="320" y1="137" x2="320" y2="543.772" gradientUnits="userSpaceOnUse"><stop stop-color="#0089D0"/><stop offset="1" stop-color="#01A0BB" stop-opacity="0"/></linearGradient></defs></svg>