<svg width="28" height="28" viewBox="0 0 28 28" fill="none" xmlns="http://www.w3.org/2000/svg">
<path d="M8.19931 12.8401C10.0583 10.9813 13.3006 10.9813 15.1596 12.8401L16.3197 14.0001L18.6398 11.6802L17.4797 10.5203C15.9324 8.97148 13.8716 8.1167 11.6795 8.1167C9.48735 8.1167 7.42649 8.97148 5.87921 10.5203L2.39743 14.0001C0.862115 15.5402 0 17.6261 0 19.8006C0 21.9752 0.862115 24.061 2.39743 25.6011C3.15855 26.3633 4.06279 26.9675 5.05818 27.3792C6.05358 27.7908 7.12051 28.0017 8.19767 27.9998C9.27512 28.002 10.3424 27.7912 11.3381 27.3796C12.3338 26.968 13.2383 26.3635 13.9996 25.6011L15.1596 24.4412L12.8395 22.1213L11.6795 23.2812C10.7548 24.2017 9.50321 24.7184 8.19849 24.7184C6.89377 24.7184 5.64217 24.2017 4.71752 23.2812C3.79622 22.3571 3.27888 21.1055 3.27888 19.8006C3.27888 18.4957 3.79622 17.2441 4.71752 16.32L8.19931 12.8401Z" fill="white"/>
<path d="M13.9996 2.39904L12.8395 3.55898L15.1596 5.87887L16.3197 4.71892C17.2443 3.7985 18.4959 3.28176 19.8006 3.28176C21.1054 3.28176 22.357 3.7985 23.2816 4.71892C24.2029 5.64306 24.7203 6.89471 24.7203 8.19957C24.7203 9.50443 24.2029 10.7561 23.2816 11.6802L19.7998 15.16C17.9408 17.0189 14.6986 17.0189 12.8395 15.16L11.6795 14.0001L9.35938 16.32L10.5194 17.4799C12.0667 19.0287 14.1276 19.8835 16.3197 19.8835C18.5118 19.8835 20.5726 19.0287 22.1199 17.4799L25.6017 14.0001C27.137 12.46 27.9991 10.3741 27.9991 8.19957C27.9991 6.02502 27.137 3.93915 25.6017 2.39904C24.0619 0.863075 21.9757 0.000488281 19.8006 0.000488281C17.6256 0.000488281 15.5394 0.863075 13.9996 2.39904Z" fill="white"/>
</svg>
