<svg width="54" height="54" viewBox="0 0 54 54" fill="none" xmlns="http://www.w3.org/2000/svg">
<path d="M52.4122 38.1179H39.7062C39.1045 38.1179 38.5554 38.4576 38.2854 38.9958L35.5494 44.4709H18.451L15.715 38.9958C15.4452 38.4576 14.8961 38.1179 14.2942 38.1179H1.58818C0.710231 38.1179 0 38.8283 0 39.706V52.412C0 53.29 0.71041 54.0002 1.58818 54.0002H52.412C53.29 54.0002 54.0002 53.2898 54.0002 52.412V39.706C54.0004 38.8283 53.29 38.1179 52.4122 38.1179ZM18.5533 37.5719L20.4145 41.2944H33.5857L35.4439 37.5766C36.2598 35.9494 37.8915 34.9413 39.7062 34.9413H47.6475V20.6471C47.6475 19.7692 46.9371 19.0589 46.0593 19.0589H7.94128C7.0635 19.0589 6.35309 19.7693 6.35309 20.6471V34.9413H14.2944C16.1089 34.9415 17.7406 35.9496 18.5533 37.5719ZM44.4709 11.1176C44.4709 10.2397 43.7605 9.52946 42.8828 9.52946H11.1178C10.2399 9.52946 9.52964 10.2399 9.52964 11.1176V15.8824H44.4711V11.1176H44.4709ZM41.2944 1.58818C41.2944 0.710231 40.584 0 39.7062 0H14.2942C13.4164 0 12.706 0.71041 12.706 1.58818V6.35292H41.2944V1.58818Z" fill="url(#paint0_linear)"/>
<path d="M52.4122 38.1179H39.7062C39.1045 38.1179 38.5554 38.4576 38.2854 38.9958L35.5494 44.4709H18.451L15.715 38.9958C15.4452 38.4576 14.8961 38.1179 14.2942 38.1179H1.58818C0.710231 38.1179 0 38.8283 0 39.706V52.412C0 53.29 0.71041 54.0002 1.58818 54.0002H52.412C53.29 54.0002 54.0002 53.2898 54.0002 52.412V39.706C54.0004 38.8283 53.29 38.1179 52.4122 38.1179ZM18.5533 37.5719L20.4145 41.2944H33.5857L35.4439 37.5766C36.2598 35.9494 37.8915 34.9413 39.7062 34.9413H47.6475V20.6471C47.6475 19.7692 46.9371 19.0589 46.0593 19.0589H7.94128C7.0635 19.0589 6.35309 19.7693 6.35309 20.6471V34.9413H14.2944C16.1089 34.9415 17.7406 35.9496 18.5533 37.5719ZM44.4709 11.1176C44.4709 10.2397 43.7605 9.52946 42.8828 9.52946H11.1178C10.2399 9.52946 9.52964 10.2399 9.52964 11.1176V15.8824H44.4711V11.1176H44.4709ZM41.2944 1.58818C41.2944 0.710231 40.584 0 39.7062 0H14.2942C13.4164 0 12.706 0.71041 12.706 1.58818V6.35292H41.2944V1.58818Z" fill="url(#paint1_radial)" fill-opacity="0.8"/>
<path d="M52.4122 38.1179H39.7062C39.1045 38.1179 38.5554 38.4576 38.2854 38.9958L35.5494 44.4709H18.451L15.715 38.9958C15.4452 38.4576 14.8961 38.1179 14.2942 38.1179H1.58818C0.710231 38.1179 0 38.8283 0 39.706V52.412C0 53.29 0.71041 54.0002 1.58818 54.0002H52.412C53.29 54.0002 54.0002 53.2898 54.0002 52.412V39.706C54.0004 38.8283 53.29 38.1179 52.4122 38.1179ZM18.5533 37.5719L20.4145 41.2944H33.5857L35.4439 37.5766C36.2598 35.9494 37.8915 34.9413 39.7062 34.9413H47.6475V20.6471C47.6475 19.7692 46.9371 19.0589 46.0593 19.0589H7.94128C7.0635 19.0589 6.35309 19.7693 6.35309 20.6471V34.9413H14.2944C16.1089 34.9415 17.7406 35.9496 18.5533 37.5719ZM44.4709 11.1176C44.4709 10.2397 43.7605 9.52946 42.8828 9.52946H11.1178C10.2399 9.52946 9.52964 10.2399 9.52964 11.1176V15.8824H44.4711V11.1176H44.4709ZM41.2944 1.58818C41.2944 0.710231 40.584 0 39.7062 0H14.2942C13.4164 0 12.706 0.71041 12.706 1.58818V6.35292H41.2944V1.58818Z" fill="url(#paint2_radial)" fill-opacity="0.8"/>
<path d="M52.4122 38.1179H39.7062C39.1045 38.1179 38.5554 38.4576 38.2854 38.9958L35.5494 44.4709H18.451L15.715 38.9958C15.4452 38.4576 14.8961 38.1179 14.2942 38.1179H1.58818C0.710231 38.1179 0 38.8283 0 39.706V52.412C0 53.29 0.71041 54.0002 1.58818 54.0002H52.412C53.29 54.0002 54.0002 53.2898 54.0002 52.412V39.706C54.0004 38.8283 53.29 38.1179 52.4122 38.1179ZM18.5533 37.5719L20.4145 41.2944H33.5857L35.4439 37.5766C36.2598 35.9494 37.8915 34.9413 39.7062 34.9413H47.6475V20.6471C47.6475 19.7692 46.9371 19.0589 46.0593 19.0589H7.94128C7.0635 19.0589 6.35309 19.7693 6.35309 20.6471V34.9413H14.2944C16.1089 34.9415 17.7406 35.9496 18.5533 37.5719ZM44.4709 11.1176C44.4709 10.2397 43.7605 9.52946 42.8828 9.52946H11.1178C10.2399 9.52946 9.52964 10.2399 9.52964 11.1176V15.8824H44.4711V11.1176H44.4709ZM41.2944 1.58818C41.2944 0.710231 40.584 0 39.7062 0H14.2942C13.4164 0 12.706 0.71041 12.706 1.58818V6.35292H41.2944V1.58818Z" fill="url(#paint3_radial)" fill-opacity="0.8"/>
<defs>
<linearGradient id="paint0_linear" x1="54.0002" y1="-5.67394" x2="3.61264" y2="58.682" gradientUnits="userSpaceOnUse">
<stop stop-color="#7041EE"/>
<stop offset="0.527788" stop-color="#8D41EE"/>
<stop offset="1" stop-color="#D641EE"/>
</linearGradient>
<radialGradient id="paint1_radial" cx="0" cy="0" r="1" gradientUnits="userSpaceOnUse" gradientTransform="translate(14.6441 -11.7392) rotate(96.1584) scale(66.121 110.218)">
<stop stop-color="#52B6FF"/>
<stop offset="1" stop-color="#8F41EE" stop-opacity="0"/>
</radialGradient>
<radialGradient id="paint2_radial" cx="0" cy="0" r="1" gradientUnits="userSpaceOnUse" gradientTransform="translate(14.4153 3.13045) rotate(62.2005) scale(26.984 77.4511)">
<stop stop-color="#9DD6FF"/>
<stop offset="1" stop-color="#8F41EE" stop-opacity="0"/>
</radialGradient>
<radialGradient id="paint3_radial" cx="0" cy="0" r="1" gradientUnits="userSpaceOnUse" gradientTransform="translate(79.6275 41.2828) rotate(144.328) scale(45.6296 62.7597)">
<stop stop-color="#5263FF"/>
<stop offset="1" stop-color="#8F41EE" stop-opacity="0"/>
</radialGradient>
</defs>
</svg>
