<svg width="47" height="74" viewBox="0 0 47 74" fill="none" xmlns="http://www.w3.org/2000/svg">
<path d="M39.2032 71.4494H8.01567C4.88402 71.4494 2.34521 68.9106 2.34521 65.7789V8.79088C2.34521 5.65923 4.88402 3.12042 8.01567 3.12042H39.2032C42.3348 3.12042 44.8736 5.65923 44.8736 8.79088V65.7789C44.8736 68.9106 42.3348 71.4494 39.2032 71.4494Z" fill="white"/>
<path d="M39.2031 0.993958H8.01562C3.71643 0.993958 0.21875 4.49164 0.21875 8.79083V65.7789C0.21875 70.0781 3.71643 73.5758 8.01562 73.5758H39.2031C43.5023 73.5758 47 70.0781 47 65.7789V8.79083C47 4.49164 43.5023 0.993958 39.2031 0.993958ZM42.7472 60.1084H25.7358L23.6094 61.5261L21.483 60.1084H4.47159V8.79083C4.47159 6.83665 6.06144 5.2468 8.01562 5.2468H13.6641L15.9646 10.9982C16.2875 11.8055 17.0695 12.3349 17.9389 12.3349H29.2798C30.1494 12.3349 30.9312 11.8055 31.2541 10.9982L33.5546 5.2468H39.2031C41.1573 5.2468 42.7472 6.83665 42.7472 8.79083V60.1084Z" fill="url(#paint0_linear)"/>
<path d="M39.2031 0.993958H8.01562C3.71643 0.993958 0.21875 4.49164 0.21875 8.79083V65.7789C0.21875 70.0781 3.71643 73.5758 8.01562 73.5758H39.2031C43.5023 73.5758 47 70.0781 47 65.7789V8.79083C47 4.49164 43.5023 0.993958 39.2031 0.993958ZM42.7472 60.1084H25.7358L23.6094 61.5261L21.483 60.1084H4.47159V8.79083C4.47159 6.83665 6.06144 5.2468 8.01562 5.2468H13.6641L15.9646 10.9982C16.2875 11.8055 17.0695 12.3349 17.9389 12.3349H29.2798C30.1494 12.3349 30.9312 11.8055 31.2541 10.9982L33.5546 5.2468H39.2031C41.1573 5.2468 42.7472 6.83665 42.7472 8.79083V60.1084Z" fill="url(#paint1_radial)" fill-opacity="0.8"/>
<path d="M39.2031 0.993958H8.01562C3.71643 0.993958 0.21875 4.49164 0.21875 8.79083V65.7789C0.21875 70.0781 3.71643 73.5758 8.01562 73.5758H39.2031C43.5023 73.5758 47 70.0781 47 65.7789V8.79083C47 4.49164 43.5023 0.993958 39.2031 0.993958ZM42.7472 60.1084H25.7358L23.6094 61.5261L21.483 60.1084H4.47159V8.79083C4.47159 6.83665 6.06144 5.2468 8.01562 5.2468H13.6641L15.9646 10.9982C16.2875 11.8055 17.0695 12.3349 17.9389 12.3349H29.2798C30.1494 12.3349 30.9312 11.8055 31.2541 10.9982L33.5546 5.2468H39.2031C41.1573 5.2468 42.7472 6.83665 42.7472 8.79083V60.1084Z" fill="url(#paint2_radial)" fill-opacity="0.8"/>
<path d="M39.2031 0.993958H8.01562C3.71643 0.993958 0.21875 4.49164 0.21875 8.79083V65.7789C0.21875 70.0781 3.71643 73.5758 8.01562 73.5758H39.2031C43.5023 73.5758 47 70.0781 47 65.7789V8.79083C47 4.49164 43.5023 0.993958 39.2031 0.993958ZM42.7472 60.1084H25.7358L23.6094 61.5261L21.483 60.1084H4.47159V8.79083C4.47159 6.83665 6.06144 5.2468 8.01562 5.2468H13.6641L15.9646 10.9982C16.2875 11.8055 17.0695 12.3349 17.9389 12.3349H29.2798C30.1494 12.3349 30.9312 11.8055 31.2541 10.9982L33.5546 5.2468H39.2031C41.1573 5.2468 42.7472 6.83665 42.7472 8.79083V60.1084Z" fill="url(#paint3_radial)" fill-opacity="0.8"/>
<path d="M21.4829 60.1085V64.3613C21.4829 65.5357 22.435 66.4877 23.6093 66.4877C24.7837 66.4877 25.7358 65.5357 25.7358 64.3613V60.1085H21.4829Z" fill="#03174C"/>
<defs>
<linearGradient id="paint0_linear" x1="47" y1="-6.63239" x2="-21.4638" y2="49.7275" gradientUnits="userSpaceOnUse">
<stop stop-color="#7041EE"/>
<stop offset="0.527788" stop-color="#8D41EE"/>
<stop offset="1" stop-color="#D641EE"/>
</linearGradient>
<radialGradient id="paint1_radial" cx="0" cy="0" r="1" gradientUnits="userSpaceOnUse" gradientTransform="translate(12.9052 -14.7847) rotate(93.9782) scale(88.5739 95.8062)">
<stop stop-color="#52B6FF"/>
<stop offset="1" stop-color="#8F41EE" stop-opacity="0"/>
</radialGradient>
<radialGradient id="paint2_radial" cx="0" cy="0" r="1" gradientUnits="userSpaceOnUse" gradientTransform="translate(12.707 5.2016) rotate(71.2314) scale(33.8851 71.8182)">
<stop stop-color="#9DD6FF"/>
<stop offset="1" stop-color="#8F41EE" stop-opacity="0"/>
</radialGradient>
<radialGradient id="paint3_radial" cx="0" cy="0" r="1" gradientUnits="userSpaceOnUse" gradientTransform="translate(69.2013 56.4822) rotate(131.92) scale(48.0661 69.3741)">
<stop stop-color="#5263FF"/>
<stop offset="1" stop-color="#8F41EE" stop-opacity="0"/>
</radialGradient>
</defs>
</svg>
