<svg width="78" height="78" viewBox="0 0 78 78" fill="none" xmlns="http://www.w3.org/2000/svg">
<path d="M54.9625 47.8709C54.2768 47.2569 53.2234 47.3168 52.6126 48.0008C49.1411 51.88 44.1351 54.1034 38.8746 54.1034C33.6156 54.1034 28.608 51.88 25.1365 48.0008C24.5224 47.3168 23.4723 47.2569 22.7866 47.8709C22.101 48.4834 22.0444 49.5352 22.6568 50.2208C26.7591 54.8041 32.6704 57.4318 38.8746 57.4318C45.0804 57.4318 50.9917 54.8024 55.0923 50.2208C55.7047 49.5352 55.6465 48.4834 54.9625 47.8709Z" fill="white"/>
<path d="M38.8745 0.848633C17.769 0.848633 0.597656 18.02 0.597656 39.1255C0.597656 60.2311 17.769 77.4024 38.8745 77.4024C59.9801 77.4024 77.1514 60.2311 77.1514 39.1255C77.1514 18.02 59.9801 0.848633 38.8745 0.848633ZM38.8745 74.074C19.603 74.074 3.92608 58.3971 3.92608 39.1255C3.92608 19.8539 19.603 4.17706 38.8745 4.17706C58.1461 4.17706 73.823 19.8539 73.823 39.1255C73.823 58.3971 58.1461 74.074 38.8745 74.074Z" fill="white"/>
<path d="M52.1883 27.476C47.6 27.476 43.8672 31.2088 43.8672 35.7971C43.8672 36.7157 44.6128 37.4613 45.5314 37.4613C46.4501 37.4613 47.1956 36.7157 47.1956 35.7971C47.1956 33.0445 49.4357 30.8044 52.1883 30.8044C54.9409 30.8044 57.1809 33.0445 57.1809 35.7971C57.1809 36.7157 57.9265 37.4613 58.8451 37.4613C59.7638 37.4613 60.5093 36.7157 60.5093 35.7971C60.5093 31.2088 56.7765 27.476 52.1883 27.476Z" fill="white"/>
<path d="M30.5535 35.7971C30.5535 36.7157 31.299 37.4613 32.2177 37.4613C33.1363 37.4613 33.8819 36.7157 33.8819 35.7971C33.8819 31.2088 30.1491 27.476 25.5608 27.476C20.9726 27.476 17.2398 31.2088 17.2398 35.7971C17.2398 36.7157 17.9853 37.4613 18.904 37.4613C19.8226 37.4613 20.5682 36.7157 20.5682 35.7971C20.5682 33.0445 22.8082 30.8044 25.5608 30.8044C28.3134 30.8044 30.5535 33.0445 30.5535 35.7971Z" fill="white"/>
</svg>
