<svg width="505" height="657" viewBox="0 0 505 657" fill="none" xmlns="http://www.w3.org/2000/svg">
<g style="mix-blend-mode:color-dodge">
<path d="M159.319 654.795C158.755 653.997 158.438 653.051 158.408 652.074C158.379 651.097 158.637 650.133 159.152 649.302C159.666 648.471 160.414 647.81 161.302 647.401C162.19 646.993 163.178 646.855 164.144 647.004C165.11 647.154 166.01 647.585 166.733 648.243C167.456 648.901 167.968 649.757 168.207 650.705C168.446 651.652 168.401 652.65 168.077 653.572C167.753 654.494 167.165 655.3 166.385 655.89C165.854 656.292 165.246 656.584 164.599 656.747C163.953 656.91 163.28 656.942 162.62 656.84C161.961 656.737 161.329 656.504 160.762 656.153C160.195 655.801 159.704 655.34 159.319 654.795Z" fill="white"/>
</g>
<path d="M161.161 653.451C160.948 653.16 160.795 652.83 160.709 652.48C160.624 652.13 160.609 651.767 160.664 651.411C160.72 651.055 160.845 650.713 161.033 650.406C161.22 650.098 161.467 649.831 161.758 649.619C162.046 649.403 162.373 649.246 162.721 649.157C163.07 649.068 163.432 649.048 163.788 649.099C164.143 649.15 164.486 649.27 164.795 649.453C165.104 649.636 165.375 649.879 165.59 650.167C165.803 650.457 165.957 650.787 166.042 651.137C166.128 651.487 166.143 651.85 166.087 652.206C166.032 652.562 165.907 652.904 165.719 653.211C165.531 653.519 165.284 653.786 164.993 653.998C164.412 654.434 163.682 654.621 162.964 654.518C162.245 654.415 161.597 654.031 161.161 653.451Z" fill="white"/>
<path d="M35.012 636.384C34.5831 635.796 34.4051 635.063 34.5171 634.344C34.6291 633.625 35.0218 632.981 35.6092 632.552C36.1965 632.123 36.9301 631.945 37.6487 632.057C38.3673 632.169 39.0121 632.562 39.441 633.149C39.6534 633.44 39.8064 633.77 39.8913 634.12C39.9762 634.47 39.9914 634.833 39.9359 635.188C39.8805 635.544 39.7555 635.886 39.5681 636.193C39.3807 636.501 39.1347 636.768 38.8439 636.981C38.5531 637.193 38.2233 637.346 37.8733 637.431C37.5234 637.516 37.1601 637.531 36.8043 637.476C36.4485 637.42 36.1071 637.295 35.7996 637.108C35.4921 636.921 35.2244 636.674 35.012 636.384Z" fill="white"/>
<g style="mix-blend-mode:color-dodge">
<path d="M154.442 218.87C153.93 218.17 153.715 217.295 153.846 216.437C153.977 215.579 154.441 214.808 155.139 214.292C155.481 213.996 155.881 213.775 156.314 213.641C156.746 213.507 157.202 213.464 157.652 213.515C158.102 213.566 158.536 213.709 158.928 213.936C159.32 214.163 159.661 214.468 159.929 214.832C160.197 215.197 160.387 215.613 160.487 216.055C160.587 216.496 160.594 216.954 160.509 217.398C160.424 217.843 160.247 218.265 159.991 218.638C159.735 219.011 159.404 219.327 159.02 219.567C158.676 219.827 158.283 220.015 157.864 220.121C157.446 220.227 157.011 220.248 156.584 220.183C156.157 220.118 155.748 219.969 155.38 219.743C155.012 219.518 154.693 219.221 154.442 218.87Z" fill="white"/>
</g>
<path d="M155.885 217.974C155.692 217.693 155.585 217.362 155.578 217.021C155.571 216.68 155.664 216.344 155.846 216.056C156.028 215.768 156.291 215.539 156.602 215.399C156.913 215.258 157.258 215.212 157.594 215.266C157.931 215.32 158.245 215.471 158.496 215.702C158.747 215.932 158.926 216.231 159.009 216.562C159.092 216.893 159.076 217.241 158.963 217.562C158.85 217.884 158.645 218.166 158.373 218.372C157.99 218.647 157.513 218.759 157.047 218.684C156.582 218.61 156.164 218.355 155.885 217.974Z" fill="white"/>
<path d="M73.9263 206.978C73.7098 206.696 73.5821 206.356 73.5595 206.001C73.537 205.646 73.6206 205.293 73.7996 204.985C73.9787 204.678 74.2451 204.431 74.565 204.276C74.8849 204.121 75.2437 204.064 75.5959 204.113C75.948 204.163 76.2775 204.316 76.5424 204.553C76.8074 204.79 76.9956 205.101 77.0834 205.445C77.1712 205.79 77.1545 206.153 77.0354 206.488C76.9163 206.823 76.7001 207.115 76.4144 207.327C76.23 207.472 76.0182 207.578 75.7916 207.639C75.5651 207.7 75.3285 207.715 75.0961 207.683C74.8637 207.65 74.6403 207.571 74.4393 207.45C74.2382 207.329 74.0638 207.168 73.9263 206.978Z" fill="white"/>
<g style="mix-blend-mode:color-dodge">
<path d="M396.391 176.671C395.826 175.873 395.51 174.927 395.48 173.95C395.45 172.973 395.709 172.009 396.223 171.178C396.738 170.347 397.486 169.686 398.374 169.278C399.261 168.869 400.25 168.731 401.216 168.881C402.182 169.03 403.082 169.461 403.805 170.119C404.527 170.777 405.04 171.634 405.279 172.581C405.518 173.529 405.473 174.526 405.149 175.448C404.825 176.37 404.236 177.176 403.457 177.766C402.925 178.169 402.318 178.46 401.671 178.624C401.024 178.787 400.351 178.818 399.692 178.716C399.033 178.614 398.401 178.38 397.834 178.029C397.267 177.678 396.776 177.216 396.391 176.671Z" fill="white"/>
</g>
<path d="M398.232 175.528C397.914 175.091 397.732 174.569 397.71 174.029C397.689 173.488 397.828 172.953 398.109 172.492C398.391 172.03 398.804 171.663 399.294 171.435C399.785 171.208 400.332 171.131 400.867 171.214C401.401 171.297 401.899 171.537 402.297 171.903C402.695 172.269 402.976 172.745 403.104 173.27C403.232 173.796 403.202 174.347 403.017 174.856C402.832 175.364 402.5 175.806 402.064 176.126C401.472 176.543 400.742 176.714 400.027 176.603C399.312 176.491 398.668 176.106 398.232 175.528Z" fill="white"/>
<path d="M272.084 158.508C271.666 157.917 271.495 157.186 271.606 156.471C271.718 155.756 272.103 155.112 272.681 154.676C273.268 154.247 274.002 154.069 274.72 154.181C275.439 154.293 276.083 154.686 276.512 155.273C276.941 155.86 277.119 156.594 277.007 157.313C276.895 158.031 276.503 158.676 275.915 159.105C275.324 159.522 274.594 159.694 273.878 159.582C273.163 159.471 272.52 159.085 272.084 158.508Z" fill="white"/>
<g style="mix-blend-mode:color-dodge">
<path d="M317.815 81.4258C318.03 82.3808 317.959 83.3779 317.61 84.2924C317.261 85.207 316.65 85.9985 315.854 86.5677C315.058 87.1368 314.111 87.4585 313.133 87.4924C312.155 87.5263 311.188 87.271 310.354 86.7584C309.52 86.2458 308.856 85.4986 308.445 84.6105C308.033 83.7223 307.893 82.7325 308.042 81.765C308.19 80.7974 308.62 79.8951 309.279 79.171C309.937 78.4468 310.795 77.9329 311.744 77.6936C312.388 77.5313 313.058 77.4996 313.715 77.6002C314.371 77.7009 315.001 77.932 315.567 78.2798C316.132 78.6276 316.623 79.0852 317.009 79.6255C317.395 80.1658 317.669 80.7779 317.815 81.4258Z" fill="white"/>
</g>
<path d="M315.575 82.1229C315.741 82.8221 315.625 83.5583 315.252 84.1728C314.88 84.7873 314.281 85.2307 313.585 85.4073C313.235 85.4922 312.872 85.5075 312.516 85.4522C312.161 85.3969 311.82 85.272 311.512 85.0849C311.205 84.8977 310.938 84.6519 310.726 84.3614C310.513 84.0709 310.36 83.7415 310.275 83.3919C310.19 83.0423 310.175 82.6793 310.23 82.3238C310.286 81.9683 310.411 81.6271 310.598 81.3198C310.785 81.0126 311.031 80.7452 311.321 80.5329C311.612 80.3206 311.941 80.1676 312.291 80.0826C312.997 79.9184 313.739 80.041 314.355 80.4235C314.971 80.806 315.409 81.4172 315.575 82.1229Z" fill="white"/>
<path d="M425.601 145.967C425.779 146.673 425.669 147.421 425.296 148.046C424.923 148.672 424.316 149.123 423.61 149.301C422.904 149.48 422.156 149.37 421.531 148.997C420.906 148.623 420.454 148.017 420.276 147.311C420.18 146.961 420.155 146.595 420.203 146.236C420.252 145.876 420.373 145.53 420.559 145.219C420.745 144.907 420.992 144.636 421.286 144.423C421.579 144.21 421.913 144.058 422.267 143.977C422.972 143.81 423.715 143.924 424.337 144.296C424.96 144.667 425.413 145.267 425.601 145.967Z" fill="white"/>
<g style="mix-blend-mode:color-dodge">
<path d="M102.242 243.154C101.678 242.356 101.361 241.41 101.331 240.433C101.302 239.456 101.56 238.492 102.075 237.661C102.589 236.83 103.337 236.169 104.225 235.76C105.113 235.352 106.102 235.214 107.067 235.363C108.033 235.513 108.933 235.944 109.656 236.602C110.379 237.26 110.892 238.116 111.131 239.064C111.37 240.012 111.324 241.009 111 241.931C110.676 242.853 110.088 243.659 109.309 244.249C108.777 244.651 108.169 244.943 107.522 245.106C106.876 245.269 106.203 245.301 105.544 245.199C104.884 245.096 104.252 244.863 103.685 244.512C103.118 244.16 102.627 243.699 102.242 243.154Z" fill="white"/>
</g>
<path d="M104.082 241.761C103.653 241.174 103.475 240.44 103.587 239.721C103.699 239.003 104.092 238.358 104.679 237.929C105.267 237.5 106 237.322 106.719 237.434C107.438 237.546 108.082 237.939 108.511 238.526C108.724 238.817 108.877 239.147 108.962 239.497C109.047 239.847 109.062 240.21 109.006 240.566C108.951 240.922 108.826 241.263 108.638 241.571C108.451 241.878 108.205 242.146 107.914 242.358C107.623 242.571 107.294 242.724 106.944 242.809C106.594 242.893 106.23 242.909 105.874 242.853C105.519 242.798 105.177 242.673 104.87 242.485C104.562 242.298 104.295 242.052 104.082 241.761Z" fill="white"/>
<g style="mix-blend-mode:color-dodge">
<path d="M323.687 67.1941C324.149 67.9613 324.373 68.8482 324.33 69.7425C324.288 70.6369 323.982 71.4986 323.45 72.2188C322.918 72.9391 322.184 73.4854 321.342 73.7888C320.499 74.0923 319.586 74.1392 318.717 73.9237C317.848 73.7082 317.062 73.2399 316.459 72.578C315.856 71.9161 315.463 71.0903 315.329 70.205C315.196 69.3197 315.327 68.4146 315.708 67.6041C316.088 66.7936 316.7 66.1141 317.467 65.6515C317.977 65.3439 318.542 65.1398 319.13 65.0508C319.719 64.9619 320.319 64.9899 320.897 65.1331C321.475 65.2764 322.019 65.5321 322.497 65.8858C322.976 66.2394 323.381 66.684 323.687 67.1941Z" fill="white"/>
</g>
<path d="M321.895 68.2391C322.062 68.5136 322.173 68.8182 322.222 69.1356C322.271 69.4529 322.256 69.7768 322.18 70.0887C322.104 70.4006 321.967 70.6944 321.777 70.9534C321.587 71.2124 321.348 71.4316 321.074 71.5982C320.8 71.7648 320.495 71.8758 320.178 71.9247C319.86 71.9736 319.536 71.9595 319.224 71.8833C318.913 71.807 318.619 71.6702 318.36 71.4804C318.101 71.2905 317.882 71.0515 317.715 70.7771C317.546 70.5042 317.433 70.2001 317.384 69.8827C317.335 69.5654 317.35 69.2415 317.429 68.9302C317.508 68.619 317.649 68.3268 317.844 68.0713C318.038 67.8158 318.282 67.602 318.561 67.4429C319.11 67.1102 319.767 67.0073 320.392 67.1563C321.016 67.3054 321.556 67.6944 321.895 68.2391Z" fill="white"/>
<path d="M433.067 92.921C433.297 93.3354 433.401 93.8077 433.367 94.2804C433.333 94.753 433.162 95.2054 432.875 95.5823C432.587 95.9593 432.196 96.2445 431.75 96.4028C431.303 96.5612 430.82 96.5859 430.36 96.4741C429.899 96.3622 429.481 96.1186 429.157 95.7731C428.833 95.4275 428.616 94.9949 428.534 94.5282C428.451 94.0615 428.507 93.5809 428.693 93.1452C428.88 92.7095 429.189 92.3377 429.583 92.075C429.866 91.8955 430.182 91.7749 430.512 91.7202C430.842 91.6656 431.18 91.6782 431.505 91.7572C431.83 91.8361 432.136 91.98 432.405 92.1799C432.673 92.3799 432.898 92.632 433.067 92.921Z" fill="white"/>
<g style="mix-blend-mode:color-dodge">
<path d="M295.223 456.092C295.63 456.753 295.759 457.547 295.582 458.303C295.405 459.058 294.936 459.712 294.278 460.123C293.611 460.526 292.812 460.647 292.056 460.46C291.3 460.273 290.65 459.794 290.247 459.128C289.989 458.802 289.804 458.425 289.703 458.022C289.602 457.619 289.587 457.199 289.66 456.79C289.734 456.381 289.893 455.992 290.127 455.649C290.362 455.306 290.667 455.017 291.021 454.801C291.376 454.585 291.773 454.446 292.185 454.394C292.597 454.342 293.016 454.379 293.413 454.501C293.81 454.623 294.177 454.828 294.489 455.102C294.801 455.377 295.051 455.714 295.223 456.092Z" fill="white"/>
</g>
<path d="M294.078 456.788C294.195 456.963 294.276 457.16 294.314 457.366C294.353 457.573 294.349 457.785 294.302 457.99C294.255 458.196 294.167 458.389 294.043 458.559C293.919 458.729 293.762 458.871 293.581 458.978C293.314 459.147 293.004 459.233 292.688 459.225C292.373 459.217 292.067 459.116 291.81 458.934C291.552 458.752 291.354 458.498 291.241 458.203C291.128 457.909 291.105 457.588 291.175 457.28C291.245 456.973 291.405 456.693 291.634 456.476C291.863 456.259 292.151 456.116 292.462 456.063C292.773 456.01 293.093 456.051 293.38 456.18C293.668 456.309 293.911 456.521 294.078 456.788Z" fill="white"/>
<path d="M366.084 472.761C366.192 472.941 366.264 473.14 366.295 473.347C366.326 473.555 366.316 473.766 366.265 473.97C366.214 474.173 366.124 474.365 365.999 474.533C365.874 474.701 365.717 474.843 365.537 474.951C365.174 475.169 364.739 475.233 364.328 475.131C363.918 475.028 363.565 474.767 363.347 474.404C363.129 474.041 363.065 473.606 363.167 473.195C363.27 472.785 363.531 472.432 363.894 472.214C364.074 472.106 364.273 472.034 364.481 472.003C364.688 471.972 364.899 471.982 365.103 472.033C365.306 472.084 365.498 472.174 365.666 472.299C365.835 472.424 365.976 472.581 366.084 472.761Z" fill="white"/>
<g style="mix-blend-mode:color-dodge">
<path d="M76.2641 475.251C76.7333 476.014 76.9653 476.9 76.931 477.795C76.8966 478.691 76.5974 479.556 76.0711 480.281C75.5449 481.006 74.8154 481.559 73.9748 481.869C73.1342 482.18 72.2204 482.234 71.349 482.025C70.4777 481.816 69.688 481.353 69.0799 480.695C68.4718 480.037 68.0726 479.213 67.9328 478.328C67.7931 477.443 67.9191 476.536 68.2949 475.723C68.6707 474.909 69.2793 474.225 70.0438 473.758C71.067 473.133 72.2965 472.938 73.4627 473.218C74.6288 473.498 75.6363 474.229 76.2641 475.251Z" fill="white"/>
</g>
<path d="M74.6735 476.395C75.0043 476.958 75.101 477.627 74.9428 478.26C74.7845 478.893 74.3841 479.439 73.8276 479.779C73.5509 479.949 73.2429 480.063 72.9217 480.113C72.6006 480.162 72.2728 480.147 71.9576 480.069C71.6423 479.99 71.346 479.849 71.086 479.654C70.826 479.459 70.6076 479.214 70.4436 478.933C70.2043 478.38 70.1741 477.758 70.3587 477.184C70.5433 476.61 70.9302 476.122 71.4473 475.812C71.9644 475.502 72.5766 475.39 73.17 475.497C73.7635 475.604 74.2977 475.924 74.6735 476.395Z" fill="white"/>
<path d="M185.745 501.078C186.081 501.632 186.184 502.298 186.03 502.927C185.876 503.557 185.478 504.1 184.923 504.437C184.369 504.774 183.704 504.876 183.074 504.722C182.444 504.568 181.901 504.17 181.564 503.616C181.229 503.06 181.125 502.394 181.274 501.762C181.422 501.13 181.813 500.581 182.361 500.232C182.637 500.062 182.945 499.948 183.266 499.899C183.588 499.849 183.915 499.864 184.231 499.943C184.546 500.022 184.842 500.163 185.102 500.358C185.362 500.553 185.581 500.798 185.745 501.078Z" fill="white"/>
<g style="mix-blend-mode:color-dodge">
<path d="M139.264 566.316C139.121 565.165 139.429 564.003 140.125 563.075C140.822 562.147 141.851 561.525 142.996 561.34C143.608 561.184 144.245 561.157 144.867 561.262C145.49 561.366 146.083 561.599 146.61 561.946C147.137 562.294 147.585 562.747 147.927 563.278C148.268 563.808 148.495 564.404 148.592 565.028C148.69 565.651 148.656 566.288 148.493 566.898C148.33 567.507 148.041 568.076 147.646 568.567C147.25 569.059 146.756 569.462 146.195 569.752C145.635 570.041 145.02 570.21 144.39 570.248C143.793 570.339 143.185 570.308 142.601 570.158C142.016 570.008 141.468 569.741 140.99 569.374C140.511 569.007 140.111 568.547 139.815 568.021C139.518 567.496 139.331 566.916 139.264 566.316Z" fill="white"/>
</g>
<path d="M145.988 566.117C146.367 564.825 145.627 563.47 144.335 563.091C143.042 562.712 141.688 563.452 141.308 564.744C140.929 566.037 141.67 567.391 142.962 567.77C144.254 568.15 145.609 567.409 145.988 566.117Z" fill="white"/>
<path d="M48.0508 500.678C47.9499 500.032 48.1075 499.372 48.4893 498.842C48.8712 498.311 49.4465 497.952 50.0911 497.842C50.7371 497.741 51.3969 497.898 51.9277 498.28C52.4585 498.662 52.8177 499.238 52.9276 499.882C53.0142 500.534 52.8448 501.193 52.455 501.722C52.0652 502.251 51.4855 502.608 50.8376 502.719C50.1994 502.805 49.5523 502.641 49.0326 502.261C48.5128 501.88 48.1608 501.313 48.0508 500.678Z" fill="white"/>
<g style="mix-blend-mode:color-dodge">
<path d="M343.593 438.375C343.901 438.885 344.105 439.45 344.194 440.039C344.283 440.627 344.255 441.228 344.111 441.805C343.968 442.383 343.712 442.927 343.359 443.406C343.005 443.885 342.56 444.289 342.05 444.596C341.548 444.904 340.989 445.11 340.406 445.202C339.823 445.294 339.228 445.27 338.655 445.132C338.082 444.993 337.541 444.742 337.065 444.394C336.589 444.046 336.186 443.607 335.88 443.103C335.319 442.083 335.173 440.886 335.471 439.761C335.769 438.636 336.49 437.669 337.482 437.061C338.474 436.452 339.663 436.25 340.801 436.494C341.939 436.739 342.939 437.413 343.593 438.375Z" fill="white"/>
</g>
<path d="M341.801 439.469C342.136 440.026 342.241 440.691 342.092 441.323C341.943 441.956 341.553 442.505 341.005 442.853C340.728 443.024 340.42 443.137 340.099 443.187C339.778 443.236 339.45 443.221 339.135 443.143C338.82 443.064 338.523 442.923 338.263 442.728C338.003 442.533 337.785 442.288 337.621 442.007C337.454 441.733 337.343 441.428 337.294 441.111C337.245 440.794 337.26 440.469 337.336 440.158C337.412 439.846 337.549 439.552 337.739 439.293C337.929 439.034 338.168 438.815 338.442 438.648C338.717 438.482 339.021 438.371 339.338 438.322C339.656 438.273 339.98 438.287 340.292 438.363C340.604 438.439 340.897 438.576 341.156 438.766C341.415 438.956 341.634 439.195 341.801 439.469Z" fill="white"/>
<g style="mix-blend-mode:color-dodge">
<path d="M502.585 389.31C502.082 389.618 501.523 389.824 500.94 389.916C500.358 390.008 499.762 389.984 499.189 389.845C498.616 389.707 498.075 389.456 497.599 389.108C497.123 388.76 496.72 388.321 496.414 387.817C495.939 387.053 495.702 386.166 495.733 385.268C495.764 384.369 496.062 383.5 496.588 382.772C497.115 382.043 497.846 381.488 498.69 381.176C499.533 380.865 500.45 380.811 501.324 381.023C502.197 381.234 502.988 381.701 503.596 382.363C504.204 383.026 504.6 383.854 504.736 384.743C504.871 385.632 504.738 386.541 504.355 387.354C503.972 388.167 503.356 388.848 502.585 389.31Z" fill="white"/>
</g>
<path d="M501.539 387.567C501.262 387.738 500.955 387.851 500.633 387.901C500.312 387.95 499.984 387.935 499.669 387.856C499.354 387.778 499.058 387.637 498.798 387.442C498.538 387.247 498.319 387.002 498.155 386.721C497.819 386.167 497.716 385.502 497.87 384.872C498.024 384.242 498.422 383.699 498.976 383.362C499.531 383.026 500.196 382.923 500.826 383.077C501.456 383.231 501.999 383.629 502.335 384.183C502.508 384.457 502.624 384.762 502.678 385.082C502.731 385.401 502.72 385.727 502.646 386.042C502.572 386.357 502.436 386.654 502.246 386.916C502.056 387.178 501.816 387.399 501.539 387.567Z" fill="white"/>
<path d="M476.659 498.688C476.238 498.946 475.749 499.072 475.256 499.051C474.762 499.031 474.286 498.863 473.888 498.571C473.49 498.279 473.188 497.874 473.02 497.41C472.853 496.945 472.827 496.441 472.947 495.962C473.067 495.483 473.326 495.05 473.693 494.719C474.06 494.388 474.516 494.173 475.005 494.103C475.494 494.032 475.993 494.109 476.438 494.323C476.883 494.537 477.255 494.878 477.505 495.304C477.836 495.866 477.933 496.536 477.775 497.169C477.616 497.802 477.216 498.347 476.659 498.688Z" fill="white"/>
<g style="mix-blend-mode:color-dodge">
<path d="M113.737 360.148C113.07 360.551 112.271 360.672 111.515 360.485C110.759 360.299 110.108 359.819 109.706 359.153C109.508 358.827 109.376 358.464 109.319 358.087C109.262 357.71 109.28 357.325 109.373 356.955C109.465 356.584 109.63 356.236 109.858 355.93C110.086 355.624 110.373 355.366 110.701 355.172C111.027 354.914 111.404 354.729 111.807 354.628C112.21 354.526 112.63 354.512 113.039 354.585C113.448 354.659 113.837 354.818 114.18 355.052C114.523 355.287 114.812 355.592 115.028 355.946C115.244 356.301 115.383 356.698 115.435 357.11C115.486 357.522 115.45 357.941 115.328 358.338C115.206 358.735 115.001 359.102 114.727 359.414C114.452 359.726 114.115 359.976 113.737 360.148Z" fill="white"/>
</g>
<path d="M113.039 359.003C112.769 359.164 112.457 359.242 112.143 359.226C111.828 359.21 111.526 359.102 111.273 358.914C111.021 358.727 110.829 358.468 110.723 358.172C110.617 357.876 110.602 357.555 110.678 357.25C110.754 356.944 110.919 356.669 111.152 356.457C111.385 356.245 111.676 356.108 111.987 356.061C112.298 356.014 112.616 356.061 112.901 356.195C113.185 356.329 113.424 356.544 113.586 356.814C113.695 356.993 113.766 357.192 113.798 357.4C113.829 357.607 113.818 357.819 113.768 358.022C113.717 358.226 113.626 358.417 113.501 358.585C113.376 358.754 113.219 358.896 113.039 359.003Z" fill="white"/>
<path d="M96.9158 430.96C96.55 431.166 96.1193 431.224 95.7121 431.122C95.3049 431.02 94.9521 430.766 94.7262 430.413C94.5085 430.05 94.4438 429.615 94.5464 429.204C94.6491 428.794 94.9108 428.441 95.2737 428.223C95.6367 428.005 96.0712 427.941 96.4818 428.043C96.8924 428.146 97.2455 428.407 97.4633 428.77C97.5716 428.95 97.6433 429.149 97.6744 429.357C97.7055 429.564 97.6953 429.775 97.6445 429.979C97.5936 430.182 97.503 430.374 97.3779 430.542C97.2529 430.711 97.0959 430.852 96.9158 430.96Z" fill="white"/>
<g style="mix-blend-mode:color-dodge">
<path d="M94.927 141.291C94.4206 141.664 93.8421 141.927 93.2285 142.063C92.6149 142.2 91.9796 142.208 91.3629 142.085C90.7461 141.963 90.1616 141.714 89.6465 141.353C89.1314 140.993 88.6971 140.529 88.3711 139.992C88.0451 139.454 87.8345 138.855 87.7529 138.231C87.6713 137.608 87.7205 136.974 87.8972 136.371C88.0738 135.767 88.3742 135.207 88.7792 134.727C89.1841 134.246 89.6848 133.854 90.2492 133.578C90.752 133.269 91.3109 133.063 91.8936 132.971C92.4763 132.879 93.0714 132.903 93.6448 133.042C94.2181 133.181 94.7584 133.431 95.2346 133.779C95.7109 134.127 96.1136 134.566 96.4198 135.071C97.0453 136.094 97.2396 137.323 96.9597 138.489C96.6798 139.655 95.9488 140.663 94.927 141.291Z" fill="white"/>
</g>
<path d="M93.8322 139.548C93.2775 139.876 92.6153 139.971 91.9905 139.813C91.3657 139.654 90.8291 139.255 90.498 138.702C90.25 138.287 90.1307 137.809 90.1549 137.327C90.1792 136.844 90.3461 136.38 90.6344 135.993C90.9227 135.606 91.3193 135.313 91.7743 135.151C92.2292 134.99 92.722 134.967 93.19 135.086C93.6579 135.204 94.08 135.459 94.4029 135.818C94.7258 136.177 94.935 136.624 95.0038 137.102C95.0726 137.58 94.998 138.067 94.7894 138.503C94.5808 138.938 94.2477 139.302 93.8322 139.548Z" fill="white"/>
<path d="M71.2885 254.452C70.1179 255.16 68.7639 255.504 67.3976 255.442C66.0313 255.38 64.714 254.914 63.6123 254.104C62.5107 253.293 61.6741 252.174 61.2082 250.888C60.7423 249.602 60.668 248.207 60.9948 246.879C61.3216 245.551 62.0348 244.35 63.0442 243.427C64.0536 242.504 65.3139 241.901 66.6659 241.694C68.0179 241.488 69.4008 241.686 70.6399 242.265C71.879 242.845 72.9186 243.778 73.6274 244.948C74.0984 245.725 74.4116 246.588 74.549 247.487C74.6864 248.385 74.6454 249.302 74.4281 250.185C74.2109 251.068 73.8218 251.899 73.2831 252.631C72.7444 253.363 72.0666 253.982 71.2885 254.452Z" fill="white"/>
<g style="mix-blend-mode:color-dodge">
<path d="M3.81032 203.942C4.70367 203.798 5.61945 203.926 6.4397 204.308C7.25996 204.689 7.94701 205.308 8.41228 206.084C8.87754 206.86 9.09974 207.758 9.05011 208.661C9.00047 209.565 8.68139 210.433 8.13391 211.153C7.58643 211.873 6.83565 212.413 5.97849 212.703C5.12133 212.993 4.19706 213.019 3.32481 212.778C2.45256 212.538 1.67236 212.042 1.0848 211.354C0.497243 210.666 0.129217 209.817 0.0282806 208.918C-0.101551 207.762 0.218866 206.599 0.923067 205.673C1.62727 204.746 2.66124 204.126 3.81032 203.942Z" fill="white"/>
</g>
<path d="M4.10889 205.982C4.59758 205.897 5.10047 205.96 5.55297 206.163C6.00547 206.366 6.3869 206.7 6.64837 207.121C6.90984 207.543 7.03946 208.033 7.02044 208.529C7.00142 209.024 6.83461 209.503 6.54161 209.903C6.24861 210.303 5.84278 210.607 5.37605 210.775C4.90932 210.942 4.40301 210.967 3.92225 210.845C3.44148 210.723 3.00816 210.46 2.67787 210.09C2.34757 209.72 2.1354 209.26 2.06859 208.768C1.98182 208.13 2.14595 207.483 2.52646 206.963C2.90697 206.444 3.47423 206.092 4.10889 205.982Z" fill="white"/>
<path d="M69.646 112.875C69.963 112.825 70.2866 112.839 70.5984 112.915C70.9102 112.99 71.2039 113.127 71.4628 113.317C71.7217 113.506 71.9406 113.745 72.107 114.019C72.2734 114.294 72.3842 114.598 72.4328 114.915C72.5336 115.561 72.376 116.221 71.9942 116.752C71.6124 117.283 71.037 117.642 70.3925 117.752C69.7326 117.851 69.0604 117.683 68.5238 117.287C67.9871 116.89 67.63 116.297 67.531 115.637C67.432 114.977 67.5993 114.305 67.9959 113.768C68.3925 113.231 68.9861 112.874 69.646 112.775V112.875Z" fill="white"/>
<g style="mix-blend-mode:color-dodge">
<path d="M131.353 408.518C130.846 408.89 130.268 409.153 129.654 409.29C129.04 409.427 128.405 409.434 127.788 409.312C127.172 409.19 126.587 408.941 126.072 408.58C125.557 408.22 125.123 407.756 124.797 407.218C124.47 406.681 124.26 406.081 124.178 405.458C124.097 404.834 124.146 404.201 124.323 403.597C124.499 402.994 124.8 402.434 125.205 401.953C125.61 401.472 126.11 401.081 126.675 400.804C127.69 400.306 128.856 400.206 129.941 400.524C131.027 400.842 131.954 401.555 132.541 402.522C133.127 403.489 133.331 404.641 133.111 405.75C132.891 406.86 132.264 407.847 131.353 408.518Z" fill="white"/>
</g>
<path d="M130.258 406.776C129.704 407.016 129.082 407.046 128.508 406.861C127.934 406.677 127.447 406.29 127.136 405.773C126.826 405.256 126.714 404.643 126.821 404.05C126.929 403.457 127.248 402.922 127.72 402.547C128.282 402.216 128.952 402.119 129.585 402.277C130.218 402.435 130.763 402.836 131.103 403.392C131.274 403.669 131.387 403.977 131.437 404.298C131.487 404.619 131.472 404.947 131.393 405.262C131.314 405.578 131.173 405.874 130.978 406.134C130.783 406.394 130.538 406.612 130.258 406.776Z" fill="white"/>
<path style="mix-blend-mode:screen" opacity="0.42" d="M125.536 0.0446797L321.363 19.0659C323.453 19.2679 325.413 20.1705 326.926 21.6273C328.438 23.084 329.413 25.0092 329.693 27.0903L365.619 300.971C365.897 303.108 365.427 305.275 364.287 307.104C363.147 308.932 361.409 310.31 359.369 311.002L177.352 372.542C176.054 372.984 174.674 373.134 173.311 372.981C171.948 372.828 170.635 372.376 169.467 371.658C168.298 370.939 167.303 369.972 166.552 368.824C165.8 367.677 165.311 366.377 165.12 365.019L115.42 10.6011C115.223 9.20698 115.344 7.78614 115.776 6.44587C116.208 5.1056 116.938 3.88092 117.913 2.86426C118.887 1.84761 120.079 1.06554 121.4 0.577103C122.721 0.0886628 124.135 -0.0933917 125.536 0.0446797Z" fill="url(#paint0_radial)"/>
<path d="M140.741 34.5886C140.741 34.5886 141.561 20.1301 159.261 21.1331L213.364 392.652C213.364 392.652 194.49 400.358 187.273 384.872L140.741 34.5886Z" fill="url(#paint1_linear)"/>
<path d="M158.771 21.072L354.586 40.0932C356.68 40.299 358.644 41.2077 360.156 42.6713C361.669 44.135 362.641 46.0675 362.916 48.1543L398.842 322.011C399.122 324.146 398.651 326.312 397.511 328.14C396.371 329.967 394.632 331.342 392.591 332.029L210.575 393.582C209.276 394.026 207.896 394.177 206.532 394.026C205.168 393.874 203.855 393.422 202.686 392.703C201.517 391.984 200.521 391.016 199.77 389.867C199.02 388.719 198.532 387.418 198.343 386.059L148.643 31.6285C148.45 30.2341 148.575 28.8141 149.009 27.475C149.443 26.1359 150.175 24.9126 151.15 23.8968C152.124 22.881 153.316 22.0992 154.636 21.6099C155.956 21.1207 157.37 20.9368 158.771 21.072Z" fill="url(#paint2_linear)"/>
<path d="M361.13 58.0016L394.475 312.433C394.708 314.46 394.224 316.504 393.106 318.211C391.989 319.918 390.31 321.18 388.359 321.779L212.349 379.845C211.332 380.182 210.264 380.343 209.193 380.322C207.119 380.3 205.12 379.543 203.552 378.186C201.984 376.829 200.949 374.959 200.63 372.909L154.344 43.7143C154.084 41.6336 154.579 39.5289 155.74 37.7826C156.9 36.0362 158.649 34.7642 160.668 34.1975C161.8 33.8557 162.988 33.7353 164.166 33.8428L353.13 50.5643C355.112 50.7056 356.986 51.5202 358.441 52.873C359.896 54.2257 360.845 56.0353 361.13 58.0016Z" fill="url(#paint3_linear)"/>
<path d="M358.256 58.3932L391.601 312.825C391.836 314.853 391.354 316.901 390.236 318.61C389.119 320.32 387.438 321.584 385.485 322.182L209.487 380.237L209.193 380.322C207.119 380.301 205.12 379.544 203.552 378.186C201.984 376.829 200.949 374.959 200.63 372.91L154.344 43.7145C154.084 41.6338 154.579 39.5291 155.74 37.7828C156.9 36.0364 158.649 34.7644 160.668 34.1978H161.304L350.268 50.9437C352.249 51.0904 354.12 51.9087 355.572 53.2633C357.025 54.6179 357.971 56.4276 358.256 58.3932Z" fill="#9D68FF"/>
<g style="mix-blend-mode:multiply" opacity="0.5">
<path d="M176.557 201.755C176.557 201.755 199.052 328.213 239.737 383.723L261.339 376.53L176.557 201.755Z" fill="#1455D7"/>
</g>
<path d="M474.682 326.243C474.682 326.243 392.371 312.103 274.171 387.772C274.171 387.772 221.217 370.353 181.389 236.091L474.682 326.243Z" fill="url(#paint4_linear)"/>
<path d="M156.741 124.3C156.015 124.391 155.283 124.193 154.702 123.749C154.121 123.306 153.737 122.651 153.634 121.927L146.294 67.6649C146.197 66.9401 146.39 66.2061 146.833 65.6238C147.275 65.0415 147.931 64.6582 148.655 64.5579C149.014 64.5098 149.379 64.5331 149.729 64.6264C150.079 64.7197 150.408 64.8813 150.695 65.1018C150.983 65.3222 151.224 65.5973 151.405 65.9112C151.586 66.2251 151.703 66.5717 151.75 66.931L159.089 121.181C159.187 121.906 158.995 122.639 158.556 123.223C158.116 123.807 157.464 124.194 156.741 124.3Z" fill="url(#paint5_linear)"/>
<path d="M155.897 124.411C155.62 124.448 155.339 124.431 155.069 124.36C154.8 124.289 154.547 124.165 154.325 123.995C154.103 123.826 153.917 123.614 153.778 123.373C153.638 123.131 153.548 122.865 153.511 122.588L146.025 67.0656C145.98 66.7848 145.992 66.4978 146.06 66.2216C146.128 65.9454 146.25 65.6856 146.42 65.4576C146.59 65.2295 146.804 65.0378 147.049 64.8938C147.294 64.7498 147.566 64.6564 147.848 64.6191C148.406 64.5461 148.97 64.6968 149.417 65.0383C149.864 65.3798 150.157 65.8844 150.233 66.4417L157.719 121.976C157.764 122.256 157.752 122.543 157.684 122.818C157.616 123.094 157.494 123.352 157.324 123.58C157.154 123.807 156.94 123.997 156.695 124.14C156.45 124.283 156.178 124.375 155.897 124.411Z" fill="url(#paint6_linear)"/>
<path style="mix-blend-mode:screen" d="M147.836 64.6315C147.433 64.6912 147.056 64.8645 146.748 65.131C146.44 65.3974 146.215 65.7461 146.099 66.1361C146.386 65.891 146.735 65.728 147.107 65.6641C147.48 65.6002 147.862 65.6378 148.215 65.7729C148.568 65.9081 148.878 66.1358 149.113 66.4322C149.347 66.7286 149.498 67.0826 149.548 67.4572L157.034 122.979C157.072 123.279 157.047 123.583 156.961 123.872C157.238 123.644 157.451 123.349 157.582 123.015C157.713 122.681 157.756 122.32 157.707 121.964L150.233 66.4297C150.148 65.8758 149.85 65.3772 149.402 65.0411C148.953 64.7049 148.391 64.5578 147.836 64.6315Z" fill="url(#paint7_linear)"/>
<path d="M158.06 132.595L157.696 132.644C156.284 132.835 155.293 134.135 155.484 135.547L158.913 160.943C159.104 162.356 160.404 163.347 161.816 163.156L162.18 163.107C163.592 162.916 164.583 161.616 164.392 160.204L160.963 134.807C160.772 133.395 159.473 132.404 158.06 132.595Z" fill="url(#paint8_linear)"/>
<path d="M161.132 163.272C160.856 163.31 160.574 163.293 160.305 163.222C160.035 163.15 159.782 163.027 159.56 162.857C159.339 162.688 159.153 162.476 159.013 162.235C158.873 161.993 158.783 161.726 158.747 161.45L155.199 135.162C155.154 134.882 155.166 134.595 155.234 134.319C155.302 134.042 155.424 133.783 155.594 133.555C155.764 133.326 155.978 133.135 156.223 132.991C156.468 132.847 156.74 132.753 157.022 132.716C157.58 132.643 158.144 132.794 158.591 133.135C159.038 133.477 159.331 133.981 159.407 134.539L162.955 160.838C163 161.118 162.988 161.404 162.92 161.68C162.852 161.955 162.729 162.214 162.559 162.441C162.389 162.668 162.175 162.859 161.93 163.002C161.685 163.144 161.413 163.236 161.132 163.272Z" fill="url(#paint9_linear)"/>
<path style="mix-blend-mode:screen" d="M157.022 132.753C156.673 132.773 156.33 132.862 156.015 133.015C155.7 133.168 155.419 133.383 155.188 133.646C155.532 133.484 155.899 133.377 156.276 133.328C157.438 133.169 158.454 133.524 158.527 134.123L162.356 162.477C162.365 162.643 162.317 162.807 162.221 162.942C162.784 162.673 163.138 162.282 163.09 161.903L159.273 133.511C159.187 132.949 158.184 132.594 157.022 132.753Z" fill="url(#paint10_linear)"/>
<path style="mix-blend-mode:screen" d="M186.49 379.136C186.49 379.136 158.355 174.526 159.579 174.281C160.802 174.037 186.893 363.026 186.893 363.026C186.893 363.026 189.303 379.233 186.49 379.136Z" fill="url(#paint11_linear)"/>
<path d="M474.682 326.243C450.841 322.476 425.007 325.191 400.065 331.136C333.925 346.843 274.073 385.117 274.073 385.117C231.26 362.243 196.202 283.944 181.462 236.091L177.646 209.021L153.829 40.8398V40.7664C153.698 39.6829 153.81 38.5838 154.157 37.549C154.504 36.5143 155.078 35.57 155.836 34.7849C156.594 33.9998 157.518 33.3937 158.54 33.0106C159.562 32.6276 160.656 32.4773 161.744 32.5708L351.552 50.7969C353.157 50.9521 354.664 51.6377 355.836 52.7453C357.008 53.8529 357.778 55.3193 358.023 56.913C358.029 56.9904 358.029 57.0681 358.023 57.1454C358.83 63.2616 360.029 72.4847 361.448 83.347L362.671 92.827L363.05 95.6404C363.98 102.76 364.983 110.319 365.974 117.952L368.42 136.362C368.677 138.392 368.959 140.423 369.216 142.478L375.466 189.78C376.53 197.853 377.215 203.04 377.313 203.762C411.735 280.495 474.682 326.243 474.682 326.243Z" fill="url(#paint12_linear)"/>
<g style="mix-blend-mode:multiply" opacity="0.2">
<path d="M222.502 60.8882L225.303 78.1724C225.51 79.4512 226.15 80.6198 227.117 81.4819C228.084 82.344 229.318 82.847 230.612 82.9063L310.354 86.4659C311.187 86.5025 312.017 86.3542 312.785 86.0316C313.553 85.709 314.241 85.2202 314.797 84.6002C315.354 83.9803 315.767 83.2447 316.005 82.4463C316.244 81.6479 316.302 80.8065 316.177 79.9828L313.84 64.6802C313.65 63.4124 313.032 62.2478 312.089 61.3799C311.145 60.512 309.933 59.9932 308.654 59.9096L228.447 54.3561C227.6 54.2991 226.75 54.4341 225.963 54.7511C225.175 55.0681 224.469 55.5589 223.897 56.1869C223.326 56.8149 222.903 57.5638 222.662 58.3779C222.42 59.1919 222.366 60.05 222.502 60.8882Z" fill="#1455D7"/>
</g>
<g style="mix-blend-mode:multiply" opacity="0.2">
<g style="mix-blend-mode:multiply" opacity="0.2">
<path d="M349.793 134.082L186.759 140.345L186.799 141.396L349.833 135.133L349.793 134.082Z" fill="#1455D7"/>
</g>
</g>
<g style="mix-blend-mode:multiply" opacity="0.2">
<g style="mix-blend-mode:multiply" opacity="0.2">
<path d="M370.714 186.727L194.999 201.853L195.089 202.901L370.805 187.775L370.714 186.727Z" fill="#1455D7"/>
</g>
</g>
<g style="mix-blend-mode:multiply" opacity="0.2">
<g style="mix-blend-mode:multiply" opacity="0.2">
<path d="M213.682 263.65L213.389 262.635C214.612 262.28 337.975 227.492 391.54 234.097L391.418 235.149C338.06 228.593 214.918 263.296 213.682 263.65Z" fill="#1455D7"/>
</g>
</g>
<path d="M201.34 106.698L202.563 117.206C202.718 118.506 203.351 119.702 204.339 120.561C205.327 121.421 206.599 121.881 207.909 121.854L217.266 121.634C218.004 121.618 218.729 121.447 219.396 121.131C220.063 120.816 220.655 120.364 221.136 119.804C221.616 119.244 221.972 118.589 222.183 117.883C222.393 117.176 222.451 116.432 222.355 115.701L221.046 105.769C220.888 104.539 220.298 103.405 219.381 102.57C218.465 101.734 217.282 101.251 216.043 101.206L206.771 100.839C206.013 100.809 205.257 100.944 204.555 101.234C203.854 101.524 203.223 101.962 202.707 102.519C202.191 103.076 201.802 103.738 201.566 104.459C201.33 105.18 201.253 105.944 201.34 106.698Z" fill="#6874FF" fill-opacity="0.5"/>
<path d="M208.018 164.092L209.119 173.633C209.283 175.134 210.027 176.512 211.193 177.472C212.359 178.432 213.853 178.898 215.358 178.771L223.92 177.963C224.702 177.899 225.463 177.676 226.156 177.309C226.849 176.941 227.46 176.437 227.952 175.826C228.444 175.215 228.806 174.51 229.018 173.755C229.229 172.999 229.284 172.209 229.18 171.431L227.957 162.355C227.766 160.924 227.049 159.616 225.945 158.687C224.841 157.757 223.43 157.272 221.988 157.328L213.499 157.67C212.708 157.707 211.934 157.906 211.223 158.254C210.513 158.602 209.881 159.092 209.367 159.694C208.854 160.296 208.469 160.997 208.237 161.753C208.005 162.51 207.931 163.306 208.018 164.092Z" fill="#6874FF" fill-opacity="0.5"/>
<g style="mix-blend-mode:multiply" opacity="0.2">
<path d="M218.208 222.942C219.795 228.34 221.956 233.552 224.654 238.489C225.043 239.142 225.635 239.649 226.341 239.932C227.046 240.215 227.824 240.258 228.557 240.055C231.443 239.259 236.336 237.902 240.3 236.764C240.757 236.632 241.182 236.407 241.548 236.104C241.915 235.8 242.215 235.424 242.429 235C242.644 234.575 242.769 234.11 242.796 233.635C242.823 233.16 242.752 232.685 242.587 232.238C241.278 228.654 239.235 223.076 237.963 219.394C237.706 218.649 237.203 218.013 236.535 217.592C235.868 217.172 235.077 216.992 234.293 217.082L221.132 218.477C220.625 218.533 220.137 218.701 219.702 218.968C219.268 219.235 218.898 219.594 218.619 220.021C218.339 220.447 218.158 220.93 218.087 221.435C218.016 221.94 218.057 222.455 218.208 222.942Z" fill="#1455D7"/>
</g>
<g style="mix-blend-mode:multiply" opacity="0.2">
<path d="M252.054 313.326C254.649 318.322 257.779 323.022 261.388 327.344C261.893 327.909 262.571 328.293 263.316 328.434C264.061 328.576 264.832 328.468 265.51 328.127C268.189 326.781 272.727 324.518 276.397 322.622C276.821 322.404 277.196 322.101 277.498 321.732C277.8 321.363 278.023 320.935 278.153 320.476C278.282 320.017 278.316 319.537 278.252 319.064C278.187 318.591 278.027 318.137 277.779 317.729C275.785 314.475 272.715 309.399 270.758 306.023C270.362 305.346 269.749 304.823 269.018 304.539C268.288 304.254 267.482 304.226 266.733 304.457L254.085 308.433C253.605 308.587 253.164 308.843 252.793 309.184C252.423 309.526 252.13 309.944 251.937 310.409C251.744 310.875 251.654 311.377 251.675 311.88C251.695 312.384 251.825 312.877 252.054 313.326Z" fill="#1455D7"/>
</g>
<g style="mix-blend-mode:multiply" opacity="0.2">
<path d="M358.023 56.8641L361.497 83.3592L362.72 92.8392L363.087 95.6527L366.023 117.964L368.469 136.374L369.264 142.49L375.478 189.78C376.115 194.673 376.616 198.465 376.934 200.887L377.313 203.762L356.029 64.7784C355.664 62.4104 354.51 60.2351 352.754 58.6053C350.997 56.9756 348.742 55.987 346.353 55.7999L153.829 40.8398V40.7664C153.698 39.6829 153.81 38.5838 154.157 37.549C154.504 36.5143 155.078 35.57 155.836 34.7849C156.594 33.9998 157.518 33.3937 158.54 33.0106C159.562 32.6276 160.656 32.4773 161.744 32.5708L351.54 50.7969C353.14 50.9471 354.645 51.6245 355.818 52.7226C356.992 53.8207 357.767 55.2775 358.023 56.8641Z" fill="#1455D7"/>
</g>
<g style="mix-blend-mode:multiply" opacity="0.2">
<g style="mix-blend-mode:multiply" opacity="0.2">
<path d="M289.375 361.692C287.182 361.693 285.071 360.853 283.479 359.343C277.9 354.051 272.712 348.36 267.956 342.316C267.184 341.312 266.642 340.151 266.37 338.914C266.097 337.677 266.1 336.396 266.378 335.16C266.657 333.942 267.198 332.799 267.966 331.812C268.733 330.825 269.707 330.018 270.819 329.448C286.17 321.595 316.763 307.931 349.215 304.665C350.601 304.527 351.999 304.729 353.288 305.254C354.578 305.778 355.72 306.609 356.616 307.674L364.763 317.362C365.678 318.455 366.305 319.759 366.589 321.156C366.872 322.553 366.802 323.999 366.386 325.362C365.969 326.725 365.218 327.963 364.202 328.962C363.186 329.962 361.937 330.692 360.567 331.087C345.631 335.344 321.937 343.906 293.73 360.506C292.411 361.283 290.907 361.693 289.375 361.692ZM350.059 305.68C349.811 305.668 349.562 305.668 349.313 305.68C317.032 308.91 286.574 322.512 271.284 330.341C270.308 330.838 269.453 331.544 268.781 332.409C268.109 333.273 267.635 334.275 267.394 335.344C267.15 336.428 267.148 337.552 267.389 338.637C267.631 339.722 268.108 340.74 268.788 341.619C273.508 347.64 278.659 353.311 284.201 358.585C285.388 359.705 286.906 360.409 288.527 360.592C290.148 360.775 291.785 360.427 293.192 359.6C321.497 342.916 345.289 334.328 360.273 330.072C361.475 329.729 362.573 329.09 363.465 328.214C364.356 327.339 365.015 326.253 365.38 325.058C365.745 323.862 365.804 322.594 365.553 321.37C365.302 320.145 364.749 319.003 363.943 318.047L355.784 308.359C355.083 307.523 354.207 306.85 353.218 306.387C352.229 305.925 351.151 305.683 350.059 305.68Z" fill="#1455D7"/>
</g>
</g>
<g style="mix-blend-mode:multiply" opacity="0.2">
<g style="mix-blend-mode:multiply" opacity="0.2">
<path d="M395.821 316.445C384.58 316.445 371.674 307.32 363.907 292.714C354.036 274.146 356.176 253.571 368.665 246.99C374.782 243.761 382.341 244.25 390.035 248.385C397.729 252.519 404.469 259.663 409.228 268.629C413.986 277.595 416.139 287.271 415.27 295.87C414.402 304.47 410.561 311.112 404.469 314.353C401.804 315.755 398.832 316.474 395.821 316.445ZM377.375 245.938C374.516 245.912 371.695 246.597 369.167 247.932C357.179 254.293 355.247 274.17 364.849 292.225C374.451 310.28 392.005 319.785 403.992 313.424C409.754 310.353 413.399 304.078 414.231 295.76C415.062 287.442 413.007 277.901 408.31 269.118C403.613 260.336 396.983 253.302 389.546 249.314C385.831 247.199 381.649 246.039 377.375 245.938Z" fill="#1455D7"/>
</g>
<g style="mix-blend-mode:multiply" opacity="0.2">
<path d="M394.965 308.433C391.262 308.356 387.635 307.364 384.408 305.546C378.007 301.853 372.821 296.374 369.485 289.779C361.485 274.746 363.565 258.513 374.231 252.85C384.898 247.186 399.503 254.526 407.503 269.571C411.093 276.04 412.713 283.417 412.163 290.794C411.429 298.134 408.09 303.675 402.757 306.513C400.358 307.787 397.681 308.447 394.965 308.433ZM381.925 258.391C380.44 258.374 378.974 258.723 377.656 259.406C370.892 263.003 370.121 275.308 375.968 286.317C378.637 291.615 382.789 296.023 387.919 299.002C392.139 301.265 396.151 301.62 399.222 299.981C402.292 298.342 404.261 294.819 404.751 290.06C405.144 284.142 403.814 278.236 400.922 273.057C396.188 264.165 388.335 258.367 381.925 258.367V258.391Z" fill="#1455D7"/>
</g>
<g style="mix-blend-mode:multiply" opacity="0.2">
<path d="M390.647 296.543C390.59 296.556 390.532 296.556 390.475 296.543C390.409 296.521 390.348 296.486 390.296 296.44C390.243 296.394 390.2 296.338 390.17 296.276C390.139 296.213 390.121 296.145 390.117 296.075C390.112 296.006 390.122 295.936 390.145 295.87L399.332 269.901C399.355 269.836 399.391 269.776 399.437 269.725C399.484 269.674 399.54 269.632 399.602 269.603C399.665 269.573 399.732 269.556 399.801 269.553C399.87 269.549 399.939 269.56 400.004 269.583C400.071 269.605 400.132 269.64 400.184 269.686C400.237 269.732 400.28 269.788 400.31 269.85C400.341 269.913 400.359 269.981 400.363 270.051C400.367 270.12 400.358 270.19 400.335 270.256L391.148 296.2C391.11 296.302 391.042 296.39 390.952 296.451C390.862 296.513 390.755 296.545 390.647 296.543Z" fill="#1455D7"/>
</g>
<g style="mix-blend-mode:multiply" opacity="0.2">
<path d="M386.769 291.125C386.652 291.126 386.538 291.088 386.445 291.017C386.352 290.946 386.285 290.846 386.255 290.733C385.693 288.507 384.922 285.486 384.31 283.174C383.829 282.309 383.51 281.364 383.369 280.385C383.234 279.602 383.148 279.161 383.687 279.015C384.225 278.868 384.31 278.892 385.338 282.807C385.499 283.05 385.742 283.228 386.023 283.308C386.635 283.418 387.466 282.672 388.249 281.314C389.191 279.7 387.479 276.03 386.109 273.082C384.641 269.926 383.479 267.443 384.726 266.452C384.885 266.321 385.069 266.225 385.267 266.17C385.465 266.115 385.673 266.103 385.876 266.134C387.21 266.318 388.531 268.214 389.815 270.048C390.307 270.874 390.917 271.624 391.625 272.275C391.694 272.276 391.763 272.292 391.825 272.321C391.888 272.35 391.944 272.391 391.99 272.443C392.036 272.495 392.071 272.555 392.092 272.621C392.114 272.687 392.121 272.756 392.115 272.825C392.113 272.896 392.097 272.966 392.068 273.03C392.038 273.094 391.996 273.152 391.943 273.199C391.89 273.246 391.828 273.282 391.761 273.304C391.694 273.326 391.622 273.333 391.552 273.327C390.83 273.327 390.157 272.385 388.946 270.66C387.956 269.241 386.598 267.308 385.717 267.174C385.656 267.166 385.595 267.171 385.536 267.188C385.477 267.204 385.422 267.233 385.375 267.272C384.788 267.749 386.109 270.574 387.063 272.642C388.69 276.14 390.378 279.761 389.167 281.853C387.821 284.164 386.61 284.482 385.839 284.299H385.729C386.133 285.852 386.635 287.859 387.283 290.415C387.313 290.551 387.288 290.694 387.215 290.812C387.142 290.931 387.026 291.016 386.891 291.051L386.769 291.125Z" fill="#1455D7"/>
</g>
<g style="mix-blend-mode:multiply" opacity="0.2">
<path d="M390.28 267.479C390.146 267.482 390.015 267.433 389.917 267.342C389.819 267.25 389.76 267.124 389.754 266.99L389.399 260.813C389.419 260.685 389.483 260.569 389.58 260.485C389.678 260.401 389.803 260.355 389.931 260.355C390.06 260.355 390.184 260.401 390.282 260.485C390.38 260.569 390.444 260.685 390.463 260.813L390.806 266.929C390.811 266.997 390.802 267.066 390.78 267.131C390.758 267.196 390.723 267.256 390.677 267.307C390.632 267.359 390.576 267.4 390.514 267.43C390.452 267.459 390.385 267.476 390.317 267.479H390.28Z" fill="#1455D7"/>
</g>
</g>
<g style="mix-blend-mode:multiply" opacity="0.2">
<g style="mix-blend-mode:multiply" opacity="0.2">
<path d="M217.205 257.595C215.925 257.585 214.681 257.173 213.647 256.419C212.613 255.664 211.843 254.604 211.443 253.388C208.581 244.666 203.333 228.14 200.3 215.467C200.097 214.619 200.079 213.736 200.245 212.88C200.412 212.023 200.76 211.212 201.266 210.501C201.774 209.805 202.426 209.226 203.177 208.804C203.929 208.382 204.762 208.126 205.621 208.055L363.491 192.887C364.713 192.775 365.941 193.034 367.014 193.629C368.088 194.225 368.957 195.13 369.509 196.226L382.328 221.914C382.773 222.83 382.982 223.842 382.936 224.859C382.89 225.876 382.592 226.865 382.067 227.738C381.542 228.61 380.808 229.337 379.931 229.854C379.054 230.371 378.061 230.66 377.044 230.697C357.179 231.198 301.975 234.807 218.795 257.339C218.279 257.496 217.744 257.583 217.205 257.595ZM363.992 193.914C363.838 193.902 363.682 193.902 363.527 193.914L205.731 209.07C205.016 209.136 204.324 209.354 203.702 209.711C203.079 210.068 202.54 210.554 202.122 211.137C201.705 211.726 201.417 212.397 201.28 213.106C201.143 213.815 201.159 214.545 201.327 215.247C204.361 227.871 209.596 244.36 212.446 253.069C212.847 254.299 213.706 255.326 214.846 255.937C215.986 256.548 217.317 256.695 218.563 256.348C301.864 233.779 357.154 230.171 377.069 229.657C377.913 229.637 378.738 229.404 379.468 228.979C380.198 228.555 380.809 227.953 381.245 227.23C381.681 226.506 381.926 225.685 381.96 224.841C381.993 223.997 381.813 223.159 381.436 222.403L368.604 196.715C368.183 195.87 367.534 195.159 366.729 194.664C365.925 194.169 364.998 193.909 364.053 193.914H363.992Z" fill="#1455D7"/>
</g>
</g>
<g style="mix-blend-mode:multiply" opacity="0.2">
<g style="mix-blend-mode:multiply" opacity="0.2">
<path d="M203.028 196.875C201.495 196.875 200.014 196.322 198.856 195.318C197.699 194.313 196.943 192.924 196.728 191.407L190.893 150.257C190.772 149.377 190.836 148.48 191.08 147.625C191.325 146.77 191.744 145.975 192.312 145.291C192.879 144.606 193.584 144.049 194.38 143.655C195.177 143.26 196.048 143.039 196.936 143.004L350.684 136.704C352.271 136.638 353.825 137.167 355.043 138.188C356.26 139.208 357.053 140.647 357.265 142.221L361.962 177.132C362.087 177.996 362.032 178.877 361.8 179.719C361.569 180.561 361.166 181.346 360.616 182.025C360.078 182.701 359.406 183.26 358.642 183.664C357.878 184.068 357.038 184.31 356.176 184.373L203.541 196.862L203.028 196.875ZM350.916 137.756H350.696L197.009 144.056C196.268 144.086 195.54 144.271 194.875 144.6C194.209 144.929 193.62 145.393 193.145 145.964C192.67 146.535 192.32 147.198 192.118 147.913C191.915 148.627 191.865 149.376 191.97 150.111L197.829 191.26C198.021 192.599 198.716 193.814 199.773 194.657C200.83 195.5 202.169 195.909 203.517 195.798L356.029 183.272C356.741 183.21 357.433 183.004 358.064 182.668C358.694 182.332 359.25 181.872 359.699 181.315C360.152 180.755 360.485 180.108 360.676 179.413C360.868 178.718 360.914 177.992 360.812 177.279L356.115 142.355C355.947 141.091 355.329 139.93 354.374 139.085C353.419 138.241 352.191 137.769 350.916 137.756Z" fill="#1455D7"/>
</g>
</g>
<g style="mix-blend-mode:multiply" opacity="0.2">
<g style="mix-blend-mode:multiply" opacity="0.2">
<path d="M196.459 137.487C194.618 137.494 192.839 136.823 191.46 135.603C190.082 134.382 189.201 132.697 188.985 130.869L184.373 93.414C184.238 92.3321 184.339 91.2337 184.67 90.1949C185.001 89.156 185.554 88.2016 186.291 87.3976C187.027 86.5936 187.93 85.9594 188.935 85.5387C189.941 85.1181 191.027 84.9211 192.116 84.9615L343.98 90.9675C345.753 91.035 347.445 91.726 348.759 92.9186C350.072 94.1113 350.923 95.7292 351.16 97.4873L354.806 124.056C354.95 125.103 354.873 126.168 354.579 127.183C354.285 128.199 353.781 129.14 353.099 129.948C352.417 130.755 351.573 131.411 350.622 131.871C349.67 132.331 348.633 132.585 347.576 132.618L196.752 137.511L196.459 137.487ZM190.037 130.747C190.229 132.355 191.019 133.832 192.249 134.886C193.479 135.94 195.06 136.492 196.679 136.435L347.515 131.542C348.421 131.512 349.31 131.293 350.126 130.899C350.942 130.504 351.666 129.943 352.251 129.252C352.837 128.56 353.271 127.753 353.525 126.884C353.78 126.014 353.849 125.101 353.729 124.203L350.145 97.6341C349.946 96.1296 349.224 94.7429 348.106 93.7166C346.988 92.6903 345.545 92.0896 344.029 92.0195L192.116 86.0134C191.171 85.9747 190.228 86.1435 189.354 86.508C188.481 86.8725 187.698 87.4239 187.06 88.1233C186.422 88.8228 185.945 89.6535 185.663 90.5569C185.381 91.4603 185.299 92.4147 185.425 93.3528L190.037 130.747Z" fill="#1455D7"/>
</g>
</g>
<path d="M211.909 115.163C211.792 115.163 211.676 115.139 211.569 115.093C211.462 115.047 211.365 114.979 211.285 114.894L207.872 111.139C207.793 111.056 207.732 110.958 207.692 110.85C207.652 110.743 207.634 110.628 207.64 110.514C207.645 110.399 207.674 110.287 207.725 110.184C207.775 110.082 207.846 109.99 207.933 109.915C208.012 109.832 208.107 109.766 208.212 109.721C208.317 109.676 208.43 109.653 208.545 109.653C208.659 109.653 208.772 109.676 208.878 109.721C208.983 109.766 209.078 109.832 209.156 109.915L211.799 112.814L215.615 106.454C215.735 106.266 215.924 106.132 216.141 106.081C216.358 106.03 216.586 106.066 216.777 106.181C216.968 106.295 217.107 106.48 217.164 106.695C217.221 106.911 217.192 107.14 217.083 107.334L212.667 114.674C212.597 114.786 212.502 114.881 212.39 114.951C212.277 115.021 212.15 115.064 212.019 115.077L211.909 115.163Z" fill="white"/>
<path d="M218.355 172.104C218.237 172.104 218.12 172.079 218.012 172.031C217.905 171.982 217.809 171.911 217.731 171.823L214.318 168.08C214.157 167.917 214.066 167.697 214.066 167.468C214.066 167.239 214.157 167.019 214.318 166.856C214.398 166.775 214.493 166.71 214.598 166.666C214.703 166.622 214.816 166.599 214.93 166.599C215.044 166.599 215.156 166.622 215.261 166.666C215.366 166.71 215.462 166.775 215.541 166.856L218.183 169.755L222 163.395C222.12 163.207 222.309 163.073 222.525 163.022C222.742 162.971 222.971 163.007 223.162 163.122C223.353 163.236 223.492 163.421 223.549 163.636C223.606 163.852 223.577 164.081 223.468 164.275L219.052 171.615C218.982 171.729 218.888 171.825 218.776 171.897C218.663 171.969 218.536 172.015 218.404 172.031L218.355 172.104Z" fill="white"/>
<path d="M268.165 318.39C267.992 318.388 267.82 318.368 267.651 318.329L262.697 317.191C262.148 317.029 261.682 316.663 261.393 316.169C261.104 315.675 261.015 315.089 261.143 314.531C261.27 313.973 261.606 313.485 262.081 313.165C262.556 312.846 263.135 312.72 263.7 312.812L268.666 313.962C269.211 314.077 269.693 314.392 270.018 314.843C270.344 315.294 270.489 315.851 270.427 316.404C270.364 316.957 270.098 317.467 269.679 317.834C269.261 318.201 268.721 318.4 268.165 318.39Z" fill="white"/>
<path d="M258.502 315.895C258.312 315.894 258.123 315.87 257.939 315.821L257.107 315.601C256.531 315.45 256.039 315.077 255.738 314.563C255.438 314.049 255.354 313.437 255.505 312.861C255.656 312.285 256.029 311.793 256.543 311.492C257.057 311.192 257.669 311.108 258.245 311.259L259.076 311.479C259.615 311.607 260.088 311.929 260.402 312.385C260.717 312.841 260.851 313.397 260.78 313.946C260.708 314.495 260.436 314.998 260.015 315.358C259.594 315.718 259.055 315.909 258.502 315.895Z" fill="white"/>
<path d="M270.464 318.182L271.223 315.381L272.764 317.558L270.464 318.182Z" fill="white"/>
<path style="mix-blend-mode:multiply" opacity="0.2" d="M401.447 329.9L400.041 331.124C333.901 346.83 274.048 385.105 274.048 385.105C231.235 362.23 196.177 283.932 181.438 236.079L177.621 209.009C189.34 219.137 302.549 314.818 401.447 329.9Z" fill="url(#paint13_linear)"/>
<g filter="url(#filter0_d)">
<g style="mix-blend-mode:multiply">
<path d="M289.62 347.101C293.472 346.179 297.203 344.81 300.737 343.022C302.456 342.155 304.071 341.095 305.549 339.862C306.986 338.612 308.422 337.104 309.859 335.682C312.682 332.856 315.1 329.651 317.041 326.159C318.836 322.769 319.698 318.79 317.759 315.802C317.38 315.1 316.801 314.526 316.095 314.155C315.388 313.784 314.587 313.633 313.794 313.719C311.951 313.903 310.181 314.535 308.638 315.558C305.315 317.523 302.846 320.658 301.714 324.349C301.483 325.204 301.441 326.1 301.592 326.974C301.744 327.847 302.084 328.677 302.59 329.405C303.633 330.89 305.207 331.919 306.986 332.278C308.852 332.5 310.74 332.117 312.372 331.186C314.116 330.251 315.717 329.07 317.127 327.681C320.038 324.893 322.35 321.54 323.921 317.827C324.292 316.939 324.524 315.999 324.61 315.041C324.655 314.631 324.595 314.216 324.438 313.834C324.376 313.683 324.277 313.55 324.151 313.446C323.996 313.322 323.828 313.215 323.648 313.13C323.532 313.074 323.403 313.049 323.275 313.059C323.275 313.059 323.188 313.059 323.102 313.231C322.943 313.607 322.874 314.016 322.901 314.423C322.924 315.399 323.088 316.367 323.389 317.296C324.505 321.148 326.927 324.49 330.241 326.748C331.864 327.739 334.019 328.529 334.981 327.15C335.502 326.379 335.841 325.5 335.972 324.579C336.173 323.616 336.274 322.596 336.389 321.577C336.504 320.557 336.561 319.522 336.734 318.474C336.81 317.915 336.944 317.367 337.136 316.836C337.242 316.536 337.387 316.251 337.567 315.989C337.797 315.678 338.111 315.439 338.472 315.299C339.06 315.067 339.698 314.987 340.325 315.07C340.895 315.166 341.45 315.335 341.977 315.572C342.853 316.03 343.778 316.387 344.734 316.635C345.633 316.808 346.561 316.733 347.421 316.42C348.293 316.103 349.072 315.575 349.69 314.883C350.997 313.446 352.017 311.622 353.367 309.97C354.706 308.282 356.353 306.863 358.222 305.79C360.086 304.695 362.163 304.009 364.313 303.779C366.467 303.593 368.63 304.027 370.547 305.029C371.484 305.498 372.374 306.055 373.204 306.695L374.454 307.629C374.837 307.965 375.303 308.193 375.804 308.29C375.288 308.267 374.79 308.097 374.367 307.801L373.017 307.026C372.138 306.516 371.227 306.065 370.288 305.676C368.468 304.94 366.49 304.683 364.542 304.929C362.594 305.272 360.728 305.979 359.041 307.011C357.345 308.033 355.842 309.346 354.603 310.89C353.31 312.427 352.304 314.222 350.796 315.831C350.023 316.686 349.045 317.33 347.955 317.702C346.864 318.074 345.696 318.162 344.562 317.957C342.307 317.512 340.583 315.845 339.075 316.52C338.615 316.621 338.299 317.727 338.17 318.661C338.041 319.594 337.926 320.657 337.825 321.691C337.736 322.742 337.592 323.787 337.394 324.823C337.224 325.951 336.791 327.024 336.13 327.954C335.735 328.475 335.188 328.862 334.565 329.06C333.963 329.238 333.327 329.267 332.712 329.146C331.621 328.909 330.583 328.471 329.652 327.854C326.081 325.411 323.491 321.783 322.341 317.612C322.013 316.574 321.824 315.497 321.781 314.409C321.743 313.786 321.862 313.164 322.125 312.599C322.219 312.405 322.356 312.234 322.525 312.1C322.694 311.965 322.892 311.871 323.102 311.823C323.485 311.743 323.883 311.788 324.237 311.953C324.528 312.077 324.803 312.236 325.056 312.427C325.331 312.653 325.552 312.937 325.702 313.26C325.949 313.83 326.057 314.45 326.018 315.07C325.949 316.172 325.712 317.257 325.314 318.287C323.762 322.244 321.405 325.834 318.391 328.83C316.896 330.379 315.183 331.7 313.306 332.752C311.346 333.925 309.057 334.43 306.785 334.188C304.477 333.79 302.415 332.506 301.039 330.612C300.33 329.658 299.834 328.562 299.587 327.4C299.339 326.237 299.344 325.035 299.603 323.875C300.096 321.687 301.078 319.639 302.475 317.885C303.819 316.162 305.429 314.663 307.244 313.446C309.131 312.142 311.313 311.327 313.593 311.076C314.854 310.964 316.123 311.187 317.27 311.723C318.431 312.296 319.399 313.194 320.057 314.308C321.347 316.326 321.915 318.721 321.666 321.102C321.411 323.337 320.754 325.508 319.727 327.509C317.742 331.302 315.253 334.81 312.329 337.937C310.893 339.517 309.456 340.997 307.891 342.491C306.233 343.943 304.422 345.21 302.49 346.268C298.711 348.318 294.705 349.919 290.553 351.037C290.297 351.108 290.029 351.127 289.765 351.095C289.501 351.062 289.246 350.977 289.014 350.846C288.783 350.714 288.58 350.539 288.416 350.329C288.252 350.119 288.132 349.879 288.061 349.622C287.99 349.366 287.971 349.098 288.004 348.834C288.037 348.57 288.121 348.315 288.252 348.083C288.384 347.852 288.56 347.648 288.769 347.485C288.979 347.321 289.219 347.201 289.476 347.13L289.62 347.101Z" fill="#6874FF"/>
</g>
</g>
<path d="M393.098 297.616C392.868 297.533 392.657 297.405 392.477 297.24C392.296 297.075 392.15 296.876 392.047 296.655C391.944 296.433 391.885 296.193 391.874 295.949C391.864 295.705 391.901 295.461 391.985 295.231L394.432 288.442C394.515 288.205 394.645 287.987 394.814 287.801C394.983 287.615 395.188 287.465 395.416 287.36C395.644 287.255 395.891 287.197 396.143 287.19C396.394 287.182 396.644 287.226 396.878 287.317C397.114 287.401 397.331 287.532 397.516 287.701C397.701 287.871 397.85 288.076 397.955 288.303C398.06 288.531 398.118 288.778 398.127 289.029C398.135 289.279 398.093 289.529 398.004 289.763L395.557 296.552C395.468 296.785 395.333 296.999 395.161 297.179C394.988 297.359 394.781 297.503 394.552 297.602C394.323 297.702 394.076 297.754 393.827 297.756C393.577 297.759 393.329 297.711 393.098 297.616Z" fill="url(#paint14_linear)"/>
<path d="M466.993 97.1569L464.475 96.2411C458.672 94.1302 452.257 97.1231 450.146 102.926L404.654 227.983C402.543 233.786 405.536 240.201 411.339 242.312L413.856 243.228C419.659 245.339 426.074 242.346 428.185 236.543L473.677 111.486C475.788 105.683 472.795 99.2678 466.993 97.1569Z" fill="url(#paint15_linear)"/>
<path d="M388.915 272.295C388.915 272.295 386.97 285.751 394.383 294.093C398.069 293.189 401.535 291.548 404.57 289.269C407.606 286.99 410.149 284.121 412.046 280.833L388.915 272.295Z" fill="url(#paint16_linear)"/>
<path d="M415.569 281.14C413.823 281.396 412.061 281.531 410.297 281.543C406.675 281.661 403.061 281.144 399.618 280.014L399.422 279.941C392.217 277.286 386.468 270.559 386.468 270.559C395.12 253.141 400.781 234.393 403.214 215.098L410.321 214.327C411.96 217.997 419.654 221.544 420.609 221.96C421.563 222.376 429.746 224.492 433.379 222.73L438.272 227.88C427.776 244.237 420.101 262.241 415.569 281.14Z" fill="url(#paint17_linear)"/>
<path d="M469.22 100.151C468.938 100.934 466.847 100.872 464.535 100.041C462.223 99.2089 460.584 97.8878 460.865 97.1171C461.147 96.3465 463.312 96.3832 465.55 97.2272C467.789 98.0713 469.538 99.3801 469.22 100.151Z" fill="#6874FF"/>
<g style="mix-blend-mode:multiply" opacity="0.58">
<path d="M438.358 227.88C418.97 230.718 403.215 215.098 403.215 215.098L410.322 214.327C411.961 217.997 419.655 221.544 420.609 221.96C421.563 222.376 429.747 224.492 433.38 222.73L438.358 227.88Z" fill="#1455D7"/>
</g>
<path style="mix-blend-mode:screen" opacity="0.17" d="M451.189 101.582L413.098 215.012C415.312 217.228 418.008 218.902 420.975 219.905L463.348 107.429C463.348 107.429 453.073 104.493 451.189 101.582Z" fill="url(#paint18_linear)"/>
<g style="mix-blend-mode:screen" opacity="0.31">
<path d="M451.96 101.227C451.96 101.227 455.299 97.3618 459.299 96.9949C459.299 96.9949 460.205 98.7686 464.718 100.848C464.566 102.812 464.213 104.754 463.666 106.646C459.416 105.714 455.421 103.864 451.96 101.227Z" fill="white"/>
</g>
<path style="mix-blend-mode:screen" d="M477.79 103.556C479.679 98.3625 475.529 92.0856 468.52 89.536C461.511 86.9863 454.298 89.1293 452.408 94.3225C450.519 99.5158 454.67 105.793 461.679 108.342C468.688 110.892 475.901 108.749 477.79 103.556Z" fill="url(#paint19_radial)"/>
<defs>
<filter id="filter0_d" x="269.011" y="286.278" width="125.77" height="85.3273" filterUnits="userSpaceOnUse" color-interpolation-filters="sRGB">
<feFlood flood-opacity="0" result="BackgroundImageFix"/>
<feColorMatrix in="SourceAlpha" type="matrix" values="0 0 0 0 0 0 0 0 0 0 0 0 0 0 0 0 0 0 127 0"/>
<feOffset dy="1.51819"/>
<feGaussianBlur stdDeviation="9.48867"/>
<feColorMatrix type="matrix" values="0 0 0 0 0.479167 0 0 0 0 0.520557 0 0 0 0 1 0 0 0 1 0"/>
<feBlend mode="normal" in2="BackgroundImageFix" result="effect1_dropShadow"/>
<feBlend mode="normal" in="SourceGraphic" in2="effect1_dropShadow" result="shape"/>
</filter>
<radialGradient id="paint0_radial" cx="0" cy="0" r="1" gradientUnits="userSpaceOnUse" gradientTransform="translate(243.481 173.824) rotate(-7.68) scale(152.451)">
<stop/>
<stop offset="0.12" stop-color="#030208"/>
<stop offset="0.3" stop-color="#0A081E"/>
<stop offset="0.53" stop-color="#151242"/>
<stop offset="0.79" stop-color="#262074"/>
<stop offset="1" stop-color="#342CA1"/>
</radialGradient>
<linearGradient id="paint1_linear" x1="201.192" y1="395.035" x2="150.85" y2="21.7211" gradientUnits="userSpaceOnUse">
<stop offset="0.04" stop-color="#CFA5FF"/>
<stop offset="0.26" stop-color="#9A93FF"/>
<stop offset="1" stop-color="#E5C9FF"/>
</linearGradient>
<linearGradient id="paint2_linear" x1="301.866" y1="381.435" x2="251.547" y2="8.29029" gradientUnits="userSpaceOnUse">
<stop stop-color="#E8C7FF"/>
<stop offset="1" stop-color="white"/>
</linearGradient>
<linearGradient id="paint3_linear" x1="300.551" y1="368.109" x2="253.811" y2="21.501" gradientUnits="userSpaceOnUse">
<stop offset="0.01" stop-color="#9A93FF"/>
<stop offset="1" stop-color="#E5C9FF"/>
</linearGradient>
<linearGradient id="paint4_linear" x1="339.664" y1="380.09" x2="320.877" y2="219.721" gradientUnits="userSpaceOnUse">
<stop stop-color="#9AB5FF"/>
<stop offset="1" stop-color="#CDFFFF"/>
</linearGradient>
<linearGradient id="paint5_linear" x1="156.779" y1="124.27" x2="148.723" y2="64.5298" gradientUnits="userSpaceOnUse">
<stop offset="0.01" stop-color="#838BFF"/>
<stop offset="1" stop-color="#8693FF"/>
</linearGradient>
<linearGradient id="paint6_linear" x1="155.918" y1="124.386" x2="147.863" y2="64.6459" gradientUnits="userSpaceOnUse">
<stop stop-color="#F2E0FF"/>
<stop offset="1" stop-color="white"/>
</linearGradient>
<linearGradient id="paint7_linear" x1="155.966" y1="124.009" x2="147.955" y2="64.5966" gradientUnits="userSpaceOnUse">
<stop stop-color="#B0C2FF"/>
<stop offset="1" stop-color="#CAFFFF"/>
</linearGradient>
<linearGradient id="paint8_linear" x1="3371.91" y1="3279.22" x2="3268.39" y2="2511.53" gradientUnits="userSpaceOnUse">
<stop offset="0.01" stop-color="#838BFF"/>
<stop offset="1" stop-color="#8693FF"/>
</linearGradient>
<linearGradient id="paint9_linear" x1="4239.74" y1="3622.54" x2="4239.74" y2="2852.79" gradientUnits="userSpaceOnUse">
<stop stop-color="#F2E0FF"/>
<stop offset="1" stop-color="white"/>
</linearGradient>
<linearGradient id="paint10_linear" x1="4291.57" y1="3576.22" x2="4291.57" y2="2819.63" gradientUnits="userSpaceOnUse">
<stop stop-color="#B0C2FF"/>
<stop offset="1" stop-color="#CAFFFF"/>
</linearGradient>
<linearGradient id="paint11_linear" x1="187.743" y1="378.964" x2="160.13" y2="174.202" gradientUnits="userSpaceOnUse">
<stop stop-color="#CA90FF"/>
<stop offset="1"/>
</linearGradient>
<linearGradient id="paint12_linear" x1="310.684" y1="385.729" x2="316.8" y2="35.2496" gradientUnits="userSpaceOnUse">
<stop stop-color="white"/>
<stop offset="1" stop-color="#DCDCFF"/>
</linearGradient>
<linearGradient id="paint13_linear" x1="289.51" y1="385.092" x2="289.51" y2="208.997" gradientUnits="userSpaceOnUse">
<stop stop-color="#7A97EF"/>
<stop offset="0.38" stop-color="#A3AEF6"/>
<stop offset="0.79" stop-color="#C8C2FD"/>
<stop offset="1" stop-color="#D6CAFF"/>
</linearGradient>
<linearGradient id="paint14_linear" x1="394.073" y1="296.787" x2="397.8" y2="286.484" gradientUnits="userSpaceOnUse">
<stop stop-color="#F6FFFF"/>
<stop offset="1" stop-color="#168CE8"/>
</linearGradient>
<linearGradient id="paint15_linear" x1="412.596" y1="242.756" x2="465.732" y2="96.6854" gradientUnits="userSpaceOnUse">
<stop stop-color="#0022B8"/>
<stop offset="0.77" stop-color="#1300CE"/>
<stop offset="0.98" stop-color="#9300CE"/>
</linearGradient>
<linearGradient id="paint16_linear" x1="395.116" y1="293.185" x2="401.45" y2="275.673" gradientUnits="userSpaceOnUse">
<stop stop-color="#92C0E8"/>
<stop offset="1" stop-color="#3687FF"/>
</linearGradient>
<linearGradient id="paint17_linear" x1="400.453" y1="279.148" x2="422.687" y2="217.678" gradientUnits="userSpaceOnUse">
<stop stop-color="#4A90FF"/>
<stop offset="1" stop-color="#3136F2"/>
</linearGradient>
<linearGradient id="paint18_linear" x1="7232.38" y1="43559" x2="11229.6" y2="32507.8" gradientUnits="userSpaceOnUse">
<stop/>
<stop offset="1" stop-color="white"/>
</linearGradient>
<radialGradient id="paint19_radial" cx="0" cy="0" r="1" gradientUnits="userSpaceOnUse" gradientTransform="translate(22108.2 -24013.9) rotate(-70.01) scale(163.628 299.11)">
<stop stop-color="#FF002D"/>
<stop offset="0.2" stop-color="#C20022"/>
<stop offset="0.49" stop-color="#700014"/>
<stop offset="0.73" stop-color="#330009"/>
<stop offset="0.91" stop-color="#0E0002"/>
<stop offset="1"/>
</radialGradient>
</defs>
</svg>
