<svg width="24" height="24" fill="none" xmlns="http://www.w3.org/2000/svg"><path d="M3 3l18 18" stroke="#fff" stroke-width="2" stroke-linecap="round"/><path fill-rule="evenodd" clip-rule="evenodd" d="M4.478 8.6l-.21.177-1.753.014-1.754.015-.23.145a1.23 1.23 0 00-.37.38l-.143.235-.013 2.478c-.012 2.2-.005 2.501.063 2.684.109.292.285.487.558.617.234.112.252.113 1.93.114H4.25l2.972 2.525c1.634 1.389 3.067 2.583 3.183 2.654.545.333 1.306.03 1.53-.611.028-.082.048-1.72.058-3.913L4.478 8.6zm12.754 8.511l-1.74-1.74c1.079-1.892 1.123-4.403.083-6.328-.1-.187-.324-.547-.496-.8-.39-.571-.455-.805-.34-1.21.131-.464.563-.869 1-.936a1.19 1.19 0 01.714.114c.467.248 1.458 1.927 1.829 3.099.338 1.07.444 1.88.409 3.113-.029.994-.142 1.681-.413 2.515a9.217 9.217 0 01-1.046 2.173zm3.818 3.817l-1.727-1.726c1.186-1.662 1.881-3.397 2.18-5.438.114-.774.113-2.6-.001-3.34-.34-2.188-1.173-4.136-2.478-5.787-.53-.67-.578-.766-.576-1.14.001-.223.03-.368.102-.506.117-.23.472-.578.684-.672.083-.037.262-.068.4-.069.366-.003.66.145.933.471 3.15 3.746 4.222 8.84 2.842 13.505-.482 1.63-1.238 3.176-2.185 4.468l-.174.234zM12 11.88L6.77 6.65l.486-.412C8.9 4.842 10.328 3.652 10.43 3.595c.256-.144.809-.12 1.052.045.211.144.373.348.45.57.044.126.067 3.86.068 7.67z" fill="#fff"/></svg>