<svg width="24" height="20" fill="none" xmlns="http://www.w3.org/2000/svg"><path fill-rule="evenodd" clip-rule="evenodd" d="M19.234.319c-.212.094-.567.443-.684.672-.072.138-.1.283-.102.506-.002.374.046.47.576 1.14 1.305 1.651 2.139 3.599 2.478 5.788.114.74.115 2.565.002 3.34-.31 2.105-1.04 3.886-2.296 5.596-.478.65-.551.804-.55 1.153.002.32.122.596.374.854.257.262.521.382.844.382.483 0 .697-.168 1.348-1.056.947-1.292 1.703-2.838 2.185-4.468 1.38-4.664.308-9.759-2.842-13.505C20.293.395 20 .247 19.633.25a1.228 1.228 0 00-.399.069zm-8.803 1.276c-.102.057-1.53 1.247-3.174 2.643L4.27 6.778l-1.754.013-1.754.015-.23.145a1.23 1.23 0 00-.37.38l-.143.235-.013 2.478c-.012 2.2-.005 2.501.063 2.684.109.292.285.487.558.617.234.112.252.113 1.93.114H4.25l2.972 2.525c1.634 1.389 3.067 2.583 3.183 2.654.545.333 1.306.03 1.53-.611.089-.257.088-15.56-.002-15.817a1.175 1.175 0 00-.45-.57c-.244-.166-.796-.19-1.052-.045zm5.308 2.502c-.437.067-.869.472-1 .937-.115.404-.05.638.34 1.21.172.252.395.612.496.799 1.098 2.033.987 4.718-.273 6.638-.342.52-.396.654-.396.979 0 .348.105.588.381.87.375.385.897.491 1.312.267.48-.26 1.27-1.603 1.679-2.859.271-.834.384-1.521.413-2.515.035-1.234-.071-2.043-.41-3.113-.37-1.172-1.36-2.851-1.828-3.099a1.19 1.19 0 00-.714-.114z" fill="#fff"/></svg>