<svg width="1114" height="1043" viewBox="0 0 1114 1043" fill="none" xmlns="http://www.w3.org/2000/svg">
<path d="M522.399 896.094C468.399 905.792 408.762 885.625 362.625 863.035C346.741 855.231 330.403 846.415 314.689 838.034C261.228 809.655 206.158 779.924 148.24 776.937C87.58 773.896 30.2488 800.04 -25.3245 825.322L-31.8741 828.411C-89.952 854.963 -151.899 879.751 -214.901 869.752C-276.797 859.829 -342.805 804.192 -346.274 728.579C-348.22 682.751 -328.025 643.055 -303.058 599.497L-225.912 464.595C-206.571 430.791 -182.473 388.482 -145.34 370.064C-116.468 355.862 -83.684 357.352 -51.9591 359.032C-29.0851 360.115 -5.36957 361.321 16.9879 356.486C79.0785 343.149 123.388 287.1 166.178 233.237L169.096 229.707C214.322 172.674 265.121 119.285 329.378 116.489C396.064 113.53 457.266 166.751 509.453 216.946C558.016 263.693 618.173 321.747 686.292 323.722C714.867 324.601 742.695 315.232 769.512 306.317C791.658 298.787 814.335 291.163 837.744 289.144C938.314 280.1 1009.04 380.249 1042.03 440.722C1066.37 484.987 1068.46 531.61 1047.83 571.93C1028.29 610.689 990.682 637.116 947.154 642.748C921.24 646.035 894.735 644.511 868.806 643.156C857.478 642.458 845.62 641.855 834.075 641.47C804.441 640.78 760.824 642.875 726.543 666.52C692.479 689.852 671.632 730.484 651.124 769.962C631.655 807.614 611.582 846.468 579.92 871.008C562.139 884.585 542.781 892.433 522.399 896.094ZM99.0921 778.659C115.239 775.759 131.672 774.448 148.484 775.254C206.667 778.193 262.266 807.829 315.775 836.473C331.489 844.854 347.515 853.452 363.663 861.209C426.573 891.99 514.942 918.473 578.793 869.297C609.973 845.117 630.094 806.528 649.298 768.924C669.806 729.446 690.87 688.501 725.416 664.809C760.444 640.758 804.372 638.88 834.271 639.522C845.769 639.643 857.675 640.51 869.268 641.161C894.931 642.563 921.437 644.087 947.086 640.847C989.82 635.358 1026.94 609.291 1046.32 571.109C1066.51 531.414 1064.52 485.32 1040.58 441.801C1007.64 381.593 937.323 282.19 838.125 291.262C815.027 293.497 792.351 301.122 770.421 308.339C743.34 317.302 715.512 326.671 686.672 325.839C617.711 323.742 557.242 265.471 508.632 218.459C456.757 168.482 396.133 115.43 330.023 118.559C266.872 121.43 216.243 174.242 171.234 230.963L168.316 234.492C125.309 288.668 80.5177 345.076 17.8977 358.509C-4.72451 363.391 -28.4401 362.185 -51.5788 361.149C-82.9914 359.686 -115.558 357.884 -143.901 371.992C-180.552 390.05 -204.433 432.047 -223.556 465.538L-300.702 600.441C-325.452 643.686 -345.695 683.117 -343.579 728.369C-340.253 803.187 -274.965 857.86 -213.911 867.662C-151.75 877.538 -90.0676 852.798 -32.2069 826.558L-25.6573 823.469C14.2648 805.37 55.9448 786.408 99.0921 778.659Z" fill="white" fill-opacity="0.1"/>
</svg>
