<svg width="32" height="32" fill="none" xmlns="http://www.w3.org/2000/svg"><rect width="32" height="32" rx="4" fill="#C4C4C4" fill-opacity=".2"/><path opacity=".5" d="M15.18 19.974c-1.29-.137-2.455-.462-3.451-1.258-.124-.099-.252-.194-.365-.305-.436-.427-.48-.917-.135-1.422.296-.432.791-.547 1.307-.3.1.049.194.109.285.173 1.858 1.303 4.41 1.34 6.274.059.184-.145.382-.262.61-.323a.951.951 0 011.1.448c.272.454.269.897-.067 1.25-.516.54-1.136.93-1.825 1.203-.651.258-1.365.387-2.071.474.106.118.157.176.223.245.96.983 1.922 1.962 2.878 2.949.326.336.394.753.214 1.144-.196.427-.634.708-1.065.678-.272-.019-.485-.158-.674-.352-.723-.743-1.46-1.473-2.17-2.23-.206-.22-.305-.179-.488.013a139.01 139.01 0 01-2.212 2.267c-.334.336-.731.397-1.119.205-.412-.204-.674-.633-.654-1.065.014-.292.155-.515.35-.715.95-.967 1.896-1.937 2.843-2.905.063-.065.121-.133.212-.233z" fill="#fff"/><path opacity=".5" d="M15.966 16.605c-2.303-.009-4.192-1.957-4.178-4.312.013-2.381 1.903-4.3 4.229-4.293 2.33.006 4.2 1.953 4.19 4.358-.013 2.35-1.915 4.255-4.241 4.247zm2.093-4.307c-.004-1.169-.916-2.1-2.06-2.1-1.152-.002-2.072.946-2.063 2.126.008 1.165.928 2.089 2.075 2.084 1.142-.004 2.052-.94 2.048-2.11z" fill="#fff"/></svg>