<svg width="32" height="32" fill="none" xmlns="http://www.w3.org/2000/svg"><rect width="32" height="32" rx="4" fill="#C4C4C4" fill-opacity=".2"/><path opacity=".5" d="M27.448 10.82c.167-.467 0-.812-.795-.812H24.03c-.246-.014-.49.04-.696.153a1.004 1.004 0 00-.447.472s-1.335 2.738-3.227 4.513c-.612.515-.89.678-1.224.678-.167 0-.417-.167-.417-.631V10.82c0-.562-.185-.813-.741-.813h-4.125a.71.71 0 00-.457.135.506.506 0 00-.21.367c0 .533.945.655 1.043 2.152v3.258c0 .713-.154.835-.487.835-.89 0-3.056-2.749-4.34-5.896C8.45 10.247 8.196 10 7.527 10H4.9c-.751 0-.9.297-.9.625 0 .585.89 3.486 4.145 7.324 2.17 2.62 5.226 4.041 8.007 4.041 1.67 0 1.876-.316 1.876-.86v-1.973c0-.632.159-.757.688-.757.397 0 1.057.167 2.614 1.427C23.12 21.331 23.405 22 24.406 22h2.625c.751 0 1.125-.316.908-.938-.217-.621-1.087-1.52-2.215-2.587-.613-.608-1.53-1.263-1.809-1.59-.397-.422-.278-.61 0-.984 0-.005 3.2-3.795 3.533-5.08z" fill="#fff"/></svg>