<svg width="69" height="87" viewBox="0 0 69 87" fill="none" xmlns="http://www.w3.org/2000/svg">
<path d="M63.623 69.6887C63.2583 70.5546 62.438 71.1015 61.5265 71.1016L6.83628 71.1016C5.9247 71.1016 5.10432 70.5547 4.73973 69.6887C4.37525 68.8228 4.55754 67.8655 5.24117 67.2274C7.70221 64.7209 9.11502 61.3027 9.11502 57.839L9.11502 57.4291L13.6725 52.8716L54.6903 52.8716L59.2477 57.4291V57.839C59.2477 61.3485 60.615 64.7209 63.1216 67.2274C63.8053 67.8656 63.9875 68.8228 63.623 69.6887Z" fill="#E09124"/>
<path d="M34.1813 0C30.3985 -9.69763e-07 27.3451 3.05347 27.345 6.83633C27.345 10.6189 30.3984 13.6725 34.1813 13.6727C37.9641 13.6727 41.0176 10.6189 41.0176 6.83633C41.0177 3.05347 37.9643 7.69313e-07 34.1813 0Z" fill="#3D3407"/>
<path d="M45.9373 75.5139C45.9373 81.8032 40.8329 86.9077 34.5435 86.9077C28.2542 86.9077 23.1497 81.8032 23.1497 75.5138C23.1497 74.2377 24.1523 73.2351 25.4285 73.2351L43.6586 73.2351C44.9348 73.2351 45.9373 74.2377 45.9373 75.5139Z" fill="#FEA832"/>
<path d="M59.2478 34.1813L59.2478 57.4289L9.11493 57.4288L9.11504 34.1814C9.11504 20.3718 20.372 9.11488 34.1814 9.11499C47.9908 9.1151 59.2479 20.3719 59.2478 34.1813Z" fill="#FED120"/>
<path d="M68.3629 71.1014C68.3629 73.608 66.312 75.6589 63.8054 75.6589L4.55748 75.6589C2.0509 75.6589 1.22932e-07 73.608 0 71.1014C-1.22932e-07 68.5948 2.0509 66.5439 4.55748 66.5439L63.8054 66.5439C66.3119 66.5438 68.3629 68.5948 68.3629 71.1014Z" fill="#FED120"/>
</svg>
