<svg width="71" height="71" viewBox="0 0 71 71" fill="none" xmlns="http://www.w3.org/2000/svg">
<path d="M62.175 8.82508L53.35 0L43.0541 10.296L50.4085 29.4169L62.175 8.82508Z" fill="#FF3E3A"/>
<path d="M62.175 8.82495L45.9959 25.0042L60.7043 27.9459L71.0001 17.65L62.175 8.82495Z" fill="#FF3E3A"/>
<path d="M4.7448 56.3706L0 71.0001L15.5706 61.313L4.7448 56.3706Z" fill="#3D3407"/>
<path d="M0.000274658 70.9998L14.6297 66.2552L12.629 58.3711L0.000274658 70.9998Z" fill="#3D3407"/>
<path d="M26.1222 50.7615L8.47214 44.8782L4.74478 56.3706L9.68719 61.313L26.1222 50.7615Z" fill="#FFE7B5"/>
<path d="M9.68716 61.3128L14.6297 66.2552L26.122 62.528L23.1804 47.8196L9.68716 61.3128Z" fill="#FFE7B5"/>
<path d="M17.2971 53.703L26.122 62.5279L60.7043 27.9458L51.8792 19.1208L28.8363 30.397L17.2971 53.703Z" fill="#FFB820"/>
<path d="M8.46878 44.876L43.0457 10.2991L51.8693 19.1228L17.2924 53.6996L8.46878 44.876Z" fill="#FFB820"/>
</svg>
