<svg width="846" height="1529" viewBox="0 0 846 1529" fill="none" xmlns="http://www.w3.org/2000/svg">
<path d="M-128.817 1145.4C-171.045 1110.37 -194.078 1051.78 -206.554 1001.95C-210.828 984.773 -214.623 966.601 -218.347 949.185C-231.12 890.021 -243.898 828.757 -278.954 782.557C-315.738 734.226 -372.685 707.256 -427.84 681.074L-434.424 678.059C-492.164 650.781 -551.05 619.407 -584.026 564.8C-616.345 511.087 -616.37 424.76 -560.807 373.36C-527.028 342.326 -483.664 332.172 -434.271 323.175L-281.411 295.175C-243.101 288.166 -195.223 279.31 -157.203 295.821C-127.732 308.735 -107.735 334.757 -88.5662 360.091C-74.6475 378.275 -60.2796 397.182 -42.1694 411.155C8.05612 450.02 79.4683 447.757 148.23 445.74L152.809 445.695C225.565 443.497 299.127 447.909 342.692 495.226C387.947 544.295 386.721 625.392 381.996 697.646C377.57 764.907 371.976 848.321 414.383 901.666C432.134 924.077 457.237 939.309 481.34 954.061C501.375 966.136 521.823 978.554 538.458 995.148C610.21 1066.2 579.249 1184.82 554.292 1249.03C536.15 1296.18 501.856 1327.84 457.735 1338.06C415.506 1348.11 371.059 1336.4 338.691 1306.76C319.471 1289.07 303.548 1267.82 287.868 1247.13C281.098 1238.02 273.914 1228.56 266.765 1219.49C248.186 1196.39 218.465 1164.4 178.289 1153.44C138.492 1142.44 93.9916 1152.7 50.5919 1162.48C9.25736 1171.87 -33.3849 1181.57 -72.5562 1173.19C-94.3988 1168.35 -112.878 1158.62 -128.817 1145.4ZM-311.957 746.097C-299.33 756.571 -287.733 768.286 -277.51 781.658C-242.246 828.03 -229.055 889.638 -216.454 949.009C-212.73 966.424 -208.97 984.218 -204.488 1001.56C-187.46 1069.5 -150.732 1154.12 -71.9753 1171.23C-33.3897 1179.47 9.08091 1169.98 50.2084 1160.41C93.6081 1150.64 138.487 1140.34 178.87 1151.48C219.839 1162.75 249.595 1195.12 268.381 1218.38C275.701 1227.25 282.713 1236.91 289.69 1246.19C305.164 1266.72 321.087 1287.96 340.1 1305.48C371.847 1334.61 415.708 1346.18 457.386 1336.37C500.751 1326.22 534.701 1294.98 552.535 1248.62C577.32 1184.62 607.973 1066.79 537.084 996.804C520.484 980.589 500.036 968.17 480.381 956.06C456.07 941.136 430.967 925.905 413.009 903.322C370.153 849.254 375.712 765.462 380.31 697.994C385.07 626.119 386.539 545.573 341.525 497.054C298.617 450.631 225.605 445.977 153.228 448.139L148.648 448.184C79.5084 450.236 7.51054 452.363 -43.129 413.155C-61.4461 399.009 -75.8141 380.103 -89.9398 361.747C-109.074 336.791 -128.692 310.735 -157.749 298.164C-195.182 281.79 -242.682 290.61 -280.613 297.584L-433.473 325.584C-482.488 334.545 -525.68 344.492 -558.908 375.284C-613.956 426.063 -613.659 511.219 -581.789 564.21C-549.263 618.095 -490.584 649.296 -433.222 676.61L-426.638 679.625C-387.064 698.473 -345.698 718.11 -311.957 746.097Z" fill="white" fill-opacity="0.3"/>
</svg>
