<svg width="29" height="36" viewBox="0 0 29 36" fill="none" xmlns="http://www.w3.org/2000/svg">
<path d="M24.3274 19.2061C24.3444 17.8819 24.6965 16.5836 25.3507 15.432C26.0049 14.2803 26.94 13.3126 28.0691 12.6191C27.3518 11.5956 26.4056 10.7533 25.3055 10.1591C24.2055 9.56486 22.9819 9.23513 21.732 9.19605C19.0657 8.91643 16.4809 10.7902 15.1222 10.7902C13.7373 10.7902 11.6454 9.22382 9.39273 9.27012C7.93566 9.31716 6.51564 9.74051 5.27102 10.4989C4.02639 11.2573 2.99961 12.3249 2.29072 13.5977C-0.780039 18.9098 1.51047 26.7168 4.45201 31.0106C5.92372 33.1132 7.64373 35.4619 9.89432 35.3786C12.0967 35.2873 12.9192 33.9754 15.5776 33.9754C18.2114 33.9754 18.9831 35.3786 21.2793 35.3256C23.6425 35.2873 25.1315 33.2137 26.5516 31.0912C27.609 29.593 28.4227 27.9372 28.9625 26.1851C27.5895 25.6049 26.4179 24.6337 25.5936 23.3927C24.7694 22.1516 24.329 20.6955 24.3274 19.2061Z" fill="white"/>
<path d="M19.9903 6.3722C21.2788 4.82667 21.9136 2.84016 21.7599 0.834534C19.7913 1.04112 17.9729 1.98118 16.6669 3.46741C16.0284 4.19347 15.5394 5.03815 15.2278 5.95316C14.9162 6.86817 14.7882 7.83557 14.851 8.80005C15.8356 8.81018 16.8097 8.59695 17.6999 8.1764C18.5902 7.75586 19.3733 7.13897 19.9903 6.3722Z" fill="white"/>
</svg>
