<svg width="170" height="170" viewBox="0 0 170 170" fill="none" xmlns="http://www.w3.org/2000/svg">
<circle cx="85" cy="85" r="60" fill="#42435F"/>
<path d="M31.3243 70.954C27.9933 74.3818 25.5329 78.5583 24.1494 83.1333C26.4543 84.2096 29.7637 82.1378 32.0328 77.9046L29.9521 76.2903L32.4812 77.0078C33.1271 75.6237 33.6232 74.1745 33.961 72.6849C34.2441 71.9372 34.5767 71.2091 34.9566 70.5055L33.0193 69.9764H35.2346C36.1716 68.1925 37.5178 66.6558 39.1628 65.4921C37.2115 65.5582 35.2753 65.8593 33.396 66.389L32.4992 68.1827L32.4543 66.676C30.5346 67.2948 28.7201 68.202 27.0732 69.3665L27.5485 71.3486L26.3915 69.9854C25.3729 70.7997 24.468 71.7469 23.701 72.8015C23.3188 73.3285 22.9713 73.8797 22.6606 74.4517L24.4543 76.6311L22.1673 75.5549C20.8758 78.7118 21.6741 81.1603 23.2256 82.4966C24.7144 76.2006 31.3243 70.954 31.3243 70.954Z" fill="white"/>
<path d="M52.4042 47.9593C52.6593 53.2761 54.1831 58.4548 56.8485 63.0624C59.4744 62.0074 60.3104 57.7415 58.6059 52.7007L55.7148 53.1398L58.2225 51.6384C57.5873 50.0606 56.7866 48.5546 55.834 47.1456C55.4466 46.3469 55.1094 45.5249 54.8242 44.6844L52.9333 45.8599L54.6804 44.0702C53.9181 41.9606 53.6749 39.6985 53.9714 37.475C52.5472 39.1208 51.3277 40.933 50.3394 42.8722L51.1284 44.9429L49.8891 43.8289C48.9233 45.8355 48.2683 47.9773 47.9466 50.1809L49.8339 51.3075L47.8005 51.2125C47.6943 52.6549 47.7788 54.105 48.0518 55.5252C48.1867 56.2394 48.3713 56.9433 48.604 57.6319L51.7602 57.8087L49.0993 58.8993C50.6824 62.3434 53.2804 63.564 55.5353 63.3224C51.6404 57.3524 52.4042 47.9593 52.4042 47.9593Z" fill="white"/>
<path d="M66.831 119.869C68.9605 115.612 70.0341 110.906 69.961 106.147C67.4409 105.815 64.9117 108.837 64.0238 113.519L66.4991 114.416L63.8713 114.497C63.676 116.01 63.6399 117.54 63.7637 119.062C63.7182 119.844 63.6223 120.623 63.4767 121.394L65.4767 121.322L63.3601 121.976C63.0047 123.953 62.1839 125.816 60.9655 127.411C62.8022 126.745 64.5518 125.86 66.1763 124.775L66.4722 122.811L66.9655 124.237C68.6073 123.071 70.0646 121.665 71.2884 120.066L70.3108 118.353L71.8265 119.304C72.5466 118.222 73.1197 117.048 73.5305 115.815C73.7334 115.195 73.8981 114.563 74.0238 113.923L71.6202 112.425L74.1852 112.739C74.4633 109.34 72.9655 107.241 71.0821 106.461C71.5485 112.873 66.831 119.869 66.831 119.869Z" fill="white"/>
<path d="M84.9394 96.5643C84.33 91.844 82.5932 87.3398 79.8759 83.4323C77.5997 84.5639 77.1887 88.4834 79.0656 92.8633L81.6199 92.2255L79.4848 93.7594C80.1678 95.1244 80.992 96.414 81.944 97.607C82.3431 98.2817 82.6984 98.9814 83.0076 99.7018L84.6269 98.5258L83.2363 100.251C84.0446 102.088 84.4036 104.092 84.2837 106.097C85.4357 104.519 86.393 102.807 87.1349 101L86.284 99.2052L87.4893 100.113C88.2007 98.2293 88.6249 96.2494 88.7477 94.2396L86.9803 93.3642L88.7686 93.3068C88.7619 92.0068 88.5823 90.7135 88.2347 89.4609C88.0568 88.8332 87.8407 88.2169 87.5875 87.6155L84.7572 87.7147L87.0606 86.5432C85.3937 83.5679 82.9794 82.6628 80.9812 83.0669C84.948 88.1268 84.9394 96.5643 84.9394 96.5643Z" fill="white"/>
<path d="M139.801 85.3987C135.182 87.9609 131.248 91.5975 128.331 96.0009C130.43 97.885 134.641 96.7033 138.39 92.9732L136.686 90.5998L139.143 92.1736C140.271 90.9101 141.263 89.5316 142.103 88.061C142.636 87.3729 143.212 86.7198 143.828 86.1058L141.952 84.9174L144.301 85.6451C145.865 84.0585 147.785 82.8673 149.901 82.1699C147.802 81.6282 145.645 81.3418 143.477 81.3171L141.974 82.93L142.416 81.3149C140.182 81.3528 137.966 81.7264 135.843 82.4231L135.664 84.6046L134.872 82.7838C133.534 83.3232 132.274 84.0382 131.125 84.9099C130.55 85.3505 130.003 85.8259 129.486 86.3334L130.748 89.2119L128.596 87.3162C126.21 90.2543 126.266 93.1151 127.501 95.0105C131.095 88.8463 139.801 85.3987 139.801 85.3987Z" fill="white"/>
<path d="M97.1358 117.035C100.978 116.51 104.638 115.071 107.808 112.837C106.912 110.99 103.719 110.658 100.14 112.228L100.669 114.29L99.4138 112.568C98.3075 113.132 97.2643 113.811 96.3017 114.595C95.7447 114.931 95.1665 115.231 94.5708 115.492L95.5394 116.802L94.1313 115.68C92.6446 116.356 91.0174 116.663 89.3869 116.577C90.6752 117.509 92.0728 118.281 93.5483 118.873L94.9923 118.165L94.2658 119.151C95.8 119.721 97.4119 120.053 99.0461 120.138L99.7456 118.703L99.7995 120.156C100.845 120.131 101.882 119.968 102.885 119.671C103.394 119.522 103.894 119.343 104.382 119.133L104.302 116.828L105.306 118.703C107.71 117.331 108.427 115.367 108.104 113.734C103.988 116.999 97.1358 117.035 97.1358 117.035Z" fill="white"/>
<path d="M150.248 99.1784C152.375 94.9081 153.448 90.1906 153.378 85.4205C150.858 85.0887 148.329 88.1111 147.441 92.7927L149.907 93.6896L147.28 93.7703C147.087 95.2843 147.054 96.8144 147.181 98.3353C147.137 99.1334 147.038 99.9275 146.885 100.712L148.894 100.64L146.777 101.295C146.419 103.272 145.595 105.135 144.374 106.73C146.214 106.065 147.967 105.18 149.594 104.093L149.881 102.129L150.383 103.555C152.025 102.389 153.482 100.984 154.706 99.3846L153.728 97.6716L155.235 98.6223C155.955 97.5401 156.528 96.3668 156.939 95.1335C157.15 94.5158 157.315 93.8833 157.432 93.2411L155.037 91.7165L157.602 92.0304C157.88 88.6313 156.374 86.5326 154.499 85.7524C154.966 92.1828 150.248 99.1784 150.248 99.1784Z" fill="white"/>
<path d="M109.98 59.1427C110.53 67.0566 112.966 74.7238 117.086 81.5029C120.979 79.855 122.058 73.3909 119.386 65.9313L115.094 66.724L118.793 64.3939C117.793 62.0614 116.551 59.8401 115.088 57.7665C114.479 56.5852 113.951 55.3635 113.509 54.11L110.69 55.9058L113.172 53.1836C112.021 50.0477 111.632 46.6827 112.038 43.3668C109.961 45.8705 108.194 48.6166 106.777 51.5453L108.021 54.6028L106.099 52.9818C104.728 56.0363 103.824 59.2797 103.417 62.6031L106.261 64.235L103.3 64.1418C103.18 66.3001 103.347 68.4649 103.797 70.5791C104.015 71.6426 104.312 72.6883 104.685 73.7076L109.403 73.8754L105.461 75.5869C107.927 80.694 111.855 82.4329 115.2 81.9719C109.112 73.1464 109.98 59.1427 109.98 59.1427Z" fill="white"/>
<path d="M127.991 70.0056C127.626 65.4445 126.174 61.0373 123.756 57.1526C121.521 58.1269 120.938 61.8617 122.525 66.1477L124.995 65.6643L122.876 67.0308C123.467 68.37 124.197 69.6435 125.054 70.8305C125.412 71.5082 125.724 72.2096 125.987 72.9298L127.602 71.8768L126.187 73.462C126.87 75.2637 127.115 77.202 126.901 79.117C128.084 77.6603 129.086 76.0656 129.885 74.3678L129.149 72.612L130.267 73.5351C131.039 71.765 131.541 69.8889 131.756 67.9696L130.105 67.0458L131.813 67.0814C131.869 65.8358 131.76 64.5883 131.487 63.3717C131.355 62.7597 131.178 62.1584 130.956 61.5727L128.234 61.5048L130.497 60.4936C129.044 57.5631 126.767 56.5842 124.841 56.8706C128.406 61.9235 127.991 70.0056 127.991 70.0056Z" fill="white"/>
<path d="M51.6828 115.169C49.961 110.713 47.1925 106.735 43.6111 103.573C41.6738 105.205 42.1581 109.08 45.046 112.927L47.3779 111.716L45.6649 113.707C46.6555 114.891 47.771 115.965 48.9922 116.909C49.5482 117.472 50.0665 118.072 50.5438 118.703L51.8442 117.169L50.8667 119.16C52.0893 120.757 52.9105 122.624 53.2613 124.604C54.0131 122.798 54.5431 120.906 54.8397 118.972L53.5841 117.429L54.9653 118.021C55.2164 116.025 55.165 114.002 54.8128 112.021L52.8846 111.582L54.6066 111.107C54.2931 109.853 53.8135 108.646 53.1806 107.519C52.8663 106.948 52.5127 106.4 52.1223 105.878L49.3779 106.613L51.342 104.936C49.0729 102.416 46.49 102.111 44.5886 102.963C49.7007 106.972 51.6828 115.169 51.6828 115.169Z" fill="white"/>
<path d="M76.0304 45.2032C78.6622 50.881 82.6187 55.844 87.5674 59.6747C89.9558 57.3658 88.9887 52.3357 84.8731 47.5627L81.9272 49.3505L84.0049 46.5997C82.6125 45.1624 81.0736 43.8748 79.4133 42.7576C78.6304 42.0564 77.8945 41.3045 77.2104 40.5067L75.6691 42.641L76.7309 39.927C74.996 37.9435 73.7579 35.5758 73.1187 33.0194C72.3131 35.4383 71.7936 37.9433 71.5709 40.4831L73.3219 42.413L71.4616 41.7602C71.3052 44.3927 71.5521 47.0338 72.1935 49.5918L74.7463 49.9986L72.5356 50.7651C73.0544 52.3853 73.7882 53.9286 74.7174 55.3537C75.1829 56.0636 75.6896 56.7457 76.2349 57.3963L79.6973 56.1665L77.2752 58.5453C80.5284 61.6018 83.8839 61.8226 86.2058 60.503C79.331 55.7575 76.0304 45.2032 76.0304 45.2032Z" fill="white"/>
<path d="M35.527 94.5733C35.0738 98.8392 35.6516 103.152 37.2117 107.148C39.4364 106.632 40.6293 103.335 39.8958 99.0872H37.5341L39.7185 98.2408C39.4085 96.9044 38.9573 95.6047 38.3724 94.3637C38.1601 93.6768 37.9932 92.9767 37.8726 92.268L36.2041 92.9693L37.8162 91.7521C37.4949 89.9742 37.5998 88.1455 38.1225 86.4161C36.7834 87.5545 35.5871 88.8509 34.5598 90.2771L34.9386 92.0181L34.0681 90.9783C33.0565 92.4662 32.2715 94.0961 31.7386 95.8146L33.1008 96.9511L31.4887 96.6287C31.2268 97.7673 31.113 98.935 31.1502 100.103C31.1724 100.686 31.2316 101.268 31.3275 101.844L33.8343 102.376L31.5693 102.924C32.3754 105.866 34.3341 107.164 36.1638 107.244C33.7537 101.949 35.527 94.5733 35.527 94.5733Z" fill="white"/>
<path d="M60.3289 96.2814C58.6657 91.808 58.0997 87.0008 58.6787 82.2635C61.2257 82.2096 63.423 85.4294 63.7997 90.2276L61.2526 90.8554L63.8535 91.2141C63.8871 92.7422 63.7578 94.2695 63.4679 95.7702C63.4198 96.5677 63.4198 97.3673 63.4679 98.1648L61.4858 97.8778L63.5217 98.7747C63.6614 100.78 64.2762 102.723 65.3154 104.443C63.5556 103.582 61.9056 102.513 60.4006 101.259L60.3289 99.2769L59.6831 100.64C58.168 99.3146 56.8671 97.7626 55.8266 96.0392L57.0374 94.4877L55.432 95.2769C54.8291 94.1247 54.3827 92.8971 54.1047 91.6267C53.9673 90.9908 53.8714 90.3467 53.8177 89.6984L56.3648 88.4249L53.7818 88.4697C53.8625 85.0617 55.5755 83.0886 57.5396 82.5415C56.3827 88.8643 60.3289 96.2814 60.3289 96.2814Z" fill="white"/>
<path d="M135.109 104.416C130.338 104.643 125.583 103.72 121.244 101.725C121.952 99.2858 125.728 98.1378 130.374 99.241L130.212 101.869L131.342 99.4921C132.808 99.9245 134.224 100.511 135.566 101.241C136.314 101.515 137.078 101.743 137.853 101.923L136.957 103.716L138.4 102.03C140.354 102.506 142.393 102.506 144.347 102.03C143.008 103.448 141.502 104.697 139.862 105.752L137.952 105.25L139.055 106.281C137.327 107.317 135.453 108.085 133.495 108.559L132.32 107.044L132.58 108.837C131.301 109.064 129.998 109.118 128.705 108.999C128.057 108.933 127.413 108.829 126.777 108.685L126.338 105.878L125.602 108.353C122.374 107.241 121.064 105.026 121.118 102.972C126.804 105.932 135.109 104.416 135.109 104.416Z" fill="white"/>
<path d="M100.93 94.7388C100.989 99.5119 99.9033 104.23 97.7637 108.497C95.3511 107.69 94.3646 103.914 95.6202 99.277L98.239 99.5371L95.9072 98.3173C96.3881 96.8697 97.0225 95.4776 97.7995 94.1649C98.1077 93.4268 98.3654 92.6687 98.5708 91.8958L100.365 92.7927L98.7412 91.2859C99.2799 89.3482 99.3506 87.3102 98.9475 85.3398C100.328 86.7364 101.533 88.2965 102.535 89.9855L101.934 91.8779L102.948 90.9003C103.928 92.6591 104.629 94.559 105.028 96.5326L103.405 97.6536L105.199 97.4474C105.369 98.7362 105.369 100.042 105.199 101.331C105.115 101.978 104.989 102.619 104.822 103.25L101.988 103.546L104.436 104.38C103.208 107.555 100.948 108.793 98.9027 108.694C102.131 103.089 100.93 94.7388 100.93 94.7388Z" fill="white"/>
<path d="M75.2184 75.5626C70.4955 74.8699 66.0075 73.0551 62.1305 70.2705C63.3073 68.0151 67.1913 67.6352 71.5727 69.605L70.9036 72.1503L72.4752 70.0395C73.829 70.7424 75.1039 71.588 76.278 72.562C76.9583 72.9825 77.6663 73.3563 78.3973 73.6808L77.2293 75.311L78.9728 73.9451C80.8016 74.7821 82.803 75.1727 84.8123 75.0848C83.2158 76.2284 81.4855 77.1725 79.6598 77.8962L77.8856 77.0049L78.6915 78.1596C76.8003 78.8507 74.8136 79.2447 72.8019 79.3278L71.9503 77.5483L71.8717 79.3521C70.572 79.3178 69.2826 79.1122 68.0367 78.7408C67.4108 78.5558 66.7975 78.3307 66.2006 78.0667L66.3545 75.2214L65.1454 77.508C62.2035 75.7948 61.337 73.3681 61.7563 71.3643C66.7836 75.4351 75.2184 75.5626 75.2184 75.5626Z" fill="white"/>
<path d="M110.813 104.012C111.809 107.381 111.981 110.94 111.315 114.389C109.45 114.299 107.997 111.815 107.961 108.281L109.863 107.941L107.97 107.546C108.026 106.424 108.2 105.312 108.49 104.228C108.56 103.632 108.59 103.033 108.58 102.434L110.024 102.739L108.571 101.994C108.568 100.515 108.211 99.0571 107.531 97.7432C108.772 98.4779 109.922 99.357 110.957 100.362V101.824L111.504 100.855C112.541 101.916 113.414 103.125 114.096 104.443L113.199 105.564L114.419 105.071C114.796 105.948 115.058 106.87 115.199 107.815C115.266 108.288 115.305 108.764 115.315 109.241L113.378 110.048L115.28 110.147C115.037 112.64 113.683 113.967 112.221 114.308C113.333 109.68 110.813 104.012 110.813 104.012Z" fill="white"/>
<path d="M142.809 61.8337C143.886 65.5537 144.052 69.478 143.293 73.2757C141.242 73.1914 139.633 70.4573 139.583 66.5622L141.678 66.1897L139.593 65.7682C139.653 64.5267 139.84 63.2945 140.15 62.0908C140.224 61.4501 140.258 60.8056 140.252 60.1608L141.848 60.5059L140.309 59.7105C140.295 58.0813 139.903 56.4775 139.163 55.0258C140.534 55.8239 141.805 56.7811 142.95 57.8776L142.917 59.459L143.477 58.3737C144.629 59.5323 145.599 60.8581 146.354 62.3062L145.334 63.5379L146.669 62.9965C147.301 64.4473 147.641 66.0082 147.669 67.5903L145.592 68.5158L147.694 68.6261C147.72 69.6657 147.401 70.6846 146.788 71.5245C146.175 72.3643 145.302 72.978 144.303 73.2699C145.604 68.0903 142.809 61.8337 142.809 61.8337Z" fill="white"/>
<path d="M94.0957 91.7972C94.0957 91.851 94.0957 91.9048 94.0957 91.9586C94.0868 91.851 94.0957 91.7972 94.0957 91.7972Z" fill="white"/>
<path d="M99.7727 44.4159C99.701 44.5773 99.6382 44.7298 99.5754 44.8912C99.5754 44.8105 99.6382 44.7208 99.6741 44.6311L99.7727 44.4159Z" fill="white"/>
<path d="M162.078 82.6849C161.898 81.3576 161.522 80.1289 159.872 80.3531C158.221 80.5773 158.383 81.9316 158.49 83.223C159.096 87.676 158.88 92.2022 157.854 96.5773C157.746 96.6502 157.653 96.7442 157.582 96.8536C157.512 96.963 157.463 97.0856 157.441 97.2141C155.459 103.089 151.163 106.64 145.54 108.613C138.293 111.151 130.84 111.115 123.333 110.039C122.832 110.004 122.35 109.83 121.942 109.535C121.535 109.24 121.218 108.837 121.029 108.371C118.724 102.837 117.692 97.223 120.643 91.5907C124.087 85.0257 130.284 82.389 136.948 80.5056C140.921 79.3845 145.02 78.7746 148.858 77.1692C151.952 75.8688 154.41 73.797 154.481 70.3262C154.522 66.8689 153.639 63.4635 151.925 60.4607C151.396 59.51 150.67 58.7208 149.531 59.2141C148.248 59.7701 148.284 60.9271 148.715 62.084C149.427 63.7119 150.027 65.387 150.508 67.0975C151.405 70.9181 150.338 72.8553 146.706 74.1468C143.193 75.4117 139.559 76.3133 135.863 76.8374C139.845 63.7701 134.194 55.6535 133.952 55.537C132.804 54.1827 131.692 52.8015 130.499 51.4921C129.71 50.5953 128.706 49.9495 127.62 50.9181C126.374 52.0123 127.029 53.0616 127.943 54.0392C129.854 56.0482 132.67 61.2141 133.647 64.3172C134.197 66.6134 134.227 69.0032 133.737 71.3127C132.957 75.1782 131.943 78.6491 127.522 80.4338C123.034 82.3449 119.402 85.8359 117.316 90.2455C116.168 92.5504 115.02 92.102 113.45 91.1423C107.531 87.3307 101.073 73.6984 100.275 69.7163C99.9317 68.9244 99.6877 68.0929 99.5488 67.241C97.5219 60.5145 96.5712 53.6625 98.8313 46.8015C99.0196 46.2275 99.2169 45.6536 99.4501 45.0885C99.4501 45.0885 99.4501 44.9899 99.5129 44.9361C99.5757 44.8823 99.6384 44.6222 99.7102 44.4607C99.8447 44.1648 99.9792 43.8778 100.123 43.6087C100.285 43.2761 100.471 42.9554 100.679 42.6491C102.036 40.2623 104.188 38.4277 106.76 37.4652C107.441 37.0168 107.872 36.4428 107.208 35.2948C106.239 33.6267 105.1 34.398 103.988 34.9899C103.675 35.179 103.345 35.3382 103.002 35.4652C101.251 36.5382 99.7008 37.9068 98.4187 39.5101C90.9479 51.1154 94.3739 63.232 98.1048 75.7701C91.2259 71.0616 84.2035 68.0123 77.1721 64.8374C65.3066 59.51 61.477 47.6805 67.5219 36.1917C68.051 35.1872 68.347 34.2275 67.3694 33.5011C66.3918 32.7746 65.2618 33.241 64.4905 34.2365C62.9845 36.1368 61.8817 38.3241 61.2495 40.6649C60.6172 43.0057 60.4688 45.4508 60.8133 47.8509C62.069 57.9854 67.7909 64.8912 77.0555 68.7477C83.9022 71.4955 90.4529 74.9301 96.607 78.9988C99.1474 80.6165 101.293 82.7833 102.885 85.3396C105.259 89.5773 108.922 92.9481 113.342 94.9629C114.078 95.1695 114.709 95.6444 115.11 96.2938C115.512 96.9431 115.656 97.7196 115.513 98.4697C115.313 101.721 115.808 104.977 116.966 108.021C118.76 112.676 118.562 113.483 114.616 116.757C112.714 118.327 110.528 119.518 108.177 120.263C101.459 122.452 94.9479 121.232 88.3918 119.367C85.8447 118.703 86.1048 117.654 87.6384 116.12C88.6273 114.22 89.4756 112.251 90.1766 110.228C90.2483 110.039 90.3201 109.851 90.3828 109.671C90.7595 108.658 91.1362 107.654 91.477 106.631C91.4821 106.607 91.4821 106.583 91.477 106.559C92.6199 101.751 93.4913 96.8825 94.0869 91.9764C94.0869 91.9226 94.0869 91.8688 94.0869 91.815C94.2932 89.6266 94.5084 87.4383 94.6878 85.2589C94.7954 83.9854 94.2662 83.0078 92.8941 82.963C91.5219 82.9181 91.199 83.8598 91.1003 84.9629C90.9658 86.5235 90.9389 88.102 90.8044 89.6625C90.0331 98.4069 88.7236 107.008 84.0062 114.667C83.2349 115.905 82.6788 117.474 80.9389 118.03C82.7326 101.887 80.2035 94.6401 68.4456 83.1154C66.051 80.7656 63.5039 78.5504 61.0107 76.3082C57.9255 73.5369 54.7954 70.8195 51.7371 68.0302C50.6616 67.04 49.6407 65.9922 48.6788 64.8912C41.3694 56.6311 41.2349 50.5414 48.1855 41.9675C49.0824 40.9181 50.2842 39.815 48.8851 38.5325C47.486 37.25 46.4636 38.4159 45.5398 39.4921C43.7472 41.4731 42.2215 43.6802 41.0017 46.0571C39.313 49.5142 38.6531 53.3837 39.1004 57.2051C39.1004 57.4742 39.1811 57.7432 39.2439 58.0123C39.2439 58.1109 39.2439 58.2096 39.2977 58.3172C39.4 59.0396 39.6771 59.7261 40.1048 60.3172C41.0468 62.0836 42.1327 63.7694 43.3515 65.3576C47.3604 71.0885 53.1003 75.0437 58.1766 79.6625C63.8752 84.1927 68.858 89.5565 72.9568 95.5728C76.4177 100.747 77.8601 107.011 77.0107 113.178C76.2483 119.34 74.2214 124.748 67.468 126.855C66.0121 127.434 64.6028 128.123 63.2528 128.918C61.2349 130.048 59.0734 130.909 57.1811 132.506C58.4994 130.344 59.0196 127.967 59.9344 125.761C62.8761 116.55 61.5577 107.941 56.5533 99.7791C54.5465 96.6904 53.011 93.3201 51.9972 89.7791C51.1631 87.4024 51.3873 84.9181 51.2438 82.4697C51.1452 80.7656 50.5353 79.3038 48.5533 79.241C46.5712 79.1782 45.9613 80.7118 45.6654 82.3351C45.5008 83.669 45.5341 85.0199 45.764 86.3441C46.4098 92.2813 48.9748 97.4652 51.9344 102.488C55.8896 109.259 57.4053 116.344 54.7506 124.012C53.8537 126.506 53.0465 128.999 52.06 131.402C52.2503 129.112 51.8878 126.809 51.0029 124.688C50.1179 122.567 48.7365 120.69 46.9748 119.214C44.5264 117.044 41.5936 115.582 38.7775 113.994C35.4993 112.282 32.5118 110.064 29.9255 107.42C26.06 103.232 25.4412 98.4517 28.4008 93.5728C30.4829 89.9468 33.6079 87.0312 37.3694 85.2051C39.1183 84.371 41.1273 83.1513 39.9524 80.9091C38.7775 78.667 36.6519 79.7612 34.912 80.5056C32.2668 81.7296 29.8112 83.3273 27.6205 85.2499C26.6013 86.336 25.716 87.5404 24.9838 88.8374C24.4726 89.7342 24.3649 90.936 23.1183 91.3396C22.0241 90.4428 21.8448 89.1064 21.3246 87.9674C18.2304 80.4069 19.4053 73.5011 24.5712 67.232C25.5313 65.6115 26.8857 64.2601 28.5084 63.3038C28.9151 63.0093 29.2723 62.6521 29.5667 62.2455C30.3111 61.0078 30.5891 59.7432 29.4143 58.658C29.2585 58.4607 29.0573 58.3039 28.8278 58.201C28.5984 58.0981 28.3475 58.0522 28.0964 58.0672C27.8454 58.0821 27.6018 58.1575 27.3862 58.287C27.1706 58.4164 26.9894 58.596 26.8582 58.8105C14.0779 68.963 10.625 82.5414 21.477 97.3755C21.9429 98.0076 22.1801 98.7792 22.1497 99.5638C22.06 106.093 25.4412 110.766 30.6519 114.219C34.2394 116.631 38.1138 118.703 41.8447 120.99C45.5757 123.277 47.8358 126.523 47.8896 131.142C47.9109 135.404 47.1823 139.636 45.7371 143.645C45.3335 144.784 44.634 146.075 46.1497 146.882C47.6654 147.689 48.3829 146.595 49.1721 145.573C53.4322 140.048 58.921 136.066 65.0555 132.882C69.1272 130.775 73.6923 129.232 77.0914 126.326C81.7461 122.362 85.8447 122.174 91.6564 123.734C103.02 126.793 113.782 125.304 121.253 114.676C122.212 113.322 123.208 113.636 124.455 113.779C130.473 114.6 136.584 114.446 142.553 113.322C152.419 111.241 159.594 106.147 161.881 95.7163C162.703 91.417 162.77 87.0072 162.078 82.6849Z" fill="#F3CB95"/>
</svg>
