<svg width="200" height="212" fill="none" xmlns="http://www.w3.org/2000/svg"><g filter="url(#filter0_d_7437_3921)"><rect x="93.769" y="151.981" width="115" height="50.418" rx="11.635" transform="rotate(4.644 93.77 151.981)" fill="#FFA566" shape-rendering="crispEdges"/><path d="M116.905 179.353l.94-4.659c.115-.593.354-1.055.715-1.387.362-.345.843-.493 1.441-.444l7.934.644c.544.044.963.245 1.255.604.306.346.437.791.393 1.336-.044.545-.239.97-.585 1.277-.345.293-.797.417-1.355.371l-6.498-.528-.337 1.679c.148-.015.329-.027.544-.036.215-.01.443-.011.683-.005.255-.006.508.001.761.021.266.009.52.023.759.042.864.07 1.654.215 2.372.434.733.206 1.35.511 1.853.913.516.389.904.889 1.162 1.499.259.596.354 1.326.284 2.19-.064.784-.267 1.476-.611 2.077a4.297 4.297 0 01-1.425 1.49c-.606.378-1.344.653-2.214.823-.855.158-1.835.192-2.938.103-1.236-.101-2.359-.353-3.37-.756-1.01-.403-1.836-.938-2.478-1.606-.296-.305-.499-.609-.608-.912a1.806 1.806 0 01-.111-.852 1.49 1.49 0 01.191-.626c.124-.204.265-.373.423-.508.172-.146.361-.251.567-.315.207-.077.41-.107.609-.091.213.017.429.075.648.173.234.086.457.225.669.416.225.192.491.374.798.546.307.172.636.326.986.461.352.123.71.232 1.077.329.381.084.751.141 1.11.17.877.071 1.53.017 1.96-.162.443-.191.682-.493.715-.905.037-.452-.149-.801-.557-1.048-.407-.261-1.115-.432-2.125-.514a15.123 15.123 0 00-1.06-.046c-.373-.017-.74-.027-1.101-.029a80.446 80.446 0 00-.983 0c-.294-.01-.52-.022-.68-.035-.611-.05-1.103-.257-1.474-.621-.358-.377-.471-.881-.339-1.513zm14.443 1.715c-.094 1.156-.032 2.205.186 3.146.231.941.606 1.761 1.125 2.459a5.927 5.927 0 002.013 1.648c.81.4 1.753.644 2.83.732 1.063.086 2.027-.01 2.893-.287a5.82 5.82 0 002.254-1.322c.638-.604 1.147-1.352 1.527-2.244.393-.891.636-1.901.727-3.031.094-1.156.012-2.206-.245-3.15-.245-.943-.64-1.758-1.186-2.444a5.927 5.927 0 00-2.013-1.648c-.81-.414-1.726-.662-2.749-.745-.997-.081-1.921.017-2.773.296a6.178 6.178 0 00-2.253 1.302c-.65.589-1.178 1.329-1.585 2.219-.407.89-.657 1.913-.751 3.069zm3.987.324c.05-.611.154-1.151.312-1.62.172-.468.39-.851.656-1.151.266-.313.579-.541.938-.686.36-.145.752-.2 1.177-.165.426.034.798.145 1.117.331.333.188.612.451.839.791.227.339.386.76.479 1.263.094.489.115 1.053.064 1.69-.057.691-.178 1.277-.364 1.757-.172.467-.389.844-.653 1.131a2.228 2.228 0 01-.913.608 2.71 2.71 0 01-1.114.13 2.844 2.844 0 01-1.137-.333 2.661 2.661 0 01-.837-.811 3.859 3.859 0 01-.499-1.264c-.094-.489-.116-1.046-.065-1.671zm11.357.923c-.094 1.156-.032 2.204.186 3.145.231.942.606 1.761 1.125 2.459a5.927 5.927 0 002.013 1.648c.81.401 1.753.645 2.83.732 1.063.086 2.027-.009 2.893-.287a5.808 5.808 0 002.254-1.322c.638-.603 1.147-1.351 1.527-2.243.393-.891.636-1.902.727-3.031.094-1.157.012-2.207-.245-3.151-.245-.942-.64-1.757-1.186-2.444a5.927 5.927 0 00-2.013-1.648c-.81-.414-1.726-.662-2.749-.745-.997-.081-1.921.018-2.773.296a6.178 6.178 0 00-2.253 1.302c-.65.59-1.178 1.329-1.585 2.219-.407.89-.657 1.913-.751 3.07zm3.987.323c.05-.611.154-1.151.312-1.62.172-.467.39-.851.656-1.15a2.4 2.4 0 01.938-.687c.36-.144.752-.199 1.177-.165.426.035.798.145 1.117.332.333.187.612.451.839.79.227.34.386.761.479 1.263.094.489.115 1.053.064 1.691-.057.691-.178 1.276-.364 1.756-.172.468-.389.845-.653 1.131a2.228 2.228 0 01-.913.608 2.693 2.693 0 01-1.114.13 2.812 2.812 0 01-1.137-.333 2.669 2.669 0 01-.837-.81 3.873 3.873 0 01-.499-1.265c-.094-.489-.116-1.046-.065-1.671zm24.079-1.916l-.754 9.289c-.049.598-.254 1.07-.617 1.415-.361.332-.841.473-1.439.425-.598-.049-1.048-.266-1.352-.652-.302-.399-.428-.898-.38-1.496l.868-10.684c.049-.598.267-1.062.655-1.392.402-.342.903-.489 1.501-.44l3.927.319a8.49 8.49 0 012.151.436c.639.212 1.17.509 1.593.892.439.37.763.817.975 1.343.211.525.29 1.127.235 1.805-.067.824-.27 1.503-.607 2.037-.324.523-.745.93-1.263 1.222a4.742 4.742 0 01-1.73.542 9.625 9.625 0 01-2.01.037l-3.169-.257.275-3.389 3.269.266c.439.035.782.01 1.03-.077s.384-.284.409-.589c.027-.332-.083-.549-.329-.649-.231-.112-.56-.186-.985-.22l-2.253-.183zm-4.231 1.201l.857.07c.625.05 1.076.261 1.354.631.277.371.399.768.364 1.194-.035.438-.221.825-.555 1.159-.334.32-.813.455-1.438.404l-.857-.069c-.625-.051-1.076-.261-1.353-.632a1.852 1.852 0 01-.342-1.231c.035-.426.212-.799.533-1.121.333-.321.813-.456 1.437-.405zm-.333 4.106l7.036.572c.625.051 1.076.268 1.352.652.278.37.4.761.366 1.173-.035.439-.22.825-.555 1.159-.334.321-.813.456-1.438.405l-7.037-.572c-.624-.05-1.075-.261-1.353-.631a1.854 1.854 0 01-.341-1.232c.033-.412.217-.778.55-1.099.335-.334.808-.476 1.42-.427z" fill="#fff"/></g><g filter="url(#filter1_d_7437_3921)"><rect x="52.787" y="110.563" width="154" height="59.194" rx="13.66" transform="rotate(-8.917 52.787 110.563)" fill="#D15700" shape-rendering="crispEdges"/><path d="M82.866 135.438l-.214-5.699c-.033-.724.115-1.33.443-1.819.326-.505.845-.813 1.556-.924l9.436-1.481c.648-.101 1.193.015 1.635.351.454.318.732.8.834 1.448.102.648-.006 1.2-.323 1.654-.32.439-.812.711-1.476.815l-7.73 1.213.08 2.052a12.458 12.458 0 011.42-.393c.295-.078.593-.141.894-.188.313-.066.612-.121.897-.166a13.477 13.477 0 012.89-.161c.912.035 1.718.216 2.417.543.713.31 1.305.784 1.778 1.422.47.623.786 1.448.947 2.475.146.933.104 1.798-.127 2.595a5.145 5.145 0 01-1.244 2.139c-.6.612-1.384 1.14-2.35 1.583-.955.425-2.087.741-3.4.947-1.47.23-2.85.253-4.143.067-1.292-.186-2.407-.578-3.343-1.176-.431-.273-.753-.571-.966-.893a2.168 2.168 0 01-.37-.963 1.794 1.794 0 01.048-.785 2.47 2.47 0 01.35-.71c.16-.22.35-.396.573-.528.22-.147.448-.24.685-.277.253-.04.521-.033.805.019.297.035.596.134.897.297.316.161.678.298 1.085.413.406.114.833.201 1.28.26.444.044.893.071 1.348.08a9.726 9.726 0 001.343-.113c1.043-.164 1.79-.41 2.24-.74.464-.348.657-.767.58-1.257-.084-.538-.399-.893-.944-1.067-.548-.189-1.423-.19-2.624-.001a17.99 17.99 0 00-1.25.244c-.44.086-.87.178-1.292.276-.406.096-.788.189-1.147.277a17.12 17.12 0 01-.803.15c-.727.115-1.358.011-1.895-.31-.522-.339-.796-.895-.82-1.669zm24.512-3.189c.216 1.375.583 2.58 1.102 3.617.534 1.033 1.202 1.884 2.004 2.552a7.108 7.108 0 002.812 1.356c1.058.239 2.227.258 3.507.057 1.265-.198 2.363-.581 3.294-1.148a6.985 6.985 0 002.258-2.176c.574-.884.957-1.9 1.149-3.047.209-1.151.207-2.397-.003-3.741-.216-1.375-.607-2.577-1.173-3.606-.551-1.031-1.241-1.87-2.072-2.517a7.11 7.11 0 00-2.812-1.357c-1.06-.254-2.199-.286-3.416-.095-1.185.186-2.236.561-3.152 1.126a7.404 7.404 0 00-2.261 2.152c-.592.871-1.001 1.882-1.225 3.035-.224 1.152-.228 2.416-.012 3.792zm4.742-.744c-.114-.727-.145-1.387-.092-1.978.069-.594.216-1.103.441-1.527.222-.44.523-.795.902-1.064.379-.27.821-.445 1.327-.524a3.11 3.11 0 011.396.072c.44.125.841.354 1.201.686.359.332.664.779.914 1.339.247.544.431 1.195.55 1.954.129.822.152 1.539.07 2.151-.069.594-.217 1.095-.444 1.503a2.67 2.67 0 01-.894.966 3.24 3.24 0 01-1.263.466c-.49.077-.963.054-1.419-.069a3.185 3.185 0 01-1.205-.71c-.362-.348-.675-.793-.938-1.335-.248-.544-.43-1.187-.546-1.93zm13.31-2.089c.216 1.375.584 2.581 1.102 3.617.535 1.034 1.203 1.885 2.004 2.552a7.116 7.116 0 002.812 1.357c1.058.239 2.227.258 3.508.057 1.264-.198 2.362-.581 3.294-1.148a6.985 6.985 0 002.257-2.177c.574-.883.958-1.899 1.15-3.047.208-1.15.207-2.397-.004-3.74-.215-1.375-.607-2.577-1.173-3.606-.55-1.031-1.241-1.87-2.071-2.517a7.116 7.116 0 00-2.812-1.357c-1.061-.255-2.199-.287-3.416-.096-1.186.186-2.236.562-3.152 1.126a7.422 7.422 0 00-2.262 2.153c-.592.87-1 1.882-1.224 3.035-.224 1.152-.228 2.416-.013 3.791zm4.742-.744a8.137 8.137 0 01-.091-1.977c.069-.594.216-1.103.441-1.527.222-.44.523-.795.901-1.065.379-.27.821-.444 1.327-.524a3.123 3.123 0 011.396.073 2.94 2.94 0 011.201.686c.36.332.665.778.915 1.338.247.545.43 1.196.549 1.955.129.822.153 1.539.071 2.151-.069.594-.217 1.095-.445 1.503a2.66 2.66 0 01-.893.966 3.234 3.234 0 01-1.263.465 3.4 3.4 0 01-1.42-.068 3.181 3.181 0 01-1.204-.71c-.363-.348-.676-.793-.939-1.335-.247-.544-.429-1.188-.546-1.931zm13.311-2.088c.216 1.375.583 2.581 1.102 3.617.535 1.033 1.203 1.884 2.004 2.552a7.11 7.11 0 002.812 1.357c1.058.239 2.227.258 3.507.057 1.265-.199 2.363-.581 3.294-1.149a6.975 6.975 0 002.258-2.176c.574-.884.957-1.899 1.15-3.047.208-1.15.207-2.397-.004-3.741-.216-1.375-.607-2.577-1.173-3.605-.551-1.031-1.241-1.871-2.071-2.518a7.112 7.112 0 00-2.813-1.356c-1.06-.255-2.199-.287-3.416-.096-1.185.186-2.236.561-3.151 1.126a7.388 7.388 0 00-2.262 2.153c-.592.87-1 1.882-1.224 3.034-.225 1.153-.229 2.417-.013 3.792zm4.742-.744c-.114-.727-.145-1.386-.092-1.978.069-.594.216-1.102.441-1.526.223-.44.523-.795.902-1.065.379-.27.821-.445 1.327-.524a3.138 3.138 0 011.396.072c.441.126.841.354 1.201.687.36.332.664.778.914 1.338.248.544.431 1.196.55 1.954.129.822.152 1.539.07 2.151-.069.594-.217 1.095-.444 1.504-.228.408-.525.73-.893.966a3.234 3.234 0 01-1.263.465c-.49.077-.964.054-1.42-.069a3.18 3.18 0 01-1.205-.71c-.362-.348-.675-.793-.938-1.334-.247-.545-.429-1.188-.546-1.931zm27.155-8.949l1.734 11.049c.111.711.004 1.319-.321 1.824-.329.488-.848.788-1.56.9-.711.112-1.298-.015-1.76-.38-.464-.38-.752-.926-.864-1.638l-1.994-12.708c-.112-.711.013-1.314.372-1.808.374-.512.916-.823 1.627-.935l4.671-.733c.948-.149 1.826-.181 2.633-.097.804.068 1.507.265 2.109.592a4.07 4.07 0 011.515 1.293c.394.553.655 1.233.781 2.039.154.98.109 1.83-.135 2.548-.23.7-.606 1.294-1.129 1.781-.51.468-1.131.841-1.865 1.118-.718.275-1.496.478-2.334.609l-3.77.592-.632-4.031 3.888-.61c.522-.082.915-.208 1.179-.379.265-.171.369-.439.312-.802-.062-.395-.251-.617-.566-.665-.302-.066-.706-.059-1.211.02l-2.68.421zm-4.597 2.592l1.019-.16c.743-.117 1.328.002 1.756.356.429.354.682.784.762 1.29.081.521-.026 1.024-.323 1.508-.299.468-.82.76-1.563.877l-1.019.16c-.743.116-1.328-.003-1.756-.357a2.224 2.224 0 01-.745-1.34c-.08-.506.022-.992.306-1.457.299-.468.82-.761 1.563-.877zm.766 4.884l8.369-1.313c.743-.117 1.33.01 1.761.38.428.354.68.776.757 1.266.082.521-.026 1.024-.322 1.508-.299.468-.82.76-1.563.877l-8.37 1.313c-.743.116-1.328-.002-1.756-.356a2.226 2.226 0 01-.745-1.341c-.077-.49.034-.969.333-1.437.297-.484.809-.783 1.536-.897z" fill="#fff"/></g><g filter="url(#filter2_d_7437_3921)"><rect x=".408" y="54.281" width="195" height="73.217" rx="16.896" transform="rotate(-16.119 .408 54.281)" fill="#FF6900" shape-rendering="crispEdges"/><path d="M43.947 89.61c.134.462.327.843.58 1.145.274.296.578.52.913.673a2.84 2.84 0 001.073.252 3.395 3.395 0 002.104-.608 2.84 2.84 0 00.772-.785c.221-.314.36-.666.413-1.056.073-.396.043-.825-.09-1.286l-4.598-15.909c-.267-.922-.703-1.567-1.308-1.933-.586-.372-1.235-.455-1.946-.25-.307.09-.62.232-.938.428a4.44 4.44 0 00-.876.752l-6.103 6.542c-.411.452-.664.91-.758 1.375-.076.459-.056.89.061 1.294.239.826.69 1.414 1.353 1.763.677.325 1.39.38 2.14.163.306-.09.58-.22.822-.394.26-.18.513-.388.756-.625l2.457-2.52 3.173 10.98zm7.749-11.732l-1.159-7.034c-.154-.893-.065-1.668.265-2.325.325-.677.92-1.14 1.784-1.39l11.47-3.315c.789-.228 1.483-.168 2.082.179.614.322 1.035.877 1.262 1.665.228.788.18 1.488-.142 2.102-.328.594-.895 1.008-1.702 1.241l-9.395 2.716.42 2.533a15.151 15.151 0 011.7-.71c.353-.144.712-.269 1.078-.374a22.6 22.6 0 011.087-.346c1.248-.36 2.434-.578 3.558-.653 1.137-.1 2.165-.001 3.083.295a5.401 5.401 0 012.428 1.485c.68.698 1.201 1.672 1.562 2.92.328 1.134.41 2.214.249 3.24a6.436 6.436 0 01-1.207 2.846c-.649.854-1.538 1.631-2.668 2.332-1.116.677-2.471 1.246-4.066 1.706-1.787.517-3.496.76-5.128.733-1.632-.028-3.075-.34-4.33-.935-.577-.27-1.023-.589-1.338-.956-.314-.367-.517-.746-.609-1.135a2.243 2.243 0 01-.065-.981c.065-.352.173-.664.323-.936.164-.298.373-.546.628-.744.25-.218.518-.368.807-.452a2.968 2.968 0 011-.102 3.09 3.09 0 011.16.228c.417.15.887.263 1.41.341.522.079 1.065.12 1.628.123a21.98 21.98 0 001.685-.112c.58-.084 1.128-.201 1.647-.351 1.268-.367 2.156-.79 2.662-1.269.52-.504.695-1.054.523-1.65-.189-.653-.635-1.045-1.339-1.175-.709-.148-1.794-.012-3.254.41-.48.139-.984.305-1.51.5a43.32 43.32 0 00-1.561.544c-.488.182-.948.357-1.379.523-.417.142-.74.246-.971.312-.884.255-1.684.226-2.399-.087-.702-.339-1.128-.986-1.28-1.942zm29.418-7.658c.483 1.672 1.127 3.11 1.933 4.313.825 1.198 1.787 2.148 2.885 2.851a8.89 8.89 0 003.7 1.242c1.35.13 2.802-.03 4.359-.48 1.537-.444 2.838-1.09 3.904-1.94a8.727 8.727 0 002.46-3.052c.573-1.186.889-2.506.948-3.96.078-1.458-.119-3.004-.591-4.638-.483-1.671-1.157-3.1-2.02-4.287-.844-1.193-1.832-2.125-2.963-2.798a8.891 8.891 0 00-3.7-1.241c-1.355-.15-2.772-.011-4.252.417-1.44.416-2.685 1.046-3.732 1.89a9.248 9.248 0 00-2.467 3.024c-.598 1.172-.946 2.49-1.043 3.955-.097 1.464.096 3.032.579 4.704zm5.764-1.666c-.255-.883-.397-1.696-.424-2.438-.007-.747.095-1.401.308-1.962a3.6 3.6 0 01.951-1.462c.428-.394.949-.68 1.564-.858.614-.178 1.195-.22 1.742-.129a3.674 3.674 0 011.597.663c.498.356.946.861 1.344 1.517.392.636.721 1.415.988 2.337.288 1 .43 1.885.424 2.657.008.747-.097 1.392-.316 1.933a3.328 3.328 0 01-.956 1.339 4.06 4.06 0 01-1.493.775 4.236 4.236 0 01-1.772.137 3.98 3.98 0 01-1.605-.692c-.504-.374-.961-.877-1.373-1.508-.392-.636-.718-1.406-.98-2.309zm15.939-4.606c.484 1.672 1.128 3.11 1.934 4.313.825 1.198 1.787 2.148 2.885 2.85a8.89 8.89 0 003.7 1.242c1.349.131 2.802-.029 4.358-.478 1.537-.445 2.839-1.091 3.905-1.94a8.719 8.719 0 002.459-3.053c.574-1.186.89-2.506.948-3.96.078-1.458-.119-3.005-.591-4.638-.483-1.671-1.156-3.1-2.019-4.288-.845-1.192-1.832-2.124-2.963-2.797a8.894 8.894 0 00-3.701-1.241c-1.354-.15-2.772-.011-4.251.416-1.441.417-2.685 1.047-3.732 1.89a9.244 9.244 0 00-2.467 3.025c-.598 1.172-.946 2.49-1.043 3.955-.098 1.464.095 3.032.578 4.704zm5.765-1.666c-.256-.884-.397-1.696-.424-2.438-.008-.747.095-1.401.307-1.962a3.59 3.59 0 01.952-1.462c.427-.394.948-.68 1.563-.858.615-.178 1.196-.22 1.743-.129a3.68 3.68 0 011.597.663c.498.356.946.861 1.344 1.517.392.636.721 1.415.987 2.337.289 1 .431 1.885.425 2.657.007.747-.098 1.392-.316 1.933a3.328 3.328 0 01-.956 1.338c-.419.35-.917.609-1.494.776a4.234 4.234 0 01-1.771.137 3.978 3.978 0 01-1.605-.692c-.504-.375-.962-.877-1.373-1.508-.392-.636-.718-1.406-.979-2.309zm15.939-4.606c.483 1.671 1.128 3.109 1.933 4.313.826 1.198 1.787 2.148 2.885 2.85a8.894 8.894 0 003.701 1.242c1.349.13 2.802-.029 4.358-.478 1.537-.445 2.839-1.091 3.905-1.94a8.72 8.72 0 002.459-3.054c.573-1.185.889-2.505.948-3.959.078-1.459-.119-3.005-.591-4.638-.483-1.671-1.156-3.1-2.02-4.288-.844-1.192-1.832-2.124-2.963-2.797a8.89 8.89 0 00-3.7-1.242c-1.355-.15-2.772-.01-4.251.417-1.441.417-2.685 1.047-3.732 1.89a9.247 9.247 0 00-2.468 3.025c-.598 1.172-.945 2.49-1.043 3.955-.097 1.464.096 3.032.579 4.704zm5.764-1.666c-.255-.884-.396-1.697-.423-2.438-.008-.747.094-1.402.307-1.963a3.59 3.59 0 01.952-1.461 3.83 3.83 0 011.563-.858c.615-.178 1.196-.22 1.743-.129a3.672 3.672 0 011.596.663c.499.355.947.861 1.344 1.516.392.636.722 1.416.988 2.338.289 1 .43 1.885.424 2.657.008.747-.097 1.391-.315 1.933a3.33 3.33 0 01-.956 1.338c-.42.35-.918.609-1.494.775a4.232 4.232 0 01-1.771.138 3.988 3.988 0 01-1.606-.692c-.503-.375-.961-.877-1.372-1.508-.392-.636-.719-1.406-.98-2.309zm31.794-15.215l3.881 13.43c.25.865.212 1.636-.113 2.313-.33.657-.927 1.111-1.792 1.36-.865.25-1.612.186-2.242-.194-.636-.4-1.079-1.031-1.329-1.896L156.02 40.36c-.25-.864-.191-1.631.178-2.3.383-.693 1.006-1.165 1.871-1.415l5.678-1.64c1.152-.334 2.236-.511 3.249-.534 1.008-.041 1.911.093 2.709.404a5.09 5.09 0 012.081 1.366c.576.625 1.006 1.427 1.289 2.407.344 1.191.422 2.251.232 3.18-.176.905-.55 1.7-1.122 2.386-.558.66-1.271 1.22-2.138 1.68-.847.452-1.78.826-2.798 1.12l-4.583 1.325-1.416-4.9 4.727-1.366c.634-.183 1.102-.401 1.403-.655.301-.254.388-.602.261-1.044-.139-.48-.408-.725-.806-.735-.385-.034-.885.037-1.5.215l-3.256.941zm-5.296 3.935l1.239-.358c.903-.261 1.648-.206 2.234.166.587.372.969.866 1.146 1.48.183.634.129 1.275-.163 1.921-.297.627-.898 1.072-1.801 1.333l-1.239.358c-.903.26-1.648.205-2.234-.167-.573-.396-.951-.912-1.134-1.546-.178-.615-.127-1.233.151-1.855.298-.627.898-1.07 1.801-1.332zm1.716 5.937l10.173-2.94c.904-.26 1.651-.196 2.243.195.586.372.965.856 1.137 1.451.184.635.129 1.275-.163 1.921-.297.628-.898 1.072-1.801 1.333l-10.173 2.94c-.903.26-1.648.205-2.234-.167-.573-.396-.951-.912-1.134-1.546-.172-.595-.11-1.207.188-1.834.292-.647.88-1.097 1.764-1.353z" fill="#fff"/></g><defs><filter id="filter0_d_7437_3921" x="89.688" y="151.981" width="118.704" height="61.563" filterUnits="userSpaceOnUse" color-interpolation-filters="sRGB"><feFlood flood-opacity="0" result="BackgroundImageFix"/><feColorMatrix in="SourceAlpha" values="0 0 0 0 0 0 0 0 0 0 0 0 0 0 0 0 0 0 127 0" result="hardAlpha"/><feOffset dy="2"/><feComposite in2="hardAlpha" operator="out"/><feColorMatrix values="0 0 0 0 0 0 0 0 0 0 0 0 0 0 0 0 0 0 0.25 0"/><feBlend in2="BackgroundImageFix" result="effect1_dropShadow_7437_3921"/><feBlend in="SourceGraphic" in2="effect1_dropShadow_7437_3921" result="shape"/></filter><filter id="filter1_d_7437_3921" x="52.787" y="86.694" width="161.314" height="84.348" filterUnits="userSpaceOnUse" color-interpolation-filters="sRGB"><feFlood flood-opacity="0" result="BackgroundImageFix"/><feColorMatrix in="SourceAlpha" values="0 0 0 0 0 0 0 0 0 0 0 0 0 0 0 0 0 0 127 0" result="hardAlpha"/><feOffset dy="2"/><feComposite in2="hardAlpha" operator="out"/><feColorMatrix values="0 0 0 0 0 0 0 0 0 0 0 0 0 0 0 0 0 0 0.25 0"/><feBlend in2="BackgroundImageFix" result="effect1_dropShadow_7437_3921"/><feBlend in="SourceGraphic" in2="effect1_dropShadow_7437_3921" result="shape"/></filter><filter id="filter2_d_7437_3921" x=".408" y=".144" width="207.661" height="126.476" filterUnits="userSpaceOnUse" color-interpolation-filters="sRGB"><feFlood flood-opacity="0" result="BackgroundImageFix"/><feColorMatrix in="SourceAlpha" values="0 0 0 0 0 0 0 0 0 0 0 0 0 0 0 0 0 0 127 0" result="hardAlpha"/><feOffset dy="2"/><feComposite in2="hardAlpha" operator="out"/><feColorMatrix values="0 0 0 0 0 0 0 0 0 0 0 0 0 0 0 0 0 0 0.25 0"/><feBlend in2="BackgroundImageFix" result="effect1_dropShadow_7437_3921"/><feBlend in="SourceGraphic" in2="effect1_dropShadow_7437_3921" result="shape"/></filter></defs></svg>