<svg width="43" height="56" fill="none" xmlns="http://www.w3.org/2000/svg"><path d="M1.154.012a1 1 0 10-.308 1.976L1.154.012zm5.94 50.632a1 1 0 00.578 1.29l8.41 3.205a1 1 0 10.712-1.869L9.32 50.422l2.848-7.476a1 1 0 10-1.868-.712l-3.205 8.41zM.846 1.988c10.101 1.58 18.94 3.949 25.665 6.971 6.768 3.042 11.2 6.659 12.807 10.613 1.553 3.822.585 8.305-4.34 13.485-4.944 5.2-13.736 10.925-27.359 17.03l.818 1.826c13.708-6.143 22.78-11.998 27.99-17.477 5.229-5.5 6.703-10.794 4.744-15.617-1.906-4.69-6.942-8.583-13.84-11.684C20.389 4.015 11.36 1.608 1.154.012L.846 1.988z" fill="#fff"/></svg>