<svg width="249" height="149" fill="none" xmlns="http://www.w3.org/2000/svg"><g filter="url(#filter0_d_7421_3922)"><rect y="92.412" width="171.799" height="55.032" rx="12.7" transform="rotate(-7.496 0 92.412)" fill="#fff" shape-rendering="crispEdges"/><path d="M31.763 115.365c-.653.086-1.11.335-1.373.746-.263.412-.366.833-.31 1.264.061.46.272.854.632 1.184.36.33.867.452 1.52.366l10.147-1.335c.653-.086 1.118-.336 1.396-.749.277-.414.386-.851.325-1.311-.056-.43-.272-.809-.648-1.137-.375-.328-.889-.449-1.541-.363l-10.148 1.335zm4.22 6.44c.085.638.326 1.096.725 1.376.412.263.84.365 1.285.306.46-.06.855-.271 1.185-.631.328-.375.45-.882.366-1.52l-1.338-10.169c-.084-.638-.333-1.096-.747-1.374-.414-.277-.85-.386-1.31-.325-.445.058-.832.275-1.16.65-.313.374-.427.879-.344 1.517l1.339 10.17zm17.839-8.052l-.068-5.334c-.014-.677.138-1.241.457-1.69.316-.464.808-.74 1.475-.828l8.857-1.165c.608-.08 1.115.042 1.52.366.417.307.666.765.746 1.373.08.608-.033 1.121-.34 1.539-.31.403-.776.645-1.399.727l-7.254.955.026 1.92a11.591 11.591 0 011.337-.334 8.05 8.05 0 01.84-.156 16.8 16.8 0 01.842-.133 12.675 12.675 0 012.706-.085c.852.054 1.601.242 2.247.565a4.042 4.042 0 011.63 1.37c.425.593.7 1.372.828 2.336.115.876.055 1.683-.18 2.424a4.811 4.811 0 01-1.212 1.97c-.575.559-1.32 1.034-2.235 1.426-.901.375-1.967.644-3.199.806-1.38.181-2.671.17-3.875-.034-1.204-.203-2.237-.596-3.098-1.177-.397-.264-.691-.55-.883-.857a2.03 2.03 0 01-.323-.908 1.68 1.68 0 01.062-.733c.088-.253.202-.472.344-.656.154-.202.337-.362.548-.48.209-.133.425-.214.647-.244.237-.031.488-.018.752.037.277.039.554.139.832.298.292.158.627.295 1.005.412.377.116.774.207 1.19.273.414.051.834.087 1.26.106.437.003.856-.022 1.257-.075.98-.129 1.683-.342 2.112-.64.441-.315.632-.702.571-1.162-.066-.504-.352-.844-.858-1.019-.508-.19-1.326-.21-2.453-.062-.371.049-.763.115-1.174.2-.413.069-.818.145-1.215.228-.382.08-.741.158-1.079.232-.324.058-.575.098-.753.122-.683.09-1.271-.022-1.765-.334-.48-.329-.724-.855-.728-1.579zm22.527-2.353c.17 1.291.485 2.426.946 3.407.476.979 1.08 1.79 1.814 2.433a6.658 6.658 0 002.598 1.333c.983.248 2.076.293 3.278.135 1.186-.157 2.222-.489 3.106-.998a6.516 6.516 0 002.161-1.982c.557-.813.94-1.753 1.146-2.822.22-1.07.249-2.236.083-3.497-.17-1.291-.508-2.424-1.013-3.398-.491-.977-1.117-1.778-1.878-2.402a6.645 6.645 0 00-2.598-1.333c-.986-.263-2.05-.319-3.192-.169-1.112.146-2.103.473-2.972.98a6.91 6.91 0 00-2.165 1.96c-.574.8-.979 1.736-1.215 2.808-.236 1.073-.27 2.254-.1 3.545zm4.45-.586a7.615 7.615 0 01-.04-1.851c.079-.553.228-1.026.448-1.417.218-.406.507-.731.868-.974.36-.244.778-.397 1.252-.46.475-.062.91-.029 1.304.101.409.127.778.35 1.107.669.328.319.603.743.824 1.272.218.515.374 1.128.468 1.84.102.772.107 1.443.016 2.013-.078.554-.228 1.019-.45 1.395a2.494 2.494 0 01-.858.883c-.35.212-.746.347-1.191.405a3.15 3.15 0 01-1.326-.097 2.975 2.975 0 01-1.11-.691 4.336 4.336 0 01-.846-1.27c-.219-.515-.374-1.12-.466-1.818zm12.261-1.613c.17 1.291.486 2.426.947 3.407.475.979 1.08 1.79 1.814 2.433a6.658 6.658 0 002.597 1.333c.984.248 2.076.293 3.278.135 1.187-.156 2.222-.489 3.106-.998a6.515 6.515 0 002.162-1.982c.557-.813.939-1.753 1.145-2.822.221-1.07.249-2.236.083-3.497-.17-1.291-.507-2.424-1.013-3.398-.491-.977-1.117-1.778-1.878-2.402a6.638 6.638 0 00-2.598-1.333c-.985-.263-2.049-.32-3.191-.169-1.113.146-2.104.473-2.973.98a6.908 6.908 0 00-2.164 1.96c-.574.8-.98 1.736-1.215 2.808-.236 1.073-.27 2.254-.1 3.545zm4.45-.586a7.61 7.61 0 01-.039-1.851c.078-.553.227-1.026.447-1.417.219-.406.508-.731.868-.974a2.86 2.86 0 011.253-.459 2.9 2.9 0 011.303.1c.41.127.779.35 1.107.669.329.319.604.743.824 1.273.219.514.375 1.127.469 1.84.101.771.106 1.442.015 2.012-.078.554-.228 1.019-.45 1.395a2.487 2.487 0 01-.857.883c-.35.212-.747.347-1.192.405a3.15 3.15 0 01-1.326-.097 2.975 2.975 0 01-1.11-.691 4.332 4.332 0 01-.846-1.27c-.218-.514-.373-1.12-.465-1.818zm12.262-1.613c.17 1.291.485 2.426.946 3.407.476.979 1.081 1.79 1.814 2.433a6.665 6.665 0 002.598 1.333c.983.248 2.076.293 3.278.135 1.187-.156 2.222-.489 3.106-.997a6.525 6.525 0 002.161-1.983c.557-.813.939-1.753 1.146-2.822.221-1.07.249-2.236.083-3.497-.17-1.291-.508-2.423-1.013-3.398-.491-.977-1.117-1.778-1.878-2.402a6.66 6.66 0 00-2.598-1.333c-.985-.263-2.049-.32-3.192-.169-1.112.147-2.103.473-2.972.98a6.92 6.92 0 00-2.165 1.96c-.573.8-.979 1.736-1.215 2.808-.236 1.073-.269 2.254-.099 3.545zm4.45-.586a7.612 7.612 0 01-.039-1.851c.078-.553.227-1.026.447-1.417.218-.406.507-.731.868-.974.36-.244.778-.397 1.252-.459.475-.063.91-.029 1.304.1.409.127.778.35 1.107.669.328.319.603.743.824 1.273.218.514.375 1.128.468 1.84.102.771.107 1.442.016 2.012-.078.554-.228 1.019-.45 1.395a2.482 2.482 0 01-.858.883 3.033 3.033 0 01-1.191.406c-.46.06-.902.028-1.326-.098a2.98 2.98 0 01-1.11-.691 4.318 4.318 0 01-.846-1.27c-.219-.514-.374-1.12-.466-1.818zm25.132-7.676l1.365 10.37c.087.668-.027 1.234-.343 1.698-.318.449-.811.718-1.479.806-.667.088-1.213-.044-1.636-.396-.426-.367-.683-.884-.77-1.551l-1.57-11.928c-.088-.668.042-1.228.39-1.681.361-.47.875-.75 1.543-.837l4.383-.577c.891-.117 1.712-.127 2.464-.03.75.083 1.403.283 1.958.603a3.81 3.81 0 011.387 1.244c.356.526.583 1.168.683 1.924.121.92.059 1.713-.185 2.379a3.894 3.894 0 01-1.098 1.639c-.487.426-1.077.76-1.769 1.002-.678.24-1.41.412-2.196.516l-3.539.465-.497-3.783 3.649-.48c.49-.064.86-.174 1.112-.327.251-.154.354-.402.309-.743-.048-.37-.22-.582-.513-.634-.281-.069-.659-.072-1.133-.01l-2.515.331zm-4.359 2.317l.957-.126c.698-.092 1.242.033 1.634.374.392.341.619.748.682 1.223.064.49-.048.957-.336 1.403-.291.43-.785.691-1.482.783l-.957.126c-.697.092-1.242-.033-1.634-.373a2.087 2.087 0 01-.665-1.271 1.965 1.965 0 01.32-1.355c.29-.431.784-.692 1.481-.784zm.604 4.584l7.855-1.033c.697-.092 1.243.04 1.637.395.392.341.618.742.678 1.202.065.489-.047.957-.336 1.402-.29.431-.784.692-1.481.784l-7.856 1.033c-.697.092-1.241-.033-1.633-.373a2.083 2.083 0 01-.666-1.271c-.06-.46.055-.905.345-1.336.289-.445.774-.713 1.457-.803z" fill="#FF6900"/></g><g filter="url(#filter1_d_7421_3922)"><rect x="66.244" width="188.799" height="55.032" rx="12.7" transform="rotate(15 66.244 0)" fill="#fff" shape-rendering="crispEdges"/><path d="M86.878 33.378c-.636-.17-1.154-.116-1.555.164-.4.28-.656.63-.768 1.05a1.9 1.9 0 00.13 1.335c.206.443.627.75 1.263.92l9.887 2.649c.636.17 1.16.117 1.576-.159.415-.276.682-.638.802-1.086.112-.42.058-.852-.163-1.299-.221-.446-.65-.755-1.286-.925l-9.886-2.649zm1.435 7.565c-.166.621-.119 1.137.143 1.548.28.4.637.659 1.07.775.448.12.894.077 1.336-.13.447-.221.754-.642.92-1.264l2.655-9.908c.166-.621.112-1.14-.165-1.554-.276-.415-.638-.682-1.086-.802-.434-.117-.874-.064-1.32.157-.432.225-.731.648-.898 1.27l-2.655 9.908zm33.155.425c-.255.954-.659 1.737-1.21 2.349a6.79 6.79 0 01-1.859 1.476c-.707.384-1.464.693-2.27.926a80.74 80.74 0 01-2.406.656l4.856 1.301c.607.163 1.035.472 1.286.926.253.44.301.956.142 1.548-.159.593-.467 1.022-.925 1.286-.44.254-.956.302-1.549.143l-10.601-2.84c-.651-.175-1.128-.504-1.432-.989a2.014 2.014 0 01-.202-1.587c.116-.434.291-.767.523-.999.237-.246.545-.443.925-.589a9.095 9.095 0 011.482-.416 38.94 38.94 0 002.11-.503c1.229-.306 2.25-.59 3.064-.852.813-.263 1.471-.52 1.973-.773.505-.267.88-.539 1.124-.814.244-.275.409-.572.494-.89.132-.491.016-.956-.347-1.394-.348-.434-.898-.752-1.65-.953a4.315 4.315 0 00-2.051-.062c-.66.148-1.335.355-2.025.619a2.46 2.46 0 01-.716.157 1.793 1.793 0 01-.614-.049 1.705 1.705 0 01-.724-.333 2.114 2.114 0 01-.475-.569 2.329 2.329 0 01-.244-.739 1.641 1.641 0 01.068-.772 2.2 2.2 0 01.361-.74 2.4 2.4 0 01.772-.63c.978-.527 2.075-.86 3.289-1 1.229-.136 2.509-.025 3.838.331.998.267 1.854.628 2.568 1.083.719.44 1.295.951 1.728 1.532.433.58.709 1.228.827 1.941.123.7.08 1.439-.13 2.22zm1.599 3.659c-.337 1.257-.48 2.427-.429 3.51.065 1.086.313 2.066.745 2.941a6.65 6.65 0 001.89 2.226c.814.605 1.806 1.065 2.977 1.379 1.156.31 2.24.398 3.251.267a6.522 6.522 0 002.755-1.005c.826-.538 1.539-1.26 2.138-2.169.615-.904 1.086-1.97 1.415-3.2.337-1.257.459-2.432.365-3.526-.08-1.09-.352-2.07-.817-2.938a6.65 6.65 0 00-1.89-2.226c-.809-.62-1.771-1.078-2.884-1.377-1.084-.29-2.124-.367-3.121-.232a6.922 6.922 0 00-2.75.983c-.836.52-1.568 1.23-2.197 2.13-.628.9-1.111 1.98-1.448 3.237zm4.336 1.161c.178-.664.402-1.24.671-1.725.284-.482.603-.86.956-1.138a2.692 2.692 0 011.175-.568 2.87 2.87 0 011.333.055c.462.124.851.32 1.166.591.329.274.585.622.766 1.042.182.42.273.917.275 1.49.005.56-.086 1.186-.272 1.88-.201.752-.453 1.373-.755 1.866-.284.481-.601.854-.95 1.116a2.489 2.489 0 01-1.13.488 3.03 3.03 0 01-1.256-.081 3.173 3.173 0 01-1.188-.598 2.974 2.974 0 01-.76-1.063 4.316 4.316 0 01-.296-1.497c-.006-.559.083-1.178.265-1.858zm18.466 4.948c-.337 1.258-.48 2.428-.429 3.51.065 1.087.314 2.067.745 2.942a6.651 6.651 0 001.89 2.226c.814.605 1.806 1.065 2.977 1.379 1.156.31 2.24.398 3.251.267a6.531 6.531 0 002.756-1.005c.825-.538 1.538-1.26 2.138-2.169.614-.904 1.085-1.97 1.415-3.2.337-1.257.458-2.432.364-3.527-.08-1.09-.352-2.069-.816-2.937a6.651 6.651 0 00-1.89-2.226c-.81-.62-1.772-1.079-2.885-1.377-1.084-.29-2.124-.368-3.121-.232a6.913 6.913 0 00-2.749.983c-.837.52-1.569 1.23-2.198 2.13-.628.9-1.111 1.98-1.448 3.236zm4.336 1.162c.178-.665.402-1.24.672-1.725.284-.482.602-.861.955-1.138a2.692 2.692 0 011.175-.569 2.87 2.87 0 011.333.056c.462.123.851.32 1.166.59.329.275.585.622.766 1.043.182.42.274.917.275 1.49.005.56-.086 1.186-.271 1.88-.202.752-.454 1.373-.756 1.866-.284.481-.6.853-.95 1.116a2.49 2.49 0 01-1.129.487 3.036 3.036 0 01-1.257-.08 3.171 3.171 0 01-1.188-.598 2.974 2.974 0 01-.76-1.063 4.317 4.317 0 01-.296-1.497c-.005-.56.083-1.178.265-1.858zM162.15 55.5c-.337 1.258-.48 2.427-.429 3.51.065 1.086.314 2.067.746 2.942a6.658 6.658 0 001.889 2.226c.814.605 1.806 1.064 2.977 1.378 1.156.31 2.24.399 3.251.267a6.526 6.526 0 002.756-1.004c.826-.538 1.538-1.261 2.138-2.17.614-.904 1.086-1.97 1.415-3.199.337-1.257.458-2.433.364-3.527-.08-1.09-.352-2.07-.816-2.937a6.65 6.65 0 00-1.89-2.226c-.81-.62-1.771-1.08-2.884-1.377-1.084-.29-2.125-.368-3.121-.232a6.918 6.918 0 00-2.75.982c-.836.52-1.569 1.23-2.197 2.13-.629.9-1.112 1.98-1.449 3.237zm4.336 1.162c.179-.665.402-1.24.672-1.726.284-.481.602-.86.955-1.138a2.691 2.691 0 011.175-.568 2.87 2.87 0 011.333.055c.463.124.851.321 1.166.591.329.275.585.622.767 1.042.181.42.273.918.274 1.491.005.56-.085 1.186-.271 1.88-.202.751-.453 1.373-.756 1.865-.284.482-.6.854-.949 1.117a2.5 2.5 0 01-1.13.487 3.034 3.034 0 01-1.257-.081 3.168 3.168 0 01-1.187-.597 2.977 2.977 0 01-.761-1.064c-.178-.435-.276-.934-.296-1.497-.005-.559.083-1.178.265-1.857zm11.946 3.2c-.337 1.258-.48 2.428-.43 3.51.066 1.087.314 2.067.746 2.942a6.651 6.651 0 001.89 2.226c.813.605 1.806 1.065 2.976 1.379 1.157.31 2.24.398 3.252.267a6.527 6.527 0 002.755-1.005c.826-.538 1.539-1.26 2.138-2.169.614-.904 1.086-1.97 1.415-3.2.337-1.257.458-2.432.364-3.526-.079-1.09-.351-2.07-.816-2.938a6.651 6.651 0 00-1.89-2.226c-.81-.62-1.771-1.079-2.884-1.377-1.084-.29-2.124-.368-3.121-.232a6.918 6.918 0 00-2.75.983c-.836.52-1.569 1.23-2.197 2.13-.629.9-1.111 1.98-1.448 3.237zm4.336 1.163a7.63 7.63 0 01.671-1.726c.284-.482.603-.861.956-1.138a2.689 2.689 0 011.174-.568 2.869 2.869 0 011.333.055c.463.124.852.32 1.166.591.33.274.585.621.767 1.042.182.42.273.917.274 1.49.005.56-.085 1.186-.271 1.88-.201.752-.453 1.373-.755 1.866-.284.481-.601.853-.95 1.116a2.489 2.489 0 01-1.13.487 3.029 3.029 0 01-1.256-.08 3.171 3.171 0 01-1.188-.598 2.99 2.99 0 01-.761-1.063 4.364 4.364 0 01-.296-1.497c-.005-.56.084-1.178.266-1.858zm26.156 2.523l-2.707 10.103c-.174.65-.496 1.13-.966 1.438-.466.293-1.024.353-1.675.178-.65-.174-1.104-.505-1.36-.992-.253-.501-.292-1.077-.118-1.727l3.113-11.621c.175-.65.509-1.118 1.004-1.404.513-.296 1.095-.357 1.745-.183l4.271 1.144c.868.233 1.63.538 2.288.915.662.364 1.188.799 1.579 1.306.409.497.677 1.057.804 1.68.128.623.093 1.303-.105 2.04-.24.896-.6 1.605-1.081 2.127a3.896 3.896 0 01-1.641 1.094c-.613.207-1.286.29-2.018.249a10.767 10.767 0 01-2.226-.364l-3.447-.924.987-3.685 3.556.952c.477.128.861.169 1.152.123.291-.046.481-.235.57-.567.097-.362.02-.623-.232-.783-.233-.17-.581-.318-1.043-.442l-2.45-.657zm-4.913.473l.932.25c.679.182 1.135.505 1.366.97.232.465.286.929.162 1.391-.128.477-.41.866-.847 1.167-.433.287-.989.34-1.669.157l-.932-.25c-.679-.181-1.135-.505-1.366-.97a2.076 2.076 0 01-.129-1.428c.124-.463.395-.84.814-1.13.433-.287.989-.339 1.669-.157zm-1.197 4.466l7.653 2.05c.679.183 1.133.513 1.361.993.232.465.287.921.167 1.37-.127.476-.41.865-.847 1.166-.433.287-.989.34-1.669.157l-7.653-2.05c-.679-.182-1.134-.506-1.366-.97a2.082 2.082 0 01-.129-1.43c.12-.447.397-.815.83-1.101.437-.302.988-.363 1.653-.185z" fill="#FF6900"/></g><defs><filter id="filter0_d_7421_3922" x="-1.058" y="68.942" width="181.744" height="81.208" filterUnits="userSpaceOnUse" color-interpolation-filters="sRGB"><feFlood flood-opacity="0" result="BackgroundImageFix"/><feColorMatrix in="SourceAlpha" values="0 0 0 0 0 0 0 0 0 0 0 0 0 0 0 0 0 0 127 0" result="hardAlpha"/><feOffset dx="1.058" dy="1.058"/><feGaussianBlur stdDeviation="1.058"/><feComposite in2="hardAlpha" operator="out"/><feColorMatrix values="0 0 0 0 0 0 0 0 0 0 0 0 0 0 0 0 0 0 0.25 0"/><feBlend in2="BackgroundImageFix" result="effect1_dropShadow_7421_3922"/><feBlend in="SourceGraphic" in2="effect1_dropShadow_7421_3922" result="shape"/></filter><filter id="filter1_d_7421_3922" x="50.942" y="-1.058" width="200.843" height="106.255" filterUnits="userSpaceOnUse" color-interpolation-filters="sRGB"><feFlood flood-opacity="0" result="BackgroundImageFix"/><feColorMatrix in="SourceAlpha" values="0 0 0 0 0 0 0 0 0 0 0 0 0 0 0 0 0 0 127 0" result="hardAlpha"/><feOffset dx="1.058" dy="1.058"/><feGaussianBlur stdDeviation="1.058"/><feComposite in2="hardAlpha" operator="out"/><feColorMatrix values="0 0 0 0 0 0 0 0 0 0 0 0 0 0 0 0 0 0 0.25 0"/><feBlend in2="BackgroundImageFix" result="effect1_dropShadow_7421_3922"/><feBlend in="SourceGraphic" in2="effect1_dropShadow_7421_3922" result="shape"/></filter></defs></svg>