<svg width="283" height="501" fill="none" xmlns="http://www.w3.org/2000/svg"><path d="M556.839 508.062c-6.542 15.139-18.687 24.728-35.446 28.819-16.774 4.096-38.005 2.631-62.33-4.166-48.64-13.591-109.144-48.358-169.901-101.196-60.757-52.838-110.047-113.555-140.653-168.882-15.306-27.669-25.859-53.846-30.898-76.91-5.033-23.044-4.52-42.749 2.022-57.888 6.541-15.139 18.687-24.728 35.445-28.82 16.774-4.095 38.006-2.63 62.331 4.167 48.64 13.591 109.144 48.358 169.901 101.196 60.757 52.838 110.047 113.555 140.653 168.882 15.306 27.669 25.859 53.846 30.897 76.91 5.034 23.044 4.521 42.749-2.021 57.888z" stroke="#FA5785" stroke-width="6"/><path d="M622.473 263.115c-1.905 16.382-11.313 33.703-27.194 51.143-15.895 17.456-38.123 34.849-65.213 51.157-54.169 32.612-127.214 60.55-206.25 75.93-79.036 15.381-148.818 15.238-197.737 2.688-24.464-6.277-43.584-15.623-56.063-27.557-12.468-11.923-18.191-26.299-16.287-42.681 1.904-16.382 11.313-33.703 27.193-51.143 15.896-17.455 38.124-34.848 65.213-51.157 54.169-32.612 127.215-60.55 206.251-75.93 79.036-15.381 148.817-15.238 197.736-2.688 24.465 6.277 43.584 15.623 56.063 27.557 12.468 11.923 18.192 26.299 16.288 42.681z" stroke="#FA5785" stroke-width="6"/></svg>