<svg width="452" height="408" fill="none" xmlns="http://www.w3.org/2000/svg"><g filter="url(#filter0_d_907_5791)" stroke="#B283FF" stroke-width="6"><path d="M389.808 92.433c1.794 18.454-5.942 34.966-22.147 48.964-16.208 14.001-40.692 25.296-71.772 33.303-62.141 16.009-150.072 18.726-249.047 4.229-98.974-14.497-189.98-43.422-257.071-78.36-33.556-17.473-60.974-36.371-80.41-55.593-19.432-19.217-30.646-38.505-32.439-56.959-1.794-18.454 5.942-34.966 22.147-48.964 16.208-14 40.692-25.296 71.771-33.303 62.142-16.009 150.073-18.725 249.047-4.229 98.974 14.497 189.981 43.422 257.072 78.36 33.555 17.474 60.974 36.371 80.41 55.593 19.432 19.217 30.646 38.505 32.439 56.959z"/><path d="M316.24-182.574c7.678 16.877 7.61 39.183.388 65.535-7.223 26.357-21.523 56.422-41.853 88.32-40.646 63.78-105.019 134.301-183.51 196.309-78.493 62.008-156.029 103.593-217.871 120.779-30.929 8.596-57.791 11.049-78.835 7.023-21.04-4.025-36.001-14.459-43.679-31.336-7.677-16.877-7.609-39.183-.388-65.534 7.224-26.357 21.524-56.422 41.853-88.321 40.647-63.779 105.019-134.3 183.511-196.309 78.492-62.008 156.028-103.592 217.87-120.779 30.93-8.596 57.791-11.048 78.836-7.022 21.04 4.025 36.001 14.458 43.678 31.335z"/></g><defs><filter id="filter0_d_907_5791" x="-330.315" y="-219.1" width="727.361" height="527.682" filterUnits="userSpaceOnUse" color-interpolation-filters="sRGB"><feFlood flood-opacity="0" result="BackgroundImageFix"/><feColorMatrix in="SourceAlpha" values="0 0 0 0 0 0 0 0 0 0 0 0 0 0 0 0 0 0 127 0" result="hardAlpha"/><feOffset dy="4"/><feGaussianBlur stdDeviation="2"/><feComposite in2="hardAlpha" operator="out"/><feColorMatrix values="0 0 0 0 0 0 0 0 0 0 0 0 0 0 0 0 0 0 0.25 0"/><feBlend in2="BackgroundImageFix" result="effect1_dropShadow_907_5791"/><feBlend in="SourceGraphic" in2="effect1_dropShadow_907_5791" result="shape"/></filter></defs></svg>