<svg width="199" height="43" fill="none" xmlns="http://www.w3.org/2000/svg"><path d="M135.377 21.573V14.55h-4.222v13.856h3.919l4.574-6.964v6.964h4.222V14.551h-3.918l-4.575 7.022zm-24.355-1.42c0 .503-.251 1.476-1.547 1.476h-1.495v-3.667h1.684c.448 0 1.358.366 1.358 1.448v.743zm-.906-5.602h-6.592v13.856h4.456v-3.401h2.136c2.882 0 5.243-1.589 5.243-4.418v-1.622c0-2.826-2.361-4.415-5.243-4.415zm63.132 7.332c0 2.109-.553 2.415-1.35 2.78-.347.162-1.29.127-1.29.127v3.617h1.748c3.751 0 5.136-2.186 5.193-7.072.014-1.107-.008-2.196 0-3.17h2.499v10.242h4.458V14.551h-11.258v7.332zm-75.713 1.862c0 .918-.749 1.67-1.667 1.67h-.38a1.674 1.674 0 01-1.67-1.67v-4.493c0-.919.752-1.666 1.67-1.666h.38a1.67 1.67 0 011.667 1.666v4.493zm-.766-9.42h-2.182c-2.885 0-5.246 2.056-5.246 5.242v3.867c0 3.204 2.361 5.246 5.246 5.246h2.182c2.88 0 5.244-2.06 5.244-5.246v-3.867c0-3.356-2.365-5.242-5.244-5.242zm61.782.226h-4.825l-2.353 5.234h-1.095V14.55h-4.461v13.856h4.461V23.48h1.091l2.407 4.927h5.115l-3.78-6.99 3.44-6.866zm5.521 8.594h5.023V19.85h-5.023v-1.684h5.478V14.55h-9.931v13.856h10.344V24.79h-5.891v-1.645zm28.267 1.849h-1.678V21.97h1.495c1.261 0 1.547.924 1.547 1.524 0 1.244-1.025 1.5-1.364 1.5zm.456-6.402h-2.134V14.55h-4.458v13.856h6.592c2.883 0 5.244-1.594 5.244-4.42v-.976c0-2.83-2.361-4.42-5.244-4.42zm-68.048 1.085h-3.802V14.55h-4.458v13.856h4.458V23.48h3.802v4.927h4.458V14.551h-4.458v5.126zm-41.376 0h-3.8V14.55h-4.458v13.856h4.457V23.48h3.802v4.927h4.46V14.551h-4.46v5.126zM53.41 33.04a16.236 16.236 0 01-7.087 4.174V5.789a16.25 16.25 0 017.086 4.169 16.226 16.226 0 014.776 11.54c0 4.363-1.696 8.462-4.776 11.542zM21.082 22.891V6.097L41.86 20.116v16.79L21.083 22.89zm-4.456 14.323a16.189 16.189 0 01-7.088-4.174 16.206 16.206 0 01-4.782-11.539c0-4.36 1.7-8.461 4.782-11.543a16.24 16.24 0 017.088-4.17v31.426zM41.859.72v14.017L21.083.72C9.605.721.3 10.025.3 21.501c0 11.48 9.305 20.78 20.783 20.78V28.263L41.86 42.281c11.481 0 20.786-9.3 20.786-20.782 0-11.474-9.305-20.78-20.786-20.78z" fill="#0080C8"/></svg>