<svg width="179" height="43" fill="none" xmlns="http://www.w3.org/2000/svg"><path d="M56.075 30.939c-1.61.524-3.299.75-4.757.75-4.603 0-9.513-2.476-9.513-8.925 0-6.075 4.45-9.075 10.204-9.075 1.458 0 2.685.15 4.066.6l-.153 3c-1.074-.376-2.225-.676-3.606-.676-4.143 0-6.522 2.476-6.522 6.076 0 4.274 2.993 6 6.292 6 1.61 0 2.915-.375 3.836-.75l.153 3zM99.04 13.838v17.625h-3.759v-14.7h-7.289v14.7H84.31V13.838h14.73zm-25.241 0l-4.527 12.675-4.526-12.675h-6.292v17.625h3.683V16.388h.077l5.294 15.075h3.529l5.294-15.075h.077v15.075h3.682V13.838H73.8zm47.415 0v3.15h-8.056v3.675h2.993c5.37 0 6.521 3.45 6.521 5.7 0 1.875-1.304 5.1-6.521 5.1h-6.675V13.838h11.738zm-8.056 14.85h2.302c2.072 0 3.299-.825 3.299-2.7 0-1.8-1.227-2.7-3.299-2.7h-2.302v5.4zm21.483-14.85l7.289 17.625h-4.22l-1.535-3.975h-7.595l-1.535 3.975h-3.989l7.288-17.625h4.297zm.46 10.725l-2.685-7.2h-.077l-2.532 7.2h5.294zm12.276-10.725v7.125h7.442v-7.125h3.683v17.625h-3.683v-7.575h-7.442v7.575h-3.683V13.838h3.683zm19.411 0v7.575h.077l6.675-7.575h4.45l-7.596 8.025 8.056 9.675h-4.757l-6.905-8.85h-.076v8.775h-3.607V13.838h3.683zM40.27 1.388c-.23-.3-3.223 1.2-3.223 1.2.077 0 .154-.075.154-.075.613-.375 1.534-.9 1.15-1.275-.153-.225-.613-.075-1.764.525-.537.3-3.376 1.5-6.215 2.7-2.455 1.05-6.752 2.85-7.135 3.3l-.077.075c-.077.075-.077.15-.153.225-.154.3-.307.825-.46 1.5v.15c-.154.826-.384 1.876-.538 3.076-.537 3.525-1.074 8.7-1.074 8.7s-.153 3.524-.46 5.25c-.077.3-.154.524-.154.75 0 .075-.076.15-.076.3-.154.3-.307.6-.538.824-.69.75-2.301.526-2.762.45-1.074-.075-2.148-.9-2.225-1.05-.153-.225-.844-1.2-1.841-1.275-.307 0-1.458.15-1.765.15-.383 0-.92-.525-1.534-.6-.614-.075-1.535.526-1.535.526s2.379.9 2.686 1.274c.307.375.997 1.425 1.841 1.8s3.913 3.75 3.913 3.75.614.6 1.611 1.425c-.844.3-1.841.526-2.838.6-6.752.75-12.583-3.6-13.274-10.124-.153-1.426-.077-2.85.307-4.2.384-1.575 1.074-3.15 2.225-4.575 1.995-2.475 4.834-4.125 8.133-4.425 1.995-.226 4.066.075 5.908.75 0-.226 0-.376-.077-.6-1.841-.75-3.836-.976-5.985-.75-3.375.374-6.368 1.95-8.516 4.5-1.534 1.8-2.455 3.9-2.685 6.15-.077.3-.077.524-.154.974-.076.75-.076 2.25.077 3 .767 6.526 6.905 11.325 13.81 10.575a13.036 13.036 0 004.143-1.125c.998.75 2.225 1.425 3.453 2.026 3.222 1.425 7.135 1.5 8.056 1.575 1.841.224 3.453 2.474 3.99 2.925.537.45 3.99-.3 3.99-.3s-.23-.675-.384-1.575c-.154-.9-1.151-1.276-1.305-1.5-.153-.225-4.603-2.175-5.37-2.625-.69-.45-1.612-1.35-2.532-2.85-.92-1.5-.537-2.7-.384-2.925.154-.3.537-.3.767-.75.23-.375.077-.375 0-.6 0-.226.077-.3.23-.675l.154-.3.077-.376c.076-.375 0 0 .076-.15l.077-.15s0-.224.077-.3c.077-.075-.154-.3-.077-.45.077-.15.077-.15.154-.524.076-.3 0-.15.076-.526 0-.3.154-.15.307-.375.154-.225-.153-.45-.153-.45s0-.15.383-.75c.307-.674 0 0 .077-.3.154-.3-.153-.525-.153-.75-.537-.225-.384-.15-.384-.45.077-.3 0 0 .154-.3.153-.3.076-.45.076-.45l-.23-.674.154-.15c.153-.15 0-.526 0-.526l-.307-.75s0-.3.076-.524c.077-.15-.23-.976-.23-.976l.154-.75-.23-1.125-.154-.975s-.077-1.425-.077-2.024c0-.526 0-1.2.154-1.95.153-.75 2.302-1.65 2.608-2.1.23-.45-1.304.074-1.304.074s2.839-.75 2.992-1.125c.154-.3-1.841.075-1.841.075-.153.075 0 0 0 0 .767-.15 2.762-.675 3.453-1.2.767-.675-1.382-.15-1.688-.075.383-.075 2.685-.75 2.992-1.425.153-.375-1.765-.075-1.765-.075.998-.225 2.148-.525 2.839-.975 1.381-.675 1.535-1.2 1.228-1.35-.307-.15-2.609.6-2.609.6-.077 0-.077 0-.154.075.077 0 .154-.075.154-.075.69-.225 1.381-.525 1.841-.825.844-.525 1.919-1.275 1.612-1.725zm-3.683 1.425c.153-.075.23-.075.307-.15-.154 0-.23.075-.307.15z" fill="#00528E"/><path d="M34.208.563c-.23-.225-1.688.45-1.688.45s-8.67 4.05-12.506 6c-.843.45-1.841 1.126-1.841 2.4 0 4.2.844 10.35 1.304 13.575.384 3.226.768 4.576.69 4.65 0-.075.154-.375.308-.975.383-1.65.46-5.25.46-5.25s.537-5.25 1.074-8.7c.384-2.324.614-4.2 1.151-4.95.307-.524 7.366-3.375 8.593-3.974 1.535-.675 1.688-.826 1.688-1.35.077-.526-1.534.075-1.534.075s1.38-.75 1.918-1.05c.307-.3.614-.676.383-.9zM5.13 15.713l2.225-3.074-2.762 2.7-1.304-4.425.23 4.5-2.302-1.425 2.072 2.1-2.916.75 2.992-.15-2.455 3.3 2.916-2.776 1.227 4.125-.23-4.125 2.302 1.275-2.149-2.1 2.916-.825-2.762.15z" fill="#00A1E9"/></svg>