<svg width="115" height="61" fill="none" xmlns="http://www.w3.org/2000/svg"><path d="M16.696 20.458h5.732v7.01h6.117v-7.01h5.734v19.135h-5.734v-7.578h-6.117v7.578h-5.732V20.458zm38.034 0v19.135h-5.54V25.006h-3.633v5.492c0 2.464-.191 5.494-1.72 7.2-1.529 1.893-4.395 2.461-7.645 1.893v-4.737c3.057.569 3.823-.568 3.823-4.357v-10.04h14.717l-.002.001zm4.78 0h5.732l3.25 11.368 3.249-11.368h5.734l2.675 19.135h-5.352L73.46 29.362l-3.057 10.23h-3.824l-3.059-10.23-1.337 10.23h-5.35l2.676-19.134zm22.742 0h5.734v7.768l5.543-7.768h6.306l-7.263 9.472 7.454 9.661h-6.88l-5.162-7.767v7.767H82.25V20.458h.002zM57.597 0C23.195 0 .45 12.313.45 30.5.45 48.687 23.195 61 57.597 61s57.148-12.504 57.148-30.5c0-17.996-22.553-30.5-57.148-30.5zm0 58.157c-32.3 0-53.898-11.178-53.898-27.659 0-16.48 21.598-27.657 53.898-27.657 32.3 0 53.898 10.987 53.898 27.657s-21.407 27.66-53.898 27.66zm0-52.664C27.209 5.493 6.949 15.534 6.949 30.5c0 14.966 20.26 25.006 50.648 25.006 30.387 0 50.648-10.04 50.648-25.006 0-14.966-20.259-25.007-50.648-25.007zm0 49.444c-30.007 0-50.075-9.85-50.075-24.437 0-14.587 20.068-24.44 50.075-24.44s50.076 9.851 50.076 24.438c0 14.587-20.069 24.438-50.076 24.438" fill="#004A8B"/></svg>