<svg width="145" height="45" fill="none" xmlns="http://www.w3.org/2000/svg"><path d="M35.98 37.848l-4.154-6.905-4.067 6.905h-4.87l6.256-10.4-6.377-9.654h5.088l4.085 6.446 3.896-6.446h4.87l-6.274 9.97 6.446 10.084H35.98zm20.728-6.818c0 4.411-3.323 7.161-7.677 7.161-3.84 0-7.072-2.12-7.386-6.732h4.153c.287 2.006 1.891 2.865 3.639 2.865 2.177 0 3.117-1.461 3.117-3.352 0-1.977-1.46-3.208-3.495-3.208-1.69 0-2.807.802-3.323 1.661h-3.97l1.372-11.631h13.06l-.435 3.896H46.42l-.37 3.85s.98-1.157 3.954-1.157c3.58 0 6.703 2.407 6.703 6.646z" fill="#100F0D"/><path d="M42.137 15.296C39.925 6.671 32.903.611 18.335.611H.745l2.388 16.145C4.929 31.325 10.5 36.012 20.362 37.737c.046.008.357.052.362-.314a.318.318 0 00-.196-.293c-6.665-2.806-7.426-12.008-8.85-21.244l-1.101-7.359h10.041c9.258 0 16.405-.146 20.93 7a.363.363 0 00.297.175.307.307 0 00.305-.318.32.32 0 00-.013-.088z" fill="#55B435"/><path d="M60.193 27.806c0-6.23 4.523-10.725 10.81-10.725 4.21 0 8.021 2.447 9.13 5.803l-2.36.797c-.854-2.503-3.67-4.324-6.77-4.324-4.808 0-8.221 3.499-8.221 8.449 0 4.892 3.442 8.476 8.22 8.476 4.324 0 7.738-3.1 7.852-7.14l-9.956-.028V26.81H81.47c.426 6.827-3.954 11.748-10.468 11.748-6.287 0-10.81-4.523-10.81-10.752zm24.39-4.324h2.304v1.934h.256c.654-1.308 2.247-2.218 3.84-2.218.654 0 1.337.142 1.764.37v2.19a5.898 5.898 0 00-2.134-.427c-2.162 0-3.67 1.934-3.67 4.779v7.737h-2.36V23.482zm22.549 7.168c0-3.243-2.247-5.604-5.348-5.604-3.129 0-5.348 2.361-5.348 5.604 0 3.271 2.22 5.632 5.348 5.632 3.101 0 5.348-2.36 5.348-5.632zm-13.057 0c0-4.523 3.186-7.737 7.709-7.737 4.495 0 7.709 3.214 7.709 7.737 0 4.551-3.214 7.766-7.709 7.766-4.523 0-7.709-3.215-7.709-7.766zm31.296 7.197h-2.361v-1.963h-.284c-.996 1.565-2.617 2.475-4.494 2.475-3.67 0-5.974-2.645-5.974-6.315v-8.562h2.361v8.562c0 2.446 1.422 4.181 3.897 4.181 2.418 0 4.494-1.849 4.494-4.38v-8.363h2.361v14.365zm6.066-7.197c0 3.158 2.247 5.632 5.348 5.632 3.072 0 5.319-2.474 5.319-5.632 0-3.214-2.247-5.604-5.319-5.604-3.101 0-5.348 2.447-5.348 5.604zm13.028 0c0 4.495-3.214 7.766-7.396 7.766-2.304 0-4.238-.996-5.291-2.702h-.256v8.675h-2.361V23.482h2.361v2.19h.256c1.053-1.735 2.902-2.759 5.263-2.759 4.181 0 7.424 3.243 7.424 7.737z" fill="#100F0D"/></svg>