<svg width="179" height="35" fill="none" xmlns="http://www.w3.org/2000/svg"><path d="M21.649 27.876c-2.672 3.717-6.958 4.982-11.28 3.982-3.498-.92-6.996-4.607-7.389-8.327l-.1-5.221V3.601l5.771 3.24.12 15.829a4.883 4.883 0 001.117 2.031 4.828 4.828 0 001.921 1.28c1.352.304 2.97.27 4.02-.616 1.281-1.057 2.06-2.39 1.959-4.097a4.773 4.773 0 00-.705-2.167 4.723 4.723 0 00-1.626-1.585l-.91-.412v-6.043c3.644.204 6.852 3.274 8.406 6.482 1.159 3.252.957 7.655-1.304 10.332zm4.22-16.726L6.22 0v3.173l-.1.106L1.023.53v18.186c-.236 4.234.17 8.16 3.06 11.093 3.171 3.924 8.31 4.982 12.928 3.513a23.8 23.8 0 003.104-.203c4.657-.514 9.254-4.47 10.333-9.146 1.282-4.983-.672-9.762-4.59-12.833l.008.01h.001zm151.735 18.084h1.364v4.673h-1.364v-4.673zm-5.283 2.721h1.99a1.47 1.47 0 01.608.098.471.471 0 01.168.365.48.48 0 01-.168.365 1.34 1.34 0 01-.587.098h-2.011v-.926zm3.284-.884a3.888 3.888 0 00-1.067-.12h-2.217v-1.72h-1.364v4.676h3.612c.28.005.559-.018.835-.066.208-.034.406-.113.582-.23.157-.11.28-.264.354-.442.085-.234.125-.482.118-.73a1.643 1.643 0 00-.215-.913 1.125 1.125 0 00-.638-.442v-.013zm-7.613-.814v2.628h-3.017a1.97 1.97 0 00.261-.5 2.13 2.13 0 00.106-.69v-1.437h2.65v-.001zm1.364-1.023h-5.343v2.239c.006.279-.042.555-.14.815a1.63 1.63 0 01-.438.597h-.389V35h1.259v-1.093h4.374V35h1.25v-2.115h-.577l.004-3.651zm-12.056 1.77a1.17 1.17 0 01.088-.482.436.436 0 01.262-.216 1.99 1.99 0 01.59-.067h1.609c.196-.007.392.016.582.066a.446.446 0 01.272.213c.067.151.097.316.087.482v1.163a1.1 1.1 0 01-.075.443.391.391 0 01-.249.194c-.194.05-.395.071-.595.063h-1.648a2.097 2.097 0 01-.582-.062.437.437 0 01-.258-.204.962.962 0 01-.083-.442v-1.15zm4.01-1.646a3.46 3.46 0 00-1.102-.146h-2.292a4.473 4.473 0 00-.922.08c-.221.041-.43.135-.608.274a1.085 1.085 0 00-.345.518c-.078.26-.113.53-.105.802V32.3c-.006.248.031.495.108.73.069.199.19.375.351.508.181.142.392.24.617.288.295.067.597.098.9.094h2.291c.31.004.619-.026.923-.09a1.43 1.43 0 00.604-.278c.152-.134.264-.306.324-.5.068-.243.101-.495.096-.748v-1.398a2.124 2.124 0 00-.206-1.014 1.14 1.14 0 00-.638-.517l.004-.018zm-8.209 1.589a.426.426 0 01-.34.129h-2.489v-.886h2.48a.527.527 0 01.358.107.368.368 0 01.119.288.484.484 0 01-.123.344l-.005.018zm-2.824 1.035h2.484a1.49 1.49 0 01.436.053.266.266 0 01.167.129c.034.09.048.184.044.279a.746.746 0 01-.048.296.283.283 0 01-.179.128 1.94 1.94 0 01-.477.045h-2.441l.014-.93zm3.782-.558a.802.802 0 00.359-.26 1.3 1.3 0 00.162-.748 1.086 1.086 0 00-.223-.703 1.21 1.21 0 00-.63-.385 3.78 3.78 0 00-1.005-.115h-3.814v4.694h4.067a3.07 3.07 0 001.002-.138 1.11 1.11 0 00.599-.441c.141-.247.209-.53.197-.814a1.106 1.106 0 00-.22-.757 1.302 1.302 0 00-.502-.306l.008-.027zm-10.6-1.216v1.274h-2.505a.785.785 0 01-.53-.15.679.679 0 01-.161-.487.706.706 0 01.135-.491.719.719 0 01.516-.147h2.545v.001zm-3.66-.836c-.274.09-.51.273-.665.518a1.853 1.853 0 00-.24 1.005c0 .228.059.454.17.655.108.195.258.366.438.499.136.111.292.196.459.252l-1.553 1.614h1.789l1.246-1.445h2.016v1.445h1.365V29.23h-4.015a3.158 3.158 0 00-1.01.142zm-7.657-.141h5.536v4.676h-1.365v-3.65h-2.811v1.937c0 1.138-.52 1.713-1.539 1.713h-.582v-1.022h.057c.149.006.298-.02.438-.075a.378.378 0 00.188-.23c.043-.168.062-.34.056-.513l.022-2.836zm-3.354 1.021v2.629h-3.018c.115-.151.205-.32.267-.5a2.07 2.07 0 00.104-.69v-1.434l2.647-.005zm1.36-1.021h-5.335v2.238a2.15 2.15 0 01-.158.831 1.595 1.595 0 01-.437.599h-.389V35h1.263v-1.093h4.373V35h1.251v-2.115h-.581l.013-3.654zm-17.038 2.725h1.994a1.49 1.49 0 01.613.097.477.477 0 01.123.566.487.487 0 01-.123.165 1.34 1.34 0 01-.587.097h-2.02v-.926.001zm3.284-.885a3.838 3.838 0 00-1.062-.12h-2.222v-1.72h-1.36v4.676h3.608c.28.005.559-.017.836-.066.209-.029.409-.101.59-.213a.987.987 0 00.353-.442c.087-.234.127-.481.119-.73a1.67 1.67 0 00-.214-.912 1.134 1.134 0 00-.639-.442l-.009-.031zm2.003-1.792h1.364v4.628h-1.364v-4.629.001zm-11.781 1.022h2.021a.868.868 0 01.599.15.631.631 0 01.153.482.922.922 0 01-.066.385.377.377 0 01-.224.2 1.229 1.229 0 01-.462.07h-2.022v-1.287h.001zm3.691-.646a1.442 1.442 0 00-.582-.288 3.453 3.453 0 00-.873-.088h-3.614v4.628h1.364V32.58h2.266c.361.013.722-.045 1.062-.168.266-.102.486-.298.616-.553.14-.298.208-.626.197-.955a2.449 2.449 0 00-.104-.761 1.188 1.188 0 00-.337-.518l.004.031h.001zm-11.631-.406h5.74v1.021h-2.186v3.655h-1.365v-3.67h-2.186l-.004-1.007zm-4.02 2.724h1.993c.209-.011.415.023.61.098a.477.477 0 01.123.566.475.475 0 01-.124.164 1.334 1.334 0 01-.586.097h-2.024l.008-.925zm3.284-.885a3.891 3.891 0 00-1.067-.119h-2.216v-1.738H93.29v4.676h3.612c.28.005.56-.017.836-.066.209-.035.408-.113.586-.23.158-.11.28-.264.354-.442.085-.234.126-.482.119-.73a1.674 1.674 0 00-.215-.913 1.124 1.124 0 00-.638-.442l-.005.004zM86.662 29.26h5.54v4.646h-1.364v-3.65h-2.815v1.937c0 1.138-.516 1.713-1.54 1.713h-.582v-1.022h.056c.15.007.299-.02.438-.075a.36.36 0 00.188-.23c.045-.168.063-.34.057-.513l.022-2.806zm-3.844 0h2.186v4.646h-1.363v-3.65h-.092l-3.136 3.65h-2.226V29.23h1.365v3.654h.087l3.179-3.624zm-9.328 1.35h1.203a2.15 2.15 0 01.582.061.437.437 0 01.27.213c.065.152.094.317.084.482v.398c.007.151-.018.303-.074.443a.38.38 0 01-.25.194 2.196 2.196 0 01-.594.062h-1.22V30.61zm-3.498.756c-.01-.166.02-.33.087-.482a.439.439 0 01.271-.213c.19-.047.386-.067.582-.062h1.198v1.868h-1.22a2.224 2.224 0 01-.599-.062.383.383 0 01-.249-.194 1.073 1.073 0 01-.075-.443l.005-.412zm6.123-1.637a3.518 3.518 0 00-1.102-.142H73.49v-.354h-1.364v.354H70.57a3.53 3.53 0 00-1.103.142c-.269.085-.497.27-.638.518a2.053 2.053 0 00-.205 1.013v.624c-.007.253.026.505.095.747.058.197.17.372.325.505.175.14.383.235.603.279.302.063.612.093.923.088h1.556v.407h1.365v-.407h1.543c.31.005.62-.025.923-.088.22-.044.427-.14.604-.279.153-.132.265-.306.323-.5.067-.244.098-.498.091-.752v-.624a2.072 2.072 0 00-.204-1.013 1.148 1.148 0 00-.656-.518zm-21.122-.5h5.746v1.022h-2.187v3.655h-1.363v-3.65h-2.186l-.009-1.027h-.001zm-2.038 0h1.417l-.035.08-2.038 4.593h-1.912l-1.214-3.005-1.217 3.005H46.05v-.035l-2.063-4.642h1.416v.034l1.615 3.62 1.468-3.654h1.39v.034l1.466 3.607h.023l1.59-3.636zM41.44 30.948a.458.458 0 01-.344.129h-2.49v-.886h2.48a.524.524 0 01.358.107.354.354 0 01.118.287.475.475 0 01-.123.345v.018h.001zm-2.833 1.035h2.489c.146-.004.294.014.436.053a.268.268 0 01.167.129c.034.09.048.184.044.279a.705.705 0 01-.049.296.277.277 0 01-.179.128c-.156.035-.316.05-.477.045h-2.432v-.93zm3.783-.558a.818.818 0 00.362-.26 1.3 1.3 0 00.163-.748 1.088 1.088 0 00-.22-.703 1.214 1.214 0 00-.629-.385 3.806 3.806 0 00-1.006-.115h-3.813v4.694h4.071c.34.01.678-.037 1.001-.138a1.12 1.12 0 00.605-.441c.14-.247.209-.53.196-.814a1.095 1.095 0 00-.223-.757 1.31 1.31 0 00-.504-.306l-.003-.027zm.541-10.8v-2.876h9.713c1.344 0 1.75.526 1.75 1.434 0 1.07-.293 1.445-1.75 1.445l-9.712-.003zm16.955-1.402c0-4.072-2.239-5.695-5.996-5.695H42.927v-2.465H58.32V6.557H37.251v18.346h16.64c3.017 0 5.995-1.793 5.995-5.681zM94.6 11.39h8.041a2.227 2.227 0 011.514.526c.415.49.622 1.125.576 1.77a2.057 2.057 0 01-.739 1.7 2.42 2.42 0 01-1.354.415H94.6V11.39zm0 9.292h8.041c2.886 0 4.597-.421 5.834-1.372.91-.748 1.854-2.832 1.854-5.69 0-2.86-.77-4.792-2.003-5.806-1.233-1.013-2.68-1.248-5.685-1.248h-13.7v18.328h5.653l.006-4.212zm78.036-5.31c-.404.27-.876.414-1.36.415h-8.047v-4.424h8.043c.551-.02 1.09.168 1.513.527a2.435 2.435 0 01.581 1.769 2.058 2.058 0 01-.734 1.7l.004.013zm4.321-7.58c-1.238-1.013-2.677-1.253-5.685-1.253h-13.701v18.364h5.658v-4.217h8.043c2.886 0 4.595-.421 5.829-1.372.91-.744 1.854-2.831 1.854-5.69 0-2.859-.765-4.796-2.003-5.81l.005-.023v.002zm-41.672-1.235h19.75v4.478h-14.104v2.492h13.487v4.478h-13.487v2.654h14.108v4.249H135.29l-.005-18.35zM73.53 10.735h.874l3.062 6.47h-6.997l3.06-6.47zM79.542 22l1.911 2.894h6.469L78.835 6.562h-9.67l-9.28 18.328h6.517l1.705-2.894L79.542 22zm46.106-1.743h-8.051v-4.274h8.055c1.557 0 2.095.937 2.095 2.212a1.99 1.99 0 01-.58 1.52 1.93 1.93 0 01-1.515.555l-.004-.013zm7.701-2.412c0-2.863-1.115-4.482-2.03-5.23-1.237-.956-2.776-1.531-5.685-1.531h-8.037V6.539h-5.659v18.364h13.714c3.005 0 4.452-.24 5.685-1.253 1.234-1.013 2.007-2.955 2.007-5.818" fill="#004990"/></svg>