<svg width="32" height="32" viewBox="0 0 32 32" fill="none" xmlns="http://www.w3.org/2000/svg">
<rect width="32" height="32" rx="4" fill="#C4C4C4" fill-opacity="0.2"/>
<path opacity="0.5" d="M15.1802 19.9742C13.8892 19.8367 12.7252 19.5122 11.7285 18.7165C11.6049 18.6175 11.4772 18.5221 11.3644 18.4115C10.9281 17.9839 10.8842 17.4941 11.2294 16.9893C11.5247 16.5574 12.0203 16.4419 12.5356 16.6899C12.6353 16.7379 12.7304 16.7979 12.8214 16.8624C14.6788 18.1651 17.2303 18.2011 19.0947 16.921C19.2794 16.7764 19.4768 16.6585 19.7057 16.5983C20.1506 16.4817 20.5655 16.6486 20.8043 17.0459C21.0771 17.4998 21.0736 17.9427 20.7375 18.2951C20.2219 18.8352 19.6019 19.226 18.9129 19.4988C18.2615 19.7566 17.548 19.8864 16.8417 19.9726C16.9483 20.091 16.9985 20.1492 17.0652 20.2176C18.0241 21.201 18.9872 22.1804 19.943 23.167C20.2687 23.5031 20.3367 23.9199 20.1574 24.3109C19.9614 24.7382 19.5225 25.0193 19.0922 24.9892C18.8196 24.97 18.607 24.8315 18.4181 24.6372C17.6945 23.8939 16.9572 23.1643 16.2482 22.4069C16.0419 22.1867 15.9426 22.2283 15.7605 22.4196C15.0325 23.1846 14.2926 23.9379 13.5484 24.6869C13.2142 25.0232 12.8166 25.0838 12.429 24.8916C12.017 24.6878 11.7549 24.2585 11.7751 23.8271C11.7891 23.5353 11.9296 23.3124 12.1259 23.1125C13.0749 22.1452 14.0212 21.1754 14.968 20.2065C15.0306 20.1421 15.089 20.0737 15.1802 19.9742Z" fill="white"/>
<path opacity="0.5" d="M15.966 16.6045C13.6628 16.5965 11.7742 14.6475 11.7877 12.2927C11.8009 9.91199 13.6907 7.99343 16.0166 8.00002C18.3471 8.00643 20.2177 9.95259 20.2061 12.3581C20.1942 14.708 18.2925 16.6127 15.966 16.6045ZM18.0592 12.2984C18.0552 11.1293 17.143 10.1985 15.9998 10.1974C14.8471 10.1961 13.9267 11.1439 13.9356 12.3237C13.9442 13.4885 14.8642 14.4127 16.0105 14.4084C17.1532 14.4043 18.063 13.4675 18.0592 12.2984Z" fill="white"/>
</svg>
