<svg width="32" height="32" viewBox="0 0 32 32" fill="none" xmlns="http://www.w3.org/2000/svg">
<rect width="32" height="32" rx="4" fill="#C4C4C4" fill-opacity="0.2"/>
<path opacity="0.5" d="M27.4482 10.8206C27.6151 10.3526 27.4482 10.0084 26.6534 10.0084H24.0286C23.7834 9.99439 23.5394 10.0478 23.3334 10.1605C23.1273 10.2732 22.9704 10.4392 22.8861 10.6334C22.8861 10.6334 21.5509 13.371 19.6593 15.146C19.0473 15.6607 18.7691 15.8245 18.4353 15.8245C18.2684 15.8245 18.0181 15.6574 18.0181 15.1928V10.8206C18.0181 10.2591 17.8333 10.0084 17.2769 10.0084H13.152C12.9845 10.0006 12.8201 10.049 12.695 10.143C12.5698 10.237 12.4941 10.3689 12.4844 10.5097C12.4844 11.0429 13.4302 11.1649 13.5275 12.6624V15.9198C13.5275 16.6334 13.3745 16.7554 13.0407 16.7554C12.1505 16.7554 9.98475 14.0061 8.70117 10.8591C8.44882 10.2474 8.19648 10 7.52687 10H4.9001C4.14902 10 4 10.2975 4 10.6251C4 11.21 4.89016 14.1114 8.14482 17.9487C10.3146 20.5694 13.3705 21.99 16.1523 21.99C17.8214 21.99 18.028 21.6741 18.028 21.1309V19.1571C18.028 18.5253 18.187 18.4 18.7155 18.4C19.1129 18.4 19.7726 18.5671 21.3303 19.8273C23.1186 21.3315 23.4047 22 24.4062 22H27.031C27.782 22 28.1556 21.6841 27.939 21.0624C27.7224 20.4407 26.8521 19.5415 25.7235 18.4752C25.1115 17.8669 24.1936 17.2117 23.9154 16.8841C23.518 16.463 23.6372 16.2758 23.9154 15.9014C23.9154 15.8964 27.1144 12.1058 27.4482 10.8206Z" fill="white"/>
</svg>
