<svg width="162" height="138" fill="none" xmlns="http://www.w3.org/2000/svg"><g clip-path="url(#clip0_416_3739)"><path d="M87.491 118.983l2.994 6.877-2.994-6.877-28.879 12.574 2.838-10.591c1.581-5.902-1.921-11.969-7.824-13.55l-8.033-2.153c-8.675-2.324-13.823-11.241-11.498-19.916l12.3-45.903c2.324-8.676 11.24-13.824 19.916-11.5l68.855 18.45c8.675 2.325 13.823 11.242 11.499 19.917l-12.3 45.903c-2.325 8.675-11.241 13.823-19.916 11.499l-19.677-5.273a11.067 11.067 0 00-7.28.543z" fill="#FFD2B3" stroke="#FFD2B3" stroke-width="15"/><path d="M72.044 52.465a5.94 5.94 0 10-3.075 11.476l45.904 12.3a5.94 5.94 0 007.275-4.2 5.94 5.94 0 00-4.2-7.276l-45.904-12.3zm-6.15 22.952a5.94 5.94 0 00-3.075 11.476l45.904 12.3a5.94 5.94 0 003.075-11.476l-45.904-12.3z" fill="#F3F3F7"/></g><defs><clipPath id="clip0_416_3739"><path fill="#fff" transform="rotate(15 18.45 140.14)" d="M0 0h142.569v142.569H0z"/></clipPath></defs></svg>