<svg width="100" height="100" viewBox="0 0 100 100" fill="none" xmlns="http://www.w3.org/2000/svg">
<path d="M82.8963 61.8846C80.9026 61.9158 78.9088 61.9442 76.9153 61.9698C76.8088 67.8932 76.6262 73.8166 76.3674 79.7401C78.3206 79.678 80.2737 79.6088 82.2268 79.5328C83.8432 79.4688 85.2334 78.1006 85.3205 76.484C85.5282 72.5778 85.6905 68.6715 85.8077 64.7653C85.8569 63.1489 84.5485 61.8598 82.8963 61.8846Z" fill="url(#paint0_linear)"/>
<path d="M79.4336 76.6897C79.6065 72.7536 79.7418 68.8176 79.8395 64.8815C79.8807 63.2524 78.5672 61.9498 76.915 61.9698C73.9244 62.0081 70.934 62.0401 67.9434 62.0655C64.9174 65.0756 61.8963 68.0977 58.8994 71.118C61.8355 74.0944 64.7348 77.0506 67.5781 79.9733C70.5078 79.9112 73.4375 79.8334 76.3672 79.7403C77.9836 79.6877 79.3608 78.3188 79.4336 76.6897Z" fill="url(#paint1_linear)"/>
<path d="M17.1036 61.8846C15.4515 61.8601 14.1431 63.1486 14.1925 64.7654C14.3097 68.6717 14.472 72.5779 14.6796 76.4842C14.7669 78.1006 16.157 79.4689 17.7734 79.533C34.3749 80.1787 50.9765 80.3254 67.5781 79.9732C67.7507 74.0039 67.8724 68.0348 67.9433 62.0654C50.9968 62.2101 34.0503 62.1498 17.1036 61.8846Z" fill="#6874FF"/>
<path d="M49.9999 19C44.365 19.002 39.6792 23.7744 39.6001 29.552C39.556 33.5475 39.5251 37.5432 39.5076 41.5387C41.5062 41.5324 43.5046 41.5277 45.5033 41.525C45.5109 37.5227 45.5242 33.5203 45.5429 29.5178C45.5572 27.0316 47.554 25.0057 49.9999 25.0057C52.4458 25.0057 54.4429 27.0316 54.457 29.5178C54.4298 23.7273 54.3878 19.0057 49.9999 19Z" fill="#FFB454"/>
<path d="M50 19C52.415 19.0004 54.4232 23.7258 54.457 29.518C54.476 33.5203 54.4891 37.5229 54.4967 41.5252C56.4953 41.5279 58.4938 41.5324 60.4924 41.5389C60.4746 37.5434 60.4438 33.5477 60.3998 29.5521C60.3207 23.7742 55.635 19.0018 50 19Z" fill="#FFB454"/>
<path d="M20.3351 70.7856C20.3921 72.4147 21.7683 73.7746 23.3991 73.8168C25.0304 73.8592 26.3114 72.5584 26.2679 70.9172C26.2239 69.276 24.8611 67.9238 23.2165 67.8934C21.5722 67.8629 20.2779 69.1563 20.3351 70.7856Z" fill="white"/>
<path d="M39.544 35.5453C37.8948 35.5549 36.5436 36.9049 36.5299 38.557C36.4918 43.4117 36.4791 48.2664 36.4912 53.1211C36.4955 54.7736 37.8453 56.1182 39.5016 56.1227C41.5012 56.1277 43.501 56.1314 45.5008 56.1338C45.4903 49.2631 45.4963 42.3922 45.519 35.5215C43.5272 35.5262 41.5356 35.5342 39.544 35.5453Z" fill="url(#paint2_linear)"/>
<path d="M32.2014 71.0193C32.2359 72.6668 33.591 74.0264 35.2221 74.0498C36.8533 74.0734 38.1557 72.7469 38.1344 71.0924C38.1129 69.4379 36.7652 68.0863 35.1207 68.0691C33.4762 68.0529 32.1668 69.3713 32.2014 71.0193Z" fill="white"/>
<path d="M44.067 71.1363C44.0793 72.7936 45.4131 74.1449 47.0443 74.1498C48.6754 74.1543 49.9988 72.8092 50 71.151C50.001 69.4924 48.6685 68.1484 47.024 68.1449C45.3797 68.1418 44.0549 69.4789 44.067 71.1363Z" fill="white"/>
<path d="M55.9332 71.1364C55.9232 72.7942 57.2359 74.1305 58.8671 74.1165C60.4982 74.102 61.8427 72.7461 61.8662 71.0926C61.8896 69.4389 60.5724 68.11 58.9281 68.1198C57.2835 68.1297 55.9433 69.4786 55.9332 71.1364Z" fill="#CCD3EE"/>
<path d="M50.0739 35.5162C48.5555 35.5162 47.0372 35.518 45.5188 35.5215C43.8696 35.5258 42.5245 36.8742 42.5167 38.5307C42.4956 43.3971 42.4883 48.2633 42.4952 53.1295C42.4977 54.7859 43.8446 56.1314 45.5006 56.1336C50.4999 56.1391 55.4993 56.1353 60.4985 56.1225C62.1547 56.1176 63.5044 54.773 63.5088 53.1209C63.511 52.2289 63.5126 51.3371 63.5129 50.4451C59.0364 45.4871 54.5307 40.4937 50.0739 35.5162Z" fill="url(#paint3_linear)"/>
<path d="M63.5128 50.4453C63.5151 46.4826 63.5009 42.5197 63.47 38.557C63.4566 36.9049 62.1052 35.5553 60.456 35.5453C56.9952 35.526 53.5345 35.5164 50.0737 35.5162C50.0689 43.2816 55.9575 49.6674 63.5128 50.4453Z" fill="url(#paint4_linear)"/>
<defs>
<linearGradient id="paint0_linear" x1="48.2556" y1="102.656" x2="85.5265" y2="65.3851" gradientUnits="userSpaceOnUse">
<stop stop-color="#B31DE7"/>
<stop offset="1" stop-color="#FDA0FF"/>
</linearGradient>
<linearGradient id="paint1_linear" x1="42.1976" y1="101.444" x2="86.7369" y2="56.9049" gradientUnits="userSpaceOnUse">
<stop stop-color="#B31DE7"/>
<stop offset="1" stop-color="#FDA0FF"/>
</linearGradient>
<linearGradient id="paint2_linear" x1="31.8164" y1="55.9303" x2="77.3188" y2="10.4277" gradientUnits="userSpaceOnUse">
<stop stop-color="#FC54FF"/>
<stop offset="0.4062" stop-color="#FD9BFF"/>
<stop offset="1" stop-color="white"/>
</linearGradient>
<linearGradient id="paint3_linear" x1="34.2752" y1="64.5607" x2="77.5733" y2="21.2625" gradientUnits="userSpaceOnUse">
<stop stop-color="#FC54FF"/>
<stop offset="0.4062" stop-color="#FD9BFF"/>
<stop offset="1" stop-color="white"/>
</linearGradient>
<linearGradient id="paint4_linear" x1="33.4681" y1="66.306" x2="72.7259" y2="27.0482" gradientUnits="userSpaceOnUse">
<stop stop-color="#FC54FF"/>
<stop offset="0.4062" stop-color="#FD9BFF"/>
<stop offset="1" stop-color="white"/>
</linearGradient>
</defs>
</svg>
