<svg width="56" height="56" viewBox="0 0 56 56" fill="none" xmlns="http://www.w3.org/2000/svg">
<path d="M56 14V51.0781C56 53.7917 53.7917 56 51.0781 56H42.875L28 51.0278L13.125 56H4.92188C2.20828 56 0 53.7917 0 51.0781V4.92188C0 2.20828 2.20828 0 4.92188 0H13.125L28 6.08497L42.875 0.25375C42.9778 0.317187 43.073 0.392656 43.1605 0.480156L55.5198 12.8395C55.8272 13.148 56 13.5647 56 14Z" fill="#6874FF"/>
<path d="M56 14V51.0781C56 53.7917 53.7917 56 51.0781 56H42.875L28 51.0278V4.65129L42.875 0.253754C42.9778 0.317191 43.073 0.39266 43.1605 0.48016L55.5198 12.8395C55.8272 13.148 56 13.5647 56 14Z" fill="#8892FF"/>
<path d="M42.875 0.25375C42.875 15.1202 42.8815 14.0832 42.8608 14.3784C42.6716 16.9159 40.5902 18.9219 38.0592 18.9219H17.9408C15.2852 18.9219 13.125 16.7136 13.125 14V0H42C42.3128 0 42.6158 0.0885937 42.875 0.25375Z" fill="#EEF4FF"/>
<path d="M42.875 0.25375V14C42.875 14.1269 42.8695 14.2538 42.8608 14.3784C42.6716 16.9159 40.5902 18.9219 38.0592 18.9219H28V0H42C42.3128 0 42.6158 0.0885937 42.875 0.25375Z" fill="#D9E6FC"/>
<path d="M42.875 36.75V56H13.125V36.75C13.125 35.8444 13.8436 35.1094 14.7306 35.1094H41.2694C42.1564 35.1094 42.875 35.8444 42.875 36.75Z" fill="#EEF4FF"/>
<path d="M42.875 36.75V56H28V35.1094H41.2694C42.1564 35.1094 42.875 35.8444 42.875 36.75Z" fill="#D9E6FC"/>
<path d="M42.875 33.0312V38.3906H13.125V33.0312C13.125 30.3133 15.2808 28.1094 17.9408 28.1094H38.0592C40.7192 28.1094 42.875 30.3133 42.875 33.0312Z" fill="#FFB454"/>
<path d="M42.875 33.0312V38.3906H28V28.1094H38.0592C40.7192 28.1094 42.875 30.3133 42.875 33.0312Z" fill="#FF7D47"/>
</svg>
