<svg width="63" height="60" viewBox="0 0 63 60" fill="none" xmlns="http://www.w3.org/2000/svg">
<path d="M50.5741 21.6192L33.5143 34.3163L31.0547 55.3401C34.2806 57.6783 38.2435 59.0592 42.5235 59.0592C53.3231 59.0592 62.1094 50.2729 62.1094 39.4733C62.1094 31.5414 57.3699 24.6956 50.5741 21.6192Z" fill="#3988FF"/>
<path d="M27.5989 35.6948L11.6088 21.587C4.77393 24.6473 0 31.513 0 39.4733C0 50.2729 8.78629 59.0592 19.586 59.0592C23.8659 59.0592 27.8288 57.6782 31.0547 55.34L27.5989 35.6948Z" fill="#12EF92"/>
<path d="M31.0548 30.8848C34.2807 28.5465 50.5742 21.6192 50.5742 21.6192C50.6435 20.9507 50.6794 20.2725 50.6794 19.586C50.6794 8.78629 41.8931 0 31.0935 0C20.2937 0 11.5074 8.78629 11.5074 19.586C11.5074 20.2615 11.5418 20.929 11.6089 21.587C11.6089 21.587 27.8289 28.5467 31.0548 30.8848Z" fill="#FF4784"/>
<path d="M31.0933 0C31.0804 0 31.0675 0.00048531 31.0547 0.00048531V23.6073L32.2678 30.8848L50.5741 21.6192C50.6434 20.9507 50.6793 20.2725 50.6793 19.586C50.6792 8.78617 41.893 0 31.0933 0Z" fill="#FF4784"/>
<path d="M31.0546 23.6064L23.9974 29.3199L23.0425 37.4402L31.1037 41.4058L39.0705 37.4723L38.1215 29.3325L31.0546 23.6064Z" fill="#D9F2FF"/>
<path d="M31.0547 23.6064C35.4598 26.7995 38.4901 31.7785 39.0706 37.4723C45.3159 34.676 49.8402 28.7022 50.5741 21.6192C48.117 20.5069 45.3913 19.8873 42.5234 19.8873C38.2435 19.8873 34.2806 21.2682 31.0547 23.6064Z" fill="#29376D"/>
<path d="M23.0426 37.4402C23.6312 31.7599 26.6579 26.7934 31.0547 23.6064C27.8288 21.2681 23.8659 19.8873 19.5861 19.8873C16.7466 19.8873 14.0467 20.4954 11.6088 21.587C12.3293 28.6565 16.8255 34.6257 23.0426 37.4402Z" fill="#FED843"/>
<path d="M39.1719 39.4733C39.1719 38.7979 39.1376 38.1303 39.0705 37.4723C36.6326 38.564 33.9327 39.172 31.0934 39.172C28.2255 39.172 25.4996 38.5523 23.0426 37.4401C22.9733 38.1085 22.9374 38.7867 22.9374 39.4732C22.9374 45.993 26.1404 51.778 31.0547 55.3399C35.9689 51.7781 39.1719 45.9931 39.1719 39.4733Z" fill="#7ED8F6"/>
</svg>
