<svg width="154" height="49" viewBox="0 0 154 49" fill="none" xmlns="http://www.w3.org/2000/svg">
<path d="M17.406 38.8341H16.7545L13.4967 25.2447H7.35358V41.7196H10.5182V28.1301H11.1698L14.4275 41.7196H19.8261L23.0838 28.1301H23.7354V41.7196H26.9V25.2447H20.7569L17.406 38.8341V38.8341ZM49.7042 41.7196H60.9667V38.8341H52.962V34.7387H59.8498V31.9463H52.962V28.1301H60.9667V25.2447H49.7042V41.7196ZM38.3487 39.2995C34.7186 39.2995 33.0432 36.7864 33.0432 33.4356C33.0432 30.0848 34.7186 27.6647 38.3487 27.6647C41.9787 27.6647 43.6541 30.1778 43.6541 33.4356C43.6541 36.6933 41.9787 39.2995 38.3487 39.2995ZM38.3487 24.7793C32.857 24.7793 29.6924 28.3163 29.6924 33.4356C29.6924 38.5549 32.857 42.1849 38.3487 42.1849C43.8403 42.1849 47.0049 38.5549 47.0049 33.4356C47.0049 28.3163 43.8403 24.7793 38.3487 24.7793V24.7793ZM63.2006 41.7196H66.6445L70.4607 35.2041L74.6492 41.7196H78.0931L72.6015 33.0633L77.8139 25.2447H74.2769L70.6468 31.1086L67.0168 25.2447H63.4798L68.506 32.9702L63.2006 41.7196V41.7196Z" fill="white"/>
<path d="M131.892 29.8987L133.195 30.0848C132.916 31.5741 131.613 32.4118 130.217 32.4118C127.983 32.4118 126.959 30.8294 126.959 28.6886C126.959 26.5478 128.076 25.0586 130.31 25.0586C131.706 25.0586 132.73 25.7101 133.195 27.0132L131.892 27.5717C131.613 26.8271 131.054 26.3617 130.217 26.3617C128.82 26.3617 128.262 27.4786 128.262 28.7817C128.262 30.0848 128.82 31.2018 130.217 31.2018C131.147 31.2018 131.706 30.7364 131.892 29.8987V29.8987ZM84.7944 40.5096H86.5628C87.2144 40.5096 87.6798 40.1373 87.6798 39.4857C87.6798 38.8342 87.2144 38.4619 86.5628 38.4619H84.7944V40.5096ZM83.4913 41.7196V34.6456H88.6106V35.8557H84.7944V37.2518H86.749C88.1452 37.2518 88.9829 37.9034 88.9829 39.3926C88.9829 40.7888 88.1452 41.7196 86.749 41.7196H83.4913V41.7196ZM89.8206 41.7196V34.6456H91.1237V40.5096H91.3098L93.0783 34.6456H95.5914V41.7196H94.2883V35.8557H94.1022L92.3337 41.7196H89.8206ZM98.1976 38.2757H99.873C100.618 38.2757 100.99 37.7172 100.99 37.0657C100.99 36.3211 100.618 35.9487 99.873 35.9487H98.1976V38.2757ZM96.8945 41.7196V34.6456H99.873C101.362 34.6456 102.386 35.4834 102.386 36.9726C102.386 38.4619 101.362 39.3926 99.873 39.3926H98.1976V41.7196H96.8945ZM102.386 41.7196L104.62 37.9965L102.479 34.6456H104.062L105.644 37.438H106.202V34.6456H107.505V37.438H108.064L109.646 34.6456H111.229L109.088 37.9965L111.322 41.7196H109.739L108.064 38.648H107.505V41.7196H106.202V38.648H105.644L103.968 41.7196H102.386ZM113.835 38.7411H115.883L115.045 35.8557H114.766L113.835 38.7411ZM111.601 41.7196L113.928 34.6456H115.883L118.209 41.7196H116.813L116.255 39.9511H113.462L112.904 41.7196H111.601V41.7196ZM83.4913 32.3187V25.2447H86.0044L87.2144 31.1087H87.4006L88.5175 25.2447H91.0306V32.3187H89.7275V26.4548H89.5413L88.4244 32.3187H86.1905L84.9805 26.4548H84.7944V32.3187H83.4913V32.3187ZM95.4053 31.2018C96.8945 31.2018 97.453 30.0848 97.453 28.7817C97.453 27.3855 96.7084 26.3617 95.3122 26.3617C93.823 26.3617 93.2645 27.4786 93.2645 28.7817C93.2645 30.0848 93.916 31.2018 95.4053 31.2018ZM95.4053 32.4118C93.1714 32.4118 91.9614 30.8294 91.9614 28.6886C91.9614 26.5478 93.2645 25.0586 95.4053 25.0586C97.6392 25.0586 98.8492 26.6409 98.8492 28.6886C98.8492 30.7364 97.6392 32.4118 95.4053 32.4118ZM104.62 29.8987L105.923 30.0848C105.644 31.5741 104.341 32.4118 102.945 32.4118C100.711 32.4118 99.6869 30.8294 99.6869 28.6886C99.6869 26.5478 100.804 25.0586 103.038 25.0586C104.434 25.0586 105.458 25.7101 105.923 27.0132L104.62 27.5717C104.341 26.8271 103.782 26.3617 102.945 26.3617C101.548 26.3617 100.99 27.4786 100.99 28.7817C100.99 30.0848 101.548 31.2018 102.945 31.2018C103.875 31.2018 104.341 30.7364 104.62 29.8987V29.8987ZM106.947 32.3187V25.2447H108.25V28.0371H108.995L111.136 25.2447H112.811L110.112 28.5025L112.904 32.3187H111.229L108.995 29.2471H108.25V32.3187H106.947V32.3187ZM116.348 31.2018C117.837 31.2018 118.396 30.0848 118.396 28.7817C118.396 27.3855 117.651 26.3617 116.255 26.3617C114.766 26.3617 114.207 27.4786 114.207 28.7817C114.207 30.0848 114.859 31.2018 116.348 31.2018ZM116.348 32.4118C114.114 32.4118 112.904 30.8294 112.904 28.6886C112.904 26.5478 114.114 25.0586 116.348 25.0586C118.582 25.0586 119.792 26.6409 119.792 28.6886C119.792 30.7364 118.489 32.4118 116.348 32.4118V32.4118ZM122.026 28.1302H123.794C124.353 28.1302 124.818 27.8509 124.818 27.2925C124.818 26.6409 124.446 26.4548 123.794 26.4548H122.026V28.1302V28.1302ZM122.026 31.1087H123.887C124.539 31.1087 125.004 30.9225 125.004 30.1779C125.004 29.4333 124.539 29.2471 123.887 29.2471H122.026V31.1087ZM120.723 32.3187V25.2447H123.98C125.097 25.2447 126.028 25.7101 126.028 27.0132C126.028 27.8509 125.749 28.4094 125.004 28.7817C125.842 28.9679 126.214 29.6194 126.214 30.4571C126.214 31.7602 125.283 32.4118 124.073 32.4118H120.723V32.3187ZM134.312 32.3187V25.2447H135.615V28.0371H136.36L138.501 25.2447H140.176L137.57 28.5025L140.269 32.3187H138.594L136.36 29.2471H135.615V32.3187H134.312ZM142.689 29.2471H144.737L143.899 26.3617H143.62L142.689 29.2471V29.2471ZM140.455 32.3187L142.875 25.2447H144.83L147.157 32.3187H145.761L145.202 30.5502H142.317L141.758 32.3187H140.455V32.3187ZM151.997 28.4094V26.4548H150.415C149.67 26.4548 149.205 26.6409 149.205 27.4786C149.205 28.3163 149.67 28.5025 150.415 28.5025H151.997V28.4094ZM147.808 32.3187L148.088 30.364C148.181 29.7125 148.46 29.3402 149.111 29.0609C148.367 28.7817 147.901 28.0371 147.901 27.1994C147.901 25.8963 149.111 25.2447 150.321 25.2447H153.3V32.3187H151.997V29.6194H150.415C149.763 29.6194 149.577 29.8056 149.484 30.5502L149.205 32.4118H147.808V32.3187ZM0 48.2351V18.5431H29.692V0.765137H77.1619V48.2351H0Z" fill="#171513"/>
<path d="M16.1024 38.8341H15.4508L12.3793 25.1516H6.79456V41.7196H9.77306V28.1301H10.4246L13.31 41.7196H18.3363L21.3148 28.037H21.9663V41.7196H24.9448V25.2447H19.2671L16.1024 38.8341V38.8341ZM46.0736 41.7196H56.4053V38.8341H49.0521V34.7387H55.3814V31.9463H49.0521V28.037H56.4053V25.1516H46.0736V41.7196ZM35.4627 39.2995C32.1119 39.2995 30.5295 36.7864 30.5295 33.5287C30.5295 30.2709 32.1119 27.7578 35.4627 27.7578C38.8135 27.7578 40.3958 30.2709 40.3958 33.5287C40.3958 36.7864 38.8135 39.2995 35.4627 39.2995ZM35.4627 24.7793C30.4364 24.7793 27.4579 28.2232 27.4579 33.4356C27.4579 38.648 30.4364 42.1849 35.4627 42.1849C40.4889 42.1849 43.4674 38.5549 43.4674 33.4356C43.4674 28.3163 40.4889 24.7793 35.4627 24.7793V24.7793ZM58.453 41.7196H61.6177L65.2477 35.2041L69.064 41.7196H72.2286L67.1093 33.0633L71.9494 25.1516H68.7847L65.4339 31.0155L61.99 25.1516H58.8253L63.4793 32.9702L58.453 41.7196V41.7196Z" fill="white"/>
</svg>
