<svg width="179" height="43" viewBox="0 0 179 43" fill="none" xmlns="http://www.w3.org/2000/svg">
<path d="M56.0754 30.9385C54.4642 31.4635 52.7762 31.6885 51.3185 31.6885C46.715 31.6885 41.8047 29.2135 41.8047 22.7635C41.8047 16.6885 46.2547 13.6885 52.009 13.6885C53.4668 13.6885 54.6943 13.8385 56.0754 14.2885L55.9219 17.2885C54.8478 16.9135 53.6969 16.6135 52.3159 16.6135C48.1728 16.6135 45.7943 19.0885 45.7943 22.6885C45.7943 26.9635 48.7866 28.6885 52.0857 28.6885C53.6969 28.6885 55.0012 28.3135 55.9219 27.9385L56.0754 30.9385Z" fill="#171513"/>
<path d="M99.0406 13.8384V31.4634H95.2811V16.7634H87.9923V31.4634H84.3096V13.8384H99.0406Z" fill="#171513"/>
<path d="M73.7989 13.8384L69.2722 26.5134L64.7455 13.8384H58.4541V31.4634H62.1369V16.3884H62.2136L67.5076 31.4634H71.0369L76.3308 16.3884H76.4076V31.4634H80.0903V13.8384H73.7989Z" fill="#171513"/>
<path d="M121.214 13.8384V16.9884H113.158V20.6634H116.151C121.521 20.6634 122.672 24.1134 122.672 26.3634C122.672 28.2384 121.368 31.4634 116.151 31.4634H109.476V13.8384H121.214ZM113.158 28.6884H115.46C117.532 28.6884 118.759 27.8634 118.759 25.9884C118.759 24.1884 117.532 23.2884 115.46 23.2884H113.158V28.6884Z" fill="#171513"/>
<path d="M134.641 13.8384L141.93 31.4634H137.71L136.175 27.4884H128.58L127.045 31.4634H123.056L130.344 13.8384H134.641ZM135.101 24.5634L132.416 17.3634H132.339L129.807 24.5634H135.101Z" fill="#171513"/>
<path d="M147.377 13.8384V20.9634H154.819V13.8384H158.502V31.4634H154.819V23.8884H147.377V31.4634H143.694V13.8384H147.377Z" fill="#171513"/>
<path d="M166.788 13.8384V21.4134H166.865L173.54 13.8384H177.99L170.394 21.8634L178.45 31.5384H173.693L166.788 22.6884H166.712V31.4634H163.105V13.8384H166.788Z" fill="#171513"/>
<path d="M40.2696 1.38847C40.0394 1.08847 37.0471 2.58847 37.0471 2.58847C37.1239 2.58847 37.2006 2.51347 37.2006 2.51347C37.8144 2.13847 38.7351 1.61347 38.3514 1.23847C38.198 1.01347 37.7377 1.16347 36.5868 1.76347C36.0497 2.06347 33.2109 3.26347 30.3721 4.46347C27.917 5.51347 23.6204 7.31347 23.2368 7.76347C23.2368 7.76347 23.2368 7.76347 23.1601 7.83847C23.0833 7.91347 23.0833 7.98847 23.0066 8.06347C22.8532 8.36347 22.6997 8.88847 22.5463 9.56347V9.63847C22.5463 9.71347 22.5463 9.71347 22.5463 9.71347C22.3928 10.5385 22.1627 11.5885 22.0092 12.7885C21.4721 16.3135 20.9351 21.4885 20.9351 21.4885C20.9351 21.4885 20.7816 25.0135 20.4747 26.7385C20.398 27.0385 20.3213 27.2635 20.3213 27.4885C20.3213 27.5635 20.2446 27.6385 20.2446 27.7885C20.0911 28.0885 19.9377 28.3885 19.7075 28.6135C19.017 29.3635 17.4058 29.1385 16.9454 29.0635C15.8713 28.9885 14.7971 28.1635 14.7204 28.0135C14.567 27.7885 13.8764 26.8135 12.879 26.7385C12.5721 26.7385 11.4213 26.8885 11.1144 26.8885C10.7308 26.8885 10.1937 26.3635 9.5799 26.2885C8.9661 26.2135 8.04541 26.8135 8.04541 26.8135C8.04541 26.8135 10.4239 27.7135 10.7308 28.0885C11.0377 28.4635 11.7282 29.5135 12.5721 29.8885C13.4161 30.2635 16.4851 33.6385 16.4851 33.6385C16.4851 33.6385 17.0989 34.2385 18.0963 35.0635C17.2523 35.3635 16.2549 35.5885 15.2575 35.6635C8.50576 36.4135 2.67472 32.0635 1.98421 25.5385C1.83076 24.1135 1.90748 22.6885 2.2911 21.3385C2.67472 19.7635 3.36524 18.1885 4.5161 16.7635C6.51093 14.2885 9.34972 12.6385 12.6489 12.3385C14.6437 12.1135 16.7152 12.4135 18.5566 13.0885C18.5566 12.8635 18.5566 12.7135 18.4799 12.4885C16.6385 11.7385 14.6437 11.5135 12.4954 11.7385C9.11955 12.1135 6.12731 13.6885 3.97903 16.2385C2.44455 18.0385 1.52386 20.1385 1.29369 22.3885C1.21696 22.6885 1.21696 22.9135 1.14024 23.3635C1.06352 24.1135 1.06352 25.6135 1.21696 26.3635C1.98421 32.8885 8.12214 37.6885 15.0273 36.9385C16.4851 36.7885 17.8661 36.4135 19.1704 35.8135C20.1678 36.5635 21.3954 37.2385 22.623 37.8385C25.8454 39.2635 29.7583 39.3385 30.679 39.4135C32.5204 39.6385 34.1316 41.8885 34.6687 42.3385C35.2058 42.7885 38.6583 42.0385 38.6583 42.0385C38.6583 42.0385 38.4282 41.3635 38.2747 40.4635C38.1213 39.5635 37.1239 39.1885 36.9704 38.9635C36.817 38.7385 32.367 36.7885 31.5997 36.3385C30.9092 35.8885 29.9885 34.9885 29.0678 33.4885C28.1471 31.9885 28.5308 30.7885 28.6842 30.5635C28.8377 30.2635 29.2213 30.2635 29.4514 29.8135C29.6816 29.4385 29.5282 29.4385 29.4514 29.2135C29.4514 28.9885 29.5282 28.9135 29.6816 28.5385C29.8351 28.2385 29.8351 28.2385 29.8351 28.2385C29.8351 28.2385 29.8351 28.2385 29.9118 27.8635C29.9885 27.4885 29.9118 27.8635 29.9885 27.7135C30.0652 27.5635 30.0652 27.5635 30.0652 27.5635C30.0652 27.5635 30.0652 27.3385 30.142 27.2635C30.2187 27.1885 29.9885 26.9635 30.0652 26.8135C30.142 26.6635 30.142 26.6635 30.2187 26.2885C30.2954 25.9885 30.2187 26.1385 30.2954 25.7635C30.2954 25.4635 30.4489 25.6135 30.6023 25.3885C30.7558 25.1635 30.4489 24.9385 30.4489 24.9385C30.4489 24.9385 30.4489 24.7885 30.8325 24.1885C31.1394 23.5135 30.8325 24.1885 30.9092 23.8885C31.0627 23.5885 30.7558 23.3635 30.7558 23.1385C30.2187 22.9135 30.3721 22.9885 30.3721 22.6885C30.4489 22.3885 30.3721 22.6885 30.5256 22.3885C30.679 22.0885 30.6023 21.9385 30.6023 21.9385L30.3721 21.2635C30.3721 21.2635 30.3721 21.2635 30.5256 21.1135C30.679 20.9635 30.5256 20.5885 30.5256 20.5885L30.2187 19.8385C30.2187 19.8385 30.2187 19.5385 30.2954 19.3135C30.3721 19.1635 30.0652 18.3385 30.0652 18.3385L30.2187 17.5885L29.9885 16.4635L29.8351 15.4885C29.8351 15.4885 29.7583 14.0635 29.7583 13.4635C29.7583 12.9385 29.7583 12.2635 29.9118 11.5135C30.0652 10.7635 32.2135 9.86347 32.5204 9.41347C32.7506 8.96347 31.2161 9.48847 31.2161 9.48847C31.2161 9.48847 34.0549 8.73847 34.2083 8.36347C34.3618 8.06347 32.367 8.43847 32.367 8.43847C32.2135 8.51347 32.367 8.43847 32.367 8.43847C33.1342 8.28847 35.129 7.76347 35.8195 7.23847C36.5868 6.56347 34.4385 7.08847 34.1316 7.16347C34.5152 7.08847 36.817 6.41347 37.1239 5.73847C37.2773 5.36347 35.3592 5.66347 35.3592 5.66347C36.3566 5.43847 37.5075 5.13847 38.198 4.68847C39.579 4.01347 39.7325 3.48847 39.4256 3.33847C39.1187 3.18847 36.817 3.93847 36.817 3.93847C36.7402 3.93847 36.7402 3.93847 36.6635 4.01347C36.7402 4.01347 36.817 3.93847 36.817 3.93847C37.5075 3.71347 38.198 3.41347 38.6583 3.11347C39.5023 2.58847 40.5765 1.83847 40.2696 1.38847ZM36.5868 2.81347C36.7402 2.73847 36.817 2.73847 36.8937 2.66347C36.7402 2.66347 36.6635 2.73847 36.5868 2.81347Z" fill="#171513"/>
<path d="M34.2084 0.563496C33.9782 0.338496 32.5205 1.0135 32.5205 1.0135C32.5205 1.0135 23.8506 5.0635 20.0144 7.0135C19.1705 7.4635 18.173 8.1385 18.173 9.4135C18.173 13.6135 19.017 19.7635 19.4774 22.9885C19.861 26.2135 20.2446 27.5635 20.1679 27.6385C20.1679 27.5635 20.3213 27.2635 20.4748 26.6635C20.8584 25.0135 20.9351 21.4135 20.9351 21.4135C20.9351 21.4135 21.4722 16.1635 22.0093 12.7135C22.3929 10.3885 22.623 8.5135 23.1601 7.7635C23.467 7.2385 30.5256 4.3885 31.7532 3.7885C33.2877 3.1135 33.4411 2.9635 33.4411 2.4385C33.5179 1.9135 31.9067 2.5135 31.9067 2.5135C31.9067 2.5135 33.2877 1.7635 33.8248 1.4635C34.1317 1.1635 34.4386 0.788496 34.2084 0.563496ZM5.12994 15.7135L7.35494 12.6385L4.59287 15.3385L3.28856 10.9135L3.51874 15.4135L1.21701 13.9885L3.28856 16.0885L0.373047 16.8385L3.36529 16.6885L0.910116 19.9885L3.82563 17.2135L5.05322 21.3385L4.82305 17.2135L7.12477 18.4885L4.97649 16.3885L7.89201 15.5635L5.12994 15.7135Z" fill="#171513"/>
</svg>
