<svg width="115" height="61" viewBox="0 0 115 61" fill="none" xmlns="http://www.w3.org/2000/svg">
<path d="M16.696 20.4584H22.4285V27.4679H28.545V20.4584H34.2793V39.5928H28.545V32.0152H22.4285V39.5928H16.696V20.4584ZM54.7305 20.4584V39.5928H49.1891V25.0057H45.5567V30.4983C45.5567 32.9622 45.3657 35.9925 43.837 37.6971C42.3083 39.5911 39.442 40.1593 36.1919 39.5911V34.8544C39.2492 35.4226 40.0153 34.2862 40.0153 30.4965V20.4567H54.7323L54.7305 20.4584ZM59.5094 20.4584H65.2419L68.4921 31.8258L71.7406 20.4584H77.4748L80.15 39.5928H74.7979L73.4603 29.3619L70.403 39.5928H66.5795L63.5204 29.3619L62.1828 39.5928H56.8325L59.5094 20.4584ZM82.252 20.4584H87.9862V28.2255L93.5294 20.4584H99.8352L92.5723 29.9301L100.026 39.5911H93.1455L87.9845 31.824V39.5911H82.2502V20.4584H82.252ZM57.5968 0C23.1946 0 0.450317 12.3126 0.450317 30.5C0.450317 48.6874 23.1946 61 57.5968 61C91.999 61 114.745 48.4963 114.745 30.5C114.745 12.5037 92.1918 0 57.5968 0ZM57.5968 58.1573C25.2965 58.1573 3.69875 46.9794 3.69875 30.4983C3.69875 14.0172 25.2965 2.84097 57.5968 2.84097C89.8971 2.84097 111.495 13.8278 111.495 30.4983C111.495 47.1687 90.0882 58.1573 57.5968 58.1573ZM57.5968 5.49254C27.2091 5.49254 6.94894 15.5341 6.94894 30.5C6.94894 45.4659 27.2091 55.5057 57.5968 55.5057C87.9845 55.5057 108.245 45.4659 108.245 30.5C108.245 15.5341 87.9862 5.49254 57.5968 5.49254ZM57.5968 54.9375C27.5896 54.9375 7.52219 45.0871 7.52219 30.5C7.52219 15.9129 27.5896 6.06073 57.5968 6.06073C87.6041 6.06073 107.673 15.9112 107.673 30.4983C107.673 45.0854 87.6041 54.9358 57.5968 54.9358" fill="#171513"/>
</svg>
