<svg width="145" height="45" viewBox="0 0 145 45" fill="none" xmlns="http://www.w3.org/2000/svg">
<path d="M35.9802 37.8477L31.8264 30.9434L27.7585 37.8477H22.8881L29.1451 27.4485L22.7684 17.7939H27.856L31.941 24.2398L35.8371 17.7939H40.7071L34.4334 27.7635L40.879 37.8477H35.9802Z" fill="#171513"/>
<path d="M56.7082 31.0295C56.7082 35.4412 53.3851 38.1914 49.0305 38.1914C45.1917 38.1914 41.9595 36.0716 41.6445 31.4592H45.7984C46.0848 33.4645 47.6892 34.324 49.4369 34.324C51.614 34.324 52.5543 32.8629 52.5543 30.9721C52.5543 28.9954 51.0934 27.7636 49.0592 27.7636C47.369 27.7636 46.2518 28.5657 45.7361 29.4252H41.7654L43.1382 17.794H56.1978L55.7629 21.6903H46.421L46.0502 25.5393C46.0502 25.5393 47.0317 24.3831 50.0047 24.3831C53.5858 24.3831 56.7082 26.7896 56.7082 31.0295Z" fill="#171513"/>
<path d="M42.1372 15.2964C39.9247 6.67068 32.9034 0.61055 18.3348 0.61055H0.745117L3.13289 16.7561C4.92911 31.3248 10.5011 36.0119 20.3615 37.7375C20.408 37.7447 20.719 37.789 20.7237 37.4234C20.7253 37.292 20.6416 37.1785 20.5276 37.1303C13.8627 34.3238 13.102 25.1216 11.6786 15.8863L10.5766 8.52722H20.618C29.876 8.52722 37.0226 8.38101 41.5488 15.5266C41.6166 15.6276 41.7209 15.7016 41.8449 15.7016C42.0201 15.7016 42.1496 15.5595 42.1496 15.3843C42.1496 15.3538 42.1452 15.3244 42.1372 15.2964Z" fill="#171513"/>
<path d="M60.1932 27.8056C60.1932 21.5759 64.7161 17.0815 71.0026 17.0815C75.2125 17.0815 79.0243 19.5279 80.1337 22.8844L77.7727 23.681C76.9193 21.1777 74.1033 19.3572 71.0026 19.3572C66.1952 19.3572 62.7818 22.856 62.7818 27.8056C62.7818 32.6983 66.2237 36.2824 71.0026 36.2824C75.3264 36.2824 78.7398 33.1818 78.8536 29.1425L68.8977 29.1141V26.81H81.4706C81.8973 33.637 77.5167 38.5581 71.0026 38.5581C64.7161 38.5581 60.1932 34.0352 60.1932 27.8056Z" fill="#171513"/>
<path d="M84.5828 23.4819H86.8869V25.4162H87.1429C87.7973 24.1077 89.3901 23.1975 90.9831 23.1975C91.6374 23.1975 92.3201 23.3397 92.7468 23.5672V25.7575C92.0071 25.4446 91.1539 25.3308 90.6133 25.3308C88.4514 25.3308 86.9439 27.2651 86.9439 30.1097V37.8469H84.5828V23.4819Z" fill="#171513"/>
<path d="M107.132 30.6501C107.132 27.4072 104.885 25.0463 101.784 25.0463C98.6553 25.0463 96.4364 27.4072 96.4364 30.6501C96.4364 33.9213 98.6553 36.2823 101.784 36.2823C104.885 36.2823 107.132 33.9213 107.132 30.6501ZM94.0754 30.6501C94.0754 26.1273 97.2614 22.9129 101.784 22.9129C106.279 22.9129 109.493 26.1273 109.493 30.6501C109.493 35.2014 106.279 38.4158 101.784 38.4158C97.2614 38.4158 94.0754 35.2014 94.0754 30.6501Z" fill="#171513"/>
<path d="M125.371 37.8468H123.01V35.8841H122.726C121.73 37.4485 120.109 38.3589 118.232 38.3589C114.562 38.3589 112.258 35.7135 112.258 32.0438V23.4818H114.619V32.0438C114.619 34.4902 116.041 36.2254 118.516 36.2254C120.934 36.2254 123.01 34.3764 123.01 31.8448V23.4818H125.371V37.8468Z" fill="#171513"/>
<path d="M131.437 30.6502C131.437 33.8076 133.684 36.2823 136.785 36.2823C139.857 36.2823 142.104 33.8076 142.104 30.6502C142.104 27.4358 139.857 25.0463 136.785 25.0463C133.684 25.0463 131.437 27.4927 131.437 30.6502ZM144.465 30.6502C144.465 35.1446 141.251 38.4158 137.069 38.4158C134.765 38.4158 132.831 37.4202 131.778 35.7135H131.522V44.3894H129.161V23.4819H131.522V25.6722H131.778C132.831 23.937 134.68 22.913 137.041 22.913C141.222 22.913 144.465 26.1557 144.465 30.6502Z" fill="#171513"/>
</svg>
