<svg width="200" height="212" viewBox="0 0 200 212" fill="none" xmlns="http://www.w3.org/2000/svg">
<g filter="url(#filter0_d_7437_3921)">
<rect x="93.7695" y="151.981" width="115" height="50.4177" rx="11.6349" transform="rotate(4.64384 93.7695 151.981)" fill="#FFA566" shape-rendering="crispEdges"/>
<path d="M116.905 179.353L117.845 174.694C117.96 174.101 118.199 173.639 118.56 173.307C118.922 172.962 119.403 172.814 120.001 172.863L127.935 173.507C128.479 173.551 128.898 173.752 129.19 174.111C129.496 174.457 129.627 174.902 129.583 175.447C129.539 175.992 129.344 176.417 128.998 176.724C128.653 177.017 128.201 177.141 127.643 177.095L121.145 176.567L120.808 178.246C120.956 178.231 121.137 178.219 121.352 178.21C121.567 178.2 121.795 178.199 122.035 178.205C122.29 178.199 122.543 178.206 122.796 178.226C123.062 178.235 123.316 178.249 123.555 178.268C124.419 178.338 125.209 178.483 125.927 178.702C126.66 178.908 127.277 179.213 127.78 179.615C128.296 180.004 128.684 180.504 128.942 181.114C129.201 181.71 129.296 182.44 129.226 183.304C129.162 184.088 128.959 184.78 128.615 185.381C128.272 185.982 127.797 186.478 127.19 186.871C126.584 187.249 125.846 187.524 124.976 187.694C124.121 187.852 123.141 187.886 122.038 187.797C120.802 187.696 119.679 187.444 118.668 187.041C117.658 186.638 116.832 186.103 116.19 185.435C115.894 185.13 115.691 184.826 115.582 184.523C115.473 184.22 115.436 183.936 115.471 183.671C115.489 183.445 115.553 183.237 115.662 183.045C115.786 182.841 115.927 182.672 116.085 182.537C116.257 182.391 116.446 182.286 116.652 182.222C116.859 182.145 117.062 182.115 117.261 182.131C117.474 182.148 117.69 182.206 117.909 182.304C118.143 182.39 118.366 182.529 118.578 182.72C118.803 182.912 119.069 183.094 119.376 183.266C119.683 183.438 120.012 183.592 120.362 183.727C120.714 183.85 121.072 183.959 121.439 184.056C121.82 184.14 122.19 184.197 122.549 184.226C123.426 184.297 124.079 184.243 124.509 184.064C124.952 183.873 125.191 183.571 125.224 183.159C125.261 182.707 125.075 182.358 124.667 182.111C124.26 181.85 123.552 181.679 122.542 181.597C122.21 181.57 121.856 181.555 121.482 181.551C121.109 181.534 120.742 181.524 120.381 181.522C120.033 181.52 119.705 181.52 119.398 181.522C119.104 181.512 118.878 181.5 118.718 181.487C118.107 181.437 117.615 181.23 117.244 180.866C116.886 180.489 116.773 179.985 116.905 179.353ZM131.348 181.068C131.254 182.224 131.316 183.273 131.534 184.214C131.765 185.155 132.14 185.975 132.659 186.673C133.192 187.358 133.863 187.908 134.672 188.321C135.482 188.721 136.425 188.965 137.502 189.053C138.565 189.139 139.529 189.043 140.395 188.766C141.26 188.488 142.011 188.048 142.649 187.444C143.287 186.84 143.796 186.092 144.176 185.2C144.569 184.309 144.812 183.299 144.903 182.169C144.997 181.013 144.915 179.963 144.658 179.019C144.413 178.076 144.018 177.261 143.472 176.575C142.939 175.89 142.268 175.34 141.459 174.927C140.649 174.513 139.733 174.265 138.71 174.182C137.713 174.101 136.789 174.199 135.937 174.478C135.085 174.757 134.334 175.191 133.684 175.78C133.034 176.369 132.506 177.109 132.099 177.999C131.692 178.889 131.442 179.912 131.348 181.068ZM135.335 181.392C135.385 180.781 135.489 180.241 135.647 179.772C135.819 179.304 136.037 178.921 136.303 178.621C136.569 178.308 136.882 178.08 137.241 177.935C137.601 177.79 137.993 177.735 138.418 177.77C138.844 177.804 139.216 177.915 139.535 178.101C139.868 178.289 140.147 178.552 140.374 178.892C140.601 179.231 140.76 179.652 140.853 180.155C140.947 180.644 140.968 181.208 140.917 181.845C140.86 182.536 140.739 183.122 140.553 183.602C140.381 184.069 140.164 184.446 139.9 184.733C139.635 185.019 139.331 185.222 138.987 185.341C138.643 185.46 138.272 185.503 137.873 185.471C137.461 185.437 137.082 185.326 136.736 185.138C136.405 184.937 136.126 184.667 135.899 184.327C135.674 183.975 135.507 183.553 135.4 183.063C135.306 182.574 135.284 182.017 135.335 181.392ZM146.692 182.315C146.598 183.471 146.66 184.519 146.878 185.46C147.109 186.402 147.484 187.221 148.003 187.919C148.536 188.604 149.207 189.154 150.016 189.567C150.826 189.968 151.769 190.212 152.846 190.299C153.909 190.385 154.873 190.29 155.739 190.012C156.604 189.735 157.355 189.294 157.993 188.69C158.631 188.087 159.14 187.339 159.52 186.447C159.913 185.556 160.156 184.545 160.247 183.416C160.341 182.259 160.259 181.209 160.002 180.265C159.757 179.323 159.362 178.508 158.816 177.821C158.283 177.136 157.612 176.586 156.803 176.173C155.993 175.759 155.077 175.511 154.054 175.428C153.057 175.347 152.133 175.446 151.281 175.724C150.429 176.003 149.678 176.437 149.028 177.026C148.378 177.616 147.85 178.355 147.443 179.245C147.036 180.135 146.786 181.158 146.692 182.315ZM150.679 182.638C150.729 182.027 150.833 181.487 150.991 181.018C151.163 180.551 151.381 180.167 151.647 179.868C151.913 179.555 152.226 179.326 152.585 179.181C152.945 179.037 153.337 178.982 153.762 179.016C154.188 179.051 154.56 179.161 154.879 179.348C155.212 179.535 155.491 179.799 155.718 180.138C155.945 180.478 156.104 180.899 156.197 181.401C156.291 181.89 156.312 182.454 156.261 183.092C156.204 183.783 156.083 184.368 155.897 184.848C155.725 185.316 155.508 185.693 155.244 185.979C154.979 186.265 154.675 186.468 154.331 186.587C153.987 186.706 153.616 186.75 153.217 186.717C152.805 186.684 152.426 186.573 152.08 186.384C151.749 186.183 151.47 185.913 151.243 185.574C151.018 185.221 150.851 184.799 150.744 184.309C150.65 183.82 150.628 183.263 150.679 182.638ZM174.758 180.722L174.004 190.011C173.955 190.609 173.75 191.081 173.387 191.426C173.026 191.758 172.546 191.899 171.948 191.851C171.35 191.802 170.9 191.585 170.596 191.199C170.294 190.8 170.168 190.301 170.216 189.703L171.084 179.019C171.133 178.421 171.351 177.957 171.739 177.627C172.141 177.285 172.642 177.138 173.24 177.187L177.167 177.506C177.964 177.571 178.681 177.716 179.318 177.942C179.957 178.154 180.488 178.451 180.911 178.834C181.35 179.204 181.674 179.651 181.886 180.177C182.097 180.702 182.176 181.304 182.121 181.982C182.054 182.806 181.851 183.485 181.514 184.019C181.19 184.542 180.769 184.949 180.251 185.241C179.746 185.521 179.17 185.702 178.521 185.783C177.886 185.865 177.216 185.877 176.511 185.82L173.342 185.563L173.617 182.174L176.886 182.44C177.325 182.475 177.668 182.45 177.916 182.363C178.164 182.276 178.3 182.079 178.325 181.774C178.352 181.442 178.242 181.225 177.996 181.125C177.765 181.013 177.436 180.939 177.011 180.905L174.758 180.722ZM170.527 181.923L171.384 181.993C172.009 182.043 172.46 182.254 172.738 182.624C173.015 182.995 173.137 183.392 173.102 183.818C173.067 184.256 172.881 184.643 172.547 184.977C172.213 185.297 171.734 185.432 171.109 185.381L170.252 185.312C169.627 185.261 169.176 185.051 168.899 184.68C168.635 184.298 168.522 183.887 168.557 183.449C168.592 183.023 168.769 182.65 169.09 182.328C169.423 182.007 169.903 181.872 170.527 181.923ZM170.194 186.029L177.23 186.601C177.855 186.652 178.306 186.869 178.582 187.253C178.86 187.623 178.982 188.014 178.948 188.426C178.913 188.865 178.728 189.251 178.393 189.585C178.059 189.906 177.58 190.041 176.955 189.99L169.918 189.418C169.294 189.368 168.843 189.157 168.565 188.787C168.302 188.404 168.188 187.994 168.224 187.555C168.257 187.143 168.441 186.777 168.774 186.456C169.109 186.122 169.582 185.98 170.194 186.029Z" fill="white"/>
</g>
<g filter="url(#filter1_d_7437_3921)">
<rect x="52.7871" y="110.563" width="154" height="59.1939" rx="13.6601" transform="rotate(-8.91659 52.7871 110.563)" fill="#D15700" shape-rendering="crispEdges"/>
<path d="M82.8659 135.438L82.6519 129.739C82.6193 129.015 82.7671 128.409 83.0953 127.92C83.4211 127.415 83.9396 127.107 84.6509 126.996L94.0874 125.515C94.7355 125.414 95.2802 125.53 95.7216 125.866C96.1763 126.184 96.4544 126.666 96.5561 127.314C96.6578 127.962 96.55 128.514 96.2326 128.968C95.9128 129.407 95.4209 129.679 94.757 129.783L87.0276 130.996L87.1067 133.048C87.2756 132.989 87.484 132.924 87.732 132.853C87.9799 132.782 88.2449 132.716 88.5269 132.655C88.8223 132.577 89.1201 132.514 89.4205 132.467C89.7341 132.401 90.0332 132.346 90.3177 132.301C91.3452 132.14 92.3084 132.086 93.2076 132.14C94.12 132.175 94.9259 132.356 95.6251 132.683C96.3376 132.993 96.9302 133.467 97.4029 134.105C97.8731 134.728 98.1888 135.553 98.35 136.58C98.4963 137.513 98.4539 138.378 98.2227 139.175C97.9915 139.973 97.577 140.686 96.9791 141.314C96.3788 141.926 95.5951 142.454 94.6282 142.897C93.6745 143.322 92.5417 143.638 91.2297 143.844C89.7597 144.074 88.3785 144.097 87.0861 143.911C85.7936 143.725 84.6794 143.333 83.7434 142.735C83.3119 142.462 82.9899 142.164 82.7773 141.842C82.5647 141.519 82.4414 141.198 82.4077 140.879C82.3655 140.61 82.3811 140.349 82.4546 140.094C82.5414 139.822 82.658 139.585 82.8046 139.384C82.9646 139.164 83.1556 138.988 83.3778 138.856C83.5976 138.709 83.826 138.616 84.0631 138.579C84.316 138.539 84.5843 138.546 84.8679 138.598C85.1648 138.633 85.4637 138.732 85.7647 138.895C86.0814 139.056 86.4431 139.193 86.8498 139.308C87.2564 139.422 87.683 139.509 88.1296 139.568C88.5738 139.612 89.0233 139.639 89.4783 139.648C89.9466 139.64 90.3942 139.602 90.821 139.535C91.8642 139.371 92.611 139.125 93.0613 138.795C93.525 138.447 93.7184 138.028 93.6415 137.538C93.5572 137 93.2423 136.645 92.6968 136.471C92.1488 136.282 91.2742 136.281 90.0728 136.47C89.6777 136.532 89.2613 136.613 88.8237 136.714C88.3836 136.8 87.9526 136.892 87.5308 136.99C87.1248 137.086 86.7425 137.179 86.3839 137.267C86.0386 137.338 85.7711 137.388 85.5814 137.417C84.8543 137.532 84.2227 137.428 83.6865 137.107C83.1636 136.768 82.8901 136.212 82.8659 135.438ZM107.378 132.249C107.594 133.624 107.961 134.829 108.48 135.866C109.014 136.899 109.682 137.75 110.484 138.418C111.298 139.067 112.236 139.52 113.296 139.774C114.354 140.013 115.523 140.032 116.803 139.831C118.068 139.633 119.166 139.25 120.097 138.683C121.028 138.116 121.781 137.39 122.355 136.507C122.929 135.623 123.312 134.607 123.504 133.46C123.713 132.309 123.711 131.063 123.501 129.719C123.285 128.344 122.894 127.142 122.328 126.113C121.777 125.082 121.087 124.243 120.256 123.596C119.442 122.946 118.504 122.494 117.444 122.239C116.384 121.985 115.245 121.953 114.028 122.144C112.843 122.33 111.792 122.705 110.876 123.27C109.961 123.835 109.207 124.552 108.615 125.422C108.023 126.293 107.614 127.304 107.39 128.457C107.166 129.609 107.162 130.873 107.378 132.249ZM112.12 131.505C112.006 130.778 111.975 130.118 112.028 129.527C112.097 128.933 112.244 128.424 112.469 128C112.691 127.56 112.992 127.205 113.371 126.936C113.75 126.666 114.192 126.491 114.698 126.412C115.203 126.332 115.669 126.356 116.094 126.484C116.534 126.609 116.935 126.838 117.295 127.17C117.654 127.502 117.959 127.949 118.209 128.509C118.456 129.053 118.64 129.704 118.759 130.463C118.888 131.285 118.911 132.002 118.829 132.614C118.76 133.208 118.612 133.709 118.385 134.117C118.157 134.525 117.859 134.847 117.491 135.083C117.124 135.319 116.703 135.474 116.228 135.549C115.738 135.626 115.265 135.603 114.809 135.48C114.365 135.339 113.964 135.102 113.604 134.77C113.242 134.422 112.929 133.977 112.666 133.435C112.418 132.891 112.236 132.248 112.12 131.505ZM125.43 129.416C125.646 130.791 126.014 131.997 126.532 133.033C127.067 134.067 127.735 134.918 128.536 135.585C129.351 136.235 130.288 136.687 131.348 136.942C132.406 137.181 133.575 137.2 134.856 136.999C136.12 136.801 137.218 136.418 138.15 135.851C139.081 135.283 139.833 134.558 140.407 133.674C140.981 132.791 141.365 131.775 141.557 130.627C141.765 129.477 141.764 128.23 141.553 126.887C141.338 125.512 140.946 124.31 140.38 123.281C139.83 122.25 139.139 121.411 138.309 120.764C137.494 120.114 136.557 119.662 135.497 119.407C134.436 119.152 133.298 119.12 132.081 119.311C130.895 119.497 129.845 119.873 128.929 120.437C128.014 121.002 127.26 121.72 126.667 122.59C126.075 123.46 125.667 124.472 125.443 125.625C125.219 126.777 125.215 128.041 125.43 129.416ZM130.172 128.672C130.058 127.945 130.028 127.286 130.081 126.695C130.15 126.101 130.297 125.592 130.522 125.168C130.744 124.728 131.045 124.373 131.423 124.103C131.802 123.833 132.244 123.659 132.75 123.579C133.256 123.5 133.721 123.524 134.146 123.652C134.587 123.777 134.987 124.006 135.347 124.338C135.707 124.67 136.012 125.116 136.262 125.676C136.509 126.221 136.692 126.872 136.811 127.631C136.94 128.453 136.964 129.17 136.882 129.782C136.813 130.376 136.665 130.877 136.437 131.285C136.21 131.693 135.912 132.015 135.544 132.251C135.176 132.487 134.755 132.642 134.281 132.716C133.791 132.793 133.318 132.77 132.861 132.648C132.418 132.507 132.016 132.27 131.657 131.938C131.294 131.59 130.981 131.145 130.718 130.603C130.471 130.059 130.289 129.415 130.172 128.672ZM143.483 126.584C143.699 127.959 144.066 129.165 144.585 130.201C145.12 131.234 145.788 132.085 146.589 132.753C147.403 133.403 148.341 133.855 149.401 134.11C150.459 134.349 151.628 134.368 152.908 134.167C154.173 133.968 155.271 133.586 156.202 133.018C157.133 132.451 157.886 131.726 158.46 130.842C159.034 129.958 159.417 128.943 159.61 127.795C159.818 126.645 159.817 125.398 159.606 124.054C159.39 122.679 158.999 121.477 158.433 120.449C157.882 119.418 157.192 118.578 156.362 117.931C155.547 117.282 154.61 116.829 153.549 116.575C152.489 116.32 151.35 116.288 150.133 116.479C148.948 116.665 147.897 117.04 146.982 117.605C146.066 118.17 145.312 118.887 144.72 119.758C144.128 120.628 143.72 121.64 143.496 122.792C143.271 123.945 143.267 125.209 143.483 126.584ZM148.225 125.84C148.111 125.113 148.08 124.454 148.133 123.862C148.202 123.268 148.349 122.76 148.574 122.336C148.797 121.896 149.097 121.541 149.476 121.271C149.855 121.001 150.297 120.826 150.803 120.747C151.309 120.668 151.774 120.692 152.199 120.819C152.64 120.945 153.04 121.173 153.4 121.506C153.76 121.838 154.064 122.284 154.314 122.844C154.562 123.388 154.745 124.04 154.864 124.798C154.993 125.62 155.016 126.337 154.934 126.949C154.865 127.543 154.717 128.044 154.49 128.453C154.262 128.861 153.965 129.183 153.597 129.419C153.229 129.655 152.808 129.81 152.334 129.884C151.844 129.961 151.37 129.938 150.914 129.815C150.471 129.674 150.069 129.438 149.709 129.105C149.347 128.757 149.034 128.312 148.771 127.771C148.524 127.226 148.342 126.583 148.225 125.84ZM175.38 116.891L177.114 127.94C177.225 128.651 177.118 129.259 176.793 129.764C176.464 130.252 175.945 130.552 175.233 130.664C174.522 130.776 173.935 130.649 173.473 130.284C173.009 129.904 172.721 129.358 172.609 128.646L170.615 115.938C170.503 115.227 170.628 114.624 170.987 114.13C171.361 113.618 171.903 113.307 172.614 113.195L177.285 112.462C178.233 112.313 179.111 112.281 179.918 112.365C180.722 112.433 181.425 112.63 182.027 112.957C182.642 113.265 183.147 113.696 183.542 114.25C183.936 114.803 184.197 115.483 184.323 116.289C184.477 117.269 184.432 118.119 184.188 118.837C183.958 119.537 183.582 120.131 183.059 120.618C182.549 121.086 181.928 121.459 181.194 121.736C180.476 122.011 179.698 122.214 178.86 122.345L175.09 122.937L174.458 118.906L178.346 118.296C178.868 118.214 179.261 118.088 179.525 117.917C179.79 117.746 179.894 117.478 179.837 117.115C179.775 116.72 179.586 116.498 179.271 116.45C178.969 116.384 178.565 116.391 178.06 116.47L175.38 116.891ZM170.783 119.483L171.802 119.323C172.545 119.206 173.13 119.325 173.558 119.679C173.987 120.033 174.24 120.463 174.32 120.969C174.401 121.49 174.294 121.993 173.997 122.477C173.698 122.945 173.177 123.237 172.434 123.354L171.415 123.514C170.672 123.63 170.087 123.511 169.659 123.157C169.244 122.785 168.996 122.338 168.914 121.817C168.834 121.311 168.936 120.825 169.22 120.36C169.519 119.892 170.04 119.599 170.783 119.483ZM171.549 124.367L179.918 123.054C180.661 122.937 181.248 123.064 181.679 123.434C182.107 123.788 182.359 124.21 182.436 124.7C182.518 125.221 182.41 125.724 182.114 126.208C181.815 126.676 181.294 126.968 180.551 127.085L172.181 128.398C171.438 128.514 170.853 128.396 170.425 128.042C170.01 127.669 169.762 127.223 169.68 126.701C169.603 126.211 169.714 125.732 170.013 125.264C170.31 124.78 170.822 124.481 171.549 124.367Z" fill="white"/>
</g>
<g filter="url(#filter2_d_7437_3921)">
<rect x="0.408203" y="54.2812" width="195" height="73.2168" rx="16.8962" transform="rotate(-16.1187 0.408203 54.2812)" fill="#FF6900" shape-rendering="crispEdges"/>
<path d="M43.9474 89.6108C44.0806 90.0719 44.2741 90.4532 44.5278 90.7546C44.8006 91.0505 45.1049 91.2749 45.4405 91.4277C45.7761 91.5805 46.1335 91.6646 46.5127 91.68C46.8918 91.6953 47.2639 91.6502 47.629 91.5447C47.9749 91.4448 48.304 91.2872 48.6166 91.0719C48.9291 90.8567 49.1866 90.595 49.3889 90.2867C49.6105 89.9728 49.7482 89.6207 49.8019 89.2305C49.8749 88.8346 49.8448 88.4062 49.7115 87.945L45.114 72.036C44.8475 71.1138 44.4114 70.4695 43.8059 70.1032C43.2197 69.7314 42.5711 69.6482 41.8602 69.8536C41.5527 69.9424 41.24 70.0849 40.9219 70.2809C40.623 70.4713 40.3312 70.7222 40.0464 71.0335L33.9427 77.5753C33.5319 78.0271 33.2792 78.4852 33.1845 78.9498C33.1089 79.4088 33.1295 79.8401 33.2461 80.2436C33.4848 81.0698 33.9358 81.6577 34.5989 82.0073C35.2757 82.3322 35.9888 82.3863 36.7381 82.1698C37.0455 82.0809 37.3199 81.9496 37.5611 81.7758C37.8215 81.5965 38.0737 81.3883 38.3174 81.1513L40.7741 78.6301L43.9474 89.6108ZM51.6957 77.8784L50.5371 70.8435C50.3833 69.9512 50.4716 69.1762 50.8021 68.5186C51.1269 67.8418 51.7217 67.3785 52.5863 67.1286L64.0569 63.8137C64.8447 63.5861 65.5385 63.6458 66.1385 63.9929C66.7521 64.3152 67.1727 64.8702 67.4004 65.658C67.628 66.4457 67.5807 67.1464 67.2584 67.76C66.9305 68.3544 66.3631 68.7682 65.5561 69.0014L56.1606 71.7166L56.5803 74.2497C56.7806 74.1502 57.0288 74.0368 57.3252 73.9095C57.6215 73.7822 57.9398 73.659 58.2801 73.5399C58.634 73.3959 58.9935 73.2712 59.3586 73.1657C59.7373 73.0355 60.0996 72.9204 60.4455 72.8204C61.6944 72.4595 62.8805 72.2416 64.0039 72.1668C65.1409 72.0672 66.1687 72.1658 67.0872 72.4624C68.0193 72.7343 68.8285 73.2291 69.5147 73.9468C70.1954 74.6453 70.7162 75.619 71.0771 76.8679C71.4047 78.0015 71.4876 79.0809 71.3259 80.1061C71.1642 81.1313 70.7618 82.0803 70.1189 82.9531C69.4704 83.8067 68.5812 84.5841 67.4515 85.2854C66.3354 85.9618 64.98 86.5305 63.3853 86.9913C61.5984 87.5077 59.889 87.7519 58.2571 87.7239C56.6251 87.6958 55.1819 87.3843 53.9273 86.7892C53.3496 86.5189 52.9036 86.2002 52.5893 85.8331C52.275 85.4659 52.0719 85.0874 51.9801 84.6976C51.8857 84.3709 51.8641 84.0441 51.9153 83.717C51.9802 83.3651 52.0878 83.053 52.238 82.7806C52.402 82.4834 52.6114 82.2355 52.8663 82.0369C53.1156 81.8191 53.3844 81.6686 53.6726 81.5853C53.98 81.4965 54.3137 81.4625 54.6737 81.4834C55.0473 81.4795 55.4335 81.5553 55.8323 81.7107C56.2503 81.8605 56.7204 81.9744 57.2427 82.0525C57.7649 82.1306 58.3076 82.1716 58.8708 82.1754C59.4284 82.1599 59.9901 82.1225 60.5558 82.0631C61.1352 81.979 61.6843 81.8619 62.2031 81.712C63.4712 81.3455 64.3587 80.9225 64.8655 80.443C65.3859 79.9386 65.5601 79.3887 65.3879 78.793C65.1991 78.1398 64.7529 77.7483 64.0492 77.6185C63.34 77.4696 62.2553 77.6061 60.795 78.0281C60.3147 78.1669 59.811 78.3333 59.2842 78.5272C58.7517 78.7019 58.2317 78.8834 57.724 79.0717C57.2356 79.2545 56.7759 79.429 56.3451 79.5951C55.928 79.7365 55.6041 79.8405 55.3735 79.9071C54.4897 80.1625 53.6902 80.1334 52.975 79.8196C52.2734 79.4811 51.847 78.834 51.6957 77.8784ZM81.1138 70.2201C81.5968 71.8917 82.2413 73.3293 83.0471 74.5329C83.8722 75.7309 84.8338 76.6813 85.9321 77.384C87.044 78.062 88.2774 78.4758 89.6322 78.6255C90.9815 78.7561 92.4343 78.5965 93.9906 78.1467C95.5277 77.7025 96.8293 77.0557 97.8954 76.2063C98.9615 75.357 99.7813 74.3394 100.355 73.1536C100.928 71.9678 101.244 70.6482 101.303 69.1947C101.381 67.7357 101.184 66.1896 100.712 64.5565C100.229 62.8849 99.5555 61.4556 98.692 60.2687C97.8477 59.0762 96.86 58.1437 95.7289 57.4713C94.617 56.7934 93.3836 56.3795 92.0288 56.2298C90.6739 56.0801 89.2568 56.219 87.7773 56.6465C86.3363 57.0629 85.0923 57.6931 84.0454 58.5369C82.9985 59.3807 82.1761 60.3887 81.578 61.5608C80.9799 62.7329 80.6322 64.0513 80.535 65.5158C80.4378 66.9804 80.6307 68.5485 81.1138 70.2201ZM86.8779 68.5543C86.6225 67.6705 86.4813 66.8577 86.4543 66.1161C86.4466 65.3688 86.549 64.7147 86.7616 64.1536C86.9686 63.5733 87.2858 63.0861 87.7132 62.692C88.1406 62.2978 88.6617 62.0119 89.2765 61.8342C89.8913 61.6565 90.4723 61.6136 91.0192 61.7053C91.5854 61.7915 92.1177 62.0124 92.616 62.3681C93.1143 62.7237 93.5623 63.2292 93.9599 63.8846C94.3519 64.5208 94.6812 65.3 94.9477 66.2222C95.2364 67.2214 95.3778 68.1069 95.3719 68.8789C95.3797 69.6261 95.2745 70.2707 95.0564 70.8125C94.8382 71.3544 94.5195 71.8004 94.1002 72.1506C93.681 72.5007 93.1831 72.7591 92.6067 72.9257C92.0111 73.0978 91.4206 73.1435 90.8352 73.0629C90.2634 72.9575 89.7284 72.727 89.2301 72.3713C88.7262 71.9965 88.2686 71.4938 87.8574 70.8631C87.4654 70.227 87.1389 69.4574 86.8779 68.5543ZM102.817 63.948C103.301 65.6196 103.945 67.0572 104.751 68.2607C105.576 69.4588 106.538 70.4092 107.636 71.1119C108.748 71.7898 109.981 72.2037 111.336 72.3534C112.685 72.484 114.138 72.3243 115.694 71.8746C117.231 71.4304 118.533 70.7836 119.599 69.9342C120.665 69.0849 121.485 68.0673 122.058 66.8815C122.632 65.6957 122.948 64.3761 123.006 62.9226C123.084 61.4636 122.887 59.9175 122.415 58.2843C121.932 56.6127 121.259 55.1835 120.396 53.9965C119.551 52.8041 118.564 51.8716 117.433 51.1992C116.321 50.5213 115.087 50.1074 113.732 49.9577C112.378 49.8079 110.96 49.9468 109.481 50.3744C108.04 50.7908 106.796 51.4209 105.749 52.2648C104.702 53.1086 103.88 54.1166 103.282 55.2887C102.684 56.4608 102.336 57.7792 102.239 59.2437C102.141 60.7083 102.334 62.2764 102.817 63.948ZM108.582 62.2822C108.326 61.3984 108.185 60.5856 108.158 59.8439C108.15 59.0967 108.253 58.4426 108.465 57.8815C108.672 57.3012 108.989 56.814 109.417 56.4198C109.844 56.0257 110.365 55.7398 110.98 55.5621C111.595 55.3844 112.176 55.3414 112.723 55.4332C113.289 55.5194 113.821 55.7403 114.32 56.0959C114.818 56.4516 115.266 56.9571 115.664 57.6125C116.056 58.2486 116.385 59.0278 116.651 59.9501C116.94 60.9492 117.082 61.8348 117.076 62.6068C117.083 63.354 116.978 63.9985 116.76 64.5404C116.542 65.0823 116.223 65.5283 115.804 65.8784C115.385 66.2286 114.887 66.487 114.31 66.6536C113.715 66.8257 113.124 66.8714 112.539 66.7908C111.967 66.6854 111.432 66.4548 110.934 66.0992C110.43 65.7244 109.972 65.2216 109.561 64.591C109.169 63.9548 108.843 63.1852 108.582 62.2822ZM124.521 57.6758C125.004 59.3474 125.649 60.785 126.454 61.9886C127.28 63.1867 128.241 64.137 129.339 64.8398C130.451 65.5177 131.685 65.9316 133.04 66.0813C134.389 66.2118 135.842 66.0522 137.398 65.6025C138.935 65.1583 140.237 64.5115 141.303 63.6621C142.369 62.8127 143.189 61.7951 143.762 60.6094C144.335 59.4236 144.651 58.1039 144.71 56.6505C144.788 55.1915 144.591 53.6454 144.119 52.0122C143.636 50.3406 142.963 48.9113 142.099 47.7244C141.255 46.5319 140.267 45.5995 139.136 44.9271C138.024 44.2491 136.791 43.8353 135.436 43.6855C134.081 43.5358 132.664 43.6747 131.185 44.1022C129.744 44.5187 128.5 45.1488 127.453 45.9926C126.406 46.8365 125.583 47.8444 124.985 49.0166C124.387 50.1887 124.04 51.507 123.942 52.9716C123.845 54.4362 124.038 56.0042 124.521 57.6758ZM130.285 56.0101C130.03 55.1262 129.889 54.3135 129.862 53.5718C129.854 52.8246 129.956 52.1704 130.169 51.6094C130.376 51.0291 130.693 50.5419 131.121 50.1477C131.548 49.7536 132.069 49.4676 132.684 49.29C133.299 49.1123 133.88 49.0693 134.427 49.1611C134.993 49.2473 135.525 49.4682 136.023 49.8238C136.522 50.1794 136.97 50.685 137.367 51.3403C137.759 51.9765 138.089 52.7557 138.355 53.678C138.644 54.6771 138.785 55.5627 138.779 56.3346C138.787 57.0819 138.682 57.7264 138.464 58.2683C138.246 58.8101 137.927 59.2561 137.508 59.6063C137.088 59.9565 136.59 60.2148 136.014 60.3814C135.418 60.5536 134.828 60.5993 134.243 60.5186C133.671 60.4132 133.136 60.1827 132.637 59.8271C132.134 59.4522 131.676 58.9495 131.265 58.3189C130.873 57.6827 130.546 56.9131 130.285 56.0101ZM162.079 40.7952L165.96 54.2256C166.21 55.0902 166.172 55.8609 165.847 56.5377C165.517 57.1953 164.92 57.649 164.055 57.8989C163.19 58.1488 162.443 58.0837 161.813 57.7038C161.177 57.3046 160.734 56.6727 160.484 55.8081L156.02 40.3602C155.77 39.4956 155.829 38.7289 156.198 38.0602C156.581 37.3668 157.204 36.8951 158.069 36.6453L163.747 35.0045C164.899 34.6713 165.983 34.4936 166.996 34.4713C168.004 34.4298 168.907 34.5644 169.705 34.8752C170.516 35.1612 171.21 35.6165 171.786 36.2411C172.362 36.8657 172.792 37.668 173.075 38.6479C173.419 39.8392 173.497 40.8994 173.307 41.8285C173.131 42.7329 172.757 43.5279 172.185 44.2137C171.627 44.8748 170.914 45.4346 170.047 45.8933C169.2 46.3464 168.267 46.7201 167.249 47.0144L162.666 48.3386L161.25 43.4391L165.977 42.0732C166.611 41.89 167.079 41.6715 167.38 41.4179C167.681 41.1642 167.768 40.8164 167.641 40.3745C167.502 39.8942 167.233 39.6491 166.835 39.6393C166.45 39.6048 165.95 39.6763 165.335 39.854L162.079 40.7952ZM156.783 44.7301L158.022 44.372C158.925 44.111 159.67 44.1664 160.256 44.5383C160.843 44.9101 161.225 45.4035 161.402 46.0183C161.585 46.6524 161.531 47.2926 161.239 47.9391C160.942 48.5664 160.341 49.0105 159.438 49.2715L158.199 49.6296C157.296 49.8906 156.551 49.8351 155.965 49.4633C155.392 49.0667 155.014 48.5513 154.831 47.9173C154.653 47.3024 154.704 46.6842 154.982 46.0625C155.28 45.4352 155.88 44.9911 156.783 44.7301ZM158.499 50.6672L168.672 47.7271C169.576 47.4661 170.323 47.5311 170.915 47.9222C171.501 48.2941 171.88 48.7778 172.052 49.3734C172.236 50.0075 172.181 50.6477 171.889 51.2942C171.592 51.9215 170.991 52.3656 170.088 52.6266L159.915 55.5667C159.012 55.8276 158.267 55.7722 157.681 55.4003C157.108 55.0037 156.73 54.4884 156.547 53.8543C156.375 53.2587 156.437 52.6473 156.735 52.02C157.027 51.3735 157.615 50.9226 158.499 50.6672Z" fill="white"/>
</g>
<defs>
<filter id="filter0_d_7437_3921" x="89.6876" y="151.981" width="118.704" height="61.5628" filterUnits="userSpaceOnUse" color-interpolation-filters="sRGB">
<feFlood flood-opacity="0" result="BackgroundImageFix"/>
<feColorMatrix in="SourceAlpha" type="matrix" values="0 0 0 0 0 0 0 0 0 0 0 0 0 0 0 0 0 0 127 0" result="hardAlpha"/>
<feOffset dy="2"/>
<feComposite in2="hardAlpha" operator="out"/>
<feColorMatrix type="matrix" values="0 0 0 0 0 0 0 0 0 0 0 0 0 0 0 0 0 0 0.25 0"/>
<feBlend mode="normal" in2="BackgroundImageFix" result="effect1_dropShadow_7437_3921"/>
<feBlend mode="normal" in="SourceGraphic" in2="effect1_dropShadow_7437_3921" result="shape"/>
</filter>
<filter id="filter1_d_7437_3921" x="52.7871" y="86.6935" width="161.314" height="84.3479" filterUnits="userSpaceOnUse" color-interpolation-filters="sRGB">
<feFlood flood-opacity="0" result="BackgroundImageFix"/>
<feColorMatrix in="SourceAlpha" type="matrix" values="0 0 0 0 0 0 0 0 0 0 0 0 0 0 0 0 0 0 127 0" result="hardAlpha"/>
<feOffset dy="2"/>
<feComposite in2="hardAlpha" operator="out"/>
<feColorMatrix type="matrix" values="0 0 0 0 0 0 0 0 0 0 0 0 0 0 0 0 0 0 0.25 0"/>
<feBlend mode="normal" in2="BackgroundImageFix" result="effect1_dropShadow_7437_3921"/>
<feBlend mode="normal" in="SourceGraphic" in2="effect1_dropShadow_7437_3921" result="shape"/>
</filter>
<filter id="filter2_d_7437_3921" x="0.408203" y="0.143707" width="207.661" height="126.476" filterUnits="userSpaceOnUse" color-interpolation-filters="sRGB">
<feFlood flood-opacity="0" result="BackgroundImageFix"/>
<feColorMatrix in="SourceAlpha" type="matrix" values="0 0 0 0 0 0 0 0 0 0 0 0 0 0 0 0 0 0 127 0" result="hardAlpha"/>
<feOffset dy="2"/>
<feComposite in2="hardAlpha" operator="out"/>
<feColorMatrix type="matrix" values="0 0 0 0 0 0 0 0 0 0 0 0 0 0 0 0 0 0 0.25 0"/>
<feBlend mode="normal" in2="BackgroundImageFix" result="effect1_dropShadow_7437_3921"/>
<feBlend mode="normal" in="SourceGraphic" in2="effect1_dropShadow_7437_3921" result="shape"/>
</filter>
</defs>
</svg>
