<svg width="443" height="1045" viewBox="0 0 443 1045" fill="none" xmlns="http://www.w3.org/2000/svg">
<path d="M802.541 600.742C802.541 655.606 772.15 710.739 741.76 752.156C731.271 766.41 719.707 780.933 708.68 794.918C671.297 842.521 632.3 891.468 619.122 947.946C605.406 1007.11 621.005 1068.16 636.065 1127.33L637.948 1134.32C653.816 1196.18 667.263 1261.53 646.285 1321.78C625.577 1380.94 559.148 1436.08 484.113 1426.13C438.662 1419.94 403.162 1393.05 364.703 1360.77L245.562 1261C215.709 1235.98 178.326 1204.79 166.761 1164.98C157.886 1134.05 165.148 1102.05 172.409 1071.12C177.519 1048.8 182.898 1025.67 182.091 1002.81C179.94 939.34 132.606 885.821 87.1545 834.184L84.1962 830.688C36.0555 776.092 -7.5131 716.656 1.09304 652.917C9.96813 586.757 73.1695 535.927 131.799 493.434C186.394 453.9 254.168 404.952 268.153 338.255C274.069 310.284 269.766 281.239 265.732 253.269C262.236 230.14 258.74 206.473 260.891 183.075C269.766 82.4905 380.839 30.5846 446.192 8.80027C494.064 -7.3362 540.322 -1.15054 576.36 26.2815C611.054 52.3689 630.418 94.0549 628.266 137.893C626.921 163.98 620.736 189.798 614.819 215.079C612.13 226.106 609.44 237.67 607.02 248.966C601.103 278.011 595.455 321.311 612.667 359.232C629.611 396.884 665.918 424.585 701.149 451.748C734.767 477.566 769.461 504.192 788.018 539.692C798.238 559.594 802.541 580.033 802.541 600.742ZM612.13 996.625C612.13 980.219 613.743 963.814 617.509 947.408C630.687 890.662 669.683 841.176 707.335 793.573C718.362 779.588 729.657 765.335 740.146 750.812C781.563 694.334 823.249 612.038 786.135 540.499C767.847 505.536 733.423 478.911 699.805 453.362C664.573 426.198 627.997 398.229 610.785 360.039C593.304 321.311 599.22 277.742 605.137 248.428C607.289 237.132 610.247 225.568 612.936 214.272C618.853 189.261 625.039 163.442 626.384 137.624C628.535 94.5929 609.44 53.4447 575.284 27.6262C539.784 0.732032 494.064 -5.45376 446.999 10.4139C381.915 32.1982 271.649 83.8351 263.043 183.075C261.16 206.204 264.656 229.871 267.884 252.731C271.918 280.97 276.221 310.015 270.304 338.255C256.05 405.759 188.008 454.975 133.144 494.51C74.7832 536.734 11.8507 587.026 3.24457 652.648C-5.09264 715.311 37.9381 774.479 85.8098 828.805L88.7682 832.301C134.488 884.207 182.091 938.264 184.243 1002.27C185.049 1025.4 179.671 1048.53 174.561 1071.12C167.568 1101.78 160.038 1133.52 168.913 1163.91C180.209 1203.17 217.323 1234.1 246.906 1258.84L366.048 1358.62C404.237 1390.63 439.469 1417.52 484.382 1423.44C558.61 1433.39 623.963 1378.79 644.403 1320.43C665.111 1260.99 651.664 1195.91 636.065 1134.32L634.183 1127.33C623.425 1084.84 612.13 1040.46 612.13 996.625Z" fill="white" fill-opacity="0.5"/>
</svg>
