<svg width="1112" height="1043" viewBox="0 0 1112 1043" fill="none" xmlns="http://www.w3.org/2000/svg">
<path d="M520.399 896.093C466.399 905.792 406.762 885.625 360.625 863.034C344.741 855.23 328.403 846.415 312.689 838.034C259.228 809.654 204.158 779.924 146.24 776.937C85.58 773.896 28.2488 800.04 -27.3245 825.322L-33.8741 828.411C-91.952 854.963 -153.899 879.751 -216.901 869.752C-278.797 859.829 -344.805 804.192 -348.274 728.579C-350.22 682.75 -330.025 643.055 -305.058 599.497L-227.912 464.595C-208.571 430.791 -184.473 388.482 -147.34 370.064C-118.468 355.862 -85.684 357.351 -53.9591 359.031C-31.0851 360.115 -7.36957 361.321 14.9879 356.486C77.0785 343.149 121.388 287.1 164.178 233.237L167.096 229.707C212.322 172.674 263.121 119.285 327.378 116.489C394.064 113.529 455.266 166.751 507.453 216.945C556.016 263.693 616.173 321.747 684.292 323.722C712.867 324.601 740.695 315.231 767.512 306.317C789.658 298.787 812.335 291.162 835.744 289.144C936.314 280.1 1007.04 380.249 1040.03 440.722C1064.37 484.987 1066.46 531.61 1045.83 571.93C1026.29 610.689 988.682 637.116 945.154 642.747C919.24 646.035 892.735 644.511 866.806 643.156C855.478 642.458 843.62 641.855 832.075 641.469C802.441 640.78 758.824 642.875 724.543 666.52C690.479 689.852 669.632 730.484 649.124 769.962C629.655 807.614 609.582 846.468 577.92 871.008C560.139 884.585 540.781 892.433 520.399 896.093ZM97.0921 778.659C113.239 775.759 129.672 774.448 146.484 775.254C204.667 778.193 260.266 807.829 313.775 836.473C329.489 844.854 345.515 853.452 361.663 861.209C424.573 891.99 512.942 918.472 576.793 869.297C607.973 845.117 628.094 806.528 647.298 768.924C667.806 729.445 688.87 688.501 723.416 664.809C758.444 640.758 802.372 638.88 832.271 639.521C843.769 639.642 855.675 640.51 867.268 641.16C892.931 642.563 919.437 644.087 945.086 640.847C987.82 635.358 1024.94 609.291 1044.32 571.109C1064.51 531.414 1062.52 485.32 1038.58 441.801C1005.64 381.593 935.323 282.19 836.125 291.262C813.027 293.497 790.351 301.122 768.421 308.339C741.34 317.302 713.512 326.671 684.672 325.839C615.711 323.742 555.242 265.471 506.632 218.459C454.757 168.481 394.133 115.43 328.023 118.559C264.872 121.43 214.243 174.242 169.234 230.963L166.316 234.492C123.309 288.668 78.5177 345.076 15.8977 358.508C-6.72451 363.391 -30.4401 362.185 -53.5788 361.149C-84.9914 359.686 -117.558 357.884 -145.901 371.991C-182.552 390.05 -206.433 432.047 -225.556 465.538L-302.702 600.44C-327.452 643.686 -347.695 683.117 -345.579 728.369C-342.253 803.187 -276.965 857.86 -215.911 867.662C-153.75 877.538 -92.0676 852.798 -34.2069 826.558L-27.6573 823.469C12.2648 805.37 53.9448 786.408 97.0921 778.659Z" fill="white" fill-opacity="0.1"/>
</svg>
