<svg width="1440" height="3041" viewBox="0 0 1440 3041" fill="none" xmlns="http://www.w3.org/2000/svg">
<g opacity="0.8">
<path opacity="0.3" d="M742.34 -37.1922C975.542 201.393 1156.59 490.682 1269.24 804.708C1274.92 820.489 1280.48 837.085 1278.17 853.68C1275.86 870.275 1263.05 886.687 1246.27 887.16C1231.54 887.553 1219.4 876.315 1209.06 865.811C1177.6 833.881 1146.12 801.977 1114.66 770.047C1091.5 746.572 1058.41 721.18 1029.06 736.199C1009.76 746.099 1001.98 770.756 1005.14 792.209C1008.29 813.662 1019.97 832.752 1031.21 851.29C1031.21 851.29 1388.9 1562.16 1437.98 1822.62C1396.28 1555.31 1313.1 1306.43 1194.59 1063.22C1185.08 1043.74 1173.37 1012.36 1172.19 990.697C1171.01 969.033 1180.99 945.165 1201.1 937.077C1231.69 924.762 1262.36 953.068 1283.27 978.565C1311.7 1013.23 1340.14 1047.86 1368.58 1082.52C1377.93 1093.92 1388.98 1106.23 1403.69 1107.15C1420.41 1108.23 1434.67 1093.05 1438.48 1076.72C1442.29 1060.39 1438.24 1043.37 1434.04 1027.14C1350.41 704.164 1133.51 265.595 865.677 -12.7455L742.34 -37.1922Z" fill="#554872"/>
<path opacity="0.3" d="M-151 1180.81C82.2019 1419.39 263.254 1708.68 375.903 2022.71C381.575 2038.49 387.142 2055.09 384.831 2071.68C382.52 2088.28 369.706 2104.69 352.927 2105.16C338.196 2105.55 326.064 2094.32 315.719 2083.81C284.261 2051.88 252.777 2019.98 221.319 1988.05C198.159 1964.57 165.074 1939.18 135.717 1954.2C116.417 1964.1 108.644 1988.76 111.795 2010.21C114.946 2031.66 126.631 2050.75 137.87 2069.29C137.87 2069.29 495.563 2780.16 544.64 3040.62C502.942 2773.31 419.755 2524.43 301.25 2281.22C291.745 2261.74 280.033 2230.36 278.852 2208.7C277.67 2187.03 287.648 2163.17 307.762 2155.08C338.353 2142.76 369.023 2171.07 389.925 2196.57C418.363 2231.23 446.801 2265.86 475.239 2300.52C484.587 2311.92 495.642 2324.23 510.347 2325.15C527.073 2326.23 541.332 2311.05 545.139 2294.72C548.947 2278.39 544.903 2261.37 540.701 2245.14C457.068 1922.16 240.173 1483.6 -27.6638 1205.26L-151 1180.81Z" fill="#554872"/>
<path opacity="0.3" d="M-99.7694 866.285C-10.5955 868.937 -89.8436 1417.71 -63.2175 1332.58C10.3063 1097.57 234.081 1132.34 388.429 1293.2C481.646 1390.35 637.779 1663.13 714.06 1751.43C732.152 1772.39 753.894 1793.42 781.413 1796.65C816.048 1800.72 848.346 1773.83 862.106 1741.77C885.896 1686.36 876.916 1611.66 870.088 1553.55C859.637 1464.38 835.48 1377.41 810.009 1291.54C771.593 1162.17 719.496 1036.97 657.316 917.279C656.738 916.177 656.187 915.1 655.609 914.023C577.831 764.928 482.04 625.18 370.442 499.375C327.246 450.692 277.697 408.022 223.315 372.284C475.817 628.383 676.038 993.56 783.619 1394.24C791.917 1425.17 799.794 1457.05 800.004 1488.72C800.214 1520.38 791.444 1552.29 772.512 1566.52C751.006 1582.7 717.973 1576.79 698.857 1550.66C680.397 1525.43 659.311 1497.72 642.401 1467.53C557.586 1315.96 463.659 1173.72 362.249 1043.22C316.428 984.239 268.559 927.153 214.755 885.218C160.951 843.309 100.32 817.234 43.1032 824.876L-99.7694 866.285Z" fill="#554872"/>
<path opacity="0.3" d="M128.706 -137C133.013 -137.079 431.756 310.13 617.928 761.855C508.588 571.98 344.026 318.139 -9.20338 30.5292C-8.91456 30.7655 34.2019 -18.5217 38.1669 -23.0119C52.2677 -38.9508 119.279 -136.816 128.706 -137Z" fill="#554872"/>
<path opacity="0.4" d="M1320.45 822.538C1320.45 825.076 1322.5 827.133 1325.04 827.133C1327.58 827.133 1329.64 825.076 1329.64 822.538C1329.64 820 1327.58 817.942 1325.04 817.942C1322.5 817.942 1320.45 820 1320.45 822.538Z" fill="white"/>
<path opacity="0.4" d="M1130.52 427.347C1130.52 429.885 1132.58 431.943 1135.11 431.943C1137.65 431.943 1139.71 429.885 1139.71 427.347C1139.71 424.809 1137.65 422.752 1135.11 422.752C1132.58 422.752 1130.52 424.809 1130.52 427.347Z" fill="white"/>
<path opacity="0.4" d="M1263.52 1608.32C1263.52 1610.86 1265.58 1612.92 1268.11 1612.92C1270.65 1612.92 1272.71 1610.86 1272.71 1608.32C1272.71 1605.79 1270.65 1603.73 1268.11 1603.73C1265.58 1603.73 1263.52 1605.79 1263.52 1608.32Z" fill="white"/>
<path opacity="0.4" d="M1250.21 1274.84C1250.21 1277.38 1252.26 1279.44 1254.8 1279.44C1257.34 1279.44 1259.4 1277.38 1259.4 1274.84C1259.4 1272.3 1257.34 1270.25 1254.8 1270.25C1252.26 1270.25 1250.21 1272.3 1250.21 1274.84Z" fill="white"/>
<path opacity="0.4" d="M935.761 913.786C935.761 916.324 937.818 918.381 940.356 918.381C942.894 918.381 944.951 916.324 944.951 913.786C944.951 911.248 942.894 909.191 940.356 909.191C937.818 909.191 935.761 911.248 935.761 913.786Z" fill="white"/>
<path opacity="0.4" d="M236.155 938.075C236.155 940.613 238.213 942.67 240.751 942.67C243.289 942.67 245.346 940.613 245.346 938.075C245.346 935.537 243.289 933.48 240.751 933.48C238.213 933.48 236.155 935.537 236.155 938.075Z" fill="white"/>
<path opacity="0.4" d="M335.255 1380.87C335.255 1383.41 337.312 1385.47 339.85 1385.47C342.388 1385.47 344.446 1383.41 344.446 1380.87C344.446 1378.33 342.388 1376.28 339.85 1376.28C337.312 1376.28 335.255 1378.33 335.255 1380.87Z" fill="white"/>
<path opacity="0.4" d="M196.557 1553.65C196.557 1556.19 198.615 1558.25 201.153 1558.25C203.691 1558.25 205.748 1556.19 205.748 1553.65C205.748 1551.12 203.691 1549.06 201.153 1549.06C198.615 1549.06 196.557 1551.12 196.557 1553.65Z" fill="white"/>
<path opacity="0.4" d="M1072.86 1529.23C1072.86 1531.77 1074.91 1533.83 1077.45 1533.83C1079.99 1533.83 1082.05 1531.77 1082.05 1529.23C1082.05 1526.69 1079.99 1524.64 1077.45 1524.64C1074.91 1524.64 1072.86 1526.69 1072.86 1529.23Z" fill="white"/>
<path opacity="0.4" d="M478.547 1826.35C478.547 1828.88 480.604 1830.94 483.142 1830.94C485.68 1830.94 487.738 1828.88 487.738 1826.35C487.738 1823.81 485.68 1821.75 483.142 1821.75C480.604 1821.75 478.547 1823.81 478.547 1826.35Z" fill="white"/>
<path opacity="0.4" d="M533.533 1245.96C533.533 1248.49 535.59 1250.55 538.128 1250.55C540.666 1250.55 542.723 1248.49 542.723 1245.96C542.723 1243.42 540.666 1241.36 538.128 1241.36C535.59 1241.36 533.533 1243.42 533.533 1245.96Z" fill="white"/>
<path opacity="0.4" d="M503.992 1027.12C503.992 1029.66 506.05 1031.71 508.587 1031.71C511.125 1031.71 513.183 1029.66 513.183 1027.12C513.183 1024.58 511.125 1022.52 508.587 1022.52C506.05 1022.52 503.992 1024.58 503.992 1027.12Z" fill="white"/>
<path opacity="0.4" d="M215.805 500.215C215.805 502.753 217.862 504.81 220.4 504.81C222.938 504.81 224.996 502.753 224.996 500.215C224.996 497.677 222.938 495.619 220.4 495.619C217.862 495.619 215.805 497.677 215.805 500.215Z" fill="white"/>
<path opacity="0.4" d="M1015.64 759.281C1015.64 761.819 1017.7 763.877 1020.23 763.877C1022.77 763.877 1024.83 761.819 1024.83 759.281C1024.83 756.744 1022.77 754.686 1020.23 754.686C1017.7 754.686 1015.64 756.744 1015.64 759.281Z" fill="white"/>
<path opacity="0.4" d="M1106.65 1090.14C1106.65 1092.68 1108.71 1094.73 1111.25 1094.73C1113.78 1094.73 1115.84 1092.68 1115.84 1090.14C1115.84 1087.6 1113.78 1085.54 1111.25 1085.54C1108.71 1085.54 1106.65 1087.6 1106.65 1090.14Z" fill="white"/>
<path opacity="0.4" d="M750.822 416.187C750.822 418.725 752.879 420.783 755.417 420.783C757.955 420.783 760.013 418.725 760.013 416.187C760.013 413.65 757.955 411.592 755.417 411.592C752.879 411.592 750.822 413.65 750.822 416.187Z" fill="white"/>
<path opacity="0.4" d="M574.89 445.728C574.89 448.266 576.947 450.324 579.485 450.324C582.023 450.324 584.081 448.266 584.081 445.728C584.081 443.19 582.023 441.133 579.485 441.133C576.947 441.133 574.89 443.19 574.89 445.728Z" fill="white"/>
<path opacity="0.7" d="M926.255 1075.09L929.196 1090.87L932.137 1075.09L937.993 1079.14L933.975 1073.25L949.757 1070.31L933.975 1067.4L937.993 1061.52L932.137 1065.53L929.196 1049.78L926.255 1065.53L920.373 1061.52L924.417 1067.4L908.636 1070.31L924.417 1073.25L920.373 1079.14L926.255 1075.09Z" fill="#E1D1FF"/>
<path opacity="0.7" d="M530.933 1899.74L533.848 1915.49L536.789 1899.74L542.671 1903.76L538.627 1897.88L554.409 1894.96L538.627 1892.02L542.671 1886.14L536.789 1890.18L533.848 1874.4L530.933 1890.18L525.051 1886.14L529.069 1892.02L513.314 1894.96L529.069 1897.88L525.051 1903.76L530.933 1899.74Z" fill="#E1D1FF"/>
<path opacity="0.7" d="M556.509 1533.3L559.45 1549.06L562.391 1533.3L568.273 1537.32L564.229 1531.44L580.01 1528.52L564.229 1525.58L568.273 1519.7L562.391 1523.74L559.45 1507.96L556.509 1523.74L550.653 1519.7L554.671 1525.58L538.89 1528.52L554.671 1531.44L550.653 1537.32L556.509 1533.3Z" fill="#E1D1FF"/>
<path opacity="0.7" d="M887.235 1836.88L890.176 1852.66L893.117 1836.88L898.973 1840.89L894.955 1835.04L910.736 1832.1L894.955 1829.16L898.973 1823.28L893.117 1827.32L890.176 1811.54L887.235 1827.32L881.353 1823.28L885.397 1829.16L869.616 1832.1L885.397 1835.04L881.353 1840.89L887.235 1836.88Z" fill="#E1D1FF"/>
<path opacity="0.7" d="M1233.56 1459.7L1236.5 1475.48L1239.44 1459.7L1245.3 1463.72L1241.28 1457.86L1257.06 1454.92L1241.28 1451.98L1245.3 1446.1L1239.44 1450.14L1236.5 1434.36L1233.56 1450.14L1227.68 1446.1L1231.72 1451.98L1215.94 1454.92L1231.72 1457.86L1227.68 1463.72L1233.56 1459.7Z" fill="#E1D1FF"/>
<path opacity="0.7" d="M428.446 705.739L431.361 721.521L434.302 705.739L440.184 709.757L436.14 703.901L451.921 700.96L436.14 698.019L440.184 692.138L434.302 696.181L431.361 680.4L428.446 696.181L422.564 692.138L426.582 698.019L410.801 700.96L426.582 703.901L422.564 709.757L428.446 705.739Z" fill="#E1D1FF"/>
<path opacity="0.7" d="M311.648 831.071L314.589 846.853L317.504 831.071L323.386 835.089L319.368 829.207L335.124 826.292L319.368 823.351L323.386 817.469L317.504 821.513L314.589 805.732L311.648 821.513L305.767 817.469L309.81 823.351L294.029 826.292L309.81 829.207L305.767 835.089L311.648 831.071Z" fill="#E1D1FF"/>
<path opacity="0.7" d="M1022.99 573.712L1025.93 589.494L1028.87 573.712L1034.76 577.756L1030.71 571.874L1046.49 568.933L1030.71 565.992L1034.76 560.136L1028.87 564.154L1025.93 548.373L1022.99 564.154L1017.14 560.136L1021.15 565.992L1005.37 568.933L1021.15 571.874L1017.14 577.756L1022.99 573.712Z" fill="#E1D1FF"/>
<path opacity="0.7" d="M1010.36 221.875L1013.3 237.656L1016.24 221.875L1022.13 225.893L1018.08 220.011L1033.86 217.096L1018.08 214.155L1022.13 208.273L1016.24 212.317L1013.3 196.536L1010.36 212.317L1004.51 208.273L1008.52 214.155L992.742 217.096L1008.52 220.011L1004.51 225.893L1010.36 221.875Z" fill="#E1D1FF"/>
<path opacity="0.7" d="M1298.94 401.141L1301.88 416.922L1304.82 401.141L1310.68 405.158L1306.66 399.303L1322.44 396.362L1306.66 393.421L1310.68 387.539L1304.82 391.583L1301.88 375.801L1298.94 391.583L1293.06 387.539L1297.1 393.421L1281.32 396.362L1297.1 399.303L1293.06 405.158L1298.94 401.141Z" fill="#E1D1FF"/>
<path opacity="0.7" d="M207.954 182.513L210.895 198.294L213.836 182.513L219.718 186.531L215.674 180.675L231.455 177.734L215.674 174.793L219.718 168.911L213.836 172.955L210.895 157.174L207.954 172.955L202.098 168.911L206.116 174.793L190.334 177.734L206.116 180.675L202.098 186.531L207.954 182.513Z" fill="#E1D1FF"/>
</g>
</svg>
