<svg width="200" height="200" viewBox="0 0 200 200" fill="none" xmlns="http://www.w3.org/2000/svg">
<g clip-path="url(#clip0)">
<path d="M49.8687 94.2938C49.0364 95.1901 48.3001 96.1504 47.6598 97.1748C47.0836 98.1992 46.4754 99.2236 45.8352 100.248C45.323 101.144 44.8108 102.073 44.2986 103.033C43.8505 104.057 43.6584 105.018 43.7224 105.914C43.7224 106.426 43.8505 106.842 44.1066 107.162C44.3626 107.483 44.8428 107.611 45.5471 107.547C47.8519 107.291 49.9647 106.618 51.8854 105.53C53.8701 104.441 55.6308 103.193 57.1673 101.785C58.3838 100.696 59.4401 99.4156 60.3365 97.9431C61.2328 96.5346 61.6169 94.998 61.4889 93.3334C61.1048 91.9249 60.4645 90.7085 59.5682 89.6841C58.7359 88.5957 57.7755 87.6674 56.6871 86.8991C55.5987 86.1308 54.4463 85.4585 53.2299 84.8823C52.0134 84.3061 50.861 83.7619 49.7726 83.2497C46.5715 81.6492 43.4663 79.8885 40.4572 77.9678C37.5122 76.0471 35.0152 73.6783 32.9665 70.8612C32.0061 69.3887 31.2699 67.8521 30.7577 66.2515C30.2455 64.651 30.0534 63.0184 30.1815 61.3538C30.3736 58.8569 31.0458 56.424 32.1982 54.0551C33.3506 51.6862 34.7591 49.4454 36.4238 47.3327C38.1524 45.1559 39.977 43.1711 41.8977 41.3785C43.8184 39.5858 45.6431 38.0493 47.3717 36.7688C51.8534 33.6957 56.399 31.1347 61.0087 29.086C65.6824 26.9732 70.4842 25.5647 75.414 24.8605C77.4627 24.6044 79.4474 24.5403 81.3681 24.6684C83.2888 24.7964 84.9855 25.2126 86.458 25.9168C87.9305 26.5571 89.115 27.5815 90.0113 28.99C90.9076 30.3345 91.3558 32.1591 91.3558 34.464C91.2277 36.1286 90.9076 37.6651 90.3954 39.0736C89.9473 40.4822 89.4351 41.8587 88.8589 43.2031C87.2583 46.5324 85.6257 49.7335 83.9611 52.8066C82.3605 55.8798 80.888 59.0169 79.5435 62.2181C79.1593 63.1144 78.6151 64.3308 77.9109 65.8674C77.2066 67.404 76.4703 69.0046 75.7021 70.6692C74.9978 72.3338 74.3576 73.8703 73.7814 75.2788C73.2692 76.6874 72.9491 77.6797 72.821 78.2559C72.3088 77.8718 72.0527 77.1995 72.0527 76.2392C72.1168 75.2788 72.2448 74.2865 72.4369 73.2621C72.693 72.1737 72.9811 71.1493 73.3012 70.189C73.6213 69.2286 73.8774 68.4924 74.0695 67.9802C75.1579 64.715 76.3423 61.5458 77.6228 58.4727C78.9673 55.3996 80.3117 52.3265 81.6562 49.2534C82.9367 46.3083 84.1211 43.6833 85.2095 41.3785C86.362 39.0096 87.3223 36.5447 88.0906 33.9838C88.1546 33.5996 88.2506 33.1835 88.3787 32.7353C88.5067 32.2231 88.5708 31.711 88.5708 31.1988C88.5708 30.6866 88.5067 30.2064 88.3787 29.7583C88.3147 29.3101 88.1546 28.958 87.8985 28.7019C86.618 27.8696 84.9534 27.3894 82.9047 27.2613C80.92 27.1333 78.8392 27.2293 76.6624 27.5494C74.4856 27.8696 72.3729 28.3177 70.3241 28.8939C68.3394 29.4701 66.6748 30.0143 65.3303 30.5265C62.1291 31.807 58.6078 33.5997 54.7664 35.9045C50.925 38.1453 47.3397 40.7382 44.0105 43.6833C40.6813 46.6284 37.9283 49.8616 35.7515 53.3829C33.5747 56.8401 32.5824 60.4254 32.7744 64.1388C32.9665 65.9955 33.4147 67.6921 34.1189 69.2286C34.8232 70.7652 35.7195 72.1737 36.8079 73.4542C37.8963 74.6706 39.1127 75.791 40.4572 76.8154C41.8017 77.7757 43.2102 78.6721 44.6828 79.5044C45.9632 80.2727 47.2757 80.9769 48.6202 81.6171C49.9647 82.2574 51.2772 82.9296 52.5576 83.6339C54.4783 84.6583 56.303 85.6186 58.0316 86.5149C59.7603 87.4113 61.1688 88.7558 62.2572 90.5484C63.7297 92.9813 64.0498 95.2861 63.2175 97.4629C62.4492 99.6397 61.1688 101.56 59.3761 103.225C57.7755 104.698 55.9829 105.914 53.9982 106.874C52.0775 107.835 50.1247 108.475 48.14 108.795C45.9632 109.179 44.1066 108.571 42.57 106.97C42.1859 106.522 41.9618 106.01 41.8977 105.434C41.8977 104.858 41.9618 104.249 42.0898 103.609C42.2179 103.033 42.3779 102.457 42.57 101.881C42.8261 101.368 43.0502 100.952 43.2422 100.632C43.9465 99.4156 44.7148 98.2952 45.5471 97.2709C46.3794 96.2465 47.3397 95.2861 48.4281 94.3898C48.5562 94.2618 48.6842 94.1657 48.8123 94.1017C49.0684 93.9737 49.2284 93.9096 49.2924 93.9096C49.4205 93.9096 49.6126 94.0377 49.8687 94.2938Z" fill="white"/>
<path d="M114 64.715C113.167 66.0595 112.207 67.596 111.119 69.3247C110.03 70.9893 108.846 72.7819 107.565 74.7026C106.861 75.791 106.125 76.8794 105.357 77.9678C104.652 78.9922 103.948 80.0166 103.244 81.0409C102.732 81.7452 102.219 82.4174 101.707 83.0577C101.195 83.6339 100.683 84.2101 100.171 84.7863C99.4025 85.7467 98.5061 86.3549 97.4818 86.611C96.9696 86.803 96.3934 86.835 95.7531 86.707C95.433 86.643 95.1129 86.579 94.7928 86.5149C94.5367 86.4509 94.2486 86.3549 93.9285 86.2268C93.1602 85.8427 92.584 85.1704 92.1998 84.2101C91.8157 83.1857 91.6236 82.0653 91.6236 80.8489C91.4956 79.5684 91.4956 78.3199 91.6236 77.1035C91.7517 75.8871 91.9757 74.6706 92.2959 73.4542C92.4879 72.3658 92.744 71.2134 93.0641 69.9969C93.4483 68.7164 93.8004 67.5 94.1205 66.3476C93.4803 67.436 92.744 68.5564 91.9117 69.7088C91.1434 70.8612 90.4392 71.8216 89.799 72.5899C89.2227 73.2941 88.5185 73.9343 87.6862 74.5106C86.8539 75.0868 86.0856 75.3109 85.3813 75.1828C85.1252 75.1828 84.8051 75.0868 84.421 74.8947C84.0369 74.6386 83.7808 74.1584 83.6527 73.4542C83.5247 72.7499 83.5887 71.7576 83.8448 70.4771C84.1009 69.1326 84.5811 67.596 85.2853 65.8674C86.0536 63.9467 87.174 62.2501 88.6465 60.7775C89.4788 59.9452 90.3111 59.337 91.1434 58.9529C91.9757 58.5687 92.744 58.3447 93.4483 58.2806C94.1525 58.2166 94.7608 58.3127 95.2729 58.5687C95.7851 58.7608 96.1373 59.0169 96.3293 59.337C96.5214 59.0169 96.6815 58.6968 96.8095 58.3767C97.0016 57.9925 97.1936 57.6404 97.3857 57.3203C97.5138 57.0002 97.7058 56.616 97.9619 56.1679C98.282 55.6557 98.6982 55.3996 99.2104 55.3996C99.8506 55.3356 100.299 55.5276 100.555 55.9758C100.811 56.2959 100.811 56.7761 100.555 57.4163C100.363 58.0566 100.203 58.5367 100.075 58.8568C99.5625 60.2013 99.0823 61.5458 98.6342 62.8903C98.186 64.2348 97.7699 65.5793 97.3857 66.9238C97.0656 67.9482 96.7775 68.9725 96.5214 69.9969C96.2653 71.0213 96.0092 72.0457 95.7531 73.07C95.6251 73.7743 95.465 74.4785 95.2729 75.1828C95.1449 75.8871 95.0169 76.5913 94.8888 77.2956C94.6967 78.1279 94.5687 78.9602 94.5047 79.7925C94.4406 80.6248 94.4086 81.4891 94.4086 82.3854C94.4727 82.8336 94.5687 83.4738 94.6967 84.3061C94.8248 85.1384 95.1449 85.6506 95.6571 85.8427C95.9772 85.9067 96.2973 85.8747 96.6174 85.7467C96.9376 85.5546 97.2577 85.3625 97.5778 85.1704C98.218 84.7863 98.7622 84.3381 99.2104 83.826C99.7226 83.3138 100.235 82.8016 100.747 82.2894C101.899 80.9449 102.956 79.5684 103.916 78.1599C104.876 76.6874 105.869 75.2148 106.893 73.7423C107.854 72.2697 108.878 70.7652 109.966 69.2286C111.055 67.6921 111.887 66.4756 112.463 65.5793C112.719 65.2592 112.943 64.9391 113.135 64.6189C113.392 64.2988 113.616 64.0107 113.808 63.7546C114.064 63.4985 114.256 63.2424 114.384 62.9864C114.704 63.1784 114.768 63.4345 114.576 63.7546C114.448 64.0748 114.256 64.3949 114 64.715ZM85.6694 74.1264C85.7975 74.1904 85.9896 74.1264 86.2457 73.9343C86.4377 73.7423 86.6618 73.5182 86.9179 73.2621C87.238 73.006 87.5261 72.7499 87.7822 72.4938C88.0383 72.2377 88.2624 72.0136 88.4545 71.8216C89.0947 71.0533 89.7029 70.285 90.2791 69.5167C90.9194 68.7485 91.4956 67.9162 92.0078 67.0198C92.712 66.0595 93.3202 65.0671 93.8324 64.0427C94.4086 63.0184 94.9848 61.962 95.5611 60.8736C95.6891 60.7455 95.7211 60.6175 95.6571 60.4895C95.529 59.9773 95.337 59.5931 95.0809 59.337C94.8888 59.0169 94.5047 58.9209 93.9285 59.0489C93.0321 59.241 92.2639 59.6251 91.6236 60.2013C91.0474 60.7775 90.5032 61.4178 89.991 62.122C88.4545 64.2348 87.27 66.6677 86.4377 69.4207C86.3097 69.7408 86.1816 70.125 86.0536 70.5731C85.9255 71.0213 85.8295 71.5015 85.7655 72.0136C85.6374 72.4618 85.5734 72.91 85.5734 73.3581C85.5094 73.7423 85.5414 73.9984 85.6694 74.1264Z" fill="white"/>
<path d="M135.906 64.1388C135.074 64.9711 134.114 65.7714 133.025 66.5396C131.937 67.2439 131.008 67.7241 130.24 67.9802C128.896 68.4924 127.519 68.7164 126.111 68.6524C124.766 68.5244 123.646 67.8841 122.749 66.7317C122.621 66.9878 122.461 67.2759 122.269 67.596C122.077 67.8521 121.885 68.1402 121.693 68.4604C121.181 69.2927 120.605 70.221 119.964 71.2454C119.324 72.2697 118.62 73.2621 117.852 74.2225C117.147 75.1828 116.443 75.9831 115.739 76.6233C115.035 77.2636 114.362 77.6157 113.722 77.6797C112.826 77.8078 112.026 77.5517 111.321 76.9114C110.809 76.3992 110.617 75.599 110.745 74.5106C110.809 73.3581 110.905 72.5258 111.033 72.0136C111.033 71.8216 111.097 71.4694 111.225 70.9573C111.353 70.3811 111.481 69.7728 111.609 69.1326C111.737 68.4283 111.865 67.7881 111.994 67.2119C112.122 66.5717 112.218 66.0595 112.282 65.6753C112.41 64.9711 112.602 63.8827 112.858 62.4101C113.178 60.9376 113.402 59.5291 113.53 58.1846C113.594 57.8645 113.626 57.4803 113.626 57.0322C113.626 56.584 113.754 56.2959 114.01 56.1679C114.394 56.0398 114.715 56.1679 114.971 56.552C115.291 56.9362 115.547 57.3523 115.739 57.8005C116.059 58.6328 116.219 59.5931 116.219 60.6815C116.219 61.7699 116.123 62.8263 115.931 63.8507C115.803 64.875 115.611 65.8994 115.355 66.9238C115.227 67.436 115.003 68.3323 114.683 69.6128C114.426 70.8932 114.138 72.1737 113.818 73.4542C113.69 74.1584 113.562 74.7667 113.434 75.2788C113.37 75.791 113.37 76.1752 113.434 76.4313C113.818 76.2392 114.202 75.9831 114.586 75.663C115.035 75.2788 115.451 74.8947 115.835 74.5106C116.219 74.0624 116.571 73.6142 116.891 73.1661C117.275 72.7179 117.596 72.3338 117.852 72.0136C118.428 71.1813 119.068 70.253 119.772 69.2286C120.541 68.1402 121.277 66.8918 121.981 65.4833C121.597 64.2028 121.437 62.8583 121.501 61.4498C121.629 59.9773 122.109 58.7288 122.942 57.7044C123.646 57.0002 124.318 56.9041 124.958 57.4163C125.342 57.9285 125.534 58.5047 125.534 59.145C125.534 59.7852 125.438 60.4574 125.246 61.1617C125.054 61.866 124.798 62.5382 124.478 63.1784C124.158 63.8187 123.902 64.3308 123.71 64.715C123.71 64.779 123.742 64.9711 123.806 65.2912C123.934 65.5473 124.094 65.8354 124.286 66.1555C124.478 66.4756 124.734 66.7957 125.054 67.1159C125.438 67.372 125.919 67.532 126.495 67.596C127.455 67.6601 128.352 67.564 129.184 67.3079C130.08 67.0518 130.88 66.7317 131.585 66.3476C132.353 65.9634 132.993 65.5473 133.505 65.0991C134.082 64.651 134.53 64.2988 134.85 64.0427C135.042 63.9147 135.202 63.7866 135.33 63.6586C135.522 63.5306 135.682 63.4025 135.81 63.2745C135.938 63.1464 136.066 63.0504 136.194 62.9864C136.514 63.1144 136.578 63.3065 136.386 63.5626C136.194 63.8187 136.034 64.0107 135.906 64.1388ZM123.422 62.6022C123.742 62.09 123.934 61.5138 123.998 60.8736C124.126 60.2334 124.19 59.7532 124.19 59.4331C123.998 59.6251 123.806 60.1053 123.614 60.8736C123.422 61.6419 123.358 62.2181 123.422 62.6022Z" fill="white"/>
<path d="M137.459 64.9071C136.434 66.6997 135.698 68.4924 135.25 70.285C134.866 72.0777 134.802 73.4542 135.058 74.4145C135.122 74.7346 135.282 75.1188 135.538 75.5669C135.794 76.0151 136.178 76.3032 136.69 76.4313C137.395 76.5593 138.195 76.4633 139.091 76.1432C139.987 75.759 140.852 75.3108 141.684 74.7987C142.58 74.2225 143.413 73.6462 144.181 73.07C144.949 72.4298 145.558 71.9176 146.006 71.5335C147.222 70.5091 148.407 69.4847 149.559 68.4604C150.775 67.436 151.992 66.3796 153.208 65.2912C153.4 65.1631 153.624 64.9711 153.881 64.715C154.201 64.3949 154.521 64.1068 154.841 63.8507C155.161 63.5946 155.513 63.3065 155.897 62.9864C156.217 63.1144 156.313 63.2425 156.185 63.3705C156.121 63.4985 156.025 63.6266 155.897 63.7546L152.632 67.0198C150.839 68.6844 149.111 70.317 147.446 71.9176C145.782 73.5182 144.117 74.8627 142.452 75.9511C141.492 76.5913 140.5 77.0715 139.475 77.3916C138.515 77.6477 137.555 77.6797 136.594 77.4876C133.841 76.9755 132.305 75.3749 131.985 72.6859C131.857 71.5335 131.953 70.317 132.273 69.0366C132.593 67.7561 133.041 66.4756 133.617 65.1952C134.129 63.9147 134.706 62.7303 135.346 61.6419C136.05 60.5535 136.69 59.6251 137.266 58.8568C139.251 56.424 141.268 55.7837 143.317 56.9362C144.085 57.3203 144.469 57.9285 144.469 58.7608C144.405 59.9773 144.053 61.0977 143.413 62.122C142.837 63.1464 142.196 63.9467 141.492 64.5229C140.084 65.4833 138.739 65.6113 137.459 64.9071ZM138.707 64.3308C139.155 64.3308 139.603 64.1068 140.052 63.6586C140.5 63.2104 140.884 62.6982 141.204 62.122C141.588 61.4818 141.876 60.8416 142.068 60.2013C142.324 59.4971 142.484 58.9209 142.548 58.4727C142.548 58.0886 142.484 57.7685 142.356 57.5124C141.396 58.1526 140.628 58.9529 140.052 59.9132C139.539 60.8736 139.027 61.8019 138.515 62.6983C138.067 63.4665 138.131 64.0107 138.707 64.3308Z" fill="white"/>
<path d="M116.406 107.334C117.751 109.767 118.583 112.392 118.903 115.209C119.223 118.026 119.223 120.907 118.903 123.852C118.583 126.733 118.007 129.582 117.175 132.399C116.406 135.216 115.574 137.841 114.678 140.274C114.23 141.362 113.749 142.515 113.237 143.731C112.725 144.883 112.181 146.004 111.605 147.092C112.053 147.092 112.597 147.092 113.237 147.092C113.877 147.028 114.486 146.996 115.062 146.996C115.638 146.996 116.118 147.028 116.502 147.092C116.951 147.156 117.175 147.252 117.175 147.38C117.175 147.7 116.887 147.892 116.31 147.957C115.734 148.021 115.062 148.053 114.294 148.053C113.781 148.053 113.301 148.085 112.853 148.149C112.405 148.149 111.829 148.149 111.124 148.149C110.036 150.005 108.852 151.862 107.571 153.719C106.291 155.575 104.946 157.368 103.538 159.097C101.297 161.85 98.6399 164.571 95.5668 167.26C92.5577 169.949 89.2605 172.285 85.6752 174.27C82.1539 176.255 78.4405 177.727 74.5351 178.688C70.6297 179.712 66.7243 179.904 62.8188 179.264C60.8981 178.944 59.1375 178.304 57.5369 177.343C55.9363 176.383 54.5598 175.166 53.4074 173.694C52.255 172.285 51.3907 170.653 50.8145 168.796C50.1742 167.003 49.8861 165.083 49.9501 163.034C49.9501 161.561 50.1742 160.185 50.6224 158.905C51.0065 157.624 51.5507 156.376 52.255 155.159C53.5354 153.11 55.168 151.318 57.1528 149.781C59.2015 148.245 61.5704 147.156 64.2594 146.516C66.5002 145.94 68.805 145.62 71.1739 145.556C73.6068 145.492 76.0717 145.556 78.5686 145.748C83.1782 146.26 87.852 146.74 92.5897 147.188C97.3274 147.636 102.129 147.604 106.995 147.092C108.083 145.236 109.108 143.155 110.068 140.85C111.028 138.545 111.861 136.176 112.565 133.743C113.333 131.246 113.941 128.75 114.39 126.253C114.902 123.756 115.222 121.355 115.35 119.05C115.414 117.641 115.382 115.977 115.254 114.056C115.19 112.135 114.87 110.311 114.294 108.582C113.717 106.79 112.853 105.253 111.701 103.972C110.548 102.692 108.98 101.956 106.995 101.764C103.858 101.508 100.753 102.18 97.6795 103.78C94.6064 105.381 91.9494 107.654 89.7086 110.599C86.6355 114.568 84.8428 119.21 84.3307 124.524C84.2666 125.548 84.2987 126.573 84.4267 127.597C84.5547 128.621 84.8429 129.614 85.291 130.574C85.5471 131.086 85.7712 131.438 85.9633 131.631C86.2194 131.823 86.3794 131.983 86.4434 132.111C86.5075 132.239 86.4754 132.335 86.3474 132.399C86.2194 132.463 86.0593 132.431 85.8672 132.303C85.163 131.983 84.5547 131.374 84.0426 130.478C83.5944 129.518 83.3063 128.621 83.1782 127.789C82.538 124.652 82.6661 121.515 83.5624 118.378C84.5227 115.177 86.0273 112.231 88.076 109.543C89.7406 107.302 91.8214 105.381 94.3183 103.78C96.8152 102.18 99.4082 101.155 102.097 100.707C104.786 100.259 107.411 100.547 109.972 101.572C112.533 102.532 114.678 104.453 116.406 107.334ZM73.8629 177.727C77.064 176.831 80.2652 175.391 83.4663 173.406C86.6675 171.485 89.7086 169.212 92.5897 166.587C95.4707 163.898 98.0957 161.017 100.465 157.944C102.833 154.807 104.786 151.638 106.323 148.437C102.673 148.821 99.088 148.853 95.5668 148.533C92.0455 148.213 88.3641 147.86 84.5227 147.476C80.4252 147.028 76.1357 146.836 71.654 146.9C68.773 146.964 66.02 147.476 63.395 148.437C60.7701 149.333 58.4973 150.678 56.5766 152.47C54.6559 154.199 53.2473 156.344 52.351 158.905C51.3907 161.401 51.1986 164.25 51.7748 167.452C52.223 170.013 53.2153 172.093 54.7519 173.694C56.2884 175.294 58.1131 176.479 60.2259 177.247C62.3387 178.079 64.5795 178.496 66.9483 178.496C69.3812 178.56 71.6861 178.304 73.8629 177.727Z" fill="white"/>
<path d="M147.179 138.449C145.194 140.434 143.209 142.29 141.225 144.019C139.304 145.684 137.607 146.964 136.135 147.86C135.495 148.181 134.822 148.373 134.118 148.437C133.478 148.437 132.902 147.989 132.389 147.092C132.005 146.452 131.813 145.62 131.813 144.595C131.813 143.507 131.877 142.386 132.005 141.234C132.133 140.082 132.325 138.961 132.581 137.873C132.838 136.784 133.03 135.888 133.158 135.184C132.325 135.696 131.525 136.4 130.757 137.297C129.989 138.129 129.412 138.801 129.028 139.313C127.684 141.042 126.467 142.739 125.379 144.403C124.354 146.068 123.33 147.732 122.306 149.397C122.05 149.781 121.73 150.005 121.345 150.069C120.897 150.069 120.449 149.973 120.001 149.781C119.489 149.589 119.233 149.237 119.233 148.725C119.233 147.957 119.329 146.964 119.521 145.748C119.649 144.531 119.873 143.347 120.193 142.194C120.321 141.554 120.513 140.818 120.769 139.986C121.025 139.153 121.249 138.353 121.441 137.585C121.698 136.752 121.922 136.048 122.114 135.472C122.37 134.832 122.53 134.416 122.594 134.224C122.722 133.839 122.914 133.359 123.17 132.783C123.49 132.207 123.81 131.855 124.13 131.727C124.451 131.599 124.771 131.631 125.091 131.823C125.475 131.951 125.795 132.143 126.051 132.399C126.179 132.591 126.243 132.847 126.243 133.167C126.243 133.423 126.211 133.647 126.147 133.839C126.147 133.967 125.955 134.64 125.571 135.856C125.187 137.073 124.771 138.481 124.322 140.082C123.874 141.618 123.426 143.123 122.978 144.595C122.53 146.004 122.242 146.932 122.114 147.38C123.138 145.588 124.162 143.891 125.187 142.29C126.275 140.69 127.46 139.153 128.74 137.681C129.188 137.169 129.7 136.592 130.277 135.952C130.853 135.312 131.429 134.736 132.005 134.224C132.517 133.839 132.902 133.615 133.158 133.551C133.478 133.423 133.766 133.391 134.022 133.455C134.278 133.583 134.502 133.679 134.694 133.743C134.886 133.807 135.11 133.903 135.367 134.031C135.751 134.224 135.879 134.736 135.751 135.568C135.623 136.4 135.495 137.041 135.367 137.489C135.238 137.937 135.014 138.705 134.694 139.794C134.438 140.818 134.214 141.906 134.022 143.059C133.83 144.147 133.734 145.139 133.734 146.036C133.734 146.932 133.926 147.412 134.31 147.476C134.758 147.604 135.399 147.38 136.231 146.804C137.127 146.228 138.023 145.588 138.92 144.883C139.88 144.179 140.744 143.475 141.513 142.771C142.281 142.066 142.761 141.618 142.953 141.426C143.273 141.17 143.658 140.85 144.106 140.466C144.554 140.082 145.002 139.698 145.45 139.313C145.962 138.865 146.507 138.417 147.083 137.969C147.403 138.097 147.435 138.257 147.179 138.449Z" fill="white"/>
<path d="M166.825 137.969C167.466 138.097 167.594 138.417 167.21 138.929C166.825 139.441 166.345 140.082 165.769 140.85C165.257 141.618 164.713 142.386 164.136 143.155C163.752 143.667 163.24 144.307 162.6 145.075C162.024 145.78 161.319 146.484 160.487 147.188C159.655 147.828 158.727 148.405 157.702 148.917C156.742 149.365 155.685 149.589 154.533 149.589C153.701 149.589 152.9 149.429 152.132 149.109C151.364 148.725 150.66 148.341 150.019 147.957C149.443 147.508 148.899 147.06 148.387 146.612C147.939 146.164 147.618 145.844 147.426 145.652C147.106 145.46 146.69 145.364 146.178 145.364C146.05 145.684 145.858 146.132 145.602 146.708C145.41 147.22 145.218 147.764 145.026 148.341C144.833 148.853 144.641 149.365 144.449 149.877C144.257 150.389 144.097 150.742 143.969 150.934C143.649 151.766 143.137 152.054 142.433 151.798C141.92 151.606 141.728 151.222 141.856 150.645C141.92 150.069 142.112 149.301 142.433 148.341C143.137 146.292 143.777 144.243 144.353 142.194C144.929 140.146 145.57 137.905 146.274 135.472C146.338 135.152 146.626 134.159 147.138 132.495C147.65 130.766 148.291 128.718 149.059 126.349C149.827 123.916 150.628 121.323 151.46 118.57C152.356 115.753 153.188 113.096 153.957 110.599C154.725 108.102 155.397 105.925 155.974 104.069C156.614 102.148 157.062 100.867 157.318 100.227C157.51 99.7149 157.702 99.2988 157.894 98.9787C158.15 98.5945 158.502 98.4665 158.951 98.5945C159.271 98.7226 159.463 98.9146 159.527 99.1707C159.591 99.3628 159.559 99.779 159.431 100.419C159.239 101.187 158.983 102.116 158.662 103.204C158.406 104.229 158.15 105.125 157.894 105.893C157.83 106.149 157.574 107.014 157.126 108.486C156.678 109.959 156.134 111.751 155.493 113.864C154.917 115.977 154.245 118.282 153.477 120.779C152.772 123.276 152.1 125.644 151.46 127.885C150.82 130.126 150.243 132.143 149.731 133.935C149.219 135.664 148.899 136.88 148.771 137.585C149.091 137.137 149.507 136.624 150.019 136.048C150.596 135.472 151.172 134.992 151.748 134.608C152.388 134.159 153.028 133.839 153.669 133.647C154.309 133.455 154.853 133.487 155.301 133.743C155.813 134.063 156.07 134.512 156.07 135.088C156.07 135.6 156.006 136.176 155.877 136.816C155.621 137.713 154.981 138.865 153.957 140.274C152.996 141.618 151.876 142.739 150.596 143.635C150.275 143.891 149.827 144.179 149.251 144.499C148.739 144.755 148.355 144.915 148.099 144.979C148.355 145.171 148.707 145.492 149.155 145.94C149.603 146.324 150.115 146.708 150.692 147.092C151.268 147.476 151.876 147.828 152.516 148.149C153.221 148.405 153.893 148.533 154.533 148.533C155.621 148.469 156.646 148.149 157.606 147.572C158.63 146.996 159.559 146.356 160.391 145.652C161.223 144.883 161.96 144.115 162.6 143.347C163.24 142.515 163.752 141.842 164.136 141.33L166.825 137.969ZM146.658 144.211C146.85 144.403 147.106 144.435 147.426 144.307C148.259 143.859 149.027 143.283 149.731 142.579C150.179 142.066 150.692 141.458 151.268 140.754C151.908 140.05 152.452 139.345 152.9 138.641C153.413 137.873 153.797 137.137 154.053 136.432C154.373 135.728 154.501 135.12 154.437 134.608C153.733 134.736 153.028 135.088 152.324 135.664C150.596 137.201 149.091 138.833 147.811 140.562C147.811 140.626 147.779 140.69 147.715 140.754C147.715 140.754 147.715 140.786 147.715 140.85C147.522 141.426 147.33 142.002 147.138 142.579C146.946 143.091 146.786 143.635 146.658 144.211Z" fill="white"/>
</g>
<defs>
<clipPath id="clip0">
<rect width="200" height="200" fill="white"/>
</clipPath>
</defs>
</svg>
