<svg width="200" height="199" fill="none" xmlns="http://www.w3.org/2000/svg"><path d="M39.429 188.712c-3.354-4.689-3.882-10.38-1.657-16.799 2.226-6.421 7.169-13.44 14.492-20.624 14.64-14.363 38.58-29.181 68.374-40.989 29.794-11.808 59.674-18.321 83.854-19.344 12.095-.511 22.678.355 31.076 2.566 8.396 2.21 14.443 5.712 17.797 10.402 3.354 4.689 3.881 10.38 1.657 16.799-2.226 6.421-7.169 13.44-14.492 20.625-14.64 14.363-38.58 29.18-68.374 40.988-29.795 11.808-59.674 18.321-83.854 19.344-12.096.511-22.678-.355-31.077-2.565-8.395-2.21-14.443-5.713-17.796-10.403z" stroke="#3959FF" stroke-width="3"/><path d="M103.863 253.16c-4.69-3.353-8.192-9.401-10.402-17.796-2.21-8.398-3.075-18.98-2.563-31.074 1.025-24.18 7.54-54.057 19.352-83.85 11.812-29.793 26.632-53.733 40.998-68.372 7.186-7.323 14.206-12.266 20.628-14.491 6.419-2.225 12.111-1.697 16.8 1.656 4.69 3.354 8.193 9.401 10.402 17.796 2.21 8.398 3.075 18.98 2.563 31.075-1.025 24.179-7.54 54.057-19.352 83.85-11.812 29.792-26.632 53.732-40.997 68.371-7.186 7.323-14.207 12.266-20.628 14.491-6.42 2.225-12.111 1.697-16.801-1.656z" stroke="#3959FF" stroke-width="3"/></svg>