<svg width="210" height="215" fill="none" xmlns="http://www.w3.org/2000/svg"><path d="M147.211 54.381c13.626-10.831 29.257-7.683 43.589 7.049 14.288 14.685 27.022 40.659 34.744 74.487 7.722 33.828 8.937 68.959 4.713 98.359-4.237 29.493-13.85 52.707-27.476 63.539-13.627 10.831-29.258 7.683-43.59-7.049-14.288-14.685-27.022-40.659-34.744-74.487-7.722-33.828-8.937-68.959-4.713-98.359 4.238-29.493 13.851-52.707 27.477-63.539z" stroke="#67EACA" stroke-width="3"/><path d="M53.48 148.071c10.83-13.626 34.044-23.237 63.535-27.471 29.399-4.22 64.528-3 98.355 4.729 33.826 7.729 59.799 20.469 74.484 34.761 14.731 14.337 17.879 29.971 7.049 43.598-10.831 13.626-34.044 23.237-63.536 27.471-29.398 4.22-64.528 3-98.354-4.729-33.826-7.728-59.8-20.469-74.484-34.761-14.732-14.337-17.88-29.971-7.05-43.598z" stroke="#67EACA" stroke-width="3"/></svg>