<svg width="223" height="234" fill="none" xmlns="http://www.w3.org/2000/svg"><path d="M346.088 369.902c-6.122 7.438-15.026 10.659-26.106 9.852-11.082-.807-24.204-5.641-38.535-14.096-28.653-16.905-61.885-48.135-92.853-89.721-30.967-41.585-53.725-85.543-65.512-122.944-5.895-18.705-9.019-35.688-9.096-49.867-.078-14.175 2.885-25.375 9.006-32.813 6.122-7.439 15.026-10.659 26.106-9.852 11.082.807 24.204 5.64 38.535 14.096 28.653 16.905 61.885 48.135 92.853 89.721 30.967 41.585 53.725 85.542 65.512 122.943 5.895 18.706 9.019 35.688 9.096 49.867.078 14.176-2.885 25.375-9.006 32.814z" stroke="#FECD5A" stroke-width="3"/><path d="M419.889 242.076c-3.381 9.02-11.599 17.186-23.914 24.207-12.318 7.022-28.587 12.808-47.734 17.055-38.284 8.493-87.731 10.763-139.229 4.737-51.497-6.026-95.159-19.19-124.127-35.552-14.487-8.184-25.235-17.131-31.475-26.324-6.238-9.192-7.901-18.514-4.52-27.535 3.38-9.02 11.599-17.186 23.914-24.206 12.318-7.023 28.587-12.808 47.734-17.056 38.284-8.493 87.731-10.763 139.228-4.737 51.498 6.026 95.16 19.191 124.128 35.553 14.487 8.183 25.234 17.13 31.474 26.324 6.239 9.192 7.902 18.513 4.521 27.534z" stroke="#FECD5A" stroke-width="3"/></svg>