<svg width="271" height="252" fill="none" xmlns="http://www.w3.org/2000/svg"><path d="M54.022 219.523c-9.19-21.12.147-39.867 23.536-52.948 23.334-13.05 60.375-20.266 105.619-18.473 45.244 1.793 89.974 12.25 125.682 27.641 35.793 15.426 62.056 35.584 71.244 56.704 9.189 21.12-.147 39.867-23.536 52.948-23.334 13.05-60.375 20.266-105.619 18.473-45.244-1.793-89.974-12.25-125.682-27.64-35.793-15.427-62.056-35.585-71.245-56.705z" stroke="#07BC7C" stroke-width="3"/><path d="M140.979 370.093c-13.695-18.519-18.023-51.344-13.49-90.057 4.522-38.621 17.826-82.591 38.889-122.673 21.062-40.082 45.827-68.556 68.791-82.24 23.018-13.717 43.919-12.43 57.614 6.089 13.695 18.518 18.023 51.343 13.49 90.056-4.522 38.622-17.826 82.591-38.889 122.673-21.063 40.083-45.827 68.556-68.791 82.24-23.019 13.717-43.919 12.43-57.614-6.088z" stroke="#07BC7C" stroke-width="3"/></svg>