<svg width="249" height="149" viewBox="0 0 249 149" fill="none" xmlns="http://www.w3.org/2000/svg">
<g filter="url(#filter0_d_7421_3922)">
<rect y="92.4121" width="171.799" height="55.0325" rx="12.6998" transform="rotate(-7.4959 0 92.4121)" fill="white" shape-rendering="crispEdges"/>
<path d="M31.7631 115.365C31.1103 115.451 30.6526 115.7 30.3898 116.111C30.1271 116.523 30.024 116.944 30.0806 117.375C30.1412 117.835 30.3516 118.229 30.7119 118.559C31.0723 118.889 31.5788 119.011 32.2316 118.925L42.379 117.59C43.0317 117.504 43.4969 117.254 43.7745 116.841C44.0521 116.427 44.1606 115.99 44.1001 115.53C44.0435 115.1 43.8276 114.721 43.4524 114.393C43.0772 114.065 42.5632 113.944 41.9105 114.03L31.7631 115.365ZM35.9836 121.805C36.0675 122.443 36.309 122.901 36.708 123.181C37.1198 123.444 37.5483 123.546 37.9934 123.487C38.4533 123.427 38.8482 123.216 39.1781 122.856C39.506 122.481 39.628 121.974 39.5441 121.336L38.2059 111.167C38.122 110.529 37.8731 110.071 37.4593 109.793C37.0455 109.516 36.6086 109.407 36.1487 109.468C35.7036 109.526 35.3171 109.743 34.9892 110.118C34.6761 110.492 34.5615 110.997 34.6454 111.635L35.9836 121.805ZM53.8216 113.753L53.7537 108.419C53.74 107.742 53.8923 107.178 54.2105 106.729C54.5267 106.265 55.0186 105.989 55.6862 105.901L64.5429 104.736C65.1512 104.656 65.6577 104.778 66.0626 105.102C66.4803 105.409 66.7292 105.867 66.8092 106.475C66.8893 107.083 66.7756 107.596 66.4684 108.014C66.1592 108.417 65.6931 108.659 65.07 108.741L57.8155 109.696L57.8418 111.616C58.0011 111.565 58.1975 111.509 58.4309 111.448C58.6644 111.387 58.9137 111.332 59.1788 111.282C59.4567 111.215 59.7366 111.163 60.0185 111.126C60.3133 111.072 60.5942 111.028 60.8612 110.993C61.8255 110.866 62.7273 110.838 63.5667 110.908C64.419 110.962 65.1682 111.15 65.8143 111.473C66.4733 111.779 67.0163 112.235 67.4434 112.843C67.8686 113.436 68.1446 114.215 68.2715 115.179C68.3867 116.055 68.3269 116.862 68.0923 117.603C67.8577 118.343 67.4536 119 66.8801 119.573C66.3046 120.132 65.5597 120.607 64.6454 120.999C63.744 121.374 62.6776 121.643 61.4462 121.805C60.0665 121.986 58.7747 121.975 57.5707 121.771C56.3667 121.568 55.3341 121.175 54.4728 120.594C54.0758 120.33 53.7816 120.044 53.5903 119.737C53.399 119.43 53.2913 119.127 53.2671 118.829C53.2339 118.577 53.2546 118.332 53.3291 118.096C53.4166 117.843 53.5312 117.624 53.6729 117.44C53.8275 117.238 54.0102 117.078 54.221 116.96C54.4299 116.827 54.6456 116.746 54.8681 116.716C55.1055 116.685 55.3561 116.698 55.62 116.753C55.8968 116.792 56.174 116.892 56.4516 117.051C56.744 117.209 57.079 117.346 57.4565 117.463C57.834 117.579 58.2309 117.67 58.647 117.736C59.0613 117.787 59.4809 117.823 59.9061 117.842C60.3441 117.845 60.7634 117.82 61.164 117.767C62.1431 117.638 62.847 117.425 63.2757 117.127C63.7172 116.812 63.9077 116.425 63.8472 115.965C63.7809 115.461 63.4947 115.121 62.9887 114.946C62.4808 114.756 61.6631 114.736 60.5356 114.884C60.1647 114.933 59.7735 114.999 59.3621 115.084C58.9486 115.153 58.5436 115.229 58.1469 115.312C57.7651 115.392 57.4055 115.47 57.0682 115.544C56.7438 115.602 56.4926 115.642 56.3146 115.666C55.6321 115.756 55.044 115.644 54.5501 115.332C54.0691 115.003 53.8263 114.477 53.8216 113.753ZM76.3486 111.4C76.5185 112.691 76.8339 113.826 77.295 114.807C77.7709 115.786 78.3756 116.597 79.1092 117.24C79.8557 117.866 80.7216 118.31 81.707 118.573C82.6904 118.821 83.7829 118.866 84.9846 118.708C86.1714 118.551 87.2068 118.219 88.0907 117.71C88.9745 117.202 89.695 116.541 90.2521 115.728C90.8092 114.915 91.1911 113.975 91.3976 112.906C91.6189 111.836 91.6467 110.67 91.4807 109.409C91.3109 108.118 90.9732 106.985 90.4676 106.011C89.9769 105.034 89.3509 104.233 88.5896 103.609C87.8431 102.983 86.9772 102.538 85.9918 102.276C85.0065 102.013 83.9426 101.957 82.8003 102.107C81.6876 102.253 80.6968 102.58 79.8277 103.087C78.9587 103.593 78.2372 104.247 77.6633 105.047C77.0894 105.847 76.6844 106.783 76.4482 107.855C76.212 108.928 76.1788 110.109 76.3486 111.4ZM80.7993 110.814C80.7095 110.132 80.6962 109.515 80.7594 108.963C80.8375 108.41 80.9867 107.937 81.2068 107.546C81.4251 107.14 81.7144 106.815 82.0747 106.572C82.4351 106.328 82.8526 106.175 83.3273 106.112C83.8021 106.05 84.2366 106.083 84.6309 106.213C85.04 106.34 85.409 106.563 85.7377 106.882C86.0664 107.201 86.3411 107.625 86.5616 108.154C86.7803 108.669 86.9364 109.282 87.0301 109.994C87.1316 110.766 87.1369 111.437 87.0459 112.007C86.9679 112.561 86.8177 113.026 86.5956 113.402C86.3735 113.778 86.0877 114.073 85.7383 114.285C85.3889 114.497 84.9916 114.632 84.5466 114.69C84.0867 114.751 83.6447 114.719 83.2208 114.593C82.8097 114.451 82.4397 114.221 82.111 113.902C81.7804 113.568 81.4983 113.145 81.2648 112.632C81.0462 112.117 80.891 111.512 80.7993 110.814ZM93.0602 109.201C93.23 110.492 93.5455 111.627 94.0065 112.608C94.4824 113.587 95.0872 114.398 95.8207 115.041C96.5672 115.667 97.4331 116.111 98.4185 116.374C99.4019 116.622 100.494 116.667 101.696 116.509C102.883 116.353 103.918 116.02 104.802 115.511C105.686 115.003 106.407 114.342 106.964 113.529C107.521 112.716 107.903 111.776 108.109 110.707C108.33 109.637 108.358 108.471 108.192 107.21C108.022 105.919 107.685 104.786 107.179 103.812C106.688 102.835 106.062 102.034 105.301 101.41C104.555 100.784 103.689 100.339 102.703 100.077C101.718 99.8139 100.654 99.7577 99.5118 99.908C98.3992 100.054 97.4083 100.381 96.5393 100.888C95.6702 101.394 94.9488 102.048 94.3749 102.848C93.801 103.648 93.3959 104.584 93.1597 105.656C92.9235 106.729 92.8904 107.91 93.0602 109.201ZM97.5108 108.615C97.421 107.933 97.4077 107.316 97.471 106.764C97.5491 106.211 97.6982 105.738 97.9184 105.347C98.1366 104.941 98.4259 104.616 98.7862 104.373C99.1466 104.129 99.5641 103.976 100.039 103.914C100.514 103.851 100.948 103.884 101.342 104.014C101.752 104.141 102.121 104.364 102.449 104.683C102.778 105.002 103.053 105.426 103.273 105.956C103.492 106.47 103.648 107.083 103.742 107.796C103.843 108.567 103.848 109.238 103.757 109.808C103.679 110.362 103.529 110.827 103.307 111.203C103.085 111.58 102.799 111.874 102.45 112.086C102.1 112.298 101.703 112.433 101.258 112.491C100.798 112.552 100.356 112.52 99.9323 112.394C99.5212 112.252 99.1513 112.022 98.8226 111.703C98.4919 111.369 98.2098 110.946 97.9764 110.433C97.7577 109.919 97.6025 109.313 97.5108 108.615ZM109.772 107.002C109.942 108.293 110.257 109.428 110.718 110.409C111.194 111.388 111.799 112.199 112.532 112.842C113.279 113.468 114.145 113.912 115.13 114.175C116.113 114.423 117.206 114.468 118.408 114.31C119.595 114.154 120.63 113.821 121.514 113.313C122.398 112.804 123.118 112.143 123.675 111.33C124.232 110.517 124.614 109.577 124.821 108.508C125.042 107.438 125.07 106.272 124.904 105.011C124.734 103.72 124.396 102.588 123.891 101.613C123.4 100.636 122.774 99.8354 122.013 99.2111C121.266 98.5849 120.4 98.1405 119.415 97.8777C118.43 97.615 117.366 97.5588 116.223 97.7091C115.111 97.8555 114.12 98.182 113.251 98.6888C112.382 99.1955 111.66 99.8489 111.086 100.649C110.513 101.449 110.107 102.385 109.871 103.457C109.635 104.53 109.602 105.711 109.772 107.002ZM114.222 106.416C114.133 105.734 114.119 105.117 114.183 104.565C114.261 104.012 114.41 103.539 114.63 103.148C114.848 102.742 115.137 102.417 115.498 102.174C115.858 101.93 116.276 101.777 116.75 101.715C117.225 101.652 117.66 101.686 118.054 101.815C118.463 101.942 118.832 102.165 119.161 102.484C119.489 102.803 119.764 103.227 119.985 103.757C120.203 104.271 120.36 104.885 120.453 105.597C120.555 106.368 120.56 107.039 120.469 107.609C120.391 108.163 120.241 108.628 120.019 109.004C119.797 109.381 119.511 109.675 119.161 109.887C118.812 110.099 118.415 110.234 117.97 110.293C117.51 110.353 117.068 110.321 116.644 110.195C116.233 110.053 115.863 109.823 115.534 109.504C115.203 109.17 114.921 108.747 114.688 108.234C114.469 107.72 114.314 107.114 114.222 106.416ZM139.354 98.7404L140.719 109.11C140.806 109.778 140.692 110.344 140.376 110.808C140.058 111.257 139.565 111.526 138.897 111.614C138.23 111.702 137.684 111.57 137.261 111.218C136.835 110.851 136.578 110.334 136.491 109.667L134.921 97.739C134.833 97.0715 134.963 96.511 135.311 96.0578C135.672 95.5877 136.186 95.3088 136.854 95.2209L141.237 94.6441C142.128 94.527 142.949 94.517 143.701 94.6142C144.451 94.6966 145.104 94.8975 145.659 95.2168C146.227 95.5194 146.689 95.934 147.046 96.4607C147.402 96.9873 147.629 97.6289 147.729 98.3855C147.85 99.3053 147.788 100.098 147.544 100.764C147.312 101.414 146.947 101.96 146.446 102.403C145.959 102.829 145.369 103.163 144.677 103.405C143.999 103.645 143.267 103.817 142.481 103.921L138.942 104.386L138.445 100.603L142.094 100.123C142.584 100.059 142.954 99.9495 143.206 99.7957C143.457 99.6419 143.56 99.3944 143.515 99.0531C143.467 98.6823 143.295 98.4709 143.002 98.4189C142.721 98.3502 142.343 98.3471 141.869 98.4096L139.354 98.7404ZM134.995 101.057L135.952 100.931C136.65 100.839 137.194 100.964 137.586 101.305C137.978 101.646 138.205 102.053 138.268 102.528C138.332 103.018 138.22 103.485 137.932 103.931C137.641 104.361 137.147 104.622 136.45 104.714L135.493 104.84C134.796 104.932 134.251 104.807 133.859 104.467C133.48 104.109 133.259 103.685 133.194 103.196C133.132 102.721 133.238 102.269 133.514 101.841C133.804 101.41 134.298 101.149 134.995 101.057ZM135.599 105.641L143.454 104.608C144.151 104.516 144.697 104.648 145.091 105.003C145.483 105.344 145.709 105.745 145.769 106.205C145.834 106.694 145.722 107.162 145.433 107.607C145.143 108.038 144.649 108.299 143.952 108.391L136.096 109.424C135.399 109.516 134.855 109.391 134.463 109.051C134.083 108.693 133.862 108.269 133.797 107.78C133.737 107.32 133.852 106.875 134.142 106.444C134.431 105.999 134.916 105.731 135.599 105.641Z" fill="#FF6900"/>
</g>
<g filter="url(#filter1_d_7421_3922)">
<rect x="66.2441" width="188.799" height="55.0325" rx="12.6998" transform="rotate(15 66.2441 0)" fill="white" shape-rendering="crispEdges"/>
<path d="M86.8779 33.378C86.242 33.2076 85.7238 33.2624 85.3235 33.5424C84.9232 33.8224 84.6668 34.172 84.5545 34.5911C84.4345 35.0392 84.4778 35.4846 84.6845 35.9272C84.8912 36.3699 85.3125 36.6764 85.9485 36.8468L95.8346 39.4958C96.4705 39.6662 96.9959 39.6133 97.4107 39.3372C97.8255 39.0611 98.0929 38.699 98.213 38.2509C98.3253 37.8318 98.2709 37.3989 98.0497 36.9524C97.8286 36.5059 97.4 36.1974 96.7641 36.027L86.8779 33.378ZM88.3132 40.9427C88.1467 41.5642 88.1943 42.0804 88.456 42.4913C88.736 42.8917 89.0928 43.1499 89.5264 43.2661C89.9744 43.3862 90.4198 43.3429 90.8624 43.1362C91.309 42.915 91.6155 42.4937 91.782 41.8722L94.4368 31.9644C94.6034 31.3429 94.5486 30.8247 94.2724 30.4099C93.9963 29.9952 93.6342 29.7277 93.1861 29.6077C92.7525 29.4915 92.3125 29.544 91.8659 29.7651C91.4339 29.9902 91.1345 30.4134 90.968 31.0349L88.3132 40.9427ZM121.468 41.3685C121.213 42.3224 120.809 43.1051 120.258 43.7165C119.726 44.3173 119.106 44.8096 118.399 45.1933C117.692 45.577 116.935 45.8855 116.129 46.1188C115.323 46.352 114.521 46.5708 113.723 46.7752L118.579 48.0764C119.186 48.2391 119.614 48.5476 119.865 49.0018C120.118 49.4417 120.166 49.9579 120.007 50.5505C119.848 51.1431 119.54 51.5716 119.082 51.8361C118.642 52.0901 118.126 52.1376 117.533 51.9789L106.932 49.1382C106.281 48.9639 105.804 48.6347 105.5 48.1504C105.214 47.6556 105.147 47.1264 105.298 46.5627C105.414 46.1291 105.589 45.7963 105.821 45.5643C106.058 45.3178 106.366 45.1215 106.746 44.9755C107.144 44.8189 107.638 44.6802 108.228 44.5594C108.818 44.4387 109.522 44.2708 110.338 44.0559C111.567 43.7499 112.588 43.4658 113.402 43.2037C114.215 42.9415 114.873 42.684 115.375 42.4311C115.88 42.1637 116.255 41.8924 116.499 41.617C116.743 41.3416 116.908 41.0449 116.993 40.727C117.125 40.2356 117.009 39.7708 116.646 39.3328C116.298 38.8986 115.748 38.5809 114.996 38.3795C114.302 38.1936 113.619 38.173 112.945 38.3178C112.285 38.4664 111.61 38.6728 110.92 38.937C110.679 39.0273 110.44 39.0796 110.204 39.0938C109.982 39.1118 109.777 39.0957 109.59 39.0453C109.311 38.9862 109.07 38.8751 108.866 38.7119C108.676 38.5526 108.518 38.3631 108.391 38.1431C108.268 37.9088 108.186 37.6624 108.147 37.404C108.108 37.1457 108.13 36.8884 108.215 36.6321C108.284 36.3719 108.405 36.1253 108.576 35.8922C108.765 35.6486 109.022 35.4388 109.348 35.2628C110.326 34.7348 111.423 34.4012 112.637 34.2619C113.866 34.1265 115.146 34.237 116.475 34.5933C117.473 34.8605 118.329 35.2215 119.043 35.6763C119.762 36.1167 120.338 36.6273 120.771 37.2081C121.204 37.7888 121.48 38.4359 121.598 39.1493C121.721 39.8483 121.678 40.588 121.468 41.3685ZM123.067 45.0267C122.73 46.2841 122.587 47.4541 122.638 48.5366C122.703 49.6229 122.951 50.6035 123.383 51.4782C123.833 52.3424 124.463 53.0844 125.273 53.7042C126.087 54.3095 127.079 54.769 128.25 55.0827C129.406 55.3925 130.49 55.4815 131.501 55.3497C132.512 55.2179 133.431 54.8831 134.256 54.3453C135.082 53.8075 135.795 53.0845 136.394 52.1762C137.009 51.2719 137.48 50.2055 137.809 48.9769C138.146 47.7195 138.268 46.5437 138.174 45.4496C138.094 44.3594 137.822 43.3802 137.357 42.5122C136.907 41.648 136.277 40.9061 135.467 40.2863C134.658 39.6665 133.696 39.2075 132.583 38.9093C131.499 38.6189 130.459 38.5415 129.462 38.6772C128.465 38.8128 127.549 39.1404 126.712 39.6599C125.876 40.1794 125.144 40.8894 124.515 41.7898C123.887 42.6903 123.404 43.7692 123.067 45.0267ZM127.403 46.1885C127.581 45.5237 127.805 44.9485 128.074 44.463C128.358 43.9814 128.677 43.6021 129.03 43.3249C129.387 43.0333 129.779 42.8439 130.205 42.7567C130.631 42.6695 131.075 42.6878 131.538 42.8117C132 42.9357 132.389 43.1328 132.704 43.403C133.033 43.6772 133.289 44.0245 133.47 44.4449C133.652 44.8654 133.743 45.3624 133.745 45.9359C133.75 46.4949 133.659 47.1213 133.473 47.8151C133.272 48.5667 133.02 49.1885 132.718 49.6807C132.434 50.1623 132.117 50.5345 131.768 50.7972C131.419 51.0599 131.042 51.2224 130.638 51.2845C130.234 51.3467 129.816 51.3197 129.382 51.2035C128.934 51.0834 128.538 50.8844 128.194 50.6064C127.869 50.3178 127.615 49.9633 127.434 49.5428C127.256 49.1079 127.157 48.609 127.138 48.0461C127.132 47.487 127.221 46.8678 127.403 46.1885ZM145.869 51.1365C145.532 52.394 145.389 53.5639 145.44 54.6464C145.505 55.7328 145.754 56.7133 146.185 57.5881C146.635 58.4522 147.265 59.1942 148.075 59.814C148.889 60.4193 149.881 60.8788 151.052 61.1925C152.208 61.5023 153.292 61.5913 154.303 61.4595C155.314 61.3277 156.233 60.9929 157.059 60.4551C157.884 59.9173 158.597 59.1943 159.197 58.2861C159.811 57.3817 160.282 56.3153 160.612 55.0868C160.949 53.8293 161.07 52.6535 160.976 51.5594C160.896 50.4692 160.624 49.4901 160.16 48.622C159.71 47.7579 159.08 47.0159 158.27 46.3961C157.46 45.7763 156.498 45.3174 155.385 45.0192C154.301 44.7287 153.261 44.6513 152.264 44.787C151.267 44.9227 150.351 45.2502 149.515 45.7697C148.678 46.2892 147.946 46.9992 147.317 47.8997C146.689 48.8001 146.206 49.8791 145.869 51.1365ZM150.205 52.2984C150.383 51.6335 150.607 51.0583 150.877 50.5729C151.161 50.0913 151.479 49.7119 151.832 49.4347C152.189 49.1431 152.581 48.9537 153.007 48.8665C153.433 48.7793 153.877 48.7976 154.34 48.9216C154.802 49.0455 155.191 49.2426 155.506 49.5129C155.835 49.787 156.091 50.1343 156.272 50.5548C156.454 50.9752 156.546 51.4722 156.547 52.0457C156.552 52.6048 156.461 53.2312 156.276 53.9249C156.074 54.6765 155.822 55.2984 155.52 55.7906C155.236 56.2721 154.92 56.6443 154.57 56.907C154.221 57.1697 153.844 57.3322 153.441 57.3944C153.037 57.4565 152.618 57.4295 152.184 57.3133C151.736 57.1933 151.34 56.9942 150.996 56.7162C150.671 56.4277 150.417 56.0731 150.236 55.6527C150.058 55.2177 149.959 54.7188 149.94 54.1559C149.935 53.5968 150.023 52.9777 150.205 52.2984ZM162.15 55.4991C161.813 56.7565 161.67 57.9265 161.721 59.009C161.786 60.0953 162.035 61.0759 162.467 61.9506C162.917 62.8148 163.547 63.5568 164.356 64.1765C165.17 64.7819 166.162 65.2414 167.333 65.5551C168.489 65.8649 169.573 65.9539 170.584 65.8221C171.596 65.6903 172.514 65.3555 173.34 64.8177C174.166 64.2798 174.878 63.5568 175.478 62.6486C176.092 61.7443 176.564 60.6778 176.893 59.4493C177.23 58.1919 177.351 57.0161 177.257 55.922C177.177 54.8318 176.905 53.8526 176.441 52.9846C175.991 52.1204 175.361 51.3784 174.551 50.7587C173.741 50.1389 172.78 49.6799 171.667 49.3817C170.583 49.0912 169.542 49.0139 168.546 49.1495C167.549 49.2852 166.632 49.6128 165.796 50.1323C164.96 50.6518 164.227 51.3617 163.599 52.2622C162.97 53.1627 162.487 54.2416 162.15 55.4991ZM166.486 56.6609C166.665 55.9961 166.888 55.4209 167.158 54.9354C167.442 54.4538 167.76 54.0744 168.113 53.7973C168.47 53.5056 168.862 53.3162 169.288 53.229C169.714 53.1418 170.159 53.1602 170.621 53.2841C171.084 53.4081 171.472 53.6051 171.787 53.8754C172.116 54.1495 172.372 54.4968 172.554 54.9173C172.735 55.3378 172.827 55.8348 172.828 56.4083C172.833 56.9673 172.743 57.5937 172.557 58.2875C172.355 59.0391 172.104 59.6609 171.801 60.1531C171.517 60.6347 171.201 61.0069 170.852 61.2696C170.502 61.5323 170.126 61.6947 169.722 61.7569C169.318 61.8191 168.899 61.7921 168.465 61.6759C168.017 61.5558 167.622 61.3568 167.278 61.0788C166.952 60.7902 166.699 60.4357 166.517 60.0152C166.339 59.5803 166.241 59.0814 166.221 58.5184C166.216 57.9594 166.304 57.3402 166.486 56.6609ZM178.432 59.8616C178.095 61.1191 177.952 62.289 178.002 63.3715C178.068 64.4579 178.316 65.4384 178.748 66.3132C179.198 67.1773 179.828 67.9193 180.638 68.5391C181.451 69.1444 182.444 69.6039 183.614 69.9176C184.771 70.2274 185.854 70.3164 186.866 70.1846C187.877 70.0528 188.795 69.718 189.621 69.1802C190.447 68.6424 191.16 67.9194 191.759 67.0112C192.373 66.1068 192.845 65.0404 193.174 63.8119C193.511 62.5544 193.632 61.3786 193.538 60.2845C193.459 59.1943 193.187 58.2152 192.722 57.3471C192.272 56.483 191.642 55.741 190.832 55.1212C190.022 54.5014 189.061 54.0425 187.948 53.7443C186.864 53.4538 185.824 53.3764 184.827 53.5121C183.83 53.6478 182.913 53.9753 182.077 54.4948C181.241 55.0143 180.508 55.7243 179.88 56.6248C179.251 57.5252 178.769 58.6042 178.432 59.8616ZM182.768 61.0235C182.946 60.3586 183.17 59.7834 183.439 59.298C183.723 58.8164 184.042 58.437 184.395 58.1598C184.752 57.8682 185.143 57.6788 185.569 57.5916C185.996 57.5044 186.44 57.5227 186.902 57.6467C187.365 57.7706 187.754 57.9677 188.068 58.238C188.398 58.5121 188.653 58.8594 188.835 59.2798C189.017 59.7003 189.108 60.1973 189.109 60.7708C189.114 61.3298 189.024 61.9563 188.838 62.65C188.637 63.4016 188.385 64.0235 188.083 64.5156C187.799 64.9972 187.482 65.3694 187.133 65.6321C186.784 65.8948 186.407 66.0573 186.003 66.1194C185.599 66.1816 185.18 66.1546 184.747 66.0384C184.299 65.9184 183.903 65.7193 183.559 65.4413C183.234 65.1527 182.98 64.7982 182.798 64.3778C182.621 63.9428 182.522 63.4439 182.502 62.881C182.497 62.3219 182.586 61.7028 182.768 61.0235ZM208.924 63.5474L206.217 73.6503C206.043 74.3007 205.721 74.7798 205.251 75.0877C204.785 75.3811 204.227 75.4407 203.576 75.2664C202.926 75.0922 202.472 74.7615 202.216 74.2744C201.963 73.7729 201.924 73.197 202.098 72.5466L205.211 60.926C205.386 60.2756 205.72 59.8076 206.215 59.5219C206.728 59.2256 207.31 59.1647 207.96 59.3389L212.231 60.4833C213.099 60.7157 213.861 61.0207 214.519 61.3984C215.181 61.7616 215.707 62.1969 216.098 62.7044C216.507 63.2013 216.775 63.7611 216.902 64.3839C217.03 65.0067 216.995 65.6867 216.797 66.4238C216.557 67.3199 216.197 68.0289 215.716 68.5508C215.254 69.062 214.707 69.4267 214.075 69.6447C213.462 69.8522 212.789 69.9352 212.057 69.8939C211.339 69.8564 210.597 69.735 209.831 69.5297L206.384 68.6061L207.371 64.9205L210.927 65.8732C211.404 66.001 211.788 66.0419 212.079 65.996C212.37 65.9501 212.56 65.7609 212.649 65.4285C212.746 65.0671 212.669 64.8063 212.417 64.646C212.184 64.4751 211.836 64.3277 211.374 64.2038L208.924 63.5474ZM204.011 64.0201L204.943 64.2698C205.622 64.4519 206.078 64.7753 206.309 65.2402C206.541 65.705 206.595 66.1687 206.471 66.6312C206.343 67.1082 206.061 67.4973 205.624 67.7984C205.191 68.0851 204.635 68.1375 203.955 67.9555L203.023 67.7057C202.344 67.5236 201.888 67.2002 201.657 66.7353C201.443 66.2599 201.4 65.7837 201.528 65.3067C201.652 64.8442 201.923 64.4677 202.342 64.1771C202.775 63.8904 203.331 63.838 204.011 64.0201ZM202.814 68.4862L210.467 70.5368C211.146 70.7188 211.6 71.0495 211.828 71.5288C212.06 71.9937 212.115 72.4501 211.995 72.8982C211.868 73.3751 211.585 73.7642 211.148 74.0654C210.715 74.3521 210.159 74.4044 209.479 74.2224L201.826 72.1718C201.147 71.9897 200.692 71.6663 200.46 71.2014C200.246 70.726 200.204 70.2498 200.331 69.7728C200.451 69.3248 200.728 68.9574 201.161 68.6707C201.598 68.3695 202.149 68.308 202.814 68.4862Z" fill="#FF6900"/>
</g>
<defs>
<filter id="filter0_d_7421_3922" x="-1.05832" y="68.9417" width="181.744" height="81.2076" filterUnits="userSpaceOnUse" color-interpolation-filters="sRGB">
<feFlood flood-opacity="0" result="BackgroundImageFix"/>
<feColorMatrix in="SourceAlpha" type="matrix" values="0 0 0 0 0 0 0 0 0 0 0 0 0 0 0 0 0 0 127 0" result="hardAlpha"/>
<feOffset dx="1.05832" dy="1.05832"/>
<feGaussianBlur stdDeviation="1.05832"/>
<feComposite in2="hardAlpha" operator="out"/>
<feColorMatrix type="matrix" values="0 0 0 0 0 0 0 0 0 0 0 0 0 0 0 0 0 0 0.25 0"/>
<feBlend mode="normal" in2="BackgroundImageFix" result="effect1_dropShadow_7421_3922"/>
<feBlend mode="normal" in="SourceGraphic" in2="effect1_dropShadow_7421_3922" result="shape"/>
</filter>
<filter id="filter1_d_7421_3922" x="50.9424" y="-1.05832" width="200.843" height="106.255" filterUnits="userSpaceOnUse" color-interpolation-filters="sRGB">
<feFlood flood-opacity="0" result="BackgroundImageFix"/>
<feColorMatrix in="SourceAlpha" type="matrix" values="0 0 0 0 0 0 0 0 0 0 0 0 0 0 0 0 0 0 127 0" result="hardAlpha"/>
<feOffset dx="1.05832" dy="1.05832"/>
<feGaussianBlur stdDeviation="1.05832"/>
<feComposite in2="hardAlpha" operator="out"/>
<feColorMatrix type="matrix" values="0 0 0 0 0 0 0 0 0 0 0 0 0 0 0 0 0 0 0.25 0"/>
<feBlend mode="normal" in2="BackgroundImageFix" result="effect1_dropShadow_7421_3922"/>
<feBlend mode="normal" in="SourceGraphic" in2="effect1_dropShadow_7421_3922" result="shape"/>
</filter>
</defs>
</svg>
