<svg width="42" height="113" viewBox="0 0 42 113" fill="none" xmlns="http://www.w3.org/2000/svg">
<path d="M1.32528 0.0543823C0.80303 -0.125265 0.234029 0.15247 0.0543823 0.67472C-0.125265 1.19697 0.15247 1.76597 0.67472 1.94562L1.32528 0.0543823ZM7.02816 110.993C7.02424 111.545 7.46876 111.996 8.02103 112L17.0208 112.064C17.5731 112.068 18.024 111.623 18.0279 111.071C18.0318 110.519 17.5873 110.068 17.035 110.064L9.03521 110.007L9.09206 102.007C9.09598 101.455 8.65146 101.004 8.09919 101C7.54692 100.996 7.09603 101.441 7.09211 101.993L7.02816 110.993ZM0.67472 1.94562C20.7674 8.85722 35.8347 22.6627 39.2609 41.2121C42.6877 59.7654 34.5422 83.4558 7.32607 110.288L8.7302 111.712C36.1762 84.6534 44.8258 60.3299 41.2276 40.8489C37.6287 21.3641 21.851 7.11496 1.32528 0.0543823L0.67472 1.94562Z" fill="white"/>
</svg>
