<svg width="43" height="56" viewBox="0 0 43 56" fill="none" xmlns="http://www.w3.org/2000/svg">
<path d="M1.15448 0.0120042C0.608826 -0.0733131 0.0973215 0.299864 0.0120042 0.845519C-0.0733131 1.39117 0.299864 1.90268 0.845519 1.988L1.15448 0.0120042ZM7.09369 50.6439C6.89702 51.16 7.15595 51.7378 7.67203 51.9344L16.082 55.1394C16.5981 55.3361 17.1759 55.0772 17.3726 54.5611C17.5693 54.045 17.3103 53.4672 16.7942 53.2705L9.31869 50.4217L12.1675 42.9461C12.3642 42.43 12.1053 41.8522 11.5892 41.6556C11.0731 41.4589 10.4953 41.7178 10.2987 42.2339L7.09369 50.6439ZM0.845519 1.988C10.9473 3.56749 19.7862 5.93655 26.5109 8.9592C33.2792 12.0014 37.711 15.6179 39.3178 19.5721C40.8706 23.3935 39.9028 27.8774 34.9778 33.0574C30.0345 38.2566 21.2422 43.9825 7.61919 50.0874L8.43708 51.9126C22.1451 45.7696 31.2171 39.9154 36.4272 34.4355C41.6556 28.9364 43.1304 23.642 41.1707 18.8192C39.265 14.1294 34.2292 10.2357 27.3308 7.135C20.3889 4.01471 11.3619 1.60801 1.15448 0.0120042L0.845519 1.988Z" fill="white"/>
</svg>
