<svg width="162" height="138" viewBox="0 0 162 138" fill="none" xmlns="http://www.w3.org/2000/svg">
<g clip-path="url(#clip0_416_3739)">
<path d="M87.4911 118.983L90.485 125.86L87.4911 118.983L58.6124 131.557L61.45 120.966C63.0315 115.064 59.5288 108.997 53.6264 107.416L45.5933 105.263C36.9184 102.939 31.7703 94.022 34.0947 85.347L46.3945 39.4435C48.719 30.7685 57.6357 25.6205 66.3107 27.9449L135.166 46.3946C143.841 48.7191 148.989 57.6358 146.665 66.3107L134.365 112.214C132.04 120.889 123.124 126.037 114.449 123.713L94.7715 118.44C92.3531 117.792 89.7865 117.984 87.4911 118.983Z" fill="#FFD2B3" stroke="#FFD2B3" stroke-width="15"/>
<path d="M72.0444 52.4655C68.8754 51.6163 65.6181 53.4969 64.7689 56.6659C63.9198 59.8349 65.8004 63.0922 68.9694 63.9413L114.873 76.2412C118.042 77.0903 121.299 75.2097 122.148 72.0407C122.998 68.8717 121.117 65.6144 117.948 64.7653L72.0444 52.4655Z" fill="#F3F3F7"/>
<path d="M65.8945 75.4172C62.7255 74.5681 59.4682 76.4487 58.619 79.6177C57.7699 82.7867 59.6505 86.044 62.8195 86.8931L108.723 99.193C111.892 100.042 115.149 98.1615 115.998 94.9925C116.848 91.8235 114.967 88.5662 111.798 87.7171L65.8945 75.4172Z" fill="#F3F3F7"/>
</g>
<defs>
<clipPath id="clip0_416_3739">
<rect width="142.569" height="142.569" fill="white" transform="translate(36.8994) rotate(15)"/>
</clipPath>
</defs>
</svg>
